<svg width="152" height="40" viewBox="0 0 152 40" fill="none" xmlns="http://www.w3.org/2000/svg">
<g clip-path="url(#clip0_1228_388)">
<path d="M28.1852 28.1331L18.9236 14.9847C18.9236 14.9847 16.2507 10.6331 10.309 10.6331C10.309 10.6331 1.04739 10.8286 0.00886477 20.3733C0.00886477 20.3733 -0.731721 29.663 9.06615 31.4989C9.06615 31.4989 12.386 32.1873 15.3994 30.4109L19.4599 27.6402L16.438 23.2885L12.9393 25.8128C12.9393 25.8128 10.9559 27.0452 8.964 26.3228C7.93399 25.9488 6.87844 25.5154 5.95909 23.8835C5.95909 23.8835 4.62263 21.8097 5.82289 18.7754C6.20595 17.798 7.24448 16.6166 8.52986 16.2766C8.52986 16.2766 12.5903 14.7467 15.5101 19.1919L20.7112 26.6033L20.7623 26.6713C22.4052 29.1191 25.7251 29.7735 28.1852 28.1331Z" fill="#007AFF"/>
<path d="M20.0732 14.1264L29.3348 27.2748C29.3348 27.2748 32.0077 31.6265 37.9495 31.6265C37.9495 31.6265 47.2111 31.431 48.2496 21.8863C48.2496 21.8863 48.9902 12.5965 39.1923 10.7607C39.1923 10.7607 35.8724 10.0722 32.859 11.8486L28.7985 14.6194L31.8205 18.971L35.3361 16.4467C35.3361 16.4467 37.3195 15.2143 39.3115 15.9367C40.3415 16.3107 41.397 16.7442 42.3164 18.376C42.3164 18.376 43.6528 20.4499 42.4526 23.4841C42.0695 24.4615 41.031 25.643 39.7456 25.9829C39.7456 25.9829 35.6851 27.5128 32.7654 23.0677L27.5642 15.6563L27.5132 15.5883C25.8617 13.1405 22.5333 12.486 20.0732 14.1264Z" fill="#007AFF"/>
</g>
<path d="M63.2496 30.3036C61.5797 30.3036 60.0941 30.0325 58.7929 29.4903C57.4989 28.9409 56.4832 28.1927 55.7458 27.2457C55.0085 26.2987 54.6398 25.2252 54.6398 24.0252C54.6398 23.0998 54.8494 22.2504 55.2687 21.4769C55.6952 20.6962 56.2735 20.0492 57.0037 19.5359C57.7338 19.0154 58.5507 18.6829 59.4543 18.5383V18.3865C58.2688 18.1479 57.3073 17.5732 56.5699 16.6623C55.8326 15.7442 55.4639 14.6779 55.4639 13.4635C55.4639 12.314 55.8 11.2911 56.4723 10.3947C57.1447 9.49106 58.0664 8.78261 59.2375 8.26935C60.4158 7.74885 61.7532 7.48861 63.2496 7.48861C64.746 7.48861 66.0798 7.74885 67.2509 8.26935C68.4293 8.78984 69.3546 9.50191 70.0269 10.4055C70.6992 11.302 71.039 12.3213 71.0462 13.4635C71.039 14.6852 70.6631 15.7515 69.9185 16.6623C69.1739 17.5732 68.2196 18.1479 67.0557 18.3865V18.5383C67.9449 18.6829 68.751 19.0154 69.4739 19.5359C70.204 20.0492 70.7823 20.6962 71.2089 21.4769C71.6426 22.2504 71.8631 23.0998 71.8703 24.0252C71.8631 25.2252 71.4908 26.2987 70.7534 27.2457C70.0161 28.1927 68.9968 28.9409 67.6955 29.4903C66.4015 30.0325 64.9195 30.3036 63.2496 30.3036ZM63.2496 26.8553C63.9942 26.8553 64.6448 26.7216 65.2015 26.4541C65.7581 26.1794 66.1919 25.8035 66.5027 25.3264C66.8208 24.842 66.9798 24.2854 66.9798 23.6565C66.9798 23.0131 66.8172 22.4456 66.4919 21.954C66.1666 21.4552 65.7256 21.0648 65.1689 20.7829C64.6123 20.4937 63.9725 20.3492 63.2496 20.3492C62.5339 20.3492 61.8942 20.4937 61.3303 20.7829C60.7664 21.0648 60.3218 21.4552 59.9965 21.954C59.6785 22.4456 59.5194 23.0131 59.5194 23.6565C59.5194 24.2854 59.6748 24.842 59.9857 25.3264C60.2965 25.8035 60.7339 26.1794 61.2978 26.4541C61.8616 26.7216 62.5123 26.8553 63.2496 26.8553ZM63.2496 16.9334C63.8713 16.9334 64.4244 16.8069 64.9087 16.5539C65.393 16.3009 65.7726 15.9503 66.0473 15.5021C66.322 15.0539 66.4593 14.537 66.4593 13.9514C66.4593 13.3731 66.322 12.867 66.0473 12.4333C65.7726 11.9923 65.3967 11.6489 64.9195 11.4032C64.4424 11.1501 63.8858 11.0236 63.2496 11.0236C62.6207 11.0236 62.0641 11.1501 61.5797 11.4032C61.0954 11.6489 60.7158 11.9923 60.4411 12.4333C60.1736 12.867 60.0399 13.3731 60.0399 13.9514C60.0399 14.537 60.1773 15.0539 60.452 15.5021C60.7267 15.9503 61.1062 16.3009 61.5905 16.5539C62.0749 16.8069 62.6279 16.9334 63.2496 16.9334ZM78.4822 30L73.9496 13.3442H78.6232L81.204 24.5348H81.3558L84.045 13.3442H88.6319L91.3645 24.4697H91.5054L94.0428 13.3442H98.7056L94.1838 30H89.2933L86.4306 19.525H86.2246L83.3619 30H78.4822ZM109.411 30.3036C107.741 30.3036 106.255 30.0325 104.954 29.4903C103.66 28.9409 102.645 28.1927 101.907 27.2457C101.17 26.2987 100.801 25.2252 100.801 24.0252C100.801 23.0998 101.011 22.2504 101.43 21.4769C101.857 20.6962 102.435 20.0492 103.165 19.5359C103.895 19.0154 104.712 18.6829 105.616 18.5383V18.3865C104.43 18.1479 103.469 17.5732 102.731 16.6623C101.994 15.7442 101.625 14.6779 101.625 13.4635C101.625 12.314 101.961 11.2911 102.634 10.3947C103.306 9.49106 104.228 8.78261 105.399 8.26935C106.577 7.74885 107.915 7.48861 109.411 7.48861C110.907 7.48861 112.241 7.74885 113.412 8.26935C114.591 8.78984 115.516 9.50191 116.188 10.4055C116.861 11.302 117.2 12.3213 117.208 13.4635C117.2 14.6852 116.824 15.7515 116.08 16.6623C115.335 17.5732 114.381 18.1479 113.217 18.3865V18.5383C114.106 18.6829 114.912 19.0154 115.635 19.5359C116.365 20.0492 116.944 20.6962 117.37 21.4769C117.804 22.2504 118.024 23.0998 118.032 24.0252C118.024 25.2252 117.652 26.2987 116.915 27.2457C116.177 28.1927 115.158 28.9409 113.857 29.4903C112.563 30.0325 111.081 30.3036 109.411 30.3036ZM109.411 26.8553C110.156 26.8553 110.806 26.7216 111.363 26.4541C111.919 26.1794 112.353 25.8035 112.664 25.3264C112.982 24.842 113.141 24.2854 113.141 23.6565C113.141 23.0131 112.979 22.4456 112.653 21.954C112.328 21.4552 111.887 21.0648 111.33 20.7829C110.774 20.4937 110.134 20.3492 109.411 20.3492C108.695 20.3492 108.056 20.4937 107.492 20.7829C106.928 21.0648 106.483 21.4552 106.158 21.954C105.84 22.4456 105.681 23.0131 105.681 23.6565C105.681 24.2854 105.836 24.842 106.147 25.3264C106.458 25.8035 106.895 26.1794 107.459 26.4541C108.023 26.7216 108.674 26.8553 109.411 26.8553ZM109.411 16.9334C110.033 16.9334 110.586 16.8069 111.07 16.5539C111.554 16.3009 111.934 15.9503 112.209 15.5021C112.483 15.0539 112.621 14.537 112.621 13.9514C112.621 13.3731 112.483 12.867 112.209 12.4333C111.934 11.9923 111.558 11.6489 111.081 11.4032C110.604 11.1501 110.047 11.0236 109.411 11.0236C108.782 11.0236 108.225 11.1501 107.741 11.4032C107.257 11.6489 106.877 11.9923 106.602 12.4333C106.335 12.867 106.201 13.3731 106.201 13.9514C106.201 14.537 106.339 15.0539 106.613 15.5021C106.888 15.9503 107.268 16.3009 107.752 16.5539C108.236 16.8069 108.789 16.9334 109.411 16.9334ZM121.358 30V13.3442H125.836V16.2503H126.01C126.314 15.2165 126.823 14.4358 127.539 13.908C128.255 13.3731 129.079 13.1056 130.011 13.1056C130.243 13.1056 130.492 13.1201 130.759 13.149C131.027 13.1779 131.262 13.2177 131.464 13.2683V17.3672C131.247 17.3021 130.947 17.2443 130.564 17.1937C130.181 17.1431 129.83 17.1178 129.512 17.1178C128.833 17.1178 128.226 17.266 127.691 17.5623C127.163 17.8515 126.744 18.2563 126.433 18.7768C126.129 19.2973 125.977 19.8973 125.977 20.5769V30H121.358ZM140.668 30.3253C138.954 30.3253 137.48 29.9783 136.244 29.2843C135.015 28.5831 134.068 27.5927 133.403 26.3132C132.737 25.0264 132.405 23.5047 132.405 21.748C132.405 20.0347 132.737 18.531 133.403 17.237C134.068 15.943 135.004 14.9346 136.211 14.2117C137.426 13.4888 138.85 13.1273 140.483 13.1273C141.582 13.1273 142.605 13.3044 143.552 13.6586C144.506 14.0056 145.338 14.5297 146.046 15.231C146.762 15.9322 147.319 16.8141 147.716 17.8768C148.114 18.9323 148.313 20.1684 148.313 21.5853V22.854H134.248V19.9913H143.964C143.964 19.3262 143.82 18.7371 143.531 18.2238C143.241 17.7105 142.84 17.3093 142.327 17.0202C141.821 16.7238 141.232 16.5756 140.559 16.5756C139.858 16.5756 139.236 16.7382 138.694 17.0635C138.159 17.3816 137.74 17.8117 137.436 18.3539C137.133 18.8889 136.977 19.4853 136.97 20.1431V22.8649C136.97 23.689 137.122 24.4011 137.426 25.0011C137.736 25.6011 138.174 26.0638 138.738 26.3891C139.301 26.7144 139.97 26.877 140.744 26.877C141.257 26.877 141.727 26.8047 142.153 26.6602C142.58 26.5156 142.945 26.2987 143.249 26.0095C143.552 25.7204 143.784 25.3662 143.943 24.9469L148.215 25.2288C147.998 26.2553 147.553 27.1517 146.881 27.918C146.216 28.6771 145.356 29.2699 144.3 29.6964C143.252 30.1157 142.041 30.3253 140.668 30.3253Z" fill="#101223"/>
<defs>
<clipPath id="clip0_1228_388">
<rect width="20.9933" height="48.2573" fill="white" transform="translate(0 31.6262) rotate(-90)"/>
</clipPath>
</defs>
</svg>
