<svg width="88" height="88" viewBox="0 0 88 88" fill="none" xmlns="http://www.w3.org/2000/svg">
<path d="M0 44C0 19.6995 19.6995 0 44 0V0C68.3005 0 88 19.6995 88 44V44C88 68.3005 68.3005 88 44 88V88C19.6995 88 0 68.3005 0 44V44Z" fill="#F0F1F8"/>
<path fill-rule="evenodd" clip-rule="evenodd" d="M55.3137 22.6863C61.5621 28.9347 61.5621 39.0653 55.3137 45.3137C49.0653 51.5621 38.9347 51.5621 32.6863 45.3137C26.4379 39.0653 26.4379 28.9347 32.6863 22.6863C38.9347 16.4379 49.0653 16.4379 55.3137 22.6863" fill="#B3B5BD"/>
<path fill-rule="evenodd" clip-rule="evenodd" d="M11.0161 73.1225C14.8961 62.5699 29.2991 56 43.9999 56C58.7007 56 73.1036 62.5699 76.9836 73.1225C68.9216 82.2464 57.1327 88 43.9999 88C30.8671 88 19.0781 82.2464 11.0161 73.1225Z" fill="#B3B5BD"/>
</svg>
