<svg width="271" height="160" viewBox="0 0 271 160" fill="none" xmlns="http://www.w3.org/2000/svg">
<g clip-path="url(#clip0_149_4499)">
<rect width="271" height="160" fill="white"/>
<path d="M111.561 98.4387C113.391 100.1 117.546 104.614 118.637 109.093" stroke="black" stroke-width="0.449232" stroke-linecap="round"/>
<path d="M204.413 25.4822C204.329 25.5666 204.174 25.6138 204.048 25.5725C203.922 25.5313 203.707 25.5452 203.594 25.5921C203.284 25.7283 202.84 25.8486 202.449 25.8887C202.264 25.8983 202.101 25.9706 202.08 26.0337C202.06 26.0968 201.93 26.1522 201.804 26.153C201.308 26.1728 200.729 26.319 200.688 26.4453C200.668 26.5084 200.601 26.5424 200.525 26.5176C200.323 26.4517 197.847 27.6129 196.412 28.4572C194.855 29.3736 192.124 31.4014 190.947 32.5254C190.705 32.7536 190.258 33.1804 189.957 33.4593C189.669 33.7424 189.402 34.0463 189.377 34.1221C189.349 34.2104 189.215 34.3204 189.085 34.3758C188.955 34.4311 188.809 34.579 188.764 34.7178C188.718 34.8566 188.568 35.0171 188.417 35.0936C188.145 35.2422 187.993 35.7092 188.208 35.7793C188.283 35.804 188.396 35.6732 188.479 35.5047C188.562 35.3363 188.67 35.218 188.733 35.2386C188.784 35.2551 188.947 35.1408 189.089 34.9636C189.226 34.799 189.652 34.3933 190.028 34.0551C190.404 33.7169 190.772 33.362 190.855 33.2775C190.938 33.1931 191.544 32.6645 192.188 32.1064C193.261 31.1719 193.834 30.7444 196.353 29.0664C197.549 28.2698 200.179 26.9774 201.483 26.537C202.049 26.3446 202.598 26.1608 202.694 26.1224C202.791 26.084 202.997 26.0534 203.16 26.065C203.329 26.064 203.488 26.0042 203.508 25.9411C203.529 25.878 203.659 25.8646 203.798 25.91C203.937 25.9553 204.113 25.929 204.184 25.8404C204.255 25.7518 204.498 25.6916 204.713 25.7197C204.931 25.7351 205.099 25.6921 205.069 25.6125C205.013 25.3987 204.555 25.3049 204.413 25.4822Z" fill="black"/>
<path d="M195.395 19.4074C195.363 19.4755 195.279 19.536 195.195 19.5375C195.111 19.539 194.985 19.5918 194.927 19.6434C194.769 19.7896 194.527 19.9541 194.302 20.0593C194.193 20.1034 194.11 20.1807 194.11 20.2228C194.111 20.265 194.045 20.3252 193.969 20.3518C193.676 20.4667 193.359 20.6747 193.361 20.7589C193.361 20.8011 193.328 20.8354 193.278 20.8363C193.143 20.8387 191.899 22.0496 191.213 22.8543C190.469 23.7275 189.252 25.5112 188.779 26.4302C188.681 26.6174 188.502 26.9662 188.379 27.1961C188.265 27.4257 188.168 27.6635 188.169 27.7141C188.17 27.7731 188.113 27.8668 188.047 27.927C187.98 27.9872 187.923 28.1063 187.925 28.199C187.927 28.2917 187.87 28.4192 187.795 28.4964C187.663 28.642 187.668 28.9539 187.812 28.9513C187.862 28.9504 187.903 28.8485 187.917 28.7302C187.932 28.6119 187.973 28.5185 188.015 28.5177C188.049 28.5171 188.123 28.4146 188.171 28.2789C188.219 28.1516 188.391 27.8197 188.546 27.5387C188.701 27.2578 188.848 26.9685 188.88 26.9005C188.913 26.8324 189.167 26.3895 189.437 25.921C189.887 25.1374 190.142 24.7619 191.304 23.2321C191.856 22.5056 193.166 21.1839 193.856 20.6489C194.156 20.4159 194.447 20.1915 194.497 20.1485C194.547 20.1055 194.664 20.0443 194.765 20.0173C194.865 19.9817 194.949 19.9128 194.948 19.8707C194.947 19.8285 195.022 19.7935 195.115 19.7918C195.208 19.7901 195.308 19.7378 195.332 19.6699C195.356 19.602 195.49 19.5153 195.624 19.4876C195.759 19.4515 195.85 19.3909 195.816 19.3493C195.738 19.2327 195.443 19.2717 195.395 19.4074Z" fill="black"/>
<path d="M240.312 37.4103C239.893 37.6648 239.446 37.9656 239.325 38.0797C239.208 38.1812 238.471 38.5551 237.687 38.9C235.454 39.875 233.103 40.1412 230.046 39.786C228.861 39.6505 219.854 36.7113 218.956 36.1666C218.546 35.9214 217.098 35.3927 214.597 34.5765C210.794 33.3357 209.406 33.0082 207.801 33.0011C207.452 32.999 207.086 32.9635 206.972 32.9264C206.77 32.8604 205.897 32.9245 204.415 33.0972C203.235 33.2429 200.874 33.9668 199.513 34.5839C198.311 35.1412 196.038 36.5364 195.793 36.8612C195.739 36.9413 195.513 37.119 195.291 37.2841C195.061 37.4325 194.635 37.7962 194.343 38.0918C194.042 38.3708 193.716 38.6835 193.633 38.768C193.391 38.9962 192.857 39.604 192.39 40.1779C192.173 40.4563 191.881 40.794 191.761 40.9501C191.465 41.3004 190.77 42.3585 190.421 42.9568C190.28 43.218 190.03 43.6394 189.864 43.8924C189.519 44.4361 189.16 45.4922 189.18 45.9036C189.194 46.1176 189.29 45.9953 189.534 45.4605C189.72 45.0605 190.007 44.5255 190.173 44.2726C190.34 44.0196 190.589 43.5983 190.73 43.3371C190.975 42.8863 191.1 42.7176 191.921 41.6587C192.733 40.6251 193.071 40.2325 194.081 39.1935C194.674 38.5769 195.371 37.9387 195.631 37.7859C195.907 37.6247 196.421 37.2479 196.777 36.9728C198.11 35.8856 201.474 34.4418 203.459 34.0981C203.875 34.0242 204.307 33.9418 204.429 33.9117C204.92 33.8205 206.839 33.7207 207.621 33.7664C208.075 33.7888 208.642 33.8064 208.869 33.7966C209.104 33.8036 209.735 33.8837 210.269 34.0023C210.808 34.1082 211.523 34.2298 211.863 34.2571C212.608 34.3324 215.909 35.3957 217.236 35.9965C217.771 36.241 219.275 36.8575 220.568 37.3493C221.874 37.8453 223.361 38.4703 223.892 38.7274C224.419 38.9972 225.266 39.3153 225.758 39.4341C227.883 39.9461 230.223 40.4022 230.596 40.3705C230.823 40.3608 231.134 40.3925 231.286 40.4419C231.564 40.5326 232.408 40.5569 233.862 40.5145C234.979 40.4742 235.907 40.288 236.619 39.9478C239.182 38.7314 239.438 38.6333 239.439 38.8852C239.453 39.0153 239.34 39.1881 239.215 39.2728C239.081 39.3408 238.943 39.5054 238.91 39.6064C238.873 39.72 238.735 39.8426 238.606 39.8979C238.476 39.9533 238.338 40.0759 238.309 40.1643C238.28 40.2526 238.072 40.5058 237.859 40.7296C237.634 40.9493 237.145 41.4604 236.77 41.8825C235.36 43.4194 231.89 45.4853 229.211 46.4127C227.69 46.9215 226.13 47.3761 225.693 47.4291C225.521 47.4427 225.177 47.512 224.917 47.5808C224.669 47.6536 224.359 47.7059 224.241 47.7234C224.128 47.7283 223.922 47.7589 223.8 47.7891C223.679 47.8192 223.473 47.8498 223.36 47.8547C223.246 47.8596 223.041 47.8902 222.919 47.9204C222.797 47.9505 222.592 47.9811 222.478 47.986C222.361 48.0035 221.899 48.0483 221.462 48.1013C221.03 48.1417 220.513 48.1827 220.316 48.1881C220.122 48.1808 219.614 48.1965 219.186 48.2243C217.695 48.2963 216.01 48.2771 213.206 48.1304C211.693 48.0555 211.201 48.0207 210.617 47.9277C209.948 47.8352 209.023 47.7568 207.947 47.7129C207.561 47.6985 207.132 47.6423 206.993 47.5969C206.854 47.5516 206.476 47.5119 206.127 47.5098C205.795 47.4992 205.169 47.4904 204.753 47.4804C199.302 47.3076 195.416 47.9526 192.275 49.5672C190.144 50.6592 189.935 50.8284 190.453 50.9974C190.84 51.1378 190.956 52.2372 190.725 53.5025C190.587 54.2675 190.337 54.5629 189.791 54.6082C189.174 54.6581 188.535 55.2037 188.321 55.86C188.18 56.2891 188.203 56.4779 188.441 56.9468C188.798 57.608 189.694 58.2912 190.616 58.5921C191.209 58.7859 191.298 58.7727 191.854 58.4377C192.344 58.1366 192.465 58.1064 192.475 58.2911C192.49 58.7151 192.131 59.6033 191.822 59.9074C191.467 60.2665 191.305 60.6328 191.495 60.6946C191.571 60.7193 191.692 60.6472 191.771 60.5334C191.846 60.4322 192.059 60.2083 192.226 60.0394C192.71 59.583 193.341 57.6519 193.157 57.2289C193.076 57.0488 193.029 56.8518 193.049 56.7887C193.094 56.6498 192.763 56.0388 192.53 55.8093C192.446 55.7258 192.255 55.538 192.111 55.3794C191.968 55.2207 191.744 55.0499 191.592 55.0004C191.175 54.8644 191.067 54.4241 191.221 53.4827C191.374 52.5412 191.373 51.7308 191.207 51.3414C191.16 51.1863 191.183 50.9846 191.288 50.837C191.533 50.5122 194.071 49.2036 194.688 49.1117C194.94 49.0682 195.175 48.9912 195.195 48.9281C195.216 48.865 195.346 48.8096 195.484 48.8129C195.724 48.8073 195.829 48.7857 196.944 48.4934C197.892 48.2441 201.411 47.8701 201.739 47.9773C201.84 48.0103 202.118 48.017 202.378 47.9902C202.978 47.9488 204.256 47.9746 206.551 48.0951C206.979 48.1093 207.669 48.1387 208.068 48.1573C208.455 48.1717 208.968 48.2274 209.182 48.2555C209.565 48.3246 210.044 48.3552 211.498 48.4388C213.032 48.5345 213.444 48.5572 213.953 48.6255C214.466 48.6812 214.929 48.7204 216.421 48.7743C217.37 48.8189 219.942 48.8202 220.471 48.7834C221.462 48.7018 224.782 48.2072 224.878 48.1268C224.954 48.0676 225.071 48.0501 225.172 48.0831C225.45 48.1738 229.316 47.0334 230.556 46.4885C234.956 44.5724 238.086 42.0887 240.751 38.4196C241.263 37.7069 241.486 37.0673 241.259 36.9931C241.158 36.9601 240.735 37.1432 240.312 37.4103ZM191.617 55.5671C191.907 55.6619 192.098 55.8917 192.43 56.5447C192.864 57.3986 192.864 57.3986 192.546 57.5601C192.366 57.641 192.11 57.7811 191.964 57.8869C191.834 57.9843 191.465 58.0873 191.159 58.127C190.605 58.1975 190.567 58.1851 189.908 57.7188C189.047 57.1026 188.766 56.4661 189.073 55.868C189.189 55.6406 189.443 55.3745 189.628 55.281C190.084 55.0389 190.828 55.0302 191.06 55.2598C191.153 55.36 191.402 55.497 191.617 55.5671Z" fill="black"/>
<path d="M186.585 51.9697C186.413 52.0673 186.199 52.1232 186.123 52.0985C185.959 52.0449 185.545 52.3287 184.923 52.9077C184.455 53.3556 183.983 54.4586 183.739 55.7197C183.503 56.8716 183.486 58.123 183.7 58.0671C183.91 58.0239 184.07 57.4057 184.061 56.6625C184.037 54.9369 186.059 51.8679 186.715 52.6408C186.766 52.6992 186.693 53.1363 186.541 53.6033C186.281 54.3985 186.247 54.9739 186.477 54.7836C186.753 54.5384 187.19 53.3685 187.245 52.6879C187.336 51.8518 187.137 51.6473 186.585 51.9697Z" fill="black"/>
<path d="M133.415 69.4062C132.583 69.47 132.277 69.5516 132.224 69.7157C132.141 69.9681 132.251 70.0598 132.511 69.9491C132.875 69.7747 134.553 70.0291 135.707 70.4336C136.423 70.6812 136.983 70.808 137.083 70.757C137.284 70.655 137.158 70.5718 136.222 70.0988C134.843 69.3975 134.545 69.328 133.415 69.4062Z" fill="black"/>
<path d="M136.592 74.0603C136.394 74.0657 136.177 74.2602 135.969 74.5974C135.653 75.0947 135.008 75.4429 134.37 75.472C134.076 75.4738 133.955 75.7138 134.195 75.7922C134.284 75.821 134.485 75.803 134.653 75.76C134.917 75.6786 135.581 75.6578 135.573 75.725C135.518 76.3636 135.277 78.0446 135.196 78.423C135.025 79.247 135.023 79.5535 135.149 79.5947C135.351 79.6607 135.959 77.6248 136 76.7302C136.061 75.7725 136.428 74.8171 136.839 74.5879C137.374 74.2739 137.264 74.0143 136.592 74.0603Z" fill="black"/>
<path d="M128.662 74.5028C128.578 74.5872 128.419 75.8898 128.367 77.0322C128.357 77.406 128.29 77.9984 128.22 78.339C128.14 78.8433 128.162 78.9901 128.351 79.052C128.73 79.1756 129.096 78.6528 129.134 77.9387C129.157 77.6111 129.218 77.2958 129.276 77.2451C129.464 77.097 130.101 77.3744 130.123 77.6052C130.128 77.7186 130.188 77.8358 130.263 77.8605C130.453 77.9224 130.866 78.7554 130.885 79.0828C130.894 79.2255 130.962 79.3175 131.05 79.3043C131.247 79.257 131.186 78.9298 130.871 78.2683C130.445 77.3891 130.043 76.9507 129.5 76.7734C128.906 76.5797 128.859 76.4246 129.155 75.4739C129.271 75.1205 129.323 74.7885 129.264 74.7132C129.141 74.5334 128.762 74.4098 128.662 74.5028Z" fill="black"/>
<path d="M127.144 83.1408C126.838 83.2645 126.544 83.3502 126.494 83.3337C126.443 83.3172 126.141 83.3862 125.818 83.4764C125.495 83.5665 125.088 83.6571 124.916 83.6708C124.731 83.6803 124.572 83.74 124.547 83.8158C124.527 83.8789 124.405 83.909 124.266 83.8637C124.14 83.8224 123.934 83.8531 123.813 83.9252C123.692 83.9973 123.498 84.0321 123.385 83.995C123.258 83.9538 123.028 83.9761 122.856 84.0318C122.696 84.0915 122.428 84.1015 122.276 84.0521C122.124 84.0026 121.893 84.025 121.747 84.0889C121.613 84.1569 121.344 84.1669 121.142 84.1009C120.952 84.0391 120.595 84.0203 120.36 84.0553C120.138 84.0944 119.73 84.0591 119.477 83.9767C119.212 83.8901 118.867 83.8754 118.695 83.931C118.473 84.0121 117.964 83.9018 116.562 83.4443C114.6 82.8179 113.864 82.7174 114.497 83.1335C115.181 83.608 117.555 84.257 118.955 84.3787C119.678 84.4331 120.329 84.4502 120.387 84.3994C120.446 84.3487 120.639 84.3559 120.829 84.4177C121.018 84.4796 121.363 84.4943 121.598 84.4593C121.82 84.4201 122.114 84.4184 122.241 84.4596C122.367 84.5008 122.56 84.466 122.682 84.3939C122.803 84.3218 123.034 84.2994 123.211 84.3571C123.375 84.4107 123.568 84.376 123.639 84.2874C123.722 84.2029 123.903 84.164 124.067 84.2176C124.218 84.267 124.449 84.2447 124.571 84.1725C124.692 84.1004 124.86 84.0574 124.961 84.0904C125.049 84.1193 125.226 84.093 125.343 84.0335C125.686 83.8803 126.093 83.7896 127.009 83.6833C127.521 83.613 127.869 83.4891 127.91 83.3629C128.029 82.9969 127.709 82.9065 127.144 83.1408Z" fill="black"/>
<path d="M123.923 95.6012C121.562 99.5758 116.917 110.299 117.223 121.394" stroke="black" stroke-width="0.449232"/>
<path d="M134.762 82.6945C136.125 80.5216 138.926 76.1015 139.219 75.8045" stroke="black" stroke-width="0.63167" stroke-linecap="round"/>
<path fill-rule="evenodd" clip-rule="evenodd" d="M155.614 15.3485C157.289 15.1328 159.886 15.2696 162.215 16.3763C164.532 17.4776 166.59 19.5404 167.22 23.2051C168.104 28.3535 170.025 43.1414 171.76 56.4957L171.76 56.4958L171.76 56.4975C172.547 62.5526 173.295 68.3128 173.891 72.746L174.336 72.6862C173.741 68.2614 172.994 62.5084 172.208 56.4581L172.208 56.4574C170.473 43.0968 168.549 28.2868 167.663 23.1291C167.006 19.3056 164.843 17.1279 162.408 15.9706C159.989 14.8208 157.306 14.6794 155.566 14.9017L74.1517 18.5129C72.4949 18.4374 70.0926 18.9378 68.2493 20.6938C66.3927 22.4624 65.1403 25.4684 65.7377 30.3269C66.7293 38.3919 76.5297 110.53 83.6204 162.585L84.073 162.579C76.9816 110.519 67.1751 38.3367 66.1835 30.2721C65.5988 25.5167 66.8304 22.6659 68.5591 21.0191C70.2972 19.3634 72.5752 18.8883 74.1409 18.9621L74.1511 18.9626L74.1614 18.9621L155.595 15.3501L155.605 15.3497L155.614 15.3485Z" fill="#101223"/>
<path fill-rule="evenodd" clip-rule="evenodd" d="M132.974 29.7256C133.717 29.6749 134.861 29.7688 136.316 29.9783C137.422 30.1438 139.996 31.1653 140.777 31.7274C142.237 32.8187 143.266 33.9923 143.964 35.3653C144.432 36.2862 144.856 37.4299 144.802 37.594C144.778 37.6697 144.829 37.8542 144.931 38.0131C145.093 38.2892 145.135 38.289 145.764 38.1172C146.837 37.8252 147.56 37.8376 148.609 38.1798C149.834 38.5796 150.893 39.3584 152.48 41.0493C152.865 41.4543 154.001 43.6686 154.361 44.7077C155.008 46.6226 155.137 47.7261 155.104 51.6816C155.107 52.0595 155.123 52.5675 155.141 52.8109C155.169 52.994 155.202 53.3404 155.233 53.6552C155.241 53.7442 155.25 53.8307 155.258 53.9103C155.374 54.9677 156.942 57.6581 157.548 57.8559C157.649 57.8889 157.734 57.9724 157.759 58.0646C157.803 58.2323 159.274 59.6762 159.476 59.7421C159.552 59.7669 159.65 59.8964 159.705 60.0263C159.761 60.1561 159.896 60.298 160.022 60.3392C160.149 60.3805 160.284 60.5224 160.339 60.6522C160.395 60.7821 160.53 60.924 160.657 60.9652C160.783 61.0064 160.918 61.1484 160.974 61.2782C161.029 61.408 161.139 61.5417 161.24 61.5747C161.405 61.6283 162.459 62.9362 163.087 63.8813C163.465 64.4374 164.064 66.1553 164.209 67.0824C164.568 69.3224 164.315 70.9993 163.42 72.4113C162.643 73.6379 162.171 74.0144 159.913 75.1492C158.741 75.7441 157.749 76.3002 157.716 76.4012C157.687 76.4895 157.562 76.6162 157.436 76.659C157.13 76.7826 156.736 77.5618 156.627 78.2384C156.563 78.6923 156.666 79.0192 157.202 80.074C157.559 80.7773 158.112 81.7397 158.434 82.208C158.757 82.6763 159.152 83.3919 159.31 83.8066C159.977 85.4905 160.444 86.2435 161.366 87.1448C161.877 87.633 162.309 88.1091 162.326 88.1845C162.339 88.2726 162.462 88.3685 162.588 88.4097C162.715 88.4509 162.863 88.597 162.918 88.7268C162.974 88.8566 163.084 88.9903 163.185 89.0233C163.273 89.0522 163.624 89.4321 163.968 89.8793C164.311 90.3265 164.662 90.7485 164.747 90.8319C164.929 91.003 165.06 91.1575 165.979 92.2815C166.348 92.7369 166.72 93.0957 166.799 93.0659C166.887 93.0527 167.071 92.8753 167.196 92.6646C167.435 92.3142 167.433 92.3228 167.312 93.0273L167.308 93.0502C167.137 93.9582 166.971 94.2111 166.7 93.9692C166.523 93.8275 164.812 91.7469 164.168 90.8942C164.032 90.7103 163.846 90.5099 163.761 90.4264C163.677 90.343 163.473 90.109 163.304 89.9001C163.147 89.6953 162.927 89.4699 162.843 89.3865C162.754 89.3156 162.602 89.1822 162.521 89.0861C162.441 88.99 162.157 88.702 161.891 88.4475C161.629 88.1804 161.244 87.7754 161.045 87.5289C160.689 87.1196 160.309 86.8699 160.26 87.0214C160.239 87.0845 160.248 87.1852 160.376 88.0368C160.411 88.2717 160.373 88.9438 160.272 89.5112C159.974 91.4109 158.87 92.9921 157.238 93.9258C156.844 94.1465 156.455 94.3966 156.384 94.4852C156.289 94.6075 156.153 94.4236 155.847 93.8208C155.382 92.8453 154.376 90.6596 154.15 90.1109C154.099 90.0002 153.996 89.7521 153.868 89.4461C153.749 89.1618 153.609 88.8275 153.471 88.5069C152.776 86.8694 150.264 80.5611 149.952 79.6771C149.815 79.2832 149.635 78.8476 149.571 78.7011C149.495 78.5504 149.281 78.0478 149.102 77.5702C148.597 76.2884 147.368 74.0159 146.792 73.2972C145.703 71.9224 144.099 71.3988 142.876 72.0193C142.407 72.2572 139.839 74.6451 139.744 74.9354C139.728 74.9859 139.88 75.2033 140.088 75.4246C140.452 75.8087 141.067 77.3082 140.968 77.6111C140.939 77.6994 140.965 77.9176 141.025 78.0768C141.081 78.2486 141.099 78.492 141.062 78.6056C141.021 78.7318 141.015 79.009 141.05 79.2439C141.134 79.8439 141.138 80.5576 141.062 81.1753C141.022 81.4695 140.996 81.8937 141.022 82.1119C141.032 82.3386 140.959 82.7757 140.861 83.0786C140.758 83.3942 140.701 83.7808 140.728 83.957C140.758 84.1206 140.666 84.7887 140.51 85.4363C140.364 86.1006 140.193 86.9666 140.145 87.37C139.993 88.5214 139.799 89.757 139.621 90.6902C139.397 91.8882 139.176 93.3802 139.053 94.4432C139.001 94.9432 138.879 95.5737 138.785 95.864C138.69 96.1543 138.642 96.5157 138.664 96.6626C138.694 96.8261 138.614 97.4144 138.504 97.9652C138.39 98.5285 138.286 99.2345 138.271 99.5369C138.233 100.125 137.418 102.792 137.181 103.092C136.839 103.497 136.935 102.816 137.425 101.314C137.706 100.456 137.906 99.6273 137.884 99.4805C137.854 99.3169 137.921 98.7245 138.031 98.1738C138.145 97.6104 138.306 96.5178 138.406 95.7404C138.493 94.9589 138.617 94.0218 138.665 93.6604C138.912 92.2187 139.097 90.9663 139.209 90.0671C139.373 88.7938 139.709 86.9485 139.971 85.8468L140.184 84.9386L137.329 83.965L134.482 83.0081L134.118 83.2664C133.801 83.5119 132.465 84.8636 132.111 85.3066C132.04 85.3952 131.89 85.5557 131.777 85.6445C131.711 85.7108 131.611 85.7988 131.521 85.8782C131.467 85.9252 131.417 85.9692 131.38 86.0038C131.263 86.1053 131.113 86.2658 131.042 86.3544C131.001 86.3955 130.902 86.5064 130.77 86.6528C130.631 86.8074 130.456 87.0015 130.279 87.1946C129.936 87.5578 129.632 87.9333 129.599 88.0343C129.57 88.1226 129.254 88.536 128.895 88.9497C128.186 89.7937 127.765 90.3127 127.428 90.8312C127.121 91.3034 126.662 91.894 126.325 92.2865C126.158 92.4555 125.958 92.7674 125.85 92.9696C125.614 93.4371 125.048 94.3559 124.586 95.0011C124.382 95.2837 124.179 95.6502 124.121 95.8269C124.063 96.0036 123.876 96.2777 123.709 96.4466C123.546 96.603 123.276 97.0875 123.136 97.5166C122.988 97.929 122.781 98.4341 122.66 98.6322C122.345 99.1715 122.295 98.6806 122.584 97.923C122.89 97.115 124.135 94.7561 124.452 94.3427C124.589 94.1781 124.743 93.9211 124.792 93.7696C124.842 93.6181 125.025 93.3567 125.192 93.1877C125.355 93.0314 125.53 92.7952 125.567 92.6816C125.633 92.4797 125.853 92.1466 127.028 90.5608C127.155 90.3843 127.288 90.1993 127.413 90.0259C127.64 89.7105 127.839 89.4337 127.923 89.3167C128.351 88.6884 128.935 87.9711 129.102 87.8861C129.186 87.8436 129.29 87.696 129.336 87.5572C129.422 87.2922 129.664 87.022 131.943 84.6652C132.644 83.9304 133.245 83.2885 133.261 83.238C133.339 82.9982 134.265 82.5181 134.505 82.5965C134.656 82.6459 134.921 82.6485 135.08 82.5888C135.298 82.5203 135.441 82.553 135.568 82.6782C135.674 82.7825 136.71 83.1625 137.876 83.5292L140.011 84.1839L140.234 83.6283C140.462 83.102 140.674 81.5514 140.655 80.6235C140.662 80.3884 140.673 80.0566 140.693 79.8675C140.712 79.6785 140.714 79.3299 140.687 79.0698C140.656 78.8222 140.667 78.5325 140.7 78.4315C140.733 78.3305 140.694 78.1502 140.622 78.0289C140.549 77.9075 140.502 77.7525 140.519 77.702C140.539 77.6389 140.436 77.228 140.298 76.7922C139.982 75.8787 139.644 75.7128 139.282 76.2651C139.166 76.4505 138.911 76.7166 138.732 76.8394L138.397 77.0514L138.272 76.5357C138.202 76.2338 138.167 75.9149 138.204 75.8013C138.237 75.7004 138.053 75.2774 137.798 74.8591L137.327 74.1187L137.743 74.0868C137.961 74.0603 138.426 73.8769 138.757 73.6776C138.912 73.5792 139.112 73.4561 139.313 73.3321C139.545 73.1889 139.779 73.0446 139.95 72.9356C140.251 72.7406 140.539 72.4995 140.576 72.3859C140.613 72.2723 140.701 72.1752 140.781 72.1453C140.869 72.1322 141.144 71.887 141.403 71.6083C141.466 71.5404 141.531 71.4704 141.594 71.4021C141.789 71.1903 141.97 70.9945 142.046 70.9242C142.359 70.6074 142.424 70.2375 142.171 70.1551C141.779 70.0273 141.582 69.3903 141.729 68.7679C141.897 68.0825 142.22 67.9924 142.128 68.6606C142.056 69.2236 142.433 69.7798 142.734 69.5848C142.856 69.5127 143.036 69.5158 143.163 69.599C143.475 69.7987 143.825 69.2423 143.646 68.8487C143.547 68.6352 143.608 68.2359 143.867 67.3568L144.216 66.158L142.894 65.7125C141.837 65.3536 141.479 65.1669 141.081 64.7998C139.999 63.7902 139.529 62.6174 139.514 60.9505C139.515 60.4761 139.433 60.0441 139.344 60.0152C139.117 59.941 138.837 60.8413 138.974 61.2351C139.034 61.3943 139.044 61.663 138.999 61.8018C138.949 61.9533 138.976 62.1715 139.048 62.2928C139.12 62.4141 139.163 62.5818 139.139 62.6575C139.11 62.7459 139.311 63.2863 139.579 63.8767C140.031 64.8481 140.057 64.9823 139.888 65.4998C139.748 65.9289 139.607 66.1061 139.309 66.2465C139.092 66.357 138.861 66.4214 138.798 66.4008C138.722 66.376 138.403 66.4955 138.072 66.6529C137.39 66.9887 137.306 66.9892 137.413 66.6611C137.458 66.5222 137.793 66.3103 138.174 66.1694C139.063 65.8449 139.419 65.6118 139.53 65.313C139.575 65.1742 139.399 64.558 139.143 63.9297C138.661 62.7948 138.356 61.2011 138.525 60.6836C138.784 59.8465 138.483 59.399 137.872 59.7302C137.6 59.8788 137.462 60.0854 137.289 60.6155C137.05 61.3475 136.41 62.3256 136.008 62.5715C135.874 62.6395 135.749 62.7662 135.724 62.842C135.703 62.9051 135.31 63.1678 134.833 63.431C134.067 63.8513 133.685 63.9922 133.089 64.063C132.972 64.0805 132.775 64.1279 132.649 64.1706C132.251 64.32 131.414 64.2705 130.539 64.0826C128.616 63.6366 127.288 62.3094 126.593 60.1135L126.447 59.6609L126.059 60.0789C125.459 60.7627 124.972 62.1261 124.987 63.1086C124.994 63.5578 125.035 64.116 125.079 64.3676C125.21 65.1646 126.009 66.5706 126.728 67.2381C127.671 68.1183 127.419 68.2038 125.646 67.5973C124.513 67.2137 124.176 67.0478 123.783 66.6681C123.517 66.4135 123.296 66.1462 123.266 66.0666C123.249 65.9911 123.152 65.9035 123.038 65.8664C122.47 65.6809 121.549 63.0622 121.677 62.0285C121.721 61.7217 121.665 61.5079 121.564 61.4749C121.324 61.3966 121.411 61.1316 121.819 60.6504C121.994 60.4562 122.347 59.7613 122.608 59.1341C122.856 58.5027 123.229 57.7027 123.424 57.3614C123.677 56.8854 123.792 56.49 123.88 55.8345C123.963 55.0656 123.924 54.8433 123.584 54.1735C123.141 53.3029 122.643 52.9448 121.773 52.8703C120.864 52.7834 120.22 53.1316 119.499 54.0555C119.107 54.5701 119.045 54.7175 119.032 55.2298C119.021 55.5616 118.983 56.1077 118.935 56.4691C118.839 57.1919 119.019 58.4378 119.318 59.1078C119.591 59.7276 120.204 60.3327 120.722 60.5017C121.429 60.7326 121.425 60.7452 120.615 62.8411C118.963 67.1339 117.261 70.4193 115.279 73.1522C115.025 73.5022 114.797 73.8605 114.772 73.9362C114.714 74.1129 115.258 75.0586 115.473 75.1287C115.561 75.1575 115.638 75.2662 115.643 75.3796C115.648 75.4929 115.754 75.6392 115.88 75.7224C116.1 75.8638 116.11 76.1745 115.883 76.1003C115.719 76.0467 114.999 75.2953 114.956 75.1276C114.935 75.0647 114.74 74.8476 114.541 74.643C114.178 74.3009 114.165 74.2968 113.86 74.5044C113.684 74.6146 113.451 74.9016 113.334 75.129C113.218 75.3564 112.948 75.799 112.736 76.1068C112.528 76.4019 112.295 76.8148 112.233 77.0042C112.171 77.1935 111.972 77.5474 111.785 77.7795C111.264 78.4754 110.817 79.5026 110.969 79.6781C111.037 79.77 110.81 79.7798 110.39 79.6984C110.007 79.6293 109.608 79.6107 109.507 79.6617C109.394 79.7086 109.117 79.7859 108.869 79.8168C107.816 79.9617 103.246 82.7018 103.056 83.2824C103.023 83.3834 102.936 83.4805 102.86 83.4978C102.738 83.5279 101.887 84.3812 100.681 85.6775C100.377 86.0111 99.7307 86.8338 99.2309 87.5086C97.5687 89.774 97.569 89.7739 98.0433 89.6741L98.0644 89.6697C98.2575 89.6349 98.4796 89.5538 98.5801 89.5028C98.668 89.4477 99.2087 89.2471 99.7705 89.0673C100.336 88.8749 100.831 88.6872 100.885 88.6491C100.92 88.6316 101.122 88.5439 101.388 88.4287C101.509 88.376 101.644 88.3175 101.782 88.2574C104.996 86.932 107.609 85.5642 108.017 84.9991C108.15 84.8051 108.226 84.7879 108.294 84.9218C108.362 85.0558 108.279 85.2662 107.967 85.709C106.963 87.1133 106.636 87.7325 106.195 89.083C105.96 89.8444 105.727 90.7318 105.699 91.072C105.672 91.4123 105.617 91.9249 105.577 92.2191C105.493 92.946 105.42 93.9835 105.396 94.7437C105.302 97.0872 105.296 98.0907 105.337 98.565C105.355 98.7244 105.391 99.2112 105.407 99.6352C105.435 100.063 105.48 100.525 105.497 100.642C105.525 100.754 105.593 101.137 105.662 101.52L105.68 101.624C105.754 102.039 105.892 102.475 105.993 102.592C106.154 102.784 106.2 102.771 106.375 102.493C106.475 102.316 106.704 102 106.87 101.789C107.696 100.801 109.655 97.7536 109.84 97.1857C109.902 96.9963 110.126 96.6087 110.322 96.3514C110.518 96.094 110.8 95.5297 110.94 95.1006C111.076 94.6841 111.424 93.9178 111.702 93.408C112.038 92.8055 112.464 91.7155 112.913 90.3397C113.597 88.2446 113.983 87.5746 113.711 88.9661C113.328 90.8663 110.91 96.9902 110.131 98.0069C110.002 98.1882 109.824 98.521 109.75 98.7482C109.68 98.9627 109.464 99.3671 109.26 99.6497C109.072 99.9237 108.694 100.484 108.419 100.898C108.157 101.315 107.795 101.825 107.628 102.036C106.849 103.053 106.72 103.234 106.562 103.504C106.467 103.668 106.229 103.884 106.036 104.002L105.676 104.206L105.531 103.838C105.458 103.632 105.385 103.343 105.354 103.179C105.337 103.02 105.267 102.676 105.194 102.429C105.034 101.804 104.783 100.046 104.758 99.3117C104.68 97.6662 104.679 97.4982 104.749 95.4404C104.759 94.9827 104.775 94.3317 104.786 94C104.788 93.6514 104.844 93.2228 104.906 93.0335C104.963 92.8568 105.007 92.4241 104.992 92.0841C104.968 91.6013 105.123 90.9958 105.684 89.3212C106.071 88.1348 106.455 87.045 106.525 86.8724C106.62 86.6661 106.594 86.5319 106.463 86.4613C106.345 86.3948 106.228 86.4123 106.199 86.5007C106.125 86.7279 101.706 88.875 99.8872 89.5663C99.0574 89.882 98.2989 90.1931 98.1984 90.2441C97.6877 90.5243 96.6642 90.7909 96.5206 90.6742C96.3432 90.5325 96.5212 90.1157 97.1041 89.3144C97.2832 89.0656 97.6454 88.5553 97.895 88.1759C98.3986 87.4465 99.5198 86.0667 100.067 85.5049C100.296 85.2726 100.379 85.1041 100.319 84.9869C100.26 84.8697 99.9457 85.0186 99.3267 85.459C98.8333 85.8147 98.3525 86.1745 98.269 86.259C98.0895 86.4486 97.8622 86.6347 97.1157 87.2462L96.9528 87.3797C96.3259 87.8873 95.6622 88.5506 95.0034 89.3271C94.9495 89.3876 94.8809 89.4671 94.8062 89.5535C94.6671 89.7147 94.5069 89.9002 94.382 90.0321C93.8855 90.5684 92.6419 92.4948 91.8112 93.9694C90.7647 95.8484 89.2736 101.06 89.1204 103.328C89.1056 103.63 89.0295 104.206 88.9565 104.601C88.806 105.362 88.7926 105.875 88.8648 107.923C88.875 108.192 88.8442 108.629 88.8038 108.881C88.7508 109.129 88.778 109.431 88.8335 109.561C88.9057 109.682 88.9197 109.896 88.8827 110.01C88.8415 110.136 88.8722 110.342 88.9444 110.463C89.0167 110.584 89.0557 110.765 89.0227 110.866C88.9898 110.967 88.9873 111.231 89.018 111.437C89.0447 111.587 89.0776 111.817 89.1084 112.032C89.123 112.134 89.1371 112.233 89.1499 112.318C89.1853 112.595 89.1916 112.918 89.1504 113.044C89.1133 113.158 89.1441 113.363 89.2163 113.484C89.2885 113.606 89.3193 113.811 89.2781 113.938C89.2369 114.064 89.2548 114.223 89.3182 114.286C89.3649 114.357 89.425 114.558 89.4555 114.722C89.4743 115.046 89.5169 115.214 89.7744 116.228L89.7806 116.252C89.8542 116.584 89.9578 116.994 90.0009 117.162C90.044 117.33 90.0877 117.581 90.0885 117.707C90.0852 117.846 90.1407 117.976 90.2038 117.996C90.267 118.017 90.3395 118.18 90.3532 118.352C90.4026 118.843 90.5147 119.271 90.6671 119.446C90.7264 119.522 90.761 119.673 90.7363 119.748C90.7075 119.837 90.8019 120.147 90.9299 120.44C91.0705 120.737 91.1564 121.031 91.1317 121.106C91.1111 121.169 91.1452 121.236 91.1957 121.253C91.2589 121.274 91.4039 121.6 91.5239 121.961C92.0558 123.628 93.978 127.161 95.7168 129.627C96.671 130.986 97.5314 132.119 97.6072 132.144C97.6956 132.173 97.8351 132.302 97.9032 132.436C98.0391 132.662 98.5216 133.196 99.5453 134.257C99.7949 134.52 100.049 134.812 100.108 134.887C100.163 134.975 100.607 135.371 101.089 135.78C101.571 136.188 102.116 136.659 102.289 136.814C103.033 137.489 104.367 138.54 104.532 138.593C104.645 138.63 104.957 138.83 105.257 139.025C105.797 139.425 106.616 139.958 107.679 140.64C108.878 141.422 112.077 142.927 113.428 143.368C114.632 143.747 116.972 144.245 117.455 144.221C117.681 144.211 118.018 144.251 118.207 144.313C118.397 144.375 118.615 144.39 118.699 144.348C118.796 144.309 119.085 144.278 119.346 144.294C120.195 144.305 120.993 144.258 121.576 144.141C121.737 144.117 121.949 144.078 122.161 144.039C122.373 144 122.585 143.961 122.747 143.937C123.313 143.829 124.701 143.388 125.711 142.991C126.18 142.795 128.157 141.792 128.986 141.309C129.777 140.855 132.042 139.01 132.872 138.136C133.319 137.667 133.782 137.19 133.903 137.076C134.354 136.636 136.037 134.392 136.927 133.035C138.063 131.311 138.47 130.578 139.88 127.714C140.589 126.269 143.373 117.779 143.393 116.99C143.415 116.494 143.488 115.973 143.885 113.729C143.945 113.329 144.017 112.724 144.031 112.38C144.046 112.036 144.08 111.419 144.102 111.007L144.102 111.006C144.146 109.973 144.165 109.016 144.142 108.059L144.12 107.269L143.57 107.369C143.272 107.426 142.836 107.521 142.58 107.577C141.766 107.758 140.408 107.594 139.481 107.222C138.554 106.85 137.344 106.147 136.98 105.763C136.866 105.642 136.659 105.505 136.52 105.459C136.242 105.369 135.846 104.611 136.06 104.555C136.136 104.538 136.283 104.642 136.377 104.784C136.47 104.927 136.681 105.093 136.845 105.147C137.01 105.2 137.242 105.346 137.356 105.467C137.555 105.672 139.317 106.568 139.67 106.641C140.937 106.915 141.635 106.961 142.331 106.839C143.238 106.674 143.475 106.375 143.04 105.953C142.676 105.611 142.325 104.673 142.313 104.026C142.258 102.737 142.335 101.603 142.603 98.8977C142.666 98.3598 142.72 97.5953 142.743 97.2257C142.757 96.8393 142.813 96.3267 142.853 96.0745C142.894 95.8223 142.964 95.0913 143.006 94.4487C143.061 93.8101 143.136 93.0245 143.176 92.6883C143.267 91.9362 143.333 91.0498 143.336 90.2268C143.338 89.8783 143.39 89.4623 143.447 89.2856C143.492 89.1048 143.507 88.8024 143.464 88.5927C143.42 88.383 143.443 88.0134 143.522 87.7736C143.6 87.5338 143.614 87.1894 143.554 87.0302C143.499 86.8584 143.493 86.5771 143.55 86.4004C143.608 86.2237 143.606 85.9298 143.546 85.7706C143.49 85.5988 143.484 85.3175 143.542 85.1408C143.6 84.9641 143.598 84.6702 143.538 84.511C143.482 84.3392 143.476 84.0579 143.534 83.8812C143.592 83.7045 143.59 83.4106 143.53 83.2514C143.474 83.0796 143.468 82.7983 143.526 82.6216C143.583 82.4449 143.581 82.151 143.521 81.9918C143.466 81.82 143.447 81.5766 143.493 81.4377C143.534 81.3115 143.507 81.0933 143.439 80.9594C143.375 80.8128 143.348 80.5946 143.394 80.4558C143.439 80.317 143.417 80.0862 143.348 79.9522C143.284 79.8056 143.258 79.5875 143.303 79.4486C143.348 79.3098 143.326 79.079 143.258 78.945C143.113 78.6604 143.228 78.181 143.417 78.2429C143.48 78.2635 143.532 78.4479 143.508 78.6496C143.497 78.8554 143.532 79.1323 143.604 79.2537C143.664 79.3709 143.67 79.6102 143.616 79.7742C143.567 79.9257 143.602 80.1186 143.686 80.2021C143.775 80.2729 143.806 80.4785 143.748 80.6552C143.686 80.8445 143.701 81.1006 143.769 81.2345C143.833 81.3811 143.859 81.5993 143.814 81.7381C143.769 81.8769 143.791 82.1077 143.859 82.2417C143.923 82.3883 143.946 82.619 143.896 82.7705C143.847 82.922 143.857 83.1906 143.917 83.3498C143.973 83.5216 143.979 83.8029 143.921 83.9796C143.863 84.1563 143.865 84.4502 143.925 84.6094C143.981 84.7812 143.987 85.0625 143.929 85.2392C143.872 85.4159 143.874 85.7098 143.933 85.869C143.989 86.0408 143.991 86.3347 143.933 86.5114C143.876 86.6881 143.86 86.9066 143.911 87.007C143.954 87.0908 143.965 87.4434 143.929 87.7669C143.889 88.1031 143.867 88.5567 143.86 88.7919C143.866 89.7156 143.645 93.1347 143.513 94.223C143.465 94.5844 143.447 94.9414 143.468 95.0463C143.49 95.1511 143.484 95.4703 143.439 95.7771C143.387 96.0671 143.336 96.6091 143.309 96.9913C143.287 97.22 143.262 97.5736 143.238 97.9164C143.224 98.1215 143.21 98.3227 143.197 98.491C143.111 99.5664 143.06 100.667 143.052 101.46C143.034 101.817 143.003 102.212 142.957 102.351C142.871 102.616 142.889 104.06 142.981 104.635C143.125 105.436 143.895 106.33 145.013 106.974C145.27 107.128 145.629 107.357 145.793 107.494C145.971 107.636 146.658 107.93 147.34 108.153C148.818 108.635 149.877 108.687 151.152 108.335C151.999 108.095 153.547 107.162 153.663 106.808C153.696 106.707 153.8 106.602 153.888 106.589C153.968 106.559 154.148 106.436 154.256 106.318C154.848 105.659 155.484 105.252 156.356 104.936L156.88 104.744L155.372 101.529C154.533 99.7743 153.71 97.9696 153.539 97.5508C153.018 96.1935 152.65 95.3056 152.467 94.8826C152.373 94.6564 152.134 94.0197 151.941 93.454C151.748 92.8883 151.56 92.394 151.522 92.3396C151.399 92.1598 150.936 90.7518 150.973 90.6382C150.993 90.5751 150.93 90.4706 150.845 90.3871C150.756 90.3162 150.705 90.1738 150.742 90.0602C150.775 89.9592 150.766 89.8585 150.716 89.842C150.652 89.8214 150.546 89.5491 150.455 89.2264C150.361 88.9162 150.224 88.5644 150.152 88.443C150.037 88.28 150.045 88.2127 150.225 88.1319C150.364 88.0513 150.418 88.0551 150.381 88.1687C150.356 88.2444 150.476 88.5628 150.638 88.881C150.8 89.1991 150.928 89.4922 150.911 89.5427C150.87 89.6689 151.007 90.0628 152.019 92.5718C152.137 92.8707 152.333 93.3512 152.494 93.7457C152.532 93.8377 152.568 93.925 152.6 94.0042C152.7 94.2507 152.814 94.5305 152.908 94.7617C152.974 94.9235 153.03 95.0615 153.065 95.1477C153.155 95.3445 153.364 95.8597 153.531 96.2912C154.061 97.6652 157.543 104.513 157.787 104.663C158.391 105.042 160.485 104.789 160.86 104.283C161.014 104.068 161.221 104.206 161.13 104.483C161.06 104.698 160.102 105.195 159.874 105.121C159.786 105.092 159.618 105.135 159.497 105.207C159.375 105.279 159.182 105.314 159.056 105.273C158.93 105.231 158.635 105.233 158.413 105.272C158.178 105.307 157.833 105.293 157.656 105.235C157.467 105.173 157.223 105.191 157.102 105.263C156.981 105.336 156.813 105.379 156.724 105.35C156.649 105.325 156.305 105.436 155.957 105.602C155.509 105.819 155.367 105.954 155.389 106.143C155.415 106.277 155.508 106.894 155.591 107.494C155.688 108.098 155.876 109.193 156.011 109.935C156.229 111.151 156.264 111.386 156.296 111.844C156.301 111.915 156.327 112.091 156.345 112.209C156.375 112.33 156.424 112.695 156.46 113.014C156.476 113.245 156.516 113.542 156.547 113.771C156.558 113.855 156.568 113.929 156.575 113.988C156.619 114.197 156.616 114.462 156.583 114.563C156.55 114.664 156.589 114.844 156.661 114.965C156.734 115.087 156.756 115.318 156.707 115.469C156.657 115.62 156.68 115.851 156.752 115.973C156.824 116.094 156.863 116.274 156.834 116.363C156.756 116.602 156.961 117.773 157.114 117.948C157.186 118.027 157.234 118.392 157.224 118.766C157.214 119.14 157.229 119.564 157.251 119.711C157.3 120.034 157.394 120.902 157.404 121.213C157.409 121.326 157.44 121.532 157.457 121.649C157.487 121.771 157.532 122.107 157.554 122.379C157.754 124.637 158.44 129.218 158.701 130.086C158.882 130.647 158.968 131.067 159.026 131.448C159.043 131.608 159.13 131.985 159.216 132.279C159.59 133.532 159.582 134.325 159.221 135.604C159.192 135.692 159.468 136.132 159.849 136.591C160.671 137.627 161.447 138.719 161.859 139.468C161.941 139.609 162.111 139.907 162.324 140.282C162.58 140.729 162.897 141.287 163.203 141.819C164.333 143.794 164.635 144.368 165.479 146.193C167.209 149.928 167.389 150.364 168.977 154.876C169.212 155.526 169.676 157.102 170.029 158.376C170.276 159.273 170.456 159.892 170.603 160.308L91.4519 161.38C92.5688 157.087 94.8939 150.83 96.0431 149.314C96.1722 149.132 96.3466 148.812 96.4125 148.61C96.5319 148.244 96.9644 147.561 97.7638 146.44C98.3091 145.668 98.4527 145.142 98.157 144.892C98.0134 144.775 97.8102 144.542 97.7124 144.37C97.5383 144.09 97.4312 143.775 97.0902 142.379C97.047 142.212 97.0034 141.96 97.0026 141.834C97.0058 141.695 96.9504 141.566 96.8999 141.549C96.8367 141.529 96.7853 141.386 96.7969 141.222C96.7958 141.054 96.7219 140.681 96.6316 140.358C96.5371 140.048 96.4506 139.671 96.4327 139.511C96.4149 139.352 96.3454 139.008 96.2724 138.761C96.2034 138.501 96.1299 138.17 96.0994 138.006C96.0689 137.842 95.9733 137.364 95.8698 136.953C95.8515 136.865 95.8318 136.771 95.8118 136.675C95.7372 136.319 95.6586 135.944 95.6309 135.758C95.5999 135.511 95.4867 134.915 95.37 134.416C95.2659 133.921 95.1308 133.179 95.0652 132.78C95.0037 132.369 94.8993 131.833 94.8389 131.589C94.7142 131.158 94.7052 131.057 94.6769 130.587C94.6632 130.415 94.6412 130.268 94.5154 129.668C94.4804 129.532 94.4505 129.324 94.4264 129.156C94.4208 129.117 94.4155 129.081 94.4105 129.047C94.4009 128.863 93.7575 127.494 92.9872 125.999C92.2211 124.492 91.4629 122.918 91.2962 122.487C91.1422 122.059 90.873 121.385 90.7066 120.996C90.412 120.271 89.8878 118.494 89.9289 118.368C89.9413 118.33 89.868 118.04 89.7609 117.726C89.4912 116.968 89.4006 116.603 89.3987 116.309C89.3979 116.183 89.3254 116.02 89.2367 115.949C89.148 115.878 89.1175 115.715 89.1587 115.588C89.204 115.45 89.1732 115.244 89.101 115.123C89.0288 115.001 88.9939 114.808 89.0351 114.682C89.0763 114.556 89.0414 114.363 88.9692 114.242C88.897 114.12 88.8744 113.89 88.928 113.726C88.9815 113.561 88.9763 113.406 88.9132 113.386C88.7868 113.344 88.5323 111.683 88.4878 110.663C88.4798 110.426 88.4637 110.063 88.4499 109.754C88.4456 109.659 88.4416 109.568 88.4381 109.488C88.4242 109.248 88.4096 108.896 88.397 108.592C88.3923 108.48 88.388 108.374 88.384 108.283C88.3805 108.222 88.3768 108.156 88.3729 108.087C88.356 107.784 88.3359 107.425 88.3139 107.213C88.287 106.953 88.3101 106.625 88.3554 106.486C88.4048 106.335 88.4526 105.931 88.4587 105.57C88.4625 104.873 88.53 103.638 88.5808 103.054C88.6201 102.634 88.4048 102.48 87.6606 102.405C87.1224 102.341 86.9244 102.262 85.251 101.437C84.3237 100.981 83.4922 100.402 83.1489 99.9548C83.0388 99.8211 82.8867 99.6877 82.7982 99.6588C82.6467 99.6093 81.6595 98.3515 81.2305 97.6529C80.5171 96.4983 80.0294 94.5236 80.0434 92.8104C80.0659 91.1139 81.2316 88.8269 83.0302 86.9559C84.303 85.6256 85.3893 84.0528 85.6274 83.1948C86.1277 81.3191 85.7449 79.3228 84.3793 76.7404C82.15 72.5215 82.0262 72.2157 81.7323 70.3322C81.43 68.432 81.8095 66.7124 82.87 65.0474C83.8514 63.4963 84.6066 62.6813 86.2995 61.3485C87.6538 60.2821 88.6081 59.7137 91.7866 58.1115C93.2606 57.3636 94.7847 56.5482 95.1779 56.2855C96.0355 55.7134 97.833 54.3169 97.8783 54.1781C97.8989 54.115 98.0244 54.0302 98.1543 53.9749C98.2842 53.9195 98.4261 53.7843 98.4673 53.6581C98.5085 53.5318 98.6505 53.3966 98.7804 53.3413C98.9103 53.2859 99.0522 53.1507 99.0934 53.0245C99.1346 52.8982 99.2766 52.763 99.4065 52.7076C99.5364 52.6523 99.6948 52.4666 99.7566 52.2772C99.8142 52.1005 100.043 51.7003 100.255 51.3925C100.563 50.9623 100.881 50.1164 101.676 47.6805C102.73 44.4494 102.846 44.18 104.09 42.2956C104.556 41.5957 104.606 41.5282 105.687 40.4426C107.378 38.7318 108.365 38.1044 111.691 36.5223C114.003 35.4334 115.851 34.6958 117.491 34.2114C117.881 34.0873 118.258 33.959 118.317 33.9083C118.375 33.8575 119.561 33.4347 120.945 32.9644C122.328 32.4942 124.5 31.7084 125.778 31.2178C127.052 30.7398 128.221 30.3255 128.381 30.3077C128.541 30.2899 128.973 30.2075 129.346 30.1339C130.412 29.9091 131.411 29.7603 131.814 29.7663C132.024 29.765 132.545 29.7534 132.974 29.7256ZM144.881 53.4567C144.644 51.9969 143.833 49.386 143.31 48.3772C143.029 47.8247 142.672 47.2894 142.546 47.2062C142.225 46.9898 141.688 47.0938 140.766 47.5193C136.728 49.3996 135.387 50.4701 134.355 52.6051C133.882 53.5821 133.951 53.926 134.697 54.1692C135.354 54.3836 135.667 54.7092 135.166 54.6576C134.99 54.6419 134.607 54.5728 134.325 54.4948L133.807 54.3677L133.536 55.3267C133.097 56.9291 132.337 57.5468 130.627 57.6873C129.246 57.809 128.088 58.1016 127.888 58.3715C127.584 58.789 127.645 59.7586 128.06 60.9275C128.3 61.6483 128.368 61.7402 129.151 62.5123C129.561 62.9255 130.864 63.644 131.2 63.642C131.28 63.6541 131.616 63.694 131.953 63.734C132.55 63.8311 133.167 63.7812 133.389 63.6161C133.535 63.5102 134.123 63.3807 134.475 63.3702C134.601 63.3694 134.744 63.2762 134.777 63.1752C134.81 63.0742 135.085 62.829 135.374 62.6299C135.675 62.435 135.946 62.1604 135.992 62.0216C136.041 61.8701 136.274 61.4572 136.507 61.0863C136.752 60.7195 136.967 60.2312 136.995 60.0168C137.147 58.8235 137.147 58.181 137 57.5605C136.914 57.1831 136.857 56.8014 136.881 56.7257C136.906 56.6499 136.825 56.5119 136.686 56.4245C136.505 56.2955 136.5 56.2241 136.634 56.1561C136.785 56.0796 136.912 56.2468 137.142 56.7829C137.317 57.1891 137.442 57.5788 137.417 57.6546C137.392 57.7303 137.435 57.898 137.508 58.0193C137.58 58.1406 137.602 58.3714 137.549 58.5355C137.499 58.687 137.496 58.8675 137.547 58.926C137.687 59.0973 138.35 59.0345 138.899 58.8087L139.398 58.6083L139.509 58.9519C139.655 59.3625 139.739 59.32 140.083 58.6503C140.436 57.9974 141.102 57.1116 141.258 57.0644C141.333 57.0472 141.421 56.9501 141.454 56.8491C141.519 56.6472 143.215 55.6922 143.392 55.7499C143.455 55.7705 143.774 55.693 144.092 55.5735C144.763 55.3175 145.109 55.5002 144.632 55.8473C144.481 55.9658 144.251 56.0302 144.137 55.9931C143.897 55.9148 142.356 56.6547 142.286 56.8693C142.24 57.0081 143.014 58.3638 143.323 58.7021C143.424 58.819 143.412 58.8989 143.274 58.9795C143.145 59.0769 143.079 59.3628 143.037 60.0054C142.992 60.7447 142.947 60.9255 142.754 61.0443C142.122 61.4386 141.95 60.7258 142.345 59.4722C142.579 58.7528 142.616 58.5132 142.481 58.4133C142.388 58.355 142.205 58.1 142.082 57.8782C141.878 57.5184 141.798 57.4643 141.534 57.5037C141.353 57.5425 141.186 57.6695 141.145 57.7957C141.108 57.9093 140.896 58.2591 140.679 58.5375C140.337 58.9847 140.263 59.2119 140.155 59.9725C139.974 61.2123 140.115 62.2359 140.609 63.2071C141.171 64.3122 141.813 64.8709 142.988 65.2543C144.124 65.6253 144.372 65.5104 144.525 64.527C144.581 64.1823 144.743 63.2156 144.889 62.3834C145.035 61.5511 145.167 60.5468 145.19 60.1772C145.204 59.7908 145.25 59.0935 145.284 58.602C145.411 56.8419 145.388 55.8428 145.224 55.7892C145.123 55.7562 145.118 55.6429 145.197 55.529C145.263 55.411 145.258 55.2137 145.186 55.0924C145.105 54.9543 145.074 54.7488 145.115 54.6226C145.157 54.4963 145.147 54.3536 145.096 54.2952C145.046 54.2367 144.959 53.8593 144.881 53.4567ZM155.237 107.937C155.207 107.815 155.172 107.58 155.154 107.421C155.136 107.261 155.042 106.993 154.944 106.822C154.77 106.499 154.753 106.508 154.219 107.074C153.923 107.382 153.367 107.843 153.003 108.101C152.321 108.563 150.704 109.237 150.434 109.163C150.359 109.138 150.073 109.156 149.796 109.192C149.368 109.261 148.939 109.163 147.082 108.557C145.706 108.108 145.148 107.869 144.924 108.048C144.734 108.201 144.788 108.66 144.786 109.554C144.782 110.209 144.767 111.112 144.757 111.569C144.747 112.027 144.73 112.594 144.719 112.842C144.712 113.077 144.628 113.72 144.51 114.254C144.404 114.792 144.324 115.296 144.349 115.388C144.535 116.147 142.084 124.942 141.266 126.421C140.892 127.095 140.792 127.872 141.022 128.324C141.082 128.441 141.096 128.614 141.063 128.715C141.03 128.815 141.054 129.256 141.103 129.705C141.123 129.89 141.148 130.11 141.174 130.33C141.21 130.643 141.247 130.957 141.268 131.17C141.304 131.53 141.357 131.925 141.387 132.046C141.417 132.168 141.448 132.374 141.453 132.487C141.493 133.436 142.31 138.856 142.705 140.814C142.711 140.856 142.72 140.911 142.73 140.974C142.755 141.133 142.788 141.342 142.81 141.519C142.838 141.704 142.917 142.08 142.991 142.436C143.011 142.532 143.031 142.625 143.049 142.714C143.153 143.125 143.248 143.603 143.279 143.766C143.309 143.93 143.414 144.467 143.518 144.962C143.622 145.457 143.722 146.006 143.748 146.182C143.762 146.354 143.869 146.585 143.97 146.701C144.148 146.885 144.466 146.766 146.322 145.835C148.893 144.551 149.613 144.144 150.684 143.39C151.888 142.526 153.468 141.282 153.81 140.919C153.969 140.733 154.37 140.361 154.683 140.086C155.013 139.803 155.522 139.313 155.836 138.996C156.136 138.675 156.795 137.983 157.296 137.476C158.152 136.61 158.239 136.471 158.548 135.524C158.861 134.565 158.872 134.317 158.681 133.361C158.651 133.239 158.616 133.004 158.602 132.832C158.588 132.66 158.458 132.115 158.325 131.625C158.075 130.635 158.04 130.484 157.757 128.87C157.696 128.49 157.631 128.109 157.586 127.849C157.559 127.695 157.54 127.584 157.534 127.54C157.434 127.032 157.167 124.767 156.999 122.924C156.992 122.859 156.985 122.782 156.977 122.7C156.952 122.456 156.923 122.162 156.896 121.955C156.873 121.682 156.832 121.208 156.805 120.906C156.774 120.616 156.721 120.18 156.694 119.962C156.659 119.727 156.649 119.5 156.67 119.437C156.69 119.374 156.623 118.682 156.529 117.897C156.436 117.112 156.346 116.273 156.324 116.042C156.269 115.312 156.193 114.645 156.056 113.651C155.99 113.126 155.965 112.601 155.998 112.501C156.035 112.387 156 112.194 155.928 112.073C155.856 111.951 155.825 111.746 155.866 111.62C155.908 111.493 155.89 111.334 155.826 111.271C155.78 111.2 155.719 110.999 155.689 110.835C155.675 110.663 155.644 110.416 155.614 110.294C155.584 110.173 155.553 109.967 155.548 109.854C155.534 109.64 155.512 109.493 155.386 108.893C155.343 108.726 155.308 108.491 155.303 108.377C155.298 108.264 155.267 108.058 155.237 107.937ZM140.713 130.472C140.674 130.249 140.637 129.805 140.627 129.494C140.599 128.666 140.599 128.352 140.521 128.331C140.466 128.316 140.374 128.44 140.209 128.631C140.009 128.859 139.672 129.42 139.486 129.862C139.283 130.312 139.026 130.801 138.905 130.957C138.784 131.113 138.535 131.493 138.356 131.825C138.182 132.146 137.795 132.774 137.496 133.22C137.188 133.651 136.826 134.203 136.684 134.422C136.555 134.645 136.21 135.105 135.935 135.434C135.659 135.763 135.339 136.19 135.218 136.388C134.794 137.045 132.368 139.424 131.014 140.49C129.789 141.459 129.099 141.904 127.21 142.894C126.603 143.212 123.854 144.27 123.296 144.396C122.663 144.538 120.295 144.855 119.703 144.871C118.673 144.898 117.736 144.858 116.899 144.724L116.796 144.71C116.368 144.651 115.833 144.578 115.554 144.564C114.721 144.502 112.094 143.603 111.052 143.025C110.542 142.747 109.863 142.428 109.535 142.321C109.219 142.218 108.637 141.944 108.254 141.707C107.853 141.479 107.115 141.042 106.6 140.735C106.086 140.427 105.457 140.04 105.208 139.861C104.959 139.682 104.427 139.299 104.022 138.999C103.068 138.325 102.257 137.683 101.682 137.132C99.957 135.522 98.9209 134.5 98.8907 134.378C98.8649 134.286 98.7803 134.202 98.6792 134.169C98.5782 134.136 98.3371 133.89 98.1295 133.627C97.9219 133.364 97.6594 133.054 97.541 132.946C97.2156 132.658 96.9995 132.378 96.2023 131.266C95.2736 129.958 95.0001 129.896 95.1841 131.046C95.2585 131.503 95.3758 132.086 95.4447 132.346C95.5051 132.589 95.5617 132.887 95.5748 132.975C95.5972 133.386 95.6288 133.545 95.7711 134.259L95.8028 134.418C95.9069 134.913 96.0112 135.449 96.0417 135.613C96.0722 135.777 96.1458 136.108 96.2147 136.368C96.2877 136.615 96.3921 137.152 96.4536 137.563C96.5192 137.961 96.6362 138.502 96.6925 138.758C96.7656 139.005 96.8306 139.32 96.8482 139.437C96.8658 139.555 96.9608 139.949 97.0597 140.288C97.1544 140.641 97.2198 140.997 97.195 141.073C97.1703 141.149 97.2003 141.228 97.2634 141.249C97.3266 141.269 97.3908 141.458 97.4048 141.672C97.4826 142.633 97.9747 143.995 98.3031 144.102C98.4168 144.139 98.5478 144.252 98.5988 144.352C98.6584 144.469 98.9786 144.602 99.4498 144.7C99.879 144.798 102.333 145.501 104.918 146.275C107.507 147.036 109.919 147.697 110.285 147.733C110.646 147.781 111.614 148.027 112.435 148.295C113.256 148.563 114.262 148.821 114.649 148.878C115.053 148.926 115.797 149.043 116.302 149.124C116.815 149.222 117.656 149.342 118.165 149.411C118.691 149.47 119.565 149.574 120.116 149.642C120.667 149.71 121.344 149.778 121.609 149.78C121.873 149.783 122.491 149.817 122.983 149.852C124.185 149.937 125.29 149.976 125.883 149.96C126.152 149.95 126.601 149.943 126.866 149.946C127.084 149.938 127.4 149.943 127.63 149.947C127.683 149.947 127.732 149.948 127.773 149.949C128.324 149.975 129.718 149.899 131.616 149.736C132.88 149.632 136.876 148.995 137.732 148.772C138.285 148.617 138.768 148.509 138.806 148.521C138.932 148.563 140.475 148.117 140.949 147.908C141.179 147.802 141.599 147.673 141.901 147.604C142.19 147.531 142.58 147.407 142.752 147.309C143.049 147.127 143.048 147.085 142.691 145.823C142.493 145.102 142.316 144.36 142.303 144.188C142.28 143.999 142.215 143.643 142.142 143.395C142.086 143.14 141.973 142.544 141.894 142.058L141.87 141.911C141.796 141.45 141.708 140.91 141.653 140.652C141.554 140.187 141.385 138.819 141.171 136.864C141.135 136.503 141.081 136.025 141.042 135.802C141.007 135.567 141.001 135.328 141.022 135.265C141.042 135.202 141.01 134.744 140.96 134.253C140.902 133.746 140.835 133.053 140.811 132.697C140.801 132.344 140.756 131.882 140.716 131.66C140.673 131.45 140.676 131.186 140.708 131.085C140.746 130.971 140.748 130.707 140.713 130.472Z" fill="black"/>
<path fill-rule="evenodd" clip-rule="evenodd" d="M164.577 5.05489C164.203 5.04456 163.685 4.95953 163.428 4.8897C163.176 4.80726 162.533 4.76497 161.995 4.78502C161.457 4.80507 160.865 4.82125 160.668 4.82665C160.47 4.83204 159.962 4.84772 159.534 4.8755C159.152 4.90027 158.696 4.91214 158.462 4.91825L158.387 4.92024C158.193 4.91301 157.908 4.93153 157.744 4.96191C157.597 4.9838 157.207 5.02396 156.896 5.03424C156.228 5.06768 154.876 5.14305 154.477 5.16646C154.386 5.17653 154.224 5.18568 154.044 5.19589L154.043 5.19591C153.905 5.2037 153.756 5.21212 153.62 5.22203C153.309 5.23232 152.541 5.27476 151.911 5.32056C151.281 5.36637 150.541 5.40444 150.273 5.41447C149.311 5.44968 148.63 5.479 147.5 5.55723C146.871 5.60303 146.102 5.64547 145.791 5.65575C145.524 5.66458 145.158 5.69257 144.906 5.71187L144.906 5.71189L144.792 5.72059C144.658 5.73358 144.449 5.74561 144.235 5.7579C144.081 5.76679 143.924 5.77582 143.792 5.78543C143.481 5.79571 142.956 5.81988 142.628 5.83866C142.538 5.84256 142.433 5.84685 142.322 5.85139L142.32 5.8515C142.015 5.86399 141.663 5.87842 141.423 5.89215C141.083 5.90681 140.625 5.93898 140.381 5.95725C140.247 5.97024 140.039 5.98226 139.825 5.99454L139.825 5.99455C139.671 6.00344 139.514 6.01246 139.382 6.02208C138.588 6.05628 137.307 6.12703 136.963 6.1543C136.872 6.16437 136.71 6.17353 136.529 6.18374L136.529 6.18376C136.391 6.19156 136.242 6.19997 136.106 6.20988C135.795 6.22016 135.026 6.26261 134.396 6.30842C133.981 6.33859 133.514 6.36362 133.161 6.38249C132.978 6.39226 132.827 6.40037 132.729 6.40669C132.609 6.4125 132.459 6.4178 132.305 6.42327C132.076 6.43138 131.837 6.43986 131.666 6.45091L131.56 6.45601C131.214 6.47247 130.551 6.50401 129.986 6.54507C129.356 6.59087 128.588 6.63332 128.277 6.6436C128.01 6.65242 127.644 6.68041 127.392 6.69971L127.277 6.70844C127.143 6.72143 126.934 6.73346 126.721 6.74575C126.567 6.75464 126.41 6.76366 126.278 6.77327C125.967 6.78355 125.236 6.83837 124.648 6.88392C124.073 6.93359 123.51 6.94539 123.409 6.91241C123.308 6.87944 123.043 6.87685 122.833 6.92011C122.611 6.95924 122.179 6.99964 121.868 7.00993C121.557 7.0202 120.788 7.06266 120.158 7.10846C119.528 7.15427 118.789 7.19233 118.52 7.20235C118.251 7.21238 117.512 7.25046 116.882 7.29626C116.467 7.32643 116 7.35145 115.647 7.37031L115.647 7.37032L115.646 7.37034C115.464 7.38011 115.312 7.38822 115.215 7.39454C115.095 7.40034 114.945 7.40565 114.791 7.41112C114.562 7.41922 114.323 7.4277 114.152 7.43876L114.045 7.44386C113.699 7.46033 113.037 7.49186 112.472 7.53291C111.842 7.57871 111.074 7.62116 110.763 7.63144C110.496 7.64026 110.13 7.66824 109.878 7.68755L109.763 7.69628C109.629 7.70927 109.42 7.7213 109.207 7.73359L109.207 7.7336C109.052 7.74248 108.896 7.7515 108.764 7.76111C108.453 7.77139 107.722 7.82621 107.134 7.87176C106.559 7.92143 105.996 7.93323 105.895 7.90025C105.794 7.86728 105.529 7.86469 105.319 7.90795C105.097 7.94709 104.664 7.9875 104.354 7.99778C104.043 8.00806 103.274 8.0505 102.644 8.09631C102.014 8.14211 101.246 8.18455 100.935 8.19483C100.668 8.20366 100.302 8.23165 100.05 8.25096L99.9352 8.25967C99.8013 8.27266 99.5923 8.28469 99.3789 8.29698L99.3787 8.297C99.2244 8.30588 99.0678 8.3149 98.9357 8.32451C98.6248 8.33479 98.0998 8.35896 97.7722 8.37774C97.6817 8.38164 97.5771 8.38592 97.4663 8.39046L97.4635 8.39058L97.4634 8.39058C97.1584 8.40307 96.8064 8.4175 96.5667 8.43123C96.2265 8.44589 95.7687 8.47806 95.5251 8.49633L95.4185 8.50328C94.9872 8.53145 94.3348 8.57405 93.2907 8.61903C92.9505 8.63368 92.4927 8.66586 92.2491 8.68413C92.1152 8.69711 91.9065 8.70913 91.6933 8.7214L91.693 8.72142C91.5386 8.73031 91.3819 8.73934 91.2496 8.74896C90.9387 8.75924 90.208 8.81405 89.6201 8.8596C89.0448 8.90927 88.4819 8.92109 88.3808 8.88811C88.2798 8.85513 88.015 8.85253 87.8052 8.89579C87.5828 8.93493 87.1503 8.97534 86.8395 8.98562C86.5286 8.9959 85.76 9.03834 85.1301 9.08415C84.5001 9.12995 83.7315 9.1724 83.4207 9.18268C83.1539 9.1915 82.7882 9.21949 82.5359 9.23879L82.4211 9.24752C82.1902 9.26991 81.7198 9.29795 81.3922 9.31672L81.3449 9.31838C80.7945 9.33764 80.4618 9.34929 79.0526 9.41908C78.7123 9.43373 78.2546 9.4659 78.011 9.48417C77.5365 9.52484 76.6125 9.57243 75.7346 9.60714C75.4677 9.61596 75.1018 9.64395 74.8495 9.66326L74.735 9.67197C74.601 9.68496 74.392 9.697 74.1787 9.70928L74.1786 9.70929C74.0243 9.71818 73.8676 9.7272 73.7355 9.73681C73.4246 9.74709 72.656 9.78953 72.0261 9.83534C71.6111 9.86551 71.1432 9.89054 70.7905 9.90941C70.6079 9.91917 70.4561 9.92729 70.3587 9.93361C70.2384 9.93942 70.0889 9.94473 69.9344 9.9502C69.7057 9.9583 69.4664 9.96678 69.296 9.97784L69.1891 9.98294L69.1889 9.98296C68.8428 9.99943 68.1804 10.0309 67.616 10.072C66.986 10.1178 66.2174 10.1602 65.9066 10.1705C65.0119 10.2137 64.8062 10.2444 64.0091 10.4171C63.598 10.5204 63.107 10.6116 62.9474 10.6293C62.0489 10.7271 58.0145 13.1533 57.8333 13.7087C57.8086 13.7844 57.5084 14.1473 57.1621 14.5231C56.8326 14.8904 56.0118 15.9493 55.3415 16.8897C55.2396 17.0331 55.1434 17.1685 55.0522 17.2968C54.293 18.3647 53.8859 18.9374 53.5126 19.5314C53.0809 20.2183 52.6946 20.9338 51.8615 22.4768L51.7742 22.6385C50.7283 24.6015 49.9204 27.6337 49.8306 29.9646C49.7831 31.0524 49.8639 32.4753 49.9982 33.0917C50.0157 33.2092 50.0465 33.4147 50.0514 33.5281C50.0564 33.6414 50.0871 33.847 50.1173 33.9686C50.1475 34.0901 50.1783 34.2957 50.1832 34.409C50.1882 34.5224 50.2189 34.7279 50.2492 34.8495C50.2794 34.9711 50.3101 35.1767 50.3151 35.29C50.32 35.4033 50.5276 36.9514 50.7871 38.726C50.9167 39.6553 51.0972 40.9245 51.2776 42.1937L51.2776 42.1938C51.4409 43.3425 51.6042 44.4912 51.7299 45.388C51.8195 46.0278 51.9308 46.8173 52.0497 47.6602L52.0514 47.6726L52.0516 47.6739C52.283 49.3149 52.5427 51.156 52.7259 52.4864C53.0079 54.4917 53.2589 56.2495 53.2891 56.3711C53.3193 56.4927 53.3501 56.6983 53.355 56.8116C53.36 56.9249 53.3907 57.1305 53.4209 57.2521C53.4511 57.3737 53.4819 57.5792 53.4868 57.6925C53.4918 57.8059 53.5225 58.0114 53.5527 58.133C53.583 58.2546 53.6137 58.4602 53.6187 58.5735C53.6236 58.6869 53.6544 58.8924 53.6846 59.014C53.7148 59.1356 53.7455 59.3411 53.7505 59.4545C53.7554 59.5678 53.7862 59.7734 53.8164 59.8949C53.8466 60.0165 53.8773 60.2221 53.8823 60.3354C53.8872 60.4488 53.918 60.6543 53.9482 60.7759C53.9784 60.8975 54.0092 61.103 54.0141 61.2164C54.019 61.3297 54.2527 63.012 54.5301 64.946C54.7655 66.6219 55.0185 68.4156 55.2715 70.2094L55.2724 70.2155C55.7107 73.3232 56.149 76.4306 56.4955 78.9246L56.563 79.398L56.5631 79.3987C56.7805 80.9232 56.9607 82.1872 56.9882 82.2975C57.0184 82.4191 57.0491 82.6246 57.0541 82.738C57.059 82.8513 57.0898 83.0569 57.12 83.1785C57.1502 83.3 57.1809 83.5056 57.1859 83.6189C57.1908 83.7323 57.2216 83.9378 57.2518 84.0594C57.282 84.181 57.3127 84.3865 57.3177 84.4999C57.3226 84.6132 57.3534 84.8188 57.3836 84.9404C57.4138 85.0619 57.4446 85.2675 57.4495 85.3808C57.4545 85.4942 57.4852 85.6997 57.5154 85.8213C57.5456 85.9429 57.5764 86.1485 57.5813 86.2618C57.5863 86.3751 57.617 86.5807 57.6472 86.7023C57.6774 86.8239 57.7082 87.0294 57.7131 87.1427C57.7181 87.2561 57.7488 87.4616 57.779 87.5832C57.8092 87.7048 57.84 87.9104 57.8449 88.0237C57.8504 88.221 58.0575 89.6852 59.2864 98.3399C59.5459 100.114 59.9779 103.202 60.2558 105.22C60.5378 107.225 60.7888 108.983 60.819 109.105C60.8492 109.226 60.88 109.432 60.8849 109.545C60.8899 109.659 60.9206 109.864 60.9508 109.986C60.981 110.107 61.0118 110.313 61.0167 110.426C61.0217 110.54 61.0524 110.745 61.0826 110.867C61.1128 110.988 61.1436 111.194 61.1485 111.307C61.1535 111.421 61.1842 111.626 61.2144 111.748C61.2447 111.869 61.2754 112.075 61.2804 112.188C61.2853 112.302 61.3161 112.507 61.3463 112.629C61.3765 112.75 61.4072 112.956 61.4122 113.069C61.4171 113.182 61.4479 113.388 61.4781 113.51C61.5083 113.631 61.539 113.837 61.544 113.95C61.5489 114.063 61.7826 115.746 62.06 117.68L62.0829 117.841C62.7386 122.462 63.502 127.843 64.0254 131.658L64.0928 132.131C64.3103 133.656 64.4906 134.921 64.518 135.031C64.5483 135.153 64.579 135.358 64.5839 135.472C64.5889 135.585 64.6197 135.791 64.6499 135.912C64.6801 136.034 64.7108 136.239 64.7158 136.353C64.7207 136.466 64.7515 136.672 64.7817 136.793C64.8119 136.915 64.8426 137.12 64.8476 137.234C64.8525 137.347 64.8833 137.552 64.9135 137.674C64.9437 137.796 64.9745 138.001 64.9794 138.115C64.9843 138.228 65.0151 138.433 65.0453 138.555C65.0755 138.677 65.1063 138.882 65.1112 138.995C65.1162 139.109 65.1469 139.314 65.1771 139.436C65.2073 139.558 65.2381 139.763 65.243 139.876C65.248 139.99 65.2787 140.195 65.3089 140.317C65.3391 140.439 65.3699 140.644 65.3748 140.757C65.3798 140.871 65.6091 142.524 65.8735 144.412C66.0861 145.929 66.4093 148.186 66.6629 149.957L66.8336 151.149C66.9682 152.09 67.1396 153.321 67.3079 154.529L67.3089 154.536C67.4651 155.657 67.6185 156.758 67.7371 157.589C67.971 159.313 68.1869 160.836 68.2171 160.958C68.2473 161.079 68.278 161.285 68.283 161.398C68.2879 161.511 68.3187 161.717 68.3489 161.839C68.3791 161.96 68.4099 162.166 68.4148 162.279C68.4197 162.392 68.4505 162.598 68.4807 162.719C68.486 162.741 68.4912 162.764 68.4964 162.79L74.6225 162.707C74.5857 162.443 74.5476 162.171 74.5088 161.894C74.2963 160.377 73.9732 158.121 73.7197 156.35L73.5487 155.156C73.4143 154.216 73.2431 152.987 73.075 151.781L73.0744 151.776L73.0738 151.772C72.9175 150.65 72.7639 149.548 72.6453 148.716C72.4113 146.992 72.1954 145.469 72.1652 145.348C72.135 145.226 72.1043 145.02 72.0993 144.907C72.0944 144.794 72.0636 144.588 72.0334 144.467C72.0032 144.345 71.9725 144.139 71.9675 144.026C71.9626 143.913 71.9318 143.707 71.9016 143.586C71.8714 143.464 71.8406 143.259 71.8357 143.145C71.8307 143.032 71.8 142.826 71.7698 142.705C71.7396 142.583 71.7088 142.378 71.7039 142.264C71.6989 142.151 71.6682 141.945 71.638 141.824C71.6078 141.702 71.577 141.497 71.5721 141.383C71.5671 141.27 71.5364 141.064 71.5062 140.943C71.476 140.821 71.4452 140.616 71.4402 140.502C71.4353 140.389 71.4046 140.183 71.3743 140.062C71.3441 139.94 71.3134 139.735 71.3084 139.621C71.3035 139.508 71.0742 137.855 70.8097 135.967C70.5975 134.452 70.275 132.2 70.0216 130.43L69.8497 129.23C69.7151 128.289 69.5437 127.059 69.3755 125.851L69.3752 125.849C69.2187 124.726 69.065 123.623 68.9462 122.79C68.7122 121.066 68.4964 119.543 68.4662 119.421C68.436 119.3 68.4052 119.094 68.4003 118.981C68.3953 118.867 68.3646 118.662 68.3344 118.54C68.3042 118.419 68.2734 118.213 68.2685 118.1C68.2635 117.986 68.2328 117.781 68.2026 117.659C68.1724 117.538 68.1416 117.332 68.1367 117.219C68.1317 117.105 68.101 116.9 68.0707 116.778C68.0405 116.657 68.0098 116.451 68.0048 116.338C67.9999 116.225 67.9691 116.019 67.9389 115.897C67.9087 115.776 67.878 115.57 67.873 115.457C67.8681 115.344 67.8373 115.138 67.8071 115.016C67.7769 114.895 67.7462 114.689 67.7412 114.576C67.7363 114.463 67.7055 114.257 67.6753 114.135C67.6451 114.014 67.6143 113.808 67.6094 113.695C67.6039 113.498 67.3968 112.034 66.1679 103.379C65.9854 102.13 65.7195 100.225 65.4796 98.5075L65.4794 98.5057C65.3784 97.7825 65.2821 97.0925 65.1986 96.4986C64.9207 94.4806 64.6655 92.7355 64.6353 92.6139C64.6051 92.4923 64.5744 92.2867 64.5694 92.1734C64.5645 92.0601 64.5337 91.8545 64.5035 91.7329C64.4733 91.6114 64.4426 91.4058 64.4376 91.2925C64.4327 91.1791 64.4019 90.9736 64.3717 90.852C64.3415 90.7304 64.3107 90.5248 64.3058 90.4115C64.3009 90.2982 64.2701 90.0926 64.2399 89.971C64.2097 89.8494 64.1789 89.6439 64.174 89.5305C64.169 89.4172 64.1383 89.2116 64.1081 89.0901C64.0779 88.9685 64.0471 88.7629 64.0422 88.6496C64.0372 88.5362 64.0065 88.3307 63.9763 88.2091C63.9461 88.0875 63.9153 87.882 63.9104 87.7686C63.9049 87.5713 63.6978 86.1072 62.4689 77.4524C62.2862 76.2033 62.0201 74.2972 61.7802 72.5785L61.7786 72.5667C61.6783 71.8481 61.5826 71.1627 61.4995 70.5722C61.2216 68.5543 60.9665 66.8091 60.9363 66.6875C60.9061 66.5659 60.8753 66.3604 60.8704 66.247C60.8654 66.1337 60.8347 65.9281 60.8045 65.8066C60.7743 65.685 60.7435 65.4794 60.7386 65.3661C60.7336 65.2527 60.7029 65.0472 60.6727 64.9256C60.6425 64.804 60.6117 64.5985 60.6068 64.4851C60.6018 64.3718 60.5711 64.1662 60.5409 64.0446C60.5106 63.9231 60.4799 63.7175 60.4749 63.6042C60.47 63.4908 60.4392 63.2853 60.409 63.1637C60.3788 63.0421 60.3481 62.8366 60.3431 62.7232C60.3382 62.6099 60.3074 62.4043 60.2772 62.2827C60.247 62.1611 60.2163 61.9556 60.2113 61.8423C60.2064 61.7289 59.9988 60.1808 59.7393 58.4063C58.9728 53.0028 58.1885 47.4399 57.7299 44.134L57.6623 43.6602L57.6623 43.6599C57.4449 42.1354 57.2647 40.8715 57.2373 40.7611C57.2071 40.6395 57.1763 40.434 57.1714 40.3207C57.1664 40.2073 57.1357 40.0018 57.1054 39.8802C57.0752 39.7586 57.0445 39.553 57.0395 39.4397C57.0346 39.3264 57.0038 39.1208 56.9736 38.9992C56.9434 38.8776 56.9127 38.6721 56.9077 38.5587C56.9028 38.4454 56.872 38.2399 56.8418 38.1183C56.8116 37.9967 56.7809 37.7911 56.7759 37.6778C56.771 37.5644 56.7402 37.3589 56.71 37.2373C56.6798 37.1157 56.649 36.9102 56.6441 36.7968C56.6392 36.6835 56.6084 36.4779 56.5782 36.3564C56.548 36.2348 56.5172 36.0292 56.5123 35.9159C56.498 35.6598 55.6083 29.3922 55.1774 26.4724C54.6367 22.8185 54.6839 21.0463 55.4044 18.7956C55.9317 17.18 57.0658 15.2039 57.7185 14.7884C57.8399 14.7163 57.9692 14.577 57.9939 14.5013C58.1381 14.0595 59.9315 12.6756 61.1878 12.0382C62.306 11.4814 64.2894 10.8857 65.2763 10.8168C65.4067 10.8073 65.6148 10.7945 65.8587 10.7794L65.859 10.7794L65.8598 10.7794C66.2048 10.7581 66.6211 10.7324 66.9899 10.7056C67.6198 10.6598 68.359 10.6217 68.6279 10.6117C68.8967 10.6017 69.6359 10.5636 70.2659 10.5178C71.3956 10.4396 72.076 10.4103 73.038 10.375C73.3068 10.365 74.046 10.327 74.676 10.2812C75.3059 10.2354 76.0745 10.1929 76.3854 10.1826C76.6962 10.1723 77.154 10.1402 77.3849 10.1178C77.5045 10.1088 77.6716 10.0986 77.848 10.0877L77.8482 10.0877L77.8489 10.0877C78.0317 10.0764 78.2244 10.0646 78.3845 10.053C78.6953 10.0427 79.426 9.98786 80.014 9.94231C80.5893 9.89264 81.1522 9.88082 81.2532 9.9138C81.3543 9.94678 81.619 9.94938 81.8288 9.90612C82.0512 9.86698 82.4837 9.82657 82.7946 9.81629C83.1054 9.80601 83.874 9.76357 84.504 9.71776C85.1339 9.67196 85.8732 9.63389 86.142 9.62386C86.4108 9.61383 87.15 9.57577 87.78 9.52997C88.4099 9.48417 89.1492 9.44609 89.418 9.43607C90.3799 9.40085 91.0604 9.37154 92.1901 9.29332C92.82 9.24751 93.5886 9.20506 93.8995 9.19478C94.2103 9.1845 94.6681 9.15234 94.899 9.12995C95.0187 9.12097 95.1859 9.1107 95.3625 9.09985C95.5454 9.08861 95.7383 9.07675 95.8986 9.0651C96.2095 9.05482 96.9402 9.00001 97.5281 8.95446C98.1034 8.90478 98.6663 8.89298 98.7674 8.92596C98.8684 8.95894 99.1331 8.96154 99.3429 8.91828C99.5654 8.87914 99.9979 8.83873 100.309 8.82845C101.002 8.80325 102.342 8.72376 102.728 8.69623C102.818 8.68616 102.98 8.67701 103.161 8.6668C103.299 8.659 103.448 8.65057 103.585 8.64065C103.896 8.63037 104.664 8.58793 105.294 8.54213C106.424 8.4639 107.104 8.43458 108.066 8.39937C108.335 8.38934 109.074 8.35127 109.704 8.30546C110.334 8.25966 111.103 8.21722 111.414 8.20694C111.724 8.19666 112.182 8.1645 112.413 8.1421C112.533 8.13313 112.7 8.12285 112.877 8.11201L112.877 8.11199C113.06 8.10075 113.253 8.08891 113.413 8.07726C113.65 8.0694 114.013 8.05342 114.323 8.03978L114.589 8.02815C114.828 8.01442 115.18 8.00001 115.485 7.98752L115.486 7.9875C115.597 7.98291 115.703 7.97859 115.794 7.97466C116.122 7.95588 116.592 7.92783 116.823 7.90544C116.943 7.89647 117.11 7.88619 117.287 7.87535C117.47 7.86411 117.663 7.85226 117.823 7.84061C118.617 7.80641 119.898 7.73566 120.242 7.70838C120.332 7.69832 120.494 7.68917 120.675 7.67896L120.675 7.67895C120.813 7.67115 120.962 7.66273 121.099 7.65281C121.41 7.64253 122.178 7.60008 122.808 7.55427C123.373 7.51323 124.035 7.48172 124.381 7.46525L124.488 7.46013C124.659 7.44907 124.898 7.44059 125.127 7.43248L125.128 7.43244C125.282 7.42698 125.431 7.42169 125.551 7.4159C125.648 7.40959 125.8 7.40149 125.982 7.39174L125.983 7.39169L125.983 7.39169C126.336 7.37282 126.803 7.34779 127.218 7.31762C127.848 7.27182 128.617 7.22938 128.928 7.21909C129.239 7.20881 129.696 7.17666 129.927 7.15426C130.047 7.1453 130.214 7.13505 130.39 7.12423L130.391 7.12416C130.574 7.11293 130.767 7.10107 130.927 7.08942C131.07 7.08468 131.263 7.07517 131.463 7.06526L131.464 7.06524C131.698 7.05368 131.942 7.04159 132.132 7.03592C132.322 7.03025 132.567 7.01817 132.801 7.00662L132.801 7.0066C133.002 6.9967 133.194 6.98719 133.338 6.98244C133.649 6.97216 134.106 6.93999 134.337 6.9176C134.457 6.90862 134.624 6.89835 134.801 6.88751L134.801 6.88748C134.984 6.87625 135.177 6.86441 135.337 6.85277C136.131 6.81856 137.412 6.74782 137.756 6.72055C137.847 6.71047 138.009 6.70132 138.189 6.69111L138.19 6.69107C138.328 6.68328 138.477 6.67487 138.613 6.66497C138.924 6.65469 139.692 6.61223 140.322 6.56643C140.887 6.52539 141.549 6.49386 141.895 6.47739L141.896 6.47737L142.002 6.47228C142.173 6.46122 142.412 6.45274 142.641 6.44464C142.795 6.43916 142.945 6.43386 143.065 6.42806C143.163 6.42173 143.314 6.41362 143.497 6.40385C143.85 6.38498 144.317 6.35995 144.732 6.32978C145.362 6.28397 146.131 6.24153 146.442 6.23125C146.753 6.22097 147.21 6.1888 147.441 6.16641C147.916 6.12574 148.84 6.07816 149.688 6.04783C150.936 5.99409 151.448 5.96579 151.852 5.92975C151.971 5.92079 152.138 5.91053 152.314 5.89969L152.315 5.89968L152.315 5.89964C152.498 5.88841 152.691 5.87657 152.851 5.86492C153.645 5.83072 154.926 5.75998 155.27 5.7327C155.361 5.72264 155.523 5.71348 155.703 5.70326L155.704 5.70325C155.842 5.69545 155.991 5.68703 156.127 5.67712C156.438 5.66683 157.207 5.62439 157.836 5.57859C158.466 5.53278 159.206 5.49472 159.474 5.4847C159.657 5.47741 159.869 5.46823 160.115 5.45756L160.116 5.45749C160.538 5.43919 161.061 5.4165 161.713 5.39136C163.305 5.31034 163.717 5.37501 165.663 6.00985C167.111 6.49653 167.688 6.74077 167.997 6.99503C168.225 7.19519 168.499 7.38248 168.613 7.41959C168.941 7.52676 170.615 9.0366 170.971 9.52991C171.132 9.76406 171.327 9.98122 171.403 10.006C171.479 10.0307 171.857 10.6708 172.265 11.4325C172.887 12.6548 173.118 13.2749 173.39 14.4951C173.494 14.9479 174.263 20.1288 174.678 23.225L174.736 23.6293L174.736 23.6342C174.923 24.952 175.078 26.0471 175.105 26.1574C175.135 26.279 175.166 26.4426 175.166 26.5266C175.167 26.5398 175.169 26.5565 175.17 26.5757L175.172 26.6065C175.178 26.6895 175.186 26.8017 175.19 26.8833C175.195 26.9967 175.221 27.2148 175.26 27.3532C175.274 27.4453 175.303 27.5755 175.329 27.6928C175.344 27.7623 175.359 27.8274 175.369 27.8774C175.403 28.0283 175.43 28.2465 175.435 28.3598C175.44 28.4732 175.47 28.6787 175.501 28.8003C175.531 28.9219 175.562 29.1274 175.567 29.2408C175.572 29.3541 175.602 29.5597 175.632 29.6813C175.663 29.8028 175.693 30.0084 175.698 30.1217C175.703 30.2351 175.88 31.5356 176.087 32.9998C177.039 39.8045 177.229 41.1512 177.493 42.9971C177.615 43.815 177.723 44.5807 177.776 44.9593C177.794 45.0837 177.805 45.1663 177.81 45.1953C177.835 45.2957 177.863 45.5591 177.893 45.8273L177.911 45.9967C177.935 46.3115 177.983 46.6765 178.013 46.7981C178.044 46.9197 178.074 47.1252 178.079 47.2385C178.084 47.3519 178.115 47.5574 178.145 47.679C178.175 47.8006 178.206 48.0062 178.211 48.1195C178.216 48.2328 178.247 48.4384 178.277 48.56C178.307 48.6816 178.338 48.8871 178.343 49.0005C178.348 49.1138 178.379 49.3194 178.409 49.4409C178.439 49.5625 178.47 49.7681 178.475 49.8814C178.48 49.9948 178.51 50.2003 178.541 50.3219C178.571 50.4435 178.602 50.649 178.607 50.7624C178.611 50.8757 178.788 52.1763 178.995 53.6404C179.1 54.4065 179.242 55.4288 179.384 56.4457L179.384 56.4505L179.387 56.4686C179.517 57.4042 179.646 58.3334 179.745 59.0524C179.875 60.024 180.008 60.9509 180.094 61.5497L180.094 61.5519C180.143 61.888 180.176 62.1204 180.186 62.1988C180.295 62.807 180.1 63.1903 178.908 64.7846C178.292 65.6029 177.767 66.3535 177.739 66.4419C177.706 66.5428 177.535 66.7664 177.372 66.9228C177.205 67.0917 177.014 67.3784 176.956 67.5551C176.894 67.7444 176.703 68.0311 176.54 68.1874C176.373 68.3564 176.173 68.6683 176.103 68.8829C176.029 69.1101 175.83 69.422 175.667 69.5783C175.333 69.9163 175.002 70.758 175.146 70.9167C175.235 71.0296 175.518 70.6751 175.659 70.246C175.708 70.0946 175.891 69.8331 176.054 69.6768C176.221 69.5078 176.421 69.1959 176.491 68.9813C176.565 68.7541 176.764 68.4422 176.927 68.2859C177.094 68.1169 177.294 67.805 177.368 67.5778C177.438 67.3632 177.558 67.1651 177.651 67.1394C177.726 67.1221 177.91 66.9447 178.047 66.7381C178.185 66.5315 178.522 66.097 178.797 65.7678C179.777 64.5652 180.01 64.2783 180.235 63.9326C180.355 63.7346 180.689 63.3127 180.964 62.9835C181.239 62.6543 181.531 62.2746 181.614 62.1482C181.71 62.0258 181.885 61.8316 182.031 61.7258C182.165 61.6158 182.302 61.4512 182.352 61.3417C182.48 60.9925 183.606 60.2844 184.193 60.1969C184.71 60.114 185.021 60.1877 187.295 60.9297C190.566 61.9974 190.773 62.1767 191.117 63.9927C191.209 64.4834 191.334 64.9991 191.385 65.1415C191.453 65.2755 191.476 65.4643 191.447 65.5526C191.418 65.641 191.475 65.9388 191.569 66.2069C191.671 66.4918 191.771 66.8733 191.776 67.0706C191.794 67.2721 191.872 67.6327 191.941 67.8926C192.014 68.1399 192.067 68.4503 192.084 68.5677C192.089 68.6811 192.12 68.8866 192.15 69.0082C192.18 69.1298 192.211 69.3354 192.216 69.4487C192.221 69.562 192.252 69.7676 192.282 69.8892C192.312 70.0108 192.343 70.2163 192.348 70.3297C192.353 70.443 192.371 70.6444 192.401 70.766C192.539 71.3278 193.123 75.8338 193.086 75.9474C193.074 75.9853 193.114 76.4175 193.164 76.9085C193.302 78.1127 193.344 78.7129 193.366 80.2285C193.379 80.9171 193.397 81.7189 193.42 81.9917C193.445 82.5584 193.403 83.9695 193.3 86.2123C193.278 86.6659 193.261 87.3168 193.26 87.6653C193.258 88.0138 193.206 88.4298 193.156 88.5813C193.066 88.859 193.003 89.5228 192.86 91.4593C192.838 91.8709 192.732 92.451 192.633 92.7539C192.538 93.0442 192.482 93.4308 192.513 93.5944C192.539 93.7706 192.393 94.6028 192.18 95.4691C191.955 96.3312 191.706 97.479 191.613 98.0212C191.516 98.66 191.084 100.069 190.425 101.963C189.484 104.672 189.108 105.527 188.132 107.36C187.933 107.713 187.618 108.337 187.419 108.733C187.232 109.133 186.966 109.605 186.821 109.794L186.777 109.856C186.627 110.066 186.334 110.477 186.109 110.819C185.443 111.789 184.555 112.882 184.083 113.3C184 113.385 183.853 113.533 183.783 113.621C183.712 113.71 183.566 113.858 183.47 113.938C183.373 114.018 183.186 114.208 183.052 114.36C182.935 114.504 182.171 115.134 181.377 115.769C179.705 117.08 176.991 118.541 175.368 118.975C174.802 119.126 174.328 119.292 174.312 119.343C174.295 119.393 174.174 119.423 174.044 119.437C173.905 119.433 173.59 119.498 173.33 119.567C173.083 119.64 172.772 119.692 172.655 119.71C172.541 119.715 172.336 119.745 172.214 119.775C172.092 119.805 171.887 119.836 171.773 119.841C171.66 119.846 171.454 119.876 171.332 119.907C171.211 119.937 171.005 119.967 170.892 119.972C170.778 119.977 170.493 119.996 170.245 120.027C170.014 120.049 169.649 120.055 169.447 120.031C169.228 120.016 169.048 120.055 169.027 120.118C169.002 120.194 168.797 120.182 168.557 120.104C168.317 120.026 168.01 120.023 167.863 120.087C167.729 120.155 167.422 120.153 167.191 120.091C166.964 120.017 166.644 119.969 166.484 119.986C166.216 119.996 166.211 120.009 166.397 120.167C166.651 120.376 167.551 120.53 167.659 120.37C167.705 120.315 167.928 120.318 168.142 120.388C168.37 120.462 168.74 120.485 168.975 120.45C169.197 120.411 169.491 120.409 169.618 120.45C169.744 120.491 169.962 120.465 170.109 120.401C170.243 120.333 170.436 120.298 170.55 120.335C170.651 120.368 171.222 120.331 171.805 120.256C172.964 120.09 173.128 120.059 174.168 119.784C176.173 119.252 176.764 119.026 178.468 118.171C179.569 117.623 180.374 117.299 180.463 117.37C180.598 117.47 181.307 121.807 181.429 123.188C181.447 123.389 181.491 123.683 181.534 123.851C181.656 124.463 181.682 124.597 181.696 124.811C181.701 124.924 181.732 125.13 181.762 125.252C181.792 125.373 181.823 125.579 181.828 125.692C181.833 125.805 181.864 126.011 181.894 126.132C181.924 126.254 181.955 126.46 181.96 126.573C181.965 126.686 181.996 126.892 182.026 127.013C182.056 127.135 182.087 127.341 182.092 127.454C182.107 127.836 182.196 128.675 182.248 128.902C182.278 129.023 182.309 129.229 182.314 129.342C182.319 129.455 182.35 129.661 182.38 129.783C182.41 129.904 182.441 130.11 182.446 130.223C182.451 130.336 182.482 130.542 182.512 130.663C182.542 130.785 182.573 130.991 182.578 131.104C182.583 131.217 182.613 131.423 182.644 131.544C182.674 131.666 182.705 131.872 182.71 131.985C182.715 132.098 182.745 132.304 182.775 132.425C182.806 132.547 182.836 132.753 182.841 132.866C182.856 133.248 182.946 134.087 182.998 134.314C183.028 134.435 183.059 134.641 183.064 134.754C183.069 134.867 183.1 135.073 183.13 135.194C183.16 135.316 183.191 135.522 183.196 135.635C183.201 135.748 183.231 135.954 183.262 136.075C183.292 136.197 183.323 136.403 183.327 136.516C183.332 136.629 183.363 136.835 183.393 136.956C183.424 137.078 183.454 137.284 183.459 137.397C183.464 137.51 183.495 137.716 183.525 137.837C183.555 137.959 183.586 138.164 183.591 138.278C183.596 138.391 183.627 138.597 183.657 138.718C183.687 138.84 183.718 139.045 183.723 139.159C183.742 139.486 184.844 147.331 184.97 148.015C185 148.179 185.048 148.418 185.078 148.539C185.096 148.657 185.127 148.862 185.132 148.976C185.137 149.089 185.167 149.294 185.198 149.416C185.228 149.538 185.259 149.743 185.263 149.856C185.279 150.238 185.368 151.078 185.42 151.304C185.45 151.426 185.481 151.631 185.486 151.745C185.491 151.858 185.522 152.063 185.552 152.185C185.582 152.307 185.613 152.512 185.618 152.626C185.623 152.739 185.653 152.944 185.684 153.066C185.714 153.188 185.745 153.393 185.75 153.506C185.754 153.62 185.785 153.825 185.815 153.947C185.846 154.069 185.876 154.274 185.881 154.387C185.886 154.501 185.917 154.706 185.947 154.828C185.977 154.95 186.008 155.155 186.013 155.268C186.028 155.65 186.118 156.49 186.17 156.716C186.2 156.838 186.231 157.043 186.236 157.157C186.241 157.27 186.271 157.475 186.302 157.597C186.332 157.719 186.362 157.924 186.367 158.037C186.372 158.151 186.403 158.356 186.433 158.478C186.464 158.6 186.494 158.805 186.499 158.918C186.504 159.032 186.535 159.237 186.565 159.359C186.595 159.481 186.626 159.686 186.631 159.799C186.636 159.913 186.667 160.118 186.697 160.24C186.727 160.361 186.758 160.567 186.763 160.68C186.768 160.794 186.799 160.999 186.829 161.121C186.834 161.141 186.839 161.163 186.844 161.187L187.239 161.182C187.046 159.848 186.845 158.452 186.744 157.741C186.688 157.386 186.636 157.04 186.591 156.741L186.59 156.739C186.518 156.26 186.464 155.903 186.445 155.828C186.415 155.707 186.397 155.505 186.392 155.392C186.387 155.279 186.356 155.073 186.326 154.952C186.296 154.83 186.265 154.624 186.26 154.511C186.255 154.398 186.225 154.192 186.207 154.075C186.081 153.433 186.018 152.854 186.068 152.703C186.097 152.614 186.054 152.447 185.981 152.325C185.909 152.204 185.874 152.011 185.915 151.885C185.957 151.759 185.922 151.566 185.849 151.444C185.777 151.323 185.742 151.13 185.784 151.004C185.825 150.878 185.79 150.685 185.718 150.563C185.645 150.442 185.611 150.249 185.652 150.123C185.693 149.997 185.658 149.804 185.586 149.682C185.514 149.561 185.479 149.368 185.52 149.242C185.561 149.116 185.526 148.923 185.454 148.801C185.382 148.68 185.347 148.487 185.388 148.361C185.429 148.235 185.394 148.042 185.322 147.92C185.25 147.799 185.227 147.568 185.277 147.417C185.326 147.265 185.304 147.035 185.232 146.913C185.159 146.792 185.125 146.599 185.166 146.473C185.207 146.347 185.172 146.154 185.1 146.032C185.028 145.911 184.993 145.718 185.034 145.592C185.075 145.466 185.04 145.273 184.968 145.151C184.896 145.03 184.861 144.837 184.902 144.711C184.943 144.585 184.908 144.392 184.836 144.27C184.764 144.149 184.729 143.956 184.77 143.83C184.811 143.704 184.777 143.511 184.704 143.389C184.632 143.268 184.597 143.075 184.638 142.949C184.68 142.823 184.645 142.63 184.573 142.508C184.5 142.387 184.465 142.194 184.507 142.068C184.548 141.942 184.513 141.749 184.441 141.628C184.368 141.506 184.325 141.339 184.354 141.25C184.383 141.162 184.206 139.777 183.973 138.179L183.951 138.03C183.725 136.477 183.492 134.881 183.44 134.458L183.44 134.457C183.374 134.017 183.304 133.547 183.274 133.426C183.243 133.304 183.225 133.103 183.22 132.99C183.215 132.876 183.185 132.671 183.154 132.549C183.124 132.427 183.093 132.222 183.089 132.109C183.084 131.995 183.053 131.79 183.023 131.668C182.992 131.547 182.962 131.341 182.957 131.228C182.952 131.114 182.921 130.909 182.891 130.787C182.861 130.666 182.83 130.46 182.825 130.347C182.82 130.233 182.789 130.028 182.772 129.91C182.646 129.269 182.583 128.69 182.632 128.538C182.661 128.45 182.618 128.282 182.546 128.161C182.474 128.039 182.439 127.847 182.48 127.72C182.521 127.594 182.486 127.401 182.414 127.28C182.342 127.158 182.307 126.966 182.348 126.839C182.389 126.713 182.354 126.52 182.282 126.399C182.21 126.278 182.175 126.085 182.216 125.958C182.258 125.832 182.223 125.639 182.15 125.518C182.078 125.397 182.043 125.204 182.085 125.077C182.126 124.951 182.091 124.758 182.019 124.637C181.946 124.516 181.912 124.323 181.953 124.196C181.994 124.07 181.959 123.877 181.887 123.756C181.815 123.635 181.792 123.404 181.842 123.252C181.891 123.101 181.868 122.87 181.796 122.749C181.724 122.627 181.689 122.435 181.73 122.308C181.771 122.182 181.737 121.989 181.664 121.868C181.592 121.747 181.557 121.554 181.598 121.427C181.64 121.301 181.605 121.108 181.533 120.987C181.46 120.866 181.425 120.673 181.467 120.546C181.508 120.42 181.473 120.227 181.401 120.106C181.329 119.985 181.294 119.792 181.335 119.665C181.376 119.539 181.341 119.346 181.269 119.225C181.197 119.104 181.162 118.911 181.203 118.785C181.244 118.658 181.209 118.465 181.137 118.344C181.065 118.223 181.03 118.03 181.067 117.916C181.108 117.79 181.086 117.559 181.03 117.387C180.893 116.993 181.029 116.577 181.335 116.453C181.465 116.398 181.594 116.301 181.615 116.238C181.636 116.174 181.853 115.98 182.104 115.81C182.698 115.404 184.08 114.081 185.006 113.043C185.185 112.836 185.465 112.536 185.627 112.38C185.773 112.232 185.928 112.017 185.965 111.903C186.026 111.714 186.927 110.709 186.97 110.793C186.975 110.803 187.018 111.081 187.081 111.49C187.118 111.724 187.16 112 187.207 112.295C187.431 113.834 187.977 117.727 188.507 121.587L188.557 121.958C188.704 123.045 188.828 123.966 188.855 124.075C188.879 124.17 188.898 124.306 188.911 124.403C188.915 124.43 188.918 124.454 188.921 124.473C188.924 124.514 188.927 124.567 188.929 124.62L188.929 124.622C188.933 124.699 188.936 124.778 188.944 124.83C188.953 124.931 188.975 125.12 189.006 125.241C189.036 125.363 189.067 125.568 189.072 125.682C189.076 125.795 189.107 126.001 189.137 126.122C189.168 126.244 189.198 126.449 189.203 126.563C189.208 126.676 189.239 126.882 189.269 127.003C189.299 127.125 189.33 127.33 189.335 127.444C189.34 127.557 189.371 127.763 189.401 127.884C189.431 128.006 189.647 129.487 189.876 131.182C189.971 131.86 190.081 132.662 190.192 133.461L190.197 133.495L190.198 133.505C190.359 134.674 190.52 135.834 190.626 136.593C191.282 141.221 191.702 144.346 191.716 144.56C191.721 144.674 191.752 144.879 191.782 145.001C191.812 145.122 191.843 145.328 191.848 145.441C191.853 145.555 191.884 145.76 191.914 145.882C191.944 146.003 191.975 146.209 191.98 146.322C191.985 146.436 192.015 146.641 192.046 146.763C192.076 146.884 192.107 147.09 192.111 147.203C192.116 147.317 192.147 147.522 192.177 147.644C192.208 147.765 192.423 149.246 192.653 150.941C192.718 151.41 192.791 151.939 192.866 152.484L192.973 153.253C193.135 154.426 193.296 155.591 193.402 156.353C193.497 157.03 193.603 157.78 193.695 158.427C193.748 158.804 193.796 159.145 193.834 159.417C193.855 159.565 193.873 159.693 193.887 159.793L193.887 159.795C193.966 160.36 194.045 160.925 194.079 161.089L194.525 161.083C194.49 160.697 194.437 160.256 194.402 160.101C194.372 159.979 194.341 159.774 194.336 159.66C194.331 159.547 194.3 159.341 194.27 159.22C194.24 159.098 194.209 158.893 194.204 158.779C194.199 158.666 194.168 158.461 194.138 158.339C194.108 158.217 194.077 158.012 194.072 157.898C194.067 157.785 194.037 157.58 194.006 157.458C193.976 157.336 193.945 157.131 193.94 157.017C193.935 156.904 193.794 155.797 193.618 154.58C193.207 151.618 192.965 149.85 192.784 148.518L192.784 148.518C192.625 147.35 192.511 146.519 192.369 145.514C192.21 144.247 192.051 143.106 192.021 142.984C191.991 142.862 191.96 142.657 191.955 142.544C191.95 142.43 191.919 142.225 191.889 142.103C191.859 141.981 191.828 141.776 191.823 141.663C191.818 141.549 191.787 141.344 191.757 141.222C191.727 141.101 191.696 140.895 191.691 140.782C191.686 140.668 191.656 140.463 191.625 140.341C191.595 140.22 191.564 140.014 191.56 139.901C191.541 139.699 191.36 138.369 190.496 132.152C190.393 131.393 190.258 130.382 190.13 129.424L190.122 129.368C190.029 128.667 189.939 127.998 189.869 127.478C189.701 126.236 189.538 125.108 189.508 124.986C189.478 124.865 189.447 124.659 189.442 124.546C189.437 124.432 189.407 124.227 189.376 124.105C189.346 123.984 189.315 123.778 189.31 123.665C189.305 123.551 189.275 123.346 189.245 123.224C189.214 123.103 189.184 122.897 189.179 122.784C189.174 122.671 189.143 122.465 189.113 122.343C189.082 122.222 189.052 122.016 189.047 121.903C189.042 121.79 188.878 120.535 188.68 119.13C188.521 118 188.307 116.456 188.151 115.331L188.146 115.295L188.049 114.595C187.899 113.512 187.696 112.035 187.604 111.335C187.502 110.617 187.443 109.942 187.48 109.828C187.517 109.715 187.746 109.272 187.995 108.851C188.967 107.199 189.262 106.597 190.01 104.69C190.89 102.422 192.745 96.3936 192.832 95.4861C192.872 95.15 193.009 94.385 193.14 93.7711C193.38 92.6486 193.521 91.703 193.598 90.5689C193.625 90.2286 193.701 89.6529 193.749 89.2915C193.814 88.9216 193.886 88.3165 193.921 87.951C193.984 87.2452 194.013 86.6404 194.116 83.7552C194.151 82.6633 194.143 81.4457 194.104 80.539C194.076 80.1109 194.051 79.5022 194.04 79.1915C194.017 78.8768 194.023 78.4317 194.038 78.2132C194.057 77.9822 194.034 77.6674 194.017 77.508C193.986 77.3444 193.937 76.9794 193.915 76.7066C193.801 75.4266 193.748 75.0323 193.705 74.8226C193.687 74.7051 193.657 74.4996 193.652 74.3862C193.612 73.4375 192.822 68.2778 192.555 67.2549L192.548 67.2272C192.493 66.9756 192.424 66.6621 192.407 66.5084C192.389 66.3489 192.302 65.9716 192.216 65.6782C192.131 65.3848 192.053 65.0241 192.039 64.894C192.01 64.256 191.406 62.4668 191.002 61.8184C190.607 61.1868 190.523 61.1033 190.364 61.247C190.205 61.3907 189.831 61.2964 187.473 60.5549C184.711 59.6815 183.832 59.5063 183.291 59.7489C182.981 59.8851 181.629 61.2034 181.321 61.6755C181.221 61.8105 181.02 61.9544 180.861 61.9722C180.634 62.024 180.579 61.9781 180.574 61.7808C180.577 61.6422 180.55 61.424 180.52 61.3024C180.49 61.1809 180.459 60.9753 180.454 60.862C180.449 60.7486 180.418 60.5431 180.388 60.4215C180.358 60.2999 180.327 60.0943 180.322 59.981C180.319 59.8937 180.21 59.1098 180.07 58.093L180.07 58.0928L180.067 58.0701C180.026 57.7732 179.983 57.4568 179.938 57.1323C179.74 55.6849 179.404 53.2432 179.188 51.7204C178.818 49.0857 178.422 46.2749 178.343 45.7884C178.318 45.688 178.289 45.4245 178.26 45.1561L178.241 44.987C178.218 44.6722 178.169 44.3072 178.139 44.1856C178.109 44.0641 178.078 43.8585 178.073 43.7452C178.068 43.6318 178.038 43.4263 178.007 43.3047C177.977 43.1831 177.946 42.9775 177.941 42.8642C177.936 42.7509 177.906 42.5453 177.876 42.4237C177.845 42.3021 177.815 42.0966 177.81 41.9832C177.805 41.8699 177.774 41.6643 177.744 41.5428C177.713 41.4212 177.683 41.2156 177.678 41.1023C177.673 40.9889 177.479 39.5709 177.25 37.96C176.956 35.8444 176.678 33.8338 176.424 31.9942L176.417 31.9436C176.208 30.432 176.015 29.0367 175.843 27.7947L175.793 27.4243L175.792 27.4206C175.646 26.3346 175.522 25.4161 175.495 25.3069C175.464 25.1853 175.434 24.9798 175.429 24.8664C175.424 24.7531 175.393 24.5475 175.363 24.4259C175.333 24.3044 175.302 24.0988 175.297 23.9855C175.292 23.8721 175.261 23.6666 175.231 23.545C175.201 23.4234 175.17 23.2179 175.165 23.1045C175.16 22.9912 175.129 22.7856 175.099 22.664C175.069 22.5425 175.038 22.3369 175.033 22.2236C175.028 22.1102 174.998 21.9047 174.967 21.7831C174.937 21.6615 174.906 21.4559 174.901 21.3426C174.897 21.2293 174.72 19.9287 174.509 18.4772C174.302 17.0131 174.147 15.7753 174.159 15.7375C174.175 15.687 174.063 15.1754 173.904 14.5927C173.744 14.0101 173.632 13.4985 173.644 13.4606C173.718 13.2334 172.675 11.1193 172.009 10.1618C171.25 9.06214 170.28 7.96373 169.977 7.86479C169.889 7.83594 169.77 7.72748 169.711 7.61027C169.566 7.32563 168.71 6.78077 167.319 6.0754C165.422 5.12116 165.308 5.08405 164.577 5.05489Z" fill="black"/>
<path d="M133.585 57.7823C133.663 57.5113 133.729 57.2455 134.063 57.2922C134.387 57.344 134.407 57.6137 134.408 57.8596C134.417 58.5373 134.415 59.22 134.423 59.8976C134.42 60.2559 134.281 60.505 133.891 60.5176C133.519 60.5279 133.416 60.2465 133.413 59.9561C133.371 59.2231 133.452 58.4892 133.585 57.7823Z" fill="#101223"/>
<path d="M142.476 59.0386C142.608 58.7896 142.728 58.5433 143.045 58.6583C143.351 58.776 143.314 59.0439 143.265 59.2848C143.133 59.9495 142.989 60.6169 142.857 61.2816C142.78 61.6316 142.592 61.8463 142.208 61.7779C141.842 61.7109 141.8 61.4143 141.856 61.1294C141.968 60.4037 142.199 59.7026 142.476 59.0386Z" fill="#101223"/>
<path d="M110.301 97C111.634 94.5 114.401 88.2 114.801 83" stroke="black" stroke-width="0.4"/>
<path d="M180.466 63.1098C176.326 68.5856 167.808 82.467 166.857 94.186" stroke="black" stroke-width="0.449232"/>
<path d="M180.5 117C176 119.667 164.9 123.1 156.5 115.5" stroke="black" stroke-width="0.5"/>
<path d="M161 104.5L153 87" stroke="black" stroke-width="0.5"/>
</g>
<defs>
<clipPath id="clip0_149_4499">
<rect width="271" height="160" fill="white"/>
</clipPath>
</defs>
</svg>
