<svg width="56" height="48" viewBox="0 0 56 48" fill="none" xmlns="http://www.w3.org/2000/svg">
<path d="M24.9165 3.08714C24.8955 2.84821 24.9025 2.77091 24.8744 2.72172C24.6003 2.17358 23.996 1.56922 24.5019 1.01405C25.0782 0.388608 25.8301 0.894584 26.4415 1.18271C28.5849 2.19466 30.1309 3.85313 31.3678 5.82784C31.5645 6.13705 31.7543 6.44626 31.9932 6.82574C32.703 6.08084 33.3987 5.43431 34.3193 5.11105C34.776 4.94942 35.2469 4.85806 35.7318 4.88617C36.1113 4.91428 36.5048 4.98455 36.6102 5.42025C36.7297 5.88406 36.3502 6.06678 36.0199 6.23544C35.3804 6.5587 34.6425 6.70627 34.0733 7.24036C34.1998 7.32469 34.2631 7.40199 34.3123 7.39496C36.9124 6.88196 37.8611 8.60368 37.7346 10.8595C37.5449 14.2186 36.0269 17.0928 34.3403 19.8827C33.5814 21.1477 32.7451 22.3775 31.8245 23.53C31.185 24.3311 30.8758 25.1392 30.9531 26.1582C31.0304 27.2264 30.665 28.4843 31.1218 29.3135C31.6137 30.206 33.0473 29.9109 34.0593 30.1779C38.4584 31.3445 38.4865 31.3164 39.0206 35.7999C39.3087 38.2595 39.4915 40.7261 39.7866 43.1857C39.8709 43.8814 39.6531 44.0782 39.0277 44.1906C37.4324 44.4788 35.8372 44.802 34.256 45.1815C33.216 45.4275 33.1316 45.7859 33.8063 46.6292C34.4106 47.3741 35.008 48.133 35.6545 48.8428C36.2378 49.4823 36.1043 49.925 35.4788 50.4661C32.4219 53.1014 29.2384 55.5681 25.9988 57.9574C24.2841 59.2223 22.5624 60.4802 20.6368 61.8998C20.6579 60.417 21.0866 59.2856 21.4028 58.1471C23.3213 51.3727 26.4134 45.1393 30.1871 39.2293C31.8034 36.6994 33.5673 34.289 35.5631 32.0472C35.9918 31.5694 35.9496 31.3585 35.3453 31.1336C34.4177 30.7893 33.7711 30.7331 33.0192 31.7099C31.5013 33.6776 29.3719 34.9074 27.0248 35.7366C26.6734 35.8631 26.2096 36.081 25.9637 35.8631C25.0922 35.0831 24.769 35.8631 24.3544 36.355C23.3986 37.4935 21.2201 37.2054 20.7282 35.8491C20.5525 35.3712 20.4541 34.9425 19.8849 35.5328C19.4352 35.9966 19.0697 35.6172 18.7535 35.322C17.9524 34.556 17.5799 33.5581 17.2215 32.5391C17.095 32.1737 17.3269 31.3234 16.568 31.5412C15.9214 31.724 15.029 31.8153 15.043 32.9538C15.0711 34.6966 15.1555 36.4253 15.3803 38.147C16.1463 43.9798 17.2356 49.7423 19.0767 55.3432C19.2524 55.8702 19.3789 56.4395 19.6741 56.8892C20.5174 58.1963 20.1098 59.5104 19.8428 60.8457C19.7303 61.4149 19.4914 61.3868 19.1119 61.0354C15.4787 57.6201 12.4218 53.755 9.94108 49.419C9.66701 48.9342 9.87784 48.6812 10.187 48.372C10.679 47.873 11.1709 47.367 11.6136 46.8259C12.0985 46.2426 12.0563 45.7086 11.4168 45.2166C10.44 44.4717 9.407 43.8322 8.28261 43.3544C7.69231 43.1084 7.49554 42.8765 7.77664 42.2159C9.11185 39.0395 10.679 35.9826 12.5975 33.1294C13.4899 31.8013 15.1906 31.5131 16.5469 30.8034C17.1302 30.5012 17.7696 30.2552 18.4162 30.1147C19.5054 29.8898 19.6741 29.18 19.639 28.2383C19.6249 27.8378 19.5265 27.634 19.1259 27.5356C16.2236 26.7977 15.2679 24.5349 14.8673 21.9277C14.1927 17.5285 14.9517 13.2418 16.0339 8.99722C16.2166 8.28042 16.0971 7.95013 15.4647 7.59876C14.2208 6.91007 13.1807 5.96839 12.492 4.6894C11.4309 2.72172 12.1618 0.971885 14.3262 0.388608C16.3642 -0.159532 18.3529 0.191841 20.3136 0.831337C21.9158 1.3584 23.3494 2.19466 24.9165 3.08714ZM32.457 16.8258C32.4992 15.9755 32.2883 15.5257 31.7964 15.3571C31.178 15.1462 30.8547 15.5398 30.5174 15.9614C29.8358 16.8117 29.4001 16.7766 28.9222 15.7857C28.2124 14.31 28.2897 12.7569 28.7254 11.239C28.9363 10.4941 28.9011 10.2411 28.0157 10.1849C24.4387 9.95998 20.8828 9.5313 17.4394 8.49124C16.7296 8.27339 16.5609 8.54747 16.4204 9.17993C15.8371 11.8152 15.3803 14.4716 15.1836 17.1631C15.0219 19.4259 15.0922 21.6747 15.9144 23.8251C16.5469 25.4695 17.608 26.6993 19.4352 26.9945C20.2855 27.128 20.2784 27.7253 20.1168 28.2102C19.6319 29.6298 20.2785 30.4309 21.4169 31.0704C21.7402 31.2461 22.0353 31.478 22.3094 31.724C22.7802 32.1597 23.2721 32.2721 23.9257 32.1526C25.7599 31.8223 27.4605 31.1336 29.1752 30.452C30.1871 30.0514 30.5947 29.44 30.4612 28.3508C30.3699 27.5848 30.4191 26.7977 30.4472 26.0247C30.5596 23.2629 30.5034 20.466 32.1267 18.0134C32.3586 17.648 32.464 17.1982 32.457 16.8258ZM33.1597 30.6558C31.951 30.1006 30.8618 29.932 29.7655 30.7471C29.3579 31.0493 28.8379 31.1899 28.3741 31.4147C26.9194 32.1175 25.3101 32.3072 23.6516 32.7148C24.4738 33.6214 25.1906 34.4014 25.8863 35.2025C26.1745 35.5328 26.4626 35.4134 26.7788 35.2869C29.2666 34.3101 31.3537 32.7851 33.1597 30.6558ZM19.5616 30.3396C17.7345 30.3255 17.0318 31.3726 17.7556 32.9116C17.9243 33.277 18.128 33.6284 18.3529 33.9657C19.2665 35.3431 19.407 35.3501 20.5104 34.1765C20.6087 34.0711 20.7282 33.9798 20.8336 33.8814C22.3094 32.5391 22.3164 32.5321 20.8055 31.2461C20.3909 30.8947 20.0465 30.4309 19.5616 30.3396Z" fill="#101223"/>
<path d="M20.6911 56.8048C19.7003 54.5842 19.0818 52.5392 18.6602 50.452C18.4775 49.5455 18.8991 48.6389 19.0748 47.7324C19.6932 44.6192 20.3398 41.5061 20.9582 38.3929C21.0706 37.8237 21.2112 37.3529 21.935 37.5356C22.5394 37.6972 23.3053 37.6129 23.2983 38.6248C23.2772 42.1386 23.2772 45.6523 23.5654 49.159C23.5794 49.3065 23.5864 49.4682 23.5372 49.5947C22.6307 51.9278 21.7031 54.2468 20.6911 56.8048Z" fill="#101223"/>
<path d="M21.9013 24.2261C21.5007 24.2612 21.065 24.1558 20.6996 23.9028C20.2849 23.6147 19.6736 23.3125 19.7438 22.7925C19.8141 22.2935 20.4817 22.4973 20.8823 22.3989C21.8802 22.153 22.7305 21.6891 23.3278 20.8388C23.5949 20.4664 23.8127 20.2415 24.0798 20.8318C24.7685 22.3216 23.5668 24.2401 21.9013 24.2261ZM20.1585 22.933C20.8823 23.8255 21.6061 24.1206 22.5267 23.8044C23.4122 23.5022 23.7565 22.7995 23.8479 21.9351C23.8689 21.7665 23.8408 21.5275 23.7354 21.4151C23.5808 21.2534 23.3981 21.4151 23.2786 21.5556C22.4916 22.4411 21.4445 22.7573 20.1585 22.933Z" fill="#101223"/>
<path d="M20.4529 15.2095C20.5935 16.636 19.4058 18.0345 20.3475 19.5454C19.715 19.8898 19.3004 19.7843 19.3567 19.0816C19.4691 17.7323 19.7361 16.3971 20.4529 15.2095Z" fill="#101223"/>
<path d="M49.1669 12.1868C48.8741 12.1305 48.6831 12.3096 48.4411 12.3403C48.0846 12.3864 47.8618 12.2585 47.7344 12.0026C47.6071 11.7468 47.7344 11.5677 48.0273 11.4551C48.7022 11.1941 49.4343 11.0918 50.1729 11.0048C50.4275 10.9741 50.6249 11.0918 50.6759 11.3067C50.7841 11.7468 50.8923 12.1817 50.9878 12.6218C51.0133 12.7292 51.0133 12.8674 50.8414 12.8981C50.6886 12.9237 50.5994 12.8264 50.5103 12.7343C50.3193 12.5348 50.3766 12.0947 49.9564 12.1612C49.7336 12.1971 49.5808 12.5552 49.4152 12.7804C48.0018 14.7094 46.4229 16.5464 44.8439 18.3834C44.4556 18.8388 44.1054 18.9513 43.4751 18.7006C41.8516 18.061 41.8325 18.0763 40.9794 19.3556C39.4068 21.7196 37.8342 24.0887 36.268 26.4527C36.0706 26.7494 35.9115 27.1486 35.3767 26.9439C34.8037 26.7239 34.9947 26.3299 35.2302 25.987C36.2425 24.5031 37.2548 23.0141 38.2862 21.5353C39.1139 20.3482 39.9543 19.1714 40.8011 17.9945C41.2468 17.3804 41.4887 17.319 42.3418 17.534C42.4055 17.5493 42.4755 17.5698 42.5392 17.5851C43.074 17.6823 43.5579 18.1736 44.0545 17.9842C44.4874 17.8205 44.7421 17.3549 45.0604 17.012C46.4675 15.4872 47.8236 13.9368 49.116 12.3403C49.1478 12.3045 49.1478 12.2482 49.1669 12.1868Z" fill="#101223"/>
<path d="M16.4846 11.6331C16.4003 11.7666 16.4214 11.8861 16.5409 11.9774C16.6885 12.0899 16.843 12.0547 16.9695 11.9423C17.5107 11.4785 18.0939 11.4152 18.7334 11.7104C18.9513 11.8088 19.1621 11.7455 19.2464 11.4925C19.3237 11.2606 19.2113 11.099 19.0216 10.9514C18.3048 10.4103 16.822 10.7968 16.4846 11.6331Z" fill="#101223"/>
<path d="M17.8825 14.1556C17.8262 13.8183 17.8824 13.5653 17.5662 13.5513C17.3343 13.5442 17.25 13.6918 17.2078 13.8886C17.0673 14.4789 16.9197 15.0622 16.7721 15.6525C16.7018 15.9476 16.7791 16.1936 17.0884 16.2779C17.3835 16.3482 17.5451 16.1374 17.5943 15.8914C17.7208 15.273 17.8052 14.6475 17.8825 14.1556Z" fill="#101223"/>
<path d="M24.0572 14.8722C24.0432 14.6333 24.0432 14.4014 23.755 14.3732C23.481 14.3522 23.4107 14.57 23.3545 14.7808C23.2139 15.343 23.0804 15.9052 22.9398 16.4674C22.8696 16.7626 22.9328 17.0015 23.2561 17.0858C23.5583 17.1702 23.6988 16.9593 23.7691 16.7204C23.9518 16.109 24.0291 15.4836 24.0572 14.8722Z" fill="#101223"/>
<path d="M25.1896 12.3844C24.7469 11.7941 23.7841 11.4357 23.236 11.6676C22.9549 11.7871 22.7019 11.9558 22.8284 12.3212C22.9338 12.6374 23.2079 12.6936 23.4749 12.5812C23.9809 12.3774 24.4025 12.5039 24.789 12.8272C24.9366 12.9466 25.0631 13.1083 25.2528 12.9326C25.4637 12.7358 25.3302 12.5531 25.1896 12.3844Z" fill="#101223"/>
<path fill-rule="evenodd" clip-rule="evenodd" d="M7.03099 42.2721C8.12025 39.3979 9.43437 36.6361 10.8469 33.8251C10.6724 33.937 10.4986 34.0517 10.3247 34.1665C9.95212 34.4124 9.57867 34.6589 9.19543 34.8793C9.07233 34.9484 8.95122 35.052 8.83006 35.1557C8.68774 35.2774 8.54535 35.3993 8.39959 35.4653L-1.34868 43.3858C-3.75189 45.6482 -6.0157 48.0582 -8.14827 50.6067C-8.90723 51.5132 -8.88615 51.5765 -7.67743 51.8224C-6.06815 52.1457 -4.4659 52.476 -2.70905 53.2068C-3.30926 53.51 -3.69152 53.4155 -4.05256 53.3262C-4.10155 53.3141 -4.15015 53.3021 -4.19885 53.2912C-5.79678 52.9394 -7.39673 52.5983 -9 52.2772V55.1993H1.28468C1.81666 53.4892 2.41893 51.7958 3.10266 50.1218C3.72108 48.5968 4.36057 47.0789 5.32333 45.5891C5.67846 46.0439 5.51436 46.3717 5.36483 46.6703C5.3457 46.7085 5.32681 46.7463 5.30927 46.7837C4.03466 49.5329 2.9947 52.3425 2.13597 55.1993H12.6503C11.6799 53.8093 10.7863 52.3591 9.94035 50.8737C9.84793 50.7104 9.76054 50.5586 9.67883 50.4166C8.66704 48.6586 8.52743 48.416 10.5236 46.6994C10.9945 46.2848 10.9664 45.9896 10.4463 45.6875C10.1913 45.5376 9.93682 45.386 9.68213 45.2344C9.01743 44.8386 8.35131 44.442 7.6705 44.0712C6.89046 43.6425 6.69368 43.1646 7.03099 42.2721ZM31.0905 55.1993H60.9999C57.6327 47.2605 52.1649 40.6883 44.8949 35.315C43.1872 34.05 41.346 32.9889 39.3361 32.1245C39.2364 32.7006 39.3419 33.1762 39.4427 33.6306C39.4698 33.7527 39.4965 33.8732 39.5188 33.9938C40.081 37.0507 40.3762 40.1358 40.6292 43.2279C40.7557 44.7739 40.6081 44.9215 39.0831 45.1534C38.7917 45.199 38.5002 45.2442 38.2088 45.2894C37.3337 45.4252 36.4586 45.5609 35.5835 45.7085C34.4731 45.8983 34.4802 45.9264 35.1759 46.8751C35.6959 47.5849 36.1949 48.3228 36.6868 49.0606C37.0592 49.6158 37.1014 50.1077 36.4971 50.5996C36.084 50.9366 35.6989 51.3072 35.314 51.6777C34.9523 52.0258 34.5907 52.3738 34.2061 52.6938C33.1792 53.5444 32.1406 54.3796 31.0905 55.1993Z" fill="#101223"/>
</svg>
