<svg width="320" height="267" viewBox="0 0 320 267" fill="none" xmlns="http://www.w3.org/2000/svg">
<rect width="319" height="267" transform="translate(0.5)" fill="white"/>
<path d="M105.256 0.387451C102.214 1.46597 92.4627 9.10544 81.8165 18.7222L77.4924 22.6168L69.5898 22.8266C65.2061 22.9164 60.1663 23.0962 58.3472 23.216L55.0072 23.3958L54.7984 22.0776C54.4704 19.9206 52.4724 16.0858 50.862 14.528C47.8501 11.592 45.6731 10.7232 41.2297 10.7232C36.7566 10.7232 33.685 11.9815 30.6134 15.0972C27.7505 17.9732 26.3787 21.5983 26.7068 25.373C27.2137 30.9753 30.2555 35.1696 35.2058 36.9671L37.353 37.776V39.3039C37.353 40.1127 37.2337 43.3183 37.0548 46.3741C36.9057 49.4299 36.5478 56.9795 36.2794 63.151C36.011 69.3225 35.7724 74.4155 35.7724 74.4155C35.7426 74.4455 34.3708 73.6665 32.7307 72.7378C28.9732 70.5508 28.1978 70.3112 27.9891 71.2998C27.7207 72.5281 26.8857 91.7916 26.3191 110.186C25.9911 119.983 25.0368 149.073 24.6789 159.109L24.5 164.142L48.4465 164.082L72.393 164.022L72.3334 165.34C71.7667 176.545 72.0053 179.87 73.7946 186.252C77.0749 197.995 80.2062 202.1 87.0054 203.508C88.7351 203.867 89.4806 204.167 89.8086 204.646C91.0611 206.474 93.1188 208.301 94.759 209.08C95.7431 209.559 96.6973 209.949 96.9061 209.949C97.592 209.949 97.592 210.548 96.8763 212.256C93.5065 220.375 93.7749 230.471 97.5622 238.08C101.379 245.69 108.357 250.932 116.588 252.341C122.88 253.419 130.395 253.419 136.807 252.341C150.793 249.944 166.002 241.256 178.825 228.284L182.374 224.689L181.002 221.872C179.541 218.907 178.288 215.132 178.467 214.233C178.527 213.933 179.66 215.851 181.062 218.637C190.664 237.601 198.865 252.041 201.728 255.217L202.861 256.475L205.635 256.295L208.378 256.115L209.541 259.321C211.479 264.773 212.374 266.541 213.269 266.811C214.462 267.14 222.871 267.02 226.867 266.601C232.175 266.032 238.02 264.893 238.677 264.294C239.541 263.515 239.392 262.347 238.259 261.238C236.231 259.261 227.523 256.085 224.154 256.085C222.633 256.085 222.424 255.786 222.126 253.359L221.917 251.681L223.199 251.142C230.028 248.236 229.7 248.506 228.985 246.439C227.016 240.806 220.247 225.917 214.641 214.892C202.682 191.285 192.722 177.444 184.998 173.609L183.03 172.65H178.259C173.07 172.68 170.833 173.01 166.002 174.598C160.306 176.455 154.819 179.181 148.974 183.076C147.125 184.304 145.604 185.143 145.604 184.963C145.604 184.784 145.932 183.226 146.32 181.488C149.034 169.415 151.27 161.026 151.867 160.667C152.344 160.367 160.873 159.049 166.032 158.45C175.962 157.311 180.495 157.132 192.662 157.341C205.277 157.551 210.167 157.941 210.645 158.779C210.823 159.109 210.823 160.517 210.615 162.674C210.257 166.239 208.02 180.619 207.752 180.859C207.662 180.949 206.291 181.039 204.71 181.069C201.996 181.129 197.434 182.027 196.837 182.627C196.718 182.746 197.762 184.334 199.223 186.162C202.354 190.056 206.112 195.718 209.303 201.261C211.539 205.185 216.519 214.862 218.13 218.487C218.577 219.476 219.352 221.213 219.889 222.382C220.396 223.52 221.47 226.037 222.245 227.924C223.14 230.081 223.945 231.549 224.392 231.849C224.75 232.118 227.225 233.556 229.849 235.024C232.474 236.522 236.708 238.919 239.243 240.357C241.778 241.795 245.476 243.892 247.444 245.001C255.257 249.435 263.369 253.389 264.621 253.389C264.77 253.389 265.516 252.52 266.261 251.472L267.633 249.554L269.184 250.453C275.476 254.258 278.339 255.786 278.995 255.786C280.039 255.786 282.573 253.629 286.241 249.584C291.639 243.682 296.5 237.181 296.5 235.893C296.5 235.504 296.232 234.845 295.874 234.395C295.367 233.766 295.039 233.616 293.876 233.616C293.1 233.616 291.937 233.886 291.281 234.186C289.85 234.845 284.929 237.93 282.096 239.968L280.009 241.465L277.981 239.428C276.848 238.29 275.923 237.271 275.923 237.181C275.923 237.062 276.52 235.983 277.265 234.785C278.011 233.586 278.607 232.298 278.607 231.939C278.607 229.632 263.756 214.862 251.47 204.946C235.903 192.423 220.575 183.705 210.674 181.758C209.66 181.578 208.766 181.338 208.706 181.218C208.646 181.129 208.915 179.481 209.303 177.593C210.287 172.98 211.718 163.932 211.957 160.966C212.136 158.869 212.106 158.48 211.599 157.851C211.062 157.192 210.645 157.102 206.857 156.742C199.909 156.083 192.722 155.724 187.175 155.724H181.897L182.076 153.237C182.195 151.889 182.284 142.542 182.284 132.476V114.171L185.356 113.961C189.143 113.691 195.406 112.673 195.972 112.193C196.599 111.684 196.3 102.127 195.585 100.48L195.108 99.3112L192.036 99.491C190.366 99.6108 187.414 99.7906 185.505 99.8804L182.016 100.09L181.927 86.2792C181.867 78.6996 181.748 72.3783 181.628 72.2585C181.479 72.1387 181.062 72.1986 180.644 72.3783L179.899 72.7378L179.869 48.2316C179.839 34.7801 179.75 23.3358 179.63 22.8565L179.451 21.9577L157.682 21.8679L135.912 21.808L133.378 19.621C122.552 10.2738 112.025 2.2449 108.238 0.537231C106.747 -0.151794 106.717 -0.151794 105.256 0.387451ZM108.566 1.91534C110.684 3.08374 115.187 6.28934 119.332 9.4949C121.36 11.0827 123.358 12.6406 123.805 12.9701C125.952 14.5879 134.302 21.5983 134.213 21.6881C134.153 21.748 124.163 21.9278 112.055 22.0776C99.918 22.2573 87.5422 22.4671 84.5303 22.527C79.6097 22.6468 79.1028 22.5869 79.4606 22.1675C80.0272 21.4784 89.7788 13.1199 94.0433 9.64471C100.485 4.40192 105.316 1.16638 106.628 1.13641C106.926 1.13641 107.791 1.49594 108.566 1.91534ZM38.7844 19.2615C39.3212 20.1003 40.514 22.1375 41.4683 23.8152C42.3928 25.4929 43.2576 26.871 43.3769 26.9009C43.6453 26.9009 43.854 25.2832 44.0926 21.5683C44.2715 18.6922 44.5101 17.9133 44.9276 18.9918C45.2258 19.7708 45.1363 28.9082 44.8083 29.747C44.1821 31.4247 43.2278 30.4061 39.679 24.1148C38.6949 22.3472 37.7705 20.9092 37.6214 20.9092C37.4723 20.9092 37.3232 21.4185 37.3232 22.0177C37.174 26.6313 36.8758 29.7171 36.5776 29.8069C35.7724 30.0766 35.7426 19.621 36.518 18.123C36.9653 17.2542 37.7108 17.6437 38.7844 19.2615ZM178.557 48.2915V73.7564L174.829 76.243L171.101 78.7595L171.012 68.4537C170.952 59.8556 170.863 58.058 170.505 57.7585C170.177 57.4888 156.072 57.4589 106.837 57.6686C72.065 57.8184 43.526 58.058 43.4067 58.1779C43.2576 58.2977 43.1085 62.9713 43.019 68.5736C42.9296 74.1459 42.7506 78.7296 42.6313 78.7595C42.5121 78.7595 41.1105 77.9507 39.5299 76.9321L36.6671 75.0746L36.8758 69.0529C37.1442 61.1438 37.5319 52.276 37.9792 44.3369L38.3669 37.9857H40.9912H43.6154L43.4663 38.7946C43.4067 39.2739 43.2576 41.8803 43.1681 44.6066L42.9892 49.5797L50.534 49.7894C59.5997 50.0291 170.207 49.6696 170.654 49.37C171.042 49.1303 171.221 36.2181 170.833 35.6189C170.595 35.2594 164.004 35.2295 124.163 35.3793C98.6357 35.4991 71.2598 35.6789 63.2975 35.7687L48.8342 35.9784L50.6831 34.091C52.9197 31.8441 54.2915 29.2377 54.7388 26.3617L55.0668 24.2945L60.5838 24.1148C66.1007 23.9051 118.497 23.0662 133.228 22.9164C137.493 22.8865 149.451 22.8565 159.769 22.8565H178.557V48.2915ZM169.76 42.4196V48.3814L162.095 48.5611C157.891 48.681 147.394 48.7708 138.775 48.7708C130.157 48.7708 105.256 48.9206 83.4865 49.1004C61.6871 49.2801 43.7944 49.34 43.7049 49.2801C43.6453 49.1902 43.6751 46.6138 43.8242 43.528L44.0628 37.9557L45.7029 37.2367L47.3431 36.5477L108.566 36.5177L169.76 36.4877V42.4196ZM169.76 69.2327V79.8081L164.779 83.1335C154.968 89.6346 142.145 98.1429 139.551 99.7906L136.956 101.498L137.135 97.6635C137.344 93.679 136.956 88.7358 136.24 86.0096C136.002 85.1707 135.912 83.8525 135.972 83.1036L136.151 81.7254L141.698 81.6356L147.244 81.5757L141.578 81.4858L135.912 81.4259L134.898 79.4785C132.483 74.775 127.682 72.0787 121.002 71.6593C117.513 71.4496 113.904 72.0787 111.369 73.3969C108.924 74.6252 106.27 77.2316 105.196 79.4186L104.391 81.1263L95.8325 81.1562C91.1506 81.1862 81.9358 81.306 75.3751 81.3959C63.7448 81.6056 63.9536 81.6056 83.6654 81.6655C94.759 81.6955 103.854 81.8153 103.854 81.9651C103.854 82.085 103.646 83.1335 103.407 84.2719C103.169 85.4403 102.96 87.4176 102.96 88.6759V90.9827L100.664 92.6904C97.4429 95.0871 93.417 98.3825 88.3474 102.786C85.9617 104.884 83.8742 106.591 83.7251 106.591C83.5462 106.591 80.0571 104.314 75.9715 101.528C59.8979 90.5932 50.4743 84.1821 47.2536 82.025L43.854 79.7781L43.9137 69.5922C43.9137 63.9899 44.0329 59.3163 44.1522 59.1965C44.2715 59.0766 59.0032 58.9268 76.8662 58.8669C94.759 58.837 122.97 58.7771 139.58 58.7171L169.76 58.6572V69.2327ZM33.6253 74.3256C36.9653 76.3329 56.0807 89.0354 65.5341 95.5664C67.8303 97.1542 72.6316 100.45 76.2101 102.876C79.7589 105.273 82.6813 107.43 82.6515 107.61C82.6515 107.79 80.6237 109.767 78.1485 111.984C64.222 124.566 43.854 144.04 29.9573 158.06C27.4225 160.577 25.3052 162.584 25.2157 162.494C25.1262 162.404 25.2754 156.772 25.5437 149.971C25.8121 143.171 26.17 133.764 26.3191 129.06C26.498 124.357 26.9155 114.171 27.2137 106.441C28.7943 68.963 28.6153 71.7791 29.4205 72.0188C29.7485 72.1087 31.6571 73.1573 33.6253 74.3256ZM180.913 86.8484C181.062 94.5778 181.032 99.8804 180.883 100.03C180.734 100.18 179.899 100.39 179.064 100.51L177.513 100.689V103.416C177.513 106.981 178.05 112.793 178.408 113.482C178.587 113.841 179.123 114.081 179.839 114.141L180.942 114.231V134.812C180.942 146.107 180.823 155.484 180.704 155.604C180.585 155.754 179.451 155.843 178.199 155.873H175.903L175.336 154.375C172.742 147.695 170.833 144.04 167.076 138.767C159.65 128.251 148.378 119.264 137.403 115.01C134.242 113.781 132.93 112.493 132.423 110.036C132.065 108.419 132.095 108.269 132.602 107.969C133.974 107.19 135.465 105.573 135.912 104.404C136.36 103.236 136.896 102.816 143.427 98.5023C147.334 95.9559 157.205 89.3649 165.435 83.9124C173.636 78.43 180.436 73.9362 180.525 73.9362C180.614 73.9362 180.793 79.7482 180.913 86.8484ZM133.855 84.0622C135.137 85.1707 135.495 87.118 135.674 94.0085C135.883 102.157 134.988 105.303 131.976 106.651C130.664 107.22 130.634 107.25 130.753 108.479C130.843 109.168 131.141 110.785 131.439 112.044L131.976 114.38L130.992 116.538C129.739 119.324 127.711 122.769 127.324 122.769C127.055 122.769 124.401 120.762 118.646 116.208L115.425 113.632L115.604 109.437C115.694 107.13 115.872 104.284 115.962 103.116L116.171 100.989L114.948 99.7307C114.232 98.9817 113.517 97.8433 113.248 96.9745C112.801 95.5964 112.771 95.4166 113.218 94.7575C113.845 93.8288 114.769 93.3195 115.485 93.5592C115.813 93.649 116.499 94.4879 117.035 95.3866C119.033 98.742 120.077 96.2255 118.735 91.2224C117.692 87.2678 117.692 87.118 118.556 87.118C118.944 87.118 119.868 87.3277 120.554 87.5674C122.373 88.1965 124.043 88.1366 126.757 87.2678C129.232 86.4889 131.23 85.2306 132.065 83.9724C132.662 83.0436 132.721 83.0436 133.855 84.0622ZM103.556 92.9001C103.556 93.1098 104.212 94.2482 105.017 95.4466C105.852 96.6449 106.658 98.1429 106.866 98.742C107.403 100.36 109.55 103.595 110.952 104.854C111.608 105.453 112.711 106.112 113.367 106.292L114.59 106.621L114.411 109.677C114.202 113.092 114.053 113.302 112.145 113.632C111.489 113.751 109.64 114.291 108.059 114.83C93.2679 119.863 82.234 131.996 76.061 150.031C75.1664 152.728 73.3175 159.828 72.9894 161.895L72.8105 163.153L61.4188 163.333C29.2118 163.842 25.4245 163.872 25.4245 163.573C25.4245 162.914 45.017 143.92 63.4466 126.694C64.6096 125.615 66.3393 123.997 67.3234 123.069C77.403 113.572 94.8484 98.4125 100.872 93.9187C102.99 92.3308 103.556 92.1211 103.556 92.9001ZM191.976 102.337C188.428 105.692 187.354 106.591 186.817 106.591C186.519 106.591 185.475 106.082 184.491 105.423C183.537 104.794 181.718 103.625 180.495 102.816L178.259 101.348L182.284 101.199C184.491 101.109 187.921 100.989 189.889 100.959L193.467 100.899L191.976 102.337ZM182.344 105.123C183.358 105.872 184.849 106.861 185.595 107.31L186.966 108.089L188.875 106.681C189.919 105.932 191.559 104.554 192.513 103.655C193.438 102.727 194.302 102.067 194.392 102.157C194.66 102.457 195.078 110.935 194.809 111.205C194.273 111.774 185.565 112.883 181.628 112.883C179.392 112.883 179.362 112.883 179.183 112.044C178.825 110.306 178.438 107.22 178.229 104.674L178.02 102.008L179.243 102.876C179.899 103.356 181.3 104.374 182.344 105.123ZM117.751 117.107C119.511 118.605 122.195 120.762 123.715 121.9C125.236 123.039 126.548 124.087 126.638 124.207C126.817 124.507 122.373 129.06 121.926 129.06C121.598 129.06 110.415 120.432 108.835 118.964C107.612 117.856 106.986 116.807 107.314 116.478C107.552 116.238 113.487 114.5 114.352 114.41C114.471 114.38 115.992 115.609 117.751 117.107ZM136.27 116.028C137.403 116.478 138.417 116.927 138.566 117.077C139.103 117.616 135.167 126.664 134.391 126.664C133.914 126.664 129.859 124.716 129.381 124.267C129.203 124.087 129.948 122.23 131.141 119.623C132.662 116.418 133.348 115.279 133.735 115.279C134.034 115.279 135.167 115.609 136.27 116.028ZM106.389 126.094C118.795 140.624 128.666 150.93 133.169 153.986C136.151 156.023 137.612 155.574 139.372 152.039C140.952 148.923 142.324 141.763 144.262 126.274C144.65 123.158 145.008 120.552 145.097 120.492C145.306 120.252 150.018 123.398 151.509 124.746L152.821 125.915L153.06 132.655C153.388 140.654 153.716 144.219 154.879 152.248C155.505 156.622 155.654 158.3 155.386 158.45C155.207 158.57 154.193 158.749 153.149 158.869C150.883 159.109 150.644 159.379 149.6 163.004C148.378 167.078 144.62 182.776 144.232 185.293C144.083 186.341 143.755 186.791 142.473 187.929C141.608 188.678 140.743 189.277 140.564 189.277C140.356 189.277 139.193 188.558 137.91 187.66C134.839 185.503 129.948 182.956 126.698 181.818C121.121 179.84 111.638 178.522 106.27 178.942L103.765 179.151L103.914 178.462C104.004 178.073 104.302 176.934 104.57 175.976C105.226 173.519 106.151 166.509 106.389 162.165C106.628 158 106.21 151.709 105.346 146.586C103.944 138.258 100.813 130.558 96.4588 124.776C95.3256 123.278 95.2063 122.949 95.5343 122.619C95.9816 122.2 100.306 119.503 100.574 119.473C100.664 119.473 103.288 122.439 106.389 126.094ZM138.894 124.477C138.059 132.116 137.075 138.797 136.837 138.797C136.539 138.797 132.215 131.757 132.215 131.247C132.185 131.038 132.334 130.199 132.513 129.39L132.841 127.862L133.974 128.042C135.048 128.221 135.167 128.162 136.032 126.963C136.896 125.765 138.447 122.17 138.924 120.222C139.372 118.365 139.372 120.222 138.894 124.477ZM95.8027 126.124C100.634 132.625 103.884 142.392 104.779 152.967C105.435 160.906 104.451 172.5 102.662 177.863C102.334 178.882 102.125 179.84 102.214 180.02C102.334 180.17 103.825 180.29 105.584 180.29C116.558 180.32 125.445 181.997 132.036 185.293C134.362 186.461 139.64 189.877 139.64 190.206C139.64 190.326 137.463 192.423 134.809 194.85C132.125 197.276 129.352 199.853 128.606 200.572C127.026 202.07 127.592 201.92 114.739 204.107C105.852 205.635 106.091 205.635 94.6099 203.927C87.6615 202.909 85.5442 202.429 83.6058 201.411C80.0272 199.523 78.238 196.767 75.8821 189.577C73.8841 183.555 73.3771 180.619 73.228 174.388C73.1087 169.774 73.1683 168.336 73.735 164.801C75.8821 151.23 81.071 139.576 89.8086 128.611C91.8961 126.004 93.745 123.967 94.0134 123.967C94.1327 123.967 94.9379 124.956 95.8027 126.124ZM116.976 127.143C119.183 128.881 121.21 130.408 121.479 130.558C121.867 130.768 122.284 130.618 123.119 129.929C124.193 129.09 124.282 129.06 124.64 129.57C124.819 129.869 125.385 130.648 125.892 131.307C126.727 132.476 126.757 132.655 126.996 136.999C127.175 141.164 127.175 141.463 126.698 141.074C125.415 139.995 112.294 123.967 112.711 123.967C112.831 123.967 114.769 125.405 116.976 127.143ZM129.918 126.094L131.648 127.053L131.439 128.401C131.141 130.319 131.081 130.438 129.829 130.828C127.741 131.457 127.175 131.187 125.773 129C125.266 128.162 125.266 128.162 126.519 126.664C127.205 125.855 127.861 125.166 127.98 125.166C128.099 125.166 128.964 125.585 129.918 126.094ZM156.519 128.191C161.141 131.876 166.42 138.917 170.326 146.586C172.414 150.72 174.531 155.813 174.263 156.113C174.143 156.233 172.354 156.473 170.326 156.652C168.298 156.802 164.958 157.162 162.901 157.431C160.843 157.701 158.696 157.941 158.129 157.941L157.115 157.97L156.579 154.975C155.087 146.376 153.537 126.664 154.342 126.664C154.491 126.664 155.475 127.353 156.519 128.191ZM133.467 136.34L136.032 140.624L135.614 142.482C135.137 144.519 134.57 145.837 133.884 146.376C133.527 146.676 133.109 146.496 131.708 145.418C130.723 144.699 129.441 143.56 128.815 142.931L127.682 141.763L127.89 137.209L128.099 132.655L129.024 132.386C130.783 131.876 130.813 131.906 133.467 136.34ZM93.8643 204.556C97.7113 205.126 103.974 205.755 106.091 205.755C107.254 205.755 109.968 205.485 112.145 205.155C114.352 204.826 116.35 204.556 116.618 204.586C117.274 204.616 108.954 206.983 100.753 209.14L98.3972 209.739L96.3097 209.05C94.4906 208.481 93.8941 208.091 92.3136 206.504C90.3156 204.496 89.9876 203.867 91.1208 204.077C91.4786 204.167 92.7311 204.377 93.8643 204.556ZM276.848 239.219C277.563 240.027 278.488 241.016 278.846 241.436L279.532 242.214L278.965 243.892C278.637 244.791 277.832 246.319 277.176 247.277C275.923 249.195 273.657 251.592 273.18 251.592C272.524 251.592 268.17 249.045 268.229 248.716C268.349 248.266 275.118 237.84 275.327 237.84C275.416 237.811 276.102 238.44 276.848 239.219ZM221.41 253.539C221.44 254.438 221.47 255.426 221.47 255.696C221.529 256.924 216.519 259.141 212.702 259.531L210.764 259.74L209.959 258.063C209.481 257.134 209.124 256.205 209.124 255.966C209.124 255.756 209.78 255.426 210.704 255.217C211.539 255.007 214.134 254.198 216.43 253.389C218.726 252.61 220.784 251.951 220.992 251.921C221.231 251.891 221.38 252.43 221.41 253.539Z" fill="#101223"/>
<path d="M73.067 70.1432C68.0859 70.4404 82.8512 70.7376 105.829 70.8367C128.837 70.8367 147.308 70.5395 146.893 70.1432C146.093 69.2515 87.6247 69.2515 73.067 70.1432Z" fill="#101223"/>
<path d="M180.929 53.549C180.685 54.1814 181.902 55.8075 187.987 62.9142C195.715 71.9482 196.658 73.0021 197.297 73.0021C197.905 73.0021 199 72.3999 200.37 71.2857L201.221 70.6232L203.412 72.2192C206.12 74.2067 207.945 75.1703 208.249 74.8692C208.645 74.4777 209.071 71.3158 209.192 67.8227L209.284 64.6307L213.452 61.258C215.734 59.4211 217.62 57.795 217.62 57.6444C217.62 57.2529 215.247 56.8313 207.489 55.8376C199.518 54.7836 184.001 53.1274 182.237 53.1274C181.507 53.1274 181.02 53.278 180.929 53.549ZM189.721 55.0848C192.094 55.3257 196.506 55.7172 199.518 55.9882C206.546 56.5904 216.19 57.6444 216.403 57.8251C216.585 58.0058 216.099 58.3972 211.87 61.4688C208.979 63.6068 208.675 63.7574 207.915 63.4261C203.077 61.4086 194.406 58.0359 192.094 57.3132C189.173 56.4098 188.109 56.2893 187.896 56.9518C187.713 57.4336 188.961 58.1864 197.236 62.4625C201.161 64.4801 204.507 66.2568 204.629 66.3772C204.933 66.6482 197.571 71.8578 197.205 71.6169C196.932 71.4664 183.515 55.6268 183.119 54.9944C182.815 54.5126 184.245 54.5126 189.721 55.0848ZM199.122 60.9569C202.438 62.071 207.519 63.9079 208.249 64.2994C208.675 64.5403 208.736 64.9017 208.614 66.7687C208.401 69.6897 208.188 70.9845 207.945 70.7436C207.823 70.6533 207.519 69.509 207.276 68.2442L206.819 65.9255L201.799 63.3057C196.506 60.5052 194.924 59.6018 195.775 59.8728C196.049 59.9631 197.571 60.4449 199.122 60.9569Z" fill="#101223"/>
<path d="M237.478 134.078C236.3 137.719 235.299 141.501 235.299 142.348C235.299 142.659 235.653 143.082 236.124 143.28C238.272 144.324 247.192 146.667 250.401 147.034C251.872 147.203 252.049 147.175 252.461 146.554C253.079 145.651 255.317 138.594 255.523 136.929L255.699 135.574L254.551 135.122C253.285 134.614 239.509 130.776 238.92 130.776C238.714 130.776 238.096 132.215 237.478 134.078ZM246.485 133.796C250.136 134.981 253.168 135.997 253.256 136.054C253.492 136.251 252.579 136.675 249.223 137.86C245.22 139.3 245.455 139.384 242.129 135.264C239.627 132.13 239.273 131.622 239.627 131.622C239.744 131.622 242.835 132.61 246.485 133.796ZM241.422 135.715C242.747 137.606 244.13 139.413 244.543 139.78L245.279 140.429L247.722 139.667C249.076 139.243 250.93 138.594 251.843 138.227C252.785 137.86 253.668 137.55 253.815 137.55C254.169 137.55 253.492 140.034 252.314 143.308L251.372 145.792L249.753 145.622C247.692 145.397 243.041 144.267 239.362 143.11C236.771 142.32 236.477 142.151 236.477 141.558C236.477 140.824 238.42 132.864 238.714 132.413C238.92 132.074 238.626 131.707 241.422 135.715Z" fill="#101223"/>
<path d="M132.532 96.5622C132.48 97.2839 132.06 97.7847 131.516 98.2045C131.376 98.315 131.206 98.3371 131.059 98.2045C130.941 98.094 130.919 97.9173 131.007 97.8289C132.259 96.4886 131.162 95.5091 130.507 94.4559C130.462 94.3823 130.411 94.3234 130.367 94.2497C130.227 93.9993 129.895 93.7121 130.271 93.4617C130.632 93.2187 130.809 93.6311 130.971 93.8521C131.42 94.4559 131.84 95.0746 132.259 95.6932C132.443 95.951 132.554 96.2382 132.532 96.5622Z" fill="#101223"/>
<path d="M133.214 87.6827C133.342 87.7863 133.364 87.9133 133.276 88.0476C133.164 88.2116 132.996 88.2199 132.834 88.1554C132.145 87.8739 131.545 88.0011 131.001 88.5085C130.816 88.6774 130.585 88.681 130.419 88.4648C130.262 88.2598 130.324 88.0608 130.465 87.8521C130.994 87.0667 132.599 86.968 133.214 87.6827Z" fill="#101223"/>
<path d="M132.134 91.5176C132.156 91.1641 132.068 90.899 132.399 90.8548C132.642 90.818 132.745 90.9652 132.811 91.1715C133.018 91.768 133.238 92.3645 133.452 92.9684C133.555 93.2704 133.504 93.5355 133.187 93.6533C132.892 93.7638 132.693 93.5576 132.62 93.3072C132.421 92.6665 132.266 92.0257 132.134 91.5176Z" fill="#101223"/>
<path d="M124.305 93.0716C124.291 92.8212 124.268 92.5782 124.563 92.5193C124.85 92.4677 124.946 92.6887 125.02 92.8949C125.226 93.462 125.425 94.0364 125.631 94.6035C125.734 94.9054 125.69 95.1558 125.366 95.281C125.056 95.3988 124.887 95.1926 124.799 94.9496C124.548 94.3457 124.401 93.705 124.305 93.0716Z" fill="#101223"/>
<path d="M122.665 90.7885C122.909 90.0546 123.755 89.3854 124.379 89.4342C124.697 89.461 125.003 89.5459 125 89.9511C125.001 90.3029 124.74 90.4448 124.442 90.4253C123.87 90.3868 123.494 90.6524 123.218 91.1015C123.113 91.2672 123.041 91.4686 122.792 91.3568C122.51 91.2258 122.589 91.0037 122.665 90.7885Z" fill="#101223"/>
<path d="M128.297 101.983C128.724 102.263 129.18 102.38 129.637 102.513C129.814 102.564 130.042 102.638 129.983 102.903C129.931 103.132 129.725 103.168 129.519 103.168C128.797 103.168 128.164 102.903 127.553 102.55C127.295 102.395 127.089 102.204 127.251 101.88C127.435 101.511 127.7 101.681 127.958 101.813C128.076 101.865 128.201 101.931 128.297 101.983Z" fill="#101223"/>
</svg>
