<svg width="56" height="48" viewBox="0 0 56 48" fill="none" xmlns="http://www.w3.org/2000/svg">
<path d="M30.9099 19.9293C30.8653 20.5535 30.5023 20.9866 30.0309 21.3497C29.9099 21.4452 29.7634 21.4643 29.636 21.3497C29.5341 21.2541 29.515 21.1013 29.5915 21.0248C30.6743 19.8656 29.7252 19.0185 29.1583 18.1076C29.1201 18.0439 29.0755 17.993 29.0373 17.9293C28.9163 17.7127 28.6297 17.4643 28.9545 17.2478C29.2666 17.0376 29.4195 17.3943 29.5596 17.5854C29.9481 18.1076 30.3112 18.6427 30.6743 19.1777C30.8335 19.4006 30.929 19.649 30.9099 19.9293Z" fill="#101223"/>
<path d="M31.3859 13.1337C31.4114 13.2738 31.3541 13.3693 31.2203 13.4076C31.0547 13.4522 30.9401 13.363 30.87 13.2292C30.577 12.656 30.1121 12.4012 29.4688 12.4267C29.2522 12.4331 29.0993 12.3057 29.1121 12.07C29.1248 11.8471 29.2777 11.7515 29.4879 11.6942C30.2777 11.4776 31.3859 12.3184 31.3859 13.1337Z" fill="#101223"/>
<path d="M30.5664 15.5662C30.5855 15.2605 30.5091 15.0312 30.7957 14.993C31.0059 14.9611 31.0951 15.0885 31.1524 15.2669C31.3307 15.7828 31.5218 16.2987 31.7065 16.821C31.7957 17.0821 31.7511 17.3114 31.4772 17.4134C31.2225 17.5089 31.0505 17.3306 30.9868 17.114C30.8148 16.5599 30.6811 16.0057 30.5664 15.5662Z" fill="#101223"/>
<path d="M23.7935 16.9104C23.7808 16.6938 23.7617 16.4837 24.0164 16.4327C24.2648 16.3881 24.3476 16.5792 24.4113 16.7575C24.5897 17.248 24.7617 17.7448 24.94 18.2352C25.0292 18.4964 24.991 18.7129 24.7107 18.8212C24.4432 18.9231 24.2967 18.7448 24.2203 18.5346C24.0037 18.0123 23.8763 17.4582 23.7935 16.9104Z" fill="#101223"/>
<path d="M22.2346 16.6426C22.2219 15.9738 22.7187 15.184 23.241 15.0439C23.5085 14.9738 23.7824 14.9547 23.897 15.2859C23.9989 15.5725 23.827 15.7636 23.5786 15.8337C23.1009 15.9674 22.8716 16.2923 22.776 16.7381C22.7378 16.9037 22.7378 17.0884 22.5021 17.0693C22.2346 17.0439 22.2346 16.84 22.2346 16.6426Z" fill="#101223"/>
<path d="M27.2471 24.6176C27.6165 24.8596 28.0114 24.9615 28.4063 25.0762C28.5592 25.1208 28.7566 25.1845 28.7057 25.4138C28.6611 25.6112 28.4828 25.6431 28.3044 25.6431C27.6802 25.6431 27.1324 25.4138 26.6038 25.108C26.3809 24.9743 26.2025 24.8087 26.3426 24.5284C26.5019 24.21 26.7312 24.3565 26.9541 24.4711C27.056 24.5157 27.1643 24.573 27.2471 24.6176Z" fill="#101223"/>
<path d="M29.6347 38.1584C29.5456 37.6234 29.743 37.5342 30.0678 37.6298C30.7112 37.8209 31.3545 38.0056 31.9596 38.3049C32.3162 38.4769 32.3417 38.6616 32.0742 38.9546C31.4819 39.6107 30.9086 40.2922 30.3226 40.961C30.2462 41.0438 30.1315 41.1521 30.0424 41.1457C29.8513 41.133 29.8831 40.9419 29.8704 40.8081C29.7876 39.8718 29.7048 38.9355 29.6347 38.1584Z" fill="#101223"/>
<path d="M17.7297 33.6298C17.7361 34.3559 17.1373 34.9928 16.4495 34.9928C15.7042 34.9928 15.1437 34.4132 15.1565 33.6553C15.1692 32.9737 15.8253 32.2604 16.4558 32.2412C17.1119 32.2221 17.7233 32.8909 17.7297 33.6298Z" fill="#101223"/>
<path d="M18.9281 36.9544C18.8389 37.4703 18.6733 37.8971 18.1 37.8971C17.5332 37.8971 17.2848 37.4767 17.2911 36.9926C17.2911 36.483 17.6287 36.1264 18.151 36.1136C18.6797 36.1009 18.8453 36.5276 18.9281 36.9544Z" fill="#101223"/>
<path d="M48.0487 12.9678C47.4115 13.7318 46.3394 14.3568 45.0161 14.3166C44.2791 14.2922 43.9537 14.6091 43.6834 15.1825C43.3045 15.9873 43.3017 15.9663 42.5075 15.5326C41.7827 15.1396 41.1693 14.6181 40.632 13.9975C40.4092 13.7382 40.3436 13.5366 40.6422 13.2873C41.1626 12.8557 41.1882 12.3714 40.8613 11.7802C39.7779 9.82065 41.1551 7.25697 43.0886 6.3551C44.8203 5.54382 46.9859 6.0043 48.1372 7.44916C49.3878 9.02704 49.4301 11.1695 48.0487 12.9678ZM41.7235 7.95185C40.8573 9.08778 40.5685 10.3083 41.1913 11.6622C41.4204 12.1593 41.5535 12.6584 41.1741 13.1605C40.9855 13.4061 41.2064 13.5695 41.3742 13.6543C41.6374 13.7872 41.6348 13.4955 41.6792 13.3721C42.1968 11.9684 42.4964 10.5043 42.7381 9.03349C42.7648 8.88394 42.7638 8.71309 42.9303 8.65207C43.0938 8.59501 43.2102 8.72222 43.3169 8.82934C43.4324 8.94956 43.5154 9.12035 43.706 9.13453C44.3748 9.18219 44.6923 9.81024 45.2397 10.0733C45.6501 10.2688 45.9601 10.677 46.3777 10.8466C46.8481 11.0379 46.6999 11.239 46.4945 11.4654C46.3609 11.6147 46.1639 11.7153 45.9801 11.8071C44.7784 12.3957 43.7234 13.1788 42.8763 14.2161C42.7446 14.3794 42.5007 14.5574 42.817 14.7689C43.0391 14.9143 43.2829 15.0889 43.4641 14.7054C43.7643 14.0605 44.2697 13.8944 44.9722 13.8736C47.1558 13.8187 48.7965 11.8795 48.5727 9.71101C48.42 8.22068 47.338 6.92347 45.9082 6.50541C44.3647 6.06307 42.7529 6.61998 41.7235 7.95185ZM43.1 9.18551C42.8551 10.8491 42.491 12.3644 41.8908 13.8181C41.7911 14.0627 41.8923 14.2098 42.0907 14.3369C42.3009 14.4732 42.4007 14.3105 42.5051 14.1829C43.4602 13.0459 44.5504 12.0694 45.9232 11.4548C46.1993 11.3331 46.1666 11.2199 45.9853 11.005C45.7616 10.7387 45.2905 10.8681 45.2051 10.6513C44.9858 10.0923 44.2717 10.1611 44.0538 9.64105C44.0276 9.57681 43.8394 9.52669 43.7502 9.55264C43.4746 9.6244 43.3368 9.44299 43.1 9.18551Z" fill="#101223"/>
<path d="M41.3197 16.5287C40.7057 16.0571 40.2479 15.4724 39.8911 14.789C39.7533 14.5256 39.6873 14.2671 39.971 14.0946C40.284 13.9003 40.332 14.2396 40.453 14.4018C41.0218 15.1536 41.7093 15.751 42.576 16.1396C42.7271 16.2053 43.0947 16.2105 42.8924 16.5149C42.7256 16.7647 42.6066 17.2149 42.1463 17.0188C41.856 16.8966 41.5945 16.6957 41.3197 16.5287Z" fill="#101223"/>
<path d="M40.0548 17.0678C39.35 16.5831 39.0127 15.9399 39.175 15.3843C39.2175 15.2469 39.2427 15.0584 39.405 15.0193C39.6053 14.9716 39.6298 15.1857 39.6884 15.3063C40.1016 16.1212 40.7583 16.7012 41.5191 17.1785C41.6391 17.2518 41.8523 17.3023 41.8043 17.4795C41.7512 17.6717 41.5267 17.6442 41.3677 17.6543C40.8299 17.6821 40.4655 17.3203 40.0548 17.0678Z" fill="#101223"/>
<path d="M39.7594 17.3958C39.9687 17.5251 40.2277 17.6799 40.4776 17.8466C40.5519 17.8974 40.6579 17.9726 40.6632 18.0396C40.6687 18.1635 40.5472 18.2151 40.4389 18.2578C39.8266 18.5055 39.138 18.09 39.0529 17.4137C39.0336 17.2666 38.9918 17.0833 39.1406 16.9961C39.3218 16.8833 39.3892 17.0988 39.5032 17.1801C39.5735 17.2278 39.6427 17.2936 39.7594 17.3958Z" fill="#101223"/>
<path d="M49.7178 8.8334C49.5821 8.64102 49.6767 8.49325 49.8609 8.4584C50.3965 8.35967 50.9368 8.29595 51.4721 8.22218C51.5491 8.21208 51.6277 8.24095 51.6327 8.33292C51.6351 8.37891 51.6032 8.46146 51.5722 8.4691C50.9988 8.63334 50.4359 8.84965 49.8302 8.87565C49.7942 8.87324 49.7586 8.84586 49.7178 8.8334Z" fill="#101223"/>
<path d="M40.5503 6.5029C40.3808 6.64981 40.2574 6.60543 40.1401 6.47121C39.8423 6.12911 39.5455 5.79402 39.2477 5.45192C39.1974 5.39439 39.1431 5.33382 39.2 5.25156C39.2508 5.17722 39.3346 5.19117 39.3992 5.22188C39.89 5.4603 40.2402 5.84896 40.5176 6.30771C40.56 6.35915 40.546 6.44291 40.5503 6.5029Z" fill="#101223"/>
<path d="M43.6399 4.86465C43.4697 4.97958 43.3354 4.93307 43.3136 4.74001C43.2603 4.25187 43.239 3.76309 43.2066 3.27219C43.2035 3.19423 43.2263 3.12356 43.3155 3.09761C43.4078 3.0677 43.4791 3.12247 43.4883 3.19251C43.5602 3.71384 43.6251 4.23608 43.687 4.76229C43.6876 4.79426 43.6563 4.82687 43.6399 4.86465Z" fill="#101223"/>
<path d="M51.5142 12.0214C51.4642 12.0208 51.3911 12.034 51.3214 12.0182C50.9209 11.9247 50.5203 11.8312 50.1219 11.7267C49.9924 11.6902 49.8724 11.6169 49.9213 11.4466C49.9681 11.2873 50.0972 11.2668 50.2386 11.3124C50.6446 11.448 51.0546 11.5865 51.4585 11.7331C51.5789 11.7814 51.6368 11.87 51.5142 12.0214Z" fill="#101223"/>
<path d="M48.7549 4.34716C48.5835 4.91464 48.2099 5.35192 47.863 5.80349C47.8204 5.85895 47.7608 5.9202 47.6724 5.87123C47.5652 5.81405 47.5624 5.71112 47.6122 5.62977C47.9235 5.15082 48.2338 4.66485 48.7549 4.34716Z" fill="#101223"/>
<path d="M49.4873 14.5135C49.6152 14.5929 49.8276 14.7182 50.0329 14.8444C50.1103 14.8913 50.2127 14.9384 50.1494 15.0536C50.0892 15.1648 49.9838 15.1216 49.9034 15.0787C49.5768 14.8971 49.2523 14.7046 48.9288 14.519C48.7938 14.4406 48.6341 14.3368 48.7409 14.1732C48.8802 13.959 49.0302 14.1246 49.1579 14.229C49.2459 14.3029 49.327 14.3778 49.4873 14.5135Z" fill="#101223"/>
<path fill-rule="evenodd" clip-rule="evenodd" d="M34.1737 6.15603C34.4037 6.32024 34.635 6.48535 34.8829 6.62997C34.8786 6.57816 34.8772 6.53585 34.876 6.49959C34.8737 6.42888 34.8721 6.38114 34.8511 6.33061C33.5199 3.5026 31.3097 1.77012 28.2651 1.08859C25.8893 0.559932 23.5135 0.789229 21.1505 1.12681C19.055 1.42617 17.0677 2.08222 15.348 3.38157C12.7365 5.36246 11.4244 8.78283 12.1569 11.6108C12.4053 12.5662 13.055 13.044 13.9594 13.2733C14.3161 13.3624 14.4053 13.2669 14.3098 12.9166C14.1824 12.4771 14.0741 12.0376 13.9913 11.5854C13.8575 10.8593 14.0486 10.2414 14.6601 9.79556C14.9658 9.56626 15.3671 9.41977 15.6537 9.70002C15.9197 9.96137 15.7172 10.1201 15.5274 10.269C15.4581 10.3233 15.3905 10.3763 15.348 10.4325C14.7684 11.1905 14.934 11.9675 15.2015 12.7701C15.3989 13.3561 15.7556 13.7191 16.3989 13.7319C16.4352 13.7319 16.4739 13.7389 16.5127 13.746C16.617 13.7649 16.7225 13.7842 16.7875 13.6682C16.8605 13.5465 16.7847 13.4582 16.7107 13.3722C16.688 13.3457 16.6653 13.3194 16.6473 13.2924C16.2715 12.7446 16.1633 12.1522 16.3225 11.5026C16.6856 9.99301 19.3225 7.98028 20.8702 8.04398C21.1441 8.05671 21.4371 8.12678 21.5072 8.41977C21.571 8.69256 21.3493 8.79082 21.1407 8.88322C21.1204 8.89222 21.1002 8.90117 21.0804 8.91022C20.8953 8.99292 20.7091 9.07461 20.5226 9.15642C20.0483 9.36447 19.5722 9.57336 19.1059 9.80193C18.3416 10.1777 17.8448 10.7764 17.7938 11.6554C17.7365 12.6936 18.4945 13.3815 19.5008 13.2796C20.4244 13.1841 21.2014 12.7764 21.9021 12.2032C23.0295 11.286 24.2651 10.5408 25.5454 9.85925C27.3734 8.8911 29.246 8.08856 31.3798 8.20321C32.2842 8.25417 33.1504 8.41977 33.9275 8.91022C34.1377 9.04397 34.3543 9.24142 34.2205 9.4962C34.0716 9.77193 33.8654 9.63705 33.6887 9.52147C33.6614 9.50356 33.6347 9.48611 33.609 9.47072C33.1059 9.16499 32.5645 8.97391 31.9785 8.94843C31.9419 8.94708 31.9019 8.9417 31.8606 8.93614C31.7076 8.91555 31.5364 8.89253 31.4562 9.06308C31.3728 9.23515 31.4942 9.36026 31.6074 9.47686C31.6325 9.5027 31.6572 9.52811 31.6791 9.55353C32.3543 10.3561 32.9084 11.2223 33.2078 12.235C34.2332 15.7191 34.711 19.2923 35.0995 22.8911C35.2205 24.0439 34.8574 24.9165 33.9339 25.3751C32.0613 26.2923 31.8893 27.6617 32.5262 29.4069C32.8129 30.1904 32.4562 30.8082 31.8702 31.3178C31.4142 31.7129 30.956 32.1066 30.4976 32.5005C29.5668 33.3005 28.6349 34.1013 27.7173 34.9165C27.3288 35.2604 27.0486 35.3241 26.5963 35.0184C24.7556 33.7827 22.8957 32.5789 21.0295 31.3815C20.6473 31.1394 20.4817 30.8528 20.4308 30.3942C20.2206 28.4261 19.8575 26.4898 18.9913 24.6809C18.9303 24.5499 18.8525 24.4221 18.7749 24.2946C18.6337 24.0627 18.4932 23.832 18.4562 23.5853C18.3798 23.1076 18.1378 22.8783 17.7683 22.6554C17.2015 22.3051 16.7556 21.8274 16.6792 21.1267C16.6768 21.1057 16.6744 21.0845 16.6719 21.0632C16.6214 20.6272 16.566 20.1494 17.1187 19.9611C17.6728 19.77 18.0359 20.0758 18.3097 20.528C18.3457 20.5876 18.3807 20.6483 18.4158 20.709C18.5978 21.0244 18.7811 21.3421 19.1123 21.5344C19.3734 21.6936 19.6664 21.7573 19.9339 21.5853C20.2078 21.407 20.125 21.1204 20.0295 20.8656C19.922 20.588 19.8115 20.3129 19.7011 20.0381C19.4973 19.531 19.2941 19.0253 19.1123 18.5089C19.0537 18.3438 18.9912 18.179 18.9286 18.014C18.5829 17.1028 18.2341 16.1832 18.5199 15.1586C18.6027 14.8847 18.4626 14.821 18.2269 14.8338C18.1124 14.8392 17.999 14.8412 17.8858 14.8431C17.7346 14.8457 17.5837 14.8483 17.4308 14.8592C15.6728 14.9866 14.0168 14.7064 12.5964 13.5726C12.2244 13.2761 12.1399 13.5272 12.0648 13.7503C12.0511 13.7908 12.0378 13.8304 12.0231 13.8656C11.2206 15.7764 11.6473 17.5599 12.6665 19.2414C13.1569 20.0439 13.6028 20.8592 13.9403 21.7446C14.5072 23.2286 15.6664 24.0885 17.2015 24.0567C18.1632 24.0375 18.4244 24.4516 18.7174 25.1522C18.9085 25.6108 18.832 25.8719 18.4626 26.1968C17.2015 27.3008 15.9574 28.4161 14.7132 29.5314C14.0911 30.0891 13.469 30.6468 12.8448 31.2031C12.5263 31.4834 12.2142 31.7764 12.3352 32.2413C12.4435 32.6681 12.227 32.7764 11.8894 32.891C6.0996 34.8337 2.36077 38.9292 0.0359337 44.4069C-1.83961 48.8118 -2.58878 53.3562 -2.40985 57.9998H-1.79967C-2.00509 53.5802 -1.44708 49.222 0.341666 44.9738C2.57732 39.6617 6.2461 35.7063 11.6537 33.4961C12.6856 33.0757 12.6983 33.0757 13.1633 34.063C13.99 35.8089 14.8385 37.5445 15.687 39.2802C16.9435 41.8502 18.2 44.4204 19.3862 47.0247C20.231 48.8854 20.6372 50.8558 21.0441 52.8295C21.1372 53.2812 21.2304 53.7331 21.3288 54.1839C21.3615 54.3385 21.3928 54.4933 21.4241 54.6482C21.527 55.157 21.6297 55.6652 21.7811 56.1584C21.9085 56.5661 21.7874 56.7189 21.418 56.8208C21.2248 56.8748 21.0316 56.9286 20.8382 56.9824C19.6542 57.3122 18.4684 57.6424 17.2924 57.9998H19.2997C24.2903 56.6038 29.3667 55.6091 34.5199 54.9928C35.5033 54.8753 36.494 54.7963 37.4845 54.7174C38.1041 54.6679 38.7238 54.6185 39.3415 54.5597C39.7746 54.5215 39.9976 54.5852 40.0167 55.1075C40.044 55.992 40.1274 56.8764 40.2109 57.7609C40.2184 57.8406 40.2259 57.9202 40.2334 57.9998H40.6627C40.6391 57.613 40.6172 57.2262 40.5953 56.8395C40.585 56.6592 40.5748 56.4788 40.5644 56.2986C40.4593 54.4856 40.3771 52.6718 40.2949 50.8581C40.1481 47.6188 40.0013 44.3797 39.7237 41.1458C39.6791 40.6107 39.7491 40.3559 40.3797 40.3623C41.8511 40.3751 43.0549 39.6298 44.2141 38.84C44.6727 38.5216 44.8383 38.5916 45.0294 39.0821C46.0861 41.7433 47.272 44.3455 48.4578 46.9477C48.8301 47.7647 49.2024 48.5817 49.5708 49.4005C50.8168 52.1732 51.7192 55.0283 52.2668 57.9998H52.8528C52.2009 53.5409 50.297 49.507 48.3902 45.4671L48.3287 45.3368C46.8001 42.0884 45.3224 38.8273 44.2778 35.3814C44.1695 35.012 44.0039 34.6681 43.6345 34.2222C45.3797 34.305 46.6536 34.9865 47.7937 35.9611C49.3606 37.3114 50.4243 39.0375 51.2459 40.8973C53.4243 45.8336 54.9784 50.9546 55.5516 56.3431C55.6081 56.8917 55.6178 57.4454 55.6178 57.9998H56.2435C56.1191 54.2564 55.2192 50.6632 54.093 47.1202C53.1185 44.0629 52.1249 41.012 50.4052 38.2732C48.9147 35.8974 47.0103 34.0757 44.0549 33.7381C43.781 33.7127 43.6217 33.598 43.5835 33.2987C43.246 30.821 41.0039 28.7636 38.195 28.8146C37.832 28.821 37.6154 28.6808 37.4562 28.3624C37.316 28.0885 37.1377 27.821 36.9402 27.5789C36.6855 27.2668 36.6472 26.9738 36.8129 26.5917C37.1202 25.8765 37.3981 25.1465 37.6767 24.4148C37.7157 24.3124 37.7547 24.21 37.7937 24.1076C37.8055 24.0769 37.8189 24.0455 37.8325 24.0138C37.9145 23.8219 38.0024 23.6164 37.7619 23.4579C37.4753 23.2668 37.6027 23.1458 37.7874 22.9739C38.0421 22.7382 38.1186 22.4261 37.9593 22.114C37.7874 21.7764 37.4179 21.649 37.0995 21.7C36.3734 21.8146 36.4243 22.3688 36.5517 22.9165C35.6855 23.01 35.6851 23.0059 35.6079 22.2421C35.6062 22.2253 35.6045 22.208 35.6027 22.1904C35.3352 19.4962 34.9339 16.8337 34.2715 14.2096C34.2347 14.0627 34.1949 13.9162 34.1551 13.7697C33.9738 13.103 33.7924 12.4357 33.902 11.7255C33.9119 11.6605 33.9065 11.5893 33.9011 11.5187C33.8892 11.3611 33.8774 11.2059 34.0358 11.1268C34.212 11.041 34.3384 11.169 34.4575 11.2896C34.4977 11.3303 34.537 11.3701 34.5772 11.4007C35.0358 11.7446 35.2842 11.6554 35.2778 11.0758C35.2651 9.29875 35.0358 7.61086 33.4434 6.43889C33.4108 6.41509 33.3779 6.3913 33.3448 6.36736C32.97 6.0965 32.5693 5.80686 32.3352 5.28602C33.0807 5.37585 33.6236 5.76336 34.1737 6.15603ZM16.3453 57.9998C16.3199 57.9364 16.3052 57.862 16.2903 57.7863C16.2825 57.7467 16.2747 57.7068 16.2652 57.668C16.0199 56.6138 15.7747 55.5581 15.5295 54.5024C15.2843 53.4467 15.0391 52.3909 14.7938 51.3368C14.5286 50.2015 14.2645 49.0662 14.0007 47.9315C13.6753 46.5324 13.3502 45.1343 13.0231 43.7381C13.0174 43.7126 13.0126 43.6864 13.0077 43.6597C12.9746 43.4791 12.9371 43.274 12.5709 43.1075C12.7263 43.8512 12.873 44.5623 13.0166 45.2577C13.1496 45.9024 13.2799 46.5336 13.4117 47.1648C13.5174 47.6445 13.623 48.124 13.7286 48.6033C14.4054 51.6765 15.0813 54.7455 15.7811 57.8145C15.7956 57.878 15.807 57.9397 15.8154 57.9998H16.3453ZM5.539 57.9998C5.34171 57.0707 4.7727 56.566 4.01681 56.5597C3.34165 56.5533 2.81936 57.0119 2.52637 57.9036C2.51577 57.9357 2.50562 57.9678 2.49589 57.9998H3.10392C3.12434 57.9452 3.14635 57.8918 3.16968 57.84C3.35439 57.4196 3.6856 57.1266 4.16968 57.1329C4.64101 57.1393 4.81935 57.5215 4.94674 57.8845C4.96043 57.9229 4.97365 57.9613 4.98644 57.9998H5.539ZM28.1059 35.3942C29.2524 34.4069 30.3989 33.4197 31.6409 32.356C31.5828 32.908 31.3811 33.3349 31.187 33.7457C31.1258 33.8753 31.0653 34.0033 31.0103 34.133C30.6982 34.9165 30.367 35.6872 30.0231 36.4579C29.8766 36.7955 29.9594 36.9483 30.3033 37.0056C31.0231 37.133 31.711 37.3496 32.3288 37.7445C32.6826 37.9784 32.7711 37.738 32.8599 37.4964C32.8655 37.4814 32.871 37.4664 32.8766 37.4515C32.9494 37.2644 33.0225 37.078 33.0956 36.8918C33.3483 36.2477 33.5997 35.607 33.832 34.9547C33.9594 34.6044 34.0613 34.3878 34.4817 34.6171C34.6345 34.6999 34.8702 34.6999 35.0422 34.649C35.3861 34.5471 35.5199 34.6744 35.609 34.9865C35.66 35.1649 35.7492 35.3878 35.8893 35.4706C36.4925 35.8103 36.4765 36.3493 36.4601 36.8993C36.4586 36.9474 36.4572 36.9957 36.4562 37.0439C36.3224 42.4196 36.0549 47.7827 35.4562 53.1266C35.4491 53.2041 35.4369 53.2825 35.4245 53.3614C35.4034 53.4965 35.3821 53.6332 35.3861 53.7699C35.3925 54.2922 35.1313 54.4578 34.6345 54.5088C32.2842 54.7572 29.9403 55.031 27.6218 55.4896C27.2373 55.5665 26.8523 55.6417 26.4672 55.7169C25.5763 55.8907 24.6851 56.0647 23.8002 56.2603C23.3607 56.3559 23.1314 56.3431 23.1377 55.789C23.1972 51.1861 22.5128 46.668 21.8281 42.1478C21.6326 40.8571 21.437 39.5662 21.2588 38.2732C20.9849 36.2923 20.762 34.305 20.6346 32.3114C20.633 32.2709 20.6256 32.2272 20.6181 32.1827C20.5961 32.0523 20.5731 31.9161 20.6919 31.8401C20.8564 31.7385 20.9731 31.8463 21.0839 31.9487C21.119 31.9811 21.1535 32.013 21.1887 32.0375C22.0517 32.6107 22.9131 33.1871 23.7745 33.7635C24.6361 34.34 25.4976 34.9165 26.3607 35.4897C27.2396 36.0757 27.3224 36.0693 28.1059 35.3942ZM17.3535 27.8977C17.9243 27.3686 18.501 26.8339 19.0868 26.2923C19.6218 27.9547 19.8766 29.5726 19.9785 31.2031C20.2234 35.1761 20.7939 39.1072 21.364 43.0362C21.4611 43.7054 21.5582 44.3745 21.6537 45.0438C22.1696 48.6425 22.6728 52.2476 22.7428 55.8909C22.7428 55.9406 22.752 55.9975 22.7615 56.0562C22.7945 56.2613 22.8311 56.4889 22.4944 56.5087C22.2065 56.529 22.199 56.3087 22.1923 56.1119C22.1906 56.0605 22.1889 56.0108 22.1823 55.9673C21.7174 52.9928 21.2078 50.0247 20.0486 47.2222C19.2009 45.1814 18.2268 43.2037 17.2532 41.227C16.8442 40.3966 16.4353 39.5664 16.0359 38.7318C15.3059 37.2093 14.5722 35.6904 13.8377 34.1698C13.5981 33.6737 13.3584 33.1775 13.1187 32.6808C12.9531 32.3432 12.8448 32.0502 13.2079 31.719C14.5841 30.465 15.9508 29.1981 17.3535 27.8977ZM39.3097 33.6299C38.7173 33.2795 38.9593 32.9738 39.3224 32.598C38.6154 32.6744 38.2014 33.0694 37.9211 33.6171C37.8574 33.7445 37.7874 33.891 37.9084 34.0184C38.0358 34.1522 38.1759 34.0948 38.2842 33.9865C38.4434 33.8209 38.609 33.7764 38.781 33.9547C38.9848 34.1649 38.8511 34.3687 38.7173 34.5343C38.2778 35.0885 37.6855 35.4197 36.9848 35.4642C36.0676 35.5216 35.5899 34.6426 35.9976 33.7254C36.0462 33.6168 36.1056 33.5119 36.1657 33.4056C36.3417 33.0945 36.5243 32.772 36.4625 32.3114C36.1887 32.5233 36.0116 32.792 35.8399 33.0524C35.6762 33.3008 35.5174 33.5418 35.2842 33.719C35.2326 33.7595 35.182 33.8053 35.1313 33.851C34.9191 34.0427 34.7059 34.2353 34.418 34.0502C34.0803 33.8379 34.1943 33.523 34.3022 33.2252C34.3204 33.1747 34.3386 33.1247 34.3543 33.0757C34.4116 32.8913 34.5099 32.7254 34.6121 32.5528C34.7711 32.2844 34.9397 31.9998 34.9785 31.6044C34.448 32.0338 34.2244 32.5195 34.0033 32.9995L33.9976 33.012C33.9929 33.0221 33.9882 33.0323 33.9835 33.0424C33.8614 33.3064 33.7412 33.5662 33.367 33.4006C33.0167 33.2477 33.125 32.9292 33.2078 32.7127C33.5453 31.8273 34.0231 30.9993 34.8001 30.4324C37.5963 28.3878 41.9339 29.2413 42.9784 32.6872L43.0358 32.8974C43.3988 34.4579 43.1886 34.8337 41.6663 35.3178C41.3806 35.4108 41.0878 35.4848 40.7954 35.5587C40.5274 35.6264 40.2595 35.6941 39.9976 35.7763C39.5581 35.9165 39.3542 35.7763 39.3606 35.3241C39.3648 35.1046 39.3802 34.8823 39.3957 34.6591C39.4036 34.5455 39.4115 34.4316 39.4179 34.3178C39.4203 34.2722 39.4252 34.2237 39.4302 34.1741C39.4517 33.9606 39.4751 33.7281 39.3097 33.6299ZM36.0039 54.0374C35.9832 54.0326 35.9625 54.0279 35.9402 54.0247C36.0197 53.0145 36.0975 52.0044 36.1753 50.9933C36.2472 50.06 36.3191 49.1259 36.3925 48.1903C36.6982 44.4005 36.7874 40.598 36.8065 36.7955V36.7817C36.8064 36.2855 36.8064 35.9166 37.488 35.9292C37.832 35.9356 38.1823 35.7636 38.4816 35.5407C38.499 35.5274 38.5173 35.5121 38.5363 35.4961C38.636 35.4124 38.7548 35.3127 38.8511 35.4197C38.9466 35.5279 39.0103 35.7572 38.9593 35.8846C38.526 36.9616 38.6938 38.0299 38.8612 39.0953C38.9423 39.6115 39.0233 40.127 39.0358 40.6426C39.0619 41.6435 39.1653 42.6414 39.2688 43.6404C39.3168 44.1036 39.3648 44.567 39.4052 45.0311C39.4307 45.3241 39.3988 45.598 39.2906 45.8782C38.2652 48.4956 37.2463 51.1194 36.2274 53.7431L36.2269 53.7444C36.2027 53.8129 36.1658 53.8763 36.129 53.9394C36.1077 53.9761 36.0864 54.0127 36.0676 54.0502C36.0453 54.047 36.0246 54.0422 36.0039 54.0374ZM44.2587 38.2668C43.0358 39.1075 41.73 39.7445 40.1058 39.8846C39.781 39.9547 39.5644 39.7891 39.5326 39.305C39.4816 38.5916 39.3861 37.8783 39.2778 37.1649C39.2077 36.7318 39.3288 36.5088 39.7874 36.426C40.9275 36.2158 42.023 35.8655 43.0676 35.3687C43.3988 35.2095 43.5899 35.2477 43.7173 35.6107C43.8803 36.077 44.0529 36.5401 44.226 37.0045C44.2965 37.1935 44.367 37.3828 44.437 37.5725C44.5326 37.8464 44.5326 38.0757 44.2587 38.2668ZM37.9698 50.4461C38.4258 49.3291 38.892 48.1872 39.3797 46.9992C39.5541 47.7711 39.5703 48.4564 39.5857 49.1062C39.5928 49.4055 39.5997 49.6973 39.6218 49.9865C39.6855 50.7721 39.7265 51.5577 39.7676 52.3433C39.7881 52.736 39.8086 53.1288 39.8319 53.5215C39.8511 53.8145 39.8319 54.0438 39.4498 54.0629C38.8799 54.0925 38.3072 54.1332 37.7336 54.174C37.4417 54.1948 37.1496 54.2155 36.8574 54.2349C36.5772 54.254 36.4434 54.1775 36.5708 53.8654C37.0346 52.7368 37.4967 51.6048 37.9698 50.4461ZM33.1823 28.9038C32.488 27.2286 32.5708 27.0312 34.4371 25.8847C34.3708 26.0438 34.3062 26.1992 34.2428 26.3514C33.8674 27.2533 33.5365 28.0482 33.1823 28.9038ZM36.9241 28.5251C36.9746 28.6283 37.0265 28.7342 37.0867 28.8401C36.956 28.8774 36.8321 28.9134 36.712 28.9483C36.4635 29.0204 36.2317 29.0877 35.9912 29.1522C36.0039 28.598 36.0676 28.4133 36.4625 27.8464C36.6806 28.0282 36.7983 28.2683 36.9241 28.5251Z" fill="#101223"/>
</svg>
