<svg width="57" height="48" viewBox="0 0 57 48" fill="none" xmlns="http://www.w3.org/2000/svg">
<path fill-rule="evenodd" clip-rule="evenodd" d="M3.80034 53.0004C4.0083 52.378 4.22255 51.758 4.44145 51.1416C4.60995 50.6633 4.52844 50.3915 4.12622 50.0817C1.41486 47.9816 -1.13219 45.7185 -3.5 43.2831V42.4593C-1.12611 44.943 1.4334 47.2664 4.16968 49.4349C4.84911 49.973 4.94695 49.7664 5.16437 49.1033C5.21551 48.9519 5.26245 48.7982 5.3096 48.6437C5.508 47.9938 5.71023 47.3313 6.24601 46.7824C6.37173 47.1942 6.24505 47.5196 6.12518 47.8275C6.09476 47.9056 6.06477 47.9827 6.03946 48.0597C5.9406 48.3575 5.84171 48.6553 5.74282 48.9531C5.2949 50.3019 4.847 51.6506 4.40218 53.0004H3.80034ZM61.6972 36.3251C61.0988 37.2451 60.4784 38.1522 59.8391 39.0478C59.6536 39.3061 59.4777 39.5693 59.2758 39.8716C59.1761 40.0209 59.07 40.1798 58.9531 40.3523C59.5198 40.3052 60.0683 40.2588 60.605 40.2133C60.974 40.182 61.3374 40.1513 61.6972 40.1211V42.4951C59.3574 42.7307 57.0184 42.976 54.6809 43.2276C51.5229 43.5646 48.3649 43.9125 45.245 44.5049C43.6525 44.8093 43.5492 44.9724 43.3155 46.5921C43.0052 48.7182 42.898 50.8597 42.8458 53.0004H40.1716C40.1841 52.571 40.1975 52.1416 40.2119 51.7123C40.2934 49.2446 40.4184 46.7824 40.9402 44.3527C41.0978 43.619 41.4783 43.1189 42.2012 42.9015C42.3273 42.8645 42.453 42.8254 42.5785 42.7864C42.8588 42.6992 43.1389 42.612 43.4242 42.5482C47.5448 41.5999 51.7379 41.1461 55.9317 40.6922C56.4733 40.6336 57.0148 40.575 57.5562 40.5154L57.5814 40.5125C57.9501 40.4705 58.2466 40.4368 58.4911 40.086C59.5903 38.5043 60.6713 36.9122 61.6972 35.2873V36.3251ZM61.6972 10.2983C60.1829 10.1453 58.6596 10.3041 57.1486 10.5772C52.7647 11.37 48.6279 12.9532 44.4931 14.5357C44.2908 14.6131 44.0885 14.6905 43.8862 14.7679C43.4676 14.9255 43.06 14.9527 42.6143 14.9798C41.8099 15.0342 41.0652 14.9581 40.2988 14.7679C39.8803 14.6646 39.5324 14.9146 39.2552 15.219C38.9019 15.6049 38.4943 15.8495 37.9725 15.9963C37.1789 16.2191 36.8854 16.779 37.1789 17.4638C37.3365 17.8225 37.3691 18.0454 36.9289 18.1215C36.866 18.132 36.8004 18.1505 36.7349 18.1691C36.4604 18.2469 36.185 18.325 36.0973 17.8117C36.0823 17.7284 36.0525 17.6451 36.0228 17.562C35.9555 17.3739 35.8884 17.1865 35.994 17.0018C36.6071 15.9045 36.3363 14.8217 36.0611 13.7213C36.0459 13.6607 36.0307 13.6001 36.0157 13.5394C36.0031 13.4888 35.9904 13.4382 35.9777 13.3875C35.7484 12.4739 35.5148 11.543 35.9886 10.6315C37.3528 7.99534 37.2985 5.23416 36.7332 2.42405C36.5864 1.70114 36.3636 1.14673 35.4559 1.42937C35.3431 1.46576 35.2376 1.41933 35.1329 1.37324C35.0812 1.35048 35.0297 1.32781 34.9776 1.31523C34.4777 1.19458 33.9656 1.19216 33.4529 1.18974C32.8337 1.18682 32.2136 1.18389 31.6131 0.972798C31.5043 0.93475 31.2761 1.07064 31.1728 1.19021C30.6619 1.76093 30.1672 1.59787 29.5911 1.27718C28.7431 0.809737 28.0692 0.880395 27.5746 1.66853C26.6125 3.19588 25.1232 3.80464 23.5197 4.24491C22.4 4.54929 21.4162 5.09283 20.5357 5.82118C19.2258 6.90826 18.0354 8.09318 18.1006 9.99013C18.1169 10.3706 17.8615 10.4467 17.5625 10.5119C16.2254 10.7946 15.5949 11.7675 15.2253 12.9633C14.959 13.8493 14.9535 14.7624 15.1275 15.6647C15.2997 16.5585 15.4873 17.4523 15.6765 18.3531C15.7381 18.6465 15.7998 18.9406 15.8612 19.2358L15.8487 19.2324C15.2357 19.0672 15.2042 19.0587 15.3014 18.5944C15.4427 17.9095 15.2144 17.4258 14.6165 17.0996C14.1111 16.8258 13.6383 16.5063 13.1652 16.1867C13.0278 16.0939 12.8904 16.001 12.7522 15.9093C12.7186 15.8869 12.6842 15.8636 12.649 15.8399C12.2073 15.5412 11.6555 15.1681 11.1922 15.4853C10.5855 15.8962 10.1047 15.7191 9.59111 15.53C9.52043 15.504 9.44914 15.4777 9.37681 15.4527C5.17435 14.0092 0.930401 12.7232 -3.5 12.3379V12.8768C0.798825 13.2444 4.90393 14.4625 8.97459 15.8332C10.241 16.2572 10.2573 16.2843 9.5453 17.3932C9.32092 17.7447 9.09124 18.0931 8.86166 18.4414C7.79545 20.0589 6.73123 21.6734 6.20796 23.5786C6.12099 23.8885 5.96883 23.9591 5.65901 23.9265C4.56106 23.8069 3.45766 23.6928 2.35427 23.6221C1.95154 23.596 1.78033 23.3383 1.60332 23.0719C1.59638 23.0615 1.58943 23.051 1.58246 23.0405C1.16393 22.4155 0.669306 21.8556 -0.086216 21.3066C0.185555 22.1002 0.587769 22.6057 1.02804 23.0677C2.48991 24.6054 3.4556 26.4559 4.42473 28.3129L4.43604 28.3346C5.47416 30.3225 5.84051 31.1464 6.47187 31.6069C7.08345 32.053 7.94369 32.1582 9.90406 32.6503C11.0962 32.9501 12.2976 33.2007 13.4993 33.4514C14.1275 33.5824 14.7559 33.7135 15.3829 33.8516C15.5211 33.8792 15.6526 33.9244 15.8069 33.9773C15.8954 34.0077 15.9914 34.0407 16.1004 34.0744C15.3557 34.5527 15.4916 35.1452 15.7308 35.7648C16.7146 38.3086 17.8125 40.7926 19.2584 43.1135C19.4106 43.3581 19.5736 43.5918 19.753 43.8092C20.3129 44.4778 20.677 44.4343 21.0466 43.657C21.4108 42.8906 21.7858 42.1297 22.3131 41.3633C22.7533 41.9286 23.1664 42.4558 23.5904 42.9776C23.7729 43.2012 23.7218 43.421 23.6685 43.6498C23.6583 43.6935 23.648 43.7376 23.6393 43.782C23.2963 45.6167 22.6577 47.3548 22.0199 49.0908C21.7885 49.7206 21.5572 50.3502 21.3401 50.9839C21.1112 51.6509 20.9092 52.3235 20.7274 53.0004H21.0474C21.5307 51.265 22.1268 49.5596 22.7642 47.8695C23.2371 46.6139 23.6013 45.342 23.8676 44.0375C23.9709 43.5157 24.1666 43.0917 24.6829 42.8363C25.009 42.6786 25.3623 42.4721 25.5743 42.1895C26.4279 41.0501 27.5493 41.1094 28.6706 41.1687C29.1059 41.1917 29.5411 41.2147 29.9607 41.1676C30.102 41.1513 30.2053 41.2002 30.2433 41.3905C30.4276 42.3497 31.0657 43.0549 31.6836 43.7379L31.6891 43.744C32.7599 44.9289 33.2002 46.3693 33.5426 47.8749C33.6523 48.3516 33.4107 48.3475 33.1407 48.343C33.1028 48.3423 33.0644 48.3417 33.0262 48.3423C32.8262 48.3442 32.6262 48.3459 32.4262 48.3475C30.8924 48.3603 29.3591 48.3731 27.83 48.4837C27.156 48.5326 26.8244 48.7717 26.5907 49.3859C26.1418 50.5831 25.7216 51.7887 25.3215 53.0004H29.894C30.0473 52.7242 30.2147 52.4549 30.3901 52.1906C30.7271 51.6905 31.0097 51.5818 31.3358 52.2178C31.4669 52.477 31.5926 52.7374 31.711 53.0004H35.0163C34.5679 51.1444 34.1255 49.2872 33.7655 47.4129C33.5698 46.4019 33.2219 45.4398 32.6893 44.5647C32.4555 44.1897 32.4392 43.9342 32.7654 43.6135C33.2636 43.124 33.6582 42.5481 34.0648 41.9547C34.1683 41.8036 34.2727 41.6514 34.3797 41.4992C34.7521 41.947 34.9039 42.4345 35.0534 42.9147C35.0872 43.0232 35.1209 43.1313 35.1569 43.2385C35.2548 43.5374 35.5048 44.0212 35.8255 43.4505C37.1354 41.1132 38.0105 38.6564 37.4996 35.9061C37.4873 35.845 37.4659 35.7838 37.4445 35.7226C37.4374 35.7022 37.4303 35.6819 37.4235 35.6615L37.4235 35.6615C37.0159 34.3951 37.0159 34.3951 38.3258 33.9059C39.0689 33.6294 39.8124 33.352 40.5563 33.0745C42.386 32.3918 44.2178 31.7084 46.0495 31.036C46.9626 30.7045 47.604 30.1337 48.1095 29.2695C48.3878 28.7922 48.6651 28.3141 48.9425 27.8359C50.3015 25.4932 51.6621 23.1478 53.1427 20.8772C53.1593 20.8515 53.176 20.8257 53.1928 20.7998C53.4456 20.4106 53.711 20.0019 53.6753 19.426C53.0505 19.813 52.7657 20.388 52.4881 20.9485C52.4421 21.0414 52.3962 21.1339 52.3491 21.2251C52.1752 21.5621 51.9795 21.7197 51.5936 21.7795C50.0227 22.0132 48.4628 22.285 46.8974 22.5622C46.4843 22.6383 46.2941 22.5133 46.169 22.0948C45.6702 20.4758 44.9424 18.9519 44.2154 17.4295C44.0393 17.0608 43.8632 16.6922 43.6905 16.3224C43.3916 15.6756 43.5274 15.4581 44.1308 15.219C48.4845 13.5014 52.8655 11.8817 57.4964 11.0718C58.8846 10.8283 60.2974 10.6639 61.6972 10.8465V10.2983ZM29.6172 23.4562C29.6073 23.4781 29.5942 23.5072 29.5748 23.546C31.2054 23.633 31.5533 23.2199 31.2271 21.6871C31.2071 21.5939 31.1786 21.5014 31.1497 21.4071C31.069 21.1443 30.9841 20.868 31.0641 20.5239C31.5641 21.1599 32.0696 21.7197 32.8523 21.8882C33.6187 22.0513 34.3634 21.9208 35.1732 21.5893C35.1377 21.9877 35.1082 22.3845 35.0789 22.7791C34.947 24.5541 34.8184 26.2851 34.1514 27.9215C33.2545 30.1229 31.4717 30.9925 29.1508 30.4925C27.8409 30.2098 26.6668 29.6337 25.558 28.889C26.5201 30.4218 28.4659 31.2643 30.7162 31.0849C31.2597 31.0414 31.4391 31.1665 31.6076 31.6556C31.7186 31.9817 31.8403 32.3044 31.962 32.627C32.3291 33.6004 32.696 34.5729 32.7654 35.6344C32.8034 36.1507 32.6893 36.4497 32.1185 36.6127C29.0965 37.477 26.1233 37.2596 23.1773 36.2594C22.9979 36.1996 22.7914 36.0964 22.6827 35.9496C21.6608 34.5364 20.8183 33.0254 20.639 31.2589C20.4814 29.7369 20.3509 28.2042 20.3454 26.6768C20.3454 25.7256 19.878 25.4267 19.0899 25.3451C18.3017 25.2636 17.6767 24.9266 17.2853 24.2309C16.9429 23.6167 16.769 22.9753 17.1984 22.3068C17.5299 21.7795 17.9919 21.486 18.6115 21.5567C19.2149 21.6273 19.7584 21.8284 20.0248 22.4698C20.0403 22.5074 20.0557 22.5453 20.0712 22.5833C20.3371 23.236 20.6121 23.9109 21.5521 23.7363C22.1609 23.6221 22.4218 22.8829 22.2804 21.7741C22.2261 21.3502 22.15 20.9317 22.0739 20.5133L22.0739 20.5131C22.0673 20.4756 22.0575 20.4371 22.0478 20.3989C22.0012 20.216 21.9566 20.0409 22.2804 20.0184C22.5577 19.9967 22.6772 20.1 22.7044 20.3989C22.8675 22.372 24.9492 23.546 27.0854 22.7905C28.3138 22.3557 28.9117 21.4751 28.9551 20.2304C28.9769 19.7195 29.2324 19.6543 29.6128 19.5619C30.0871 19.4471 30.1533 19.7357 30.2241 20.0447C30.2304 20.0721 30.2367 20.0997 30.2433 20.1272C30.2797 20.2714 30.3145 20.4162 30.3494 20.5611C30.4603 21.0223 30.5712 21.4837 30.7325 21.9263C31.0478 22.7851 30.6456 23.1329 29.8846 23.2906C29.8178 23.3039 29.7545 23.3392 29.695 23.3725C29.6819 23.3798 29.669 23.387 29.6563 23.3938C29.6423 23.4008 29.6351 23.4168 29.6172 23.4562ZM48.9236 22.5639C49.8674 22.4096 50.8311 22.2521 51.8382 22.0893C51.3297 22.9613 50.8283 23.8185 50.3322 24.6666C49.3223 26.3931 48.3345 28.0819 47.354 29.7804C47.1692 30.1011 46.8648 30.2479 46.5604 30.3838C44.585 31.254 42.5614 32.0014 40.5382 32.7486C39.3772 33.1775 38.2163 33.6062 37.0647 34.0581C36.8147 34.1559 36.6571 34.1505 36.4886 33.9276C35.4015 32.4873 33.9177 31.6611 32.1947 31.2154C32.1496 31.2015 32.1112 31.1634 32.0682 31.1207C32.0437 31.0964 32.0177 31.0706 31.9881 31.0469C32.1552 30.815 32.3949 30.6944 32.6323 30.575C32.7733 30.504 32.9135 30.4335 33.0371 30.3403C33.8579 29.7206 34.5101 28.9325 34.7275 27.9541C35.1142 26.2244 36.4103 25.4042 37.7201 24.5753C37.8097 24.5186 37.8994 24.4619 37.9888 24.4048C38.0435 24.367 38.1046 24.3421 38.1648 24.3177C38.1824 24.3106 38.1998 24.3035 38.2171 24.2961C38.363 24.2357 38.5079 24.1619 38.6526 24.0881C38.9767 23.923 39.2996 23.7584 39.6303 23.7471C40.0173 23.7332 40.1001 24.0369 40.1858 24.3511C40.2337 24.5267 40.2825 24.7056 40.3858 24.8342C41.1957 25.8343 41.7555 25.9376 42.6578 25.0679C43.0499 24.6902 43.4925 24.7583 43.9227 24.8246C43.9815 24.8337 44.04 24.8427 44.0982 24.8505C45.5168 25.0408 46.1745 24.6005 46.4354 23.1873C46.4799 22.9595 46.5832 22.9438 46.7245 22.9222C46.7383 22.9201 46.7525 22.9179 46.767 22.9155C47.4812 22.7996 48.1965 22.6827 48.9236 22.5639ZM2.77973 24.66C2.65602 24.4644 2.52677 24.26 2.39233 24.0406C2.64324 24.0619 2.88728 24.0831 3.12601 24.1039C3.92675 24.1735 4.66786 24.2379 5.40897 24.2798C5.8438 24.307 5.95796 24.4592 5.96883 24.9049C6.00144 26.0572 6.32213 26.3507 7.49618 26.3126C8.29518 26.2855 8.99634 26.454 9.65946 26.9105C10.0236 27.166 10.4693 27.3345 10.8987 27.4541C11.9206 27.7367 12.6707 27.3345 13.024 26.3181C13.2088 25.7854 13.3555 25.231 13.4534 24.6766C13.524 24.2418 13.6382 24.1113 14.1111 24.2418C14.872 24.4537 15.5406 24.7636 16.1004 25.3234C17.0299 26.2583 18.0572 27.0573 19.3834 27.3508C19.753 27.4323 19.8128 27.6606 19.8291 27.965C19.8443 28.2286 19.8586 28.4924 19.873 28.7564C19.9201 29.6249 19.9673 30.4951 20.0465 31.3621C20.0791 31.7317 19.9324 31.8785 19.6389 31.9981C18.6116 32.422 17.6549 32.9656 16.7635 33.6341C16.5842 33.77 16.3993 33.8624 16.1385 33.8026C15.3906 33.6312 14.6416 33.4646 13.8925 33.298C11.7672 32.8253 9.64155 32.3525 7.53964 31.7698C6.79499 31.5632 6.30037 31.123 5.95251 30.4707C5.59128 29.7979 5.23415 29.1229 4.87712 28.4482C4.41219 27.5695 3.94743 26.6912 3.47397 25.818C3.26864 25.4331 3.03612 25.0654 2.77973 24.66ZM35.2552 16.538C35.3323 16.6696 35.4229 16.8243 35.5374 17.0235C34.9173 16.6385 34.3893 16.5893 33.8771 16.5416C33.8325 16.5374 33.7881 16.5333 33.7437 16.5289C32.6566 16.442 31.6294 17.1105 31.1674 18.1269C30.6836 19.1923 30.6836 19.1923 29.8737 18.2519C29.8614 18.3311 29.8594 18.4125 29.8575 18.4924C29.851 18.7636 29.8449 19.0171 29.4335 19.1053C29.0965 19.176 29.0149 19.1325 28.8899 18.839C28.3246 17.5019 27.5528 17.0344 26.0526 17.0779C24.3894 17.1268 23.3241 17.8117 22.8512 19.1325C22.833 19.1844 22.8232 19.2451 22.8133 19.3062C22.7819 19.5008 22.7497 19.7 22.4435 19.638C22.1392 19.5727 21.8565 19.4423 21.8347 19.0401C21.8228 18.8031 21.7992 18.5671 21.7756 18.3312C21.7457 18.0317 21.7158 17.7323 21.7097 17.4312C21.6989 16.8224 21.8185 16.3767 22.5468 16.0887C23.4382 15.7354 23.873 14.8113 24.2263 13.9362C24.422 13.4525 24.7101 13.1264 25.2427 13.2786C26.7013 13.7004 28.1562 13.5738 29.6197 13.4465C29.9286 13.4197 30.2379 13.3927 30.5477 13.371C33.0534 13.197 33.5698 13.5666 35.021 16.1321C35.0917 16.2588 35.164 16.3822 35.2552 16.538ZM27.3789 22.1926C26.9114 22.41 26.4059 22.4916 25.9602 22.4644C24.3296 22.4589 23.2588 21.4806 23.199 20.0021C23.1501 18.7846 24.2698 17.7138 25.7156 17.6323C26.1939 17.6051 26.6886 17.5943 27.1506 17.6867C28.0583 17.8715 28.5964 18.5128 28.6725 19.3825C28.7975 20.7468 28.3409 21.7415 27.3789 22.1926ZM23.3893 37.0258C26.5092 37.8303 29.4226 38.0096 32.4175 37.2922C31.983 37.6783 31.8781 38.1968 31.7735 38.7132C31.6662 39.2433 31.5593 39.7712 31.0967 40.1512C31.0683 40.1746 31.0407 40.198 31.0135 40.2211C30.8316 40.3751 30.6649 40.5163 30.3955 40.5588C29.5079 40.6963 28.6172 40.6869 27.7257 40.6775C27.4543 40.6746 27.1829 40.6717 26.9114 40.673C26.656 40.673 26.5038 40.5371 26.3298 40.3795C25.7398 39.8358 25.2376 39.2184 24.7055 38.5642C24.3012 38.0673 23.8797 37.5491 23.3893 37.0258ZM39.4074 23.421C37.9398 23.883 36.5593 24.519 35.32 25.5789C35.3552 25.172 35.3858 24.7643 35.4163 24.3564C35.4893 23.3801 35.5624 22.4032 35.7005 21.4371C35.7519 21.0649 35.8827 20.7148 36.0149 20.361C36.1763 19.9292 36.3397 19.4919 36.3636 19.002C36.3784 18.7174 36.7249 18.6615 37.0734 18.6054C37.2374 18.5789 37.4017 18.5524 37.5322 18.502C37.8915 18.3679 38.0233 18.6942 38.126 18.9483L38.1301 18.9585C38.3801 19.5891 38.6261 20.2223 38.872 20.8555C39.118 21.4887 39.3639 22.122 39.614 22.7525C39.7335 23.046 39.8042 23.296 39.4074 23.421ZM33.9774 16.9801C35.3091 16.9692 36.0048 17.6758 36.0103 19.0509C36.0212 20.5076 35.1298 21.4317 33.722 21.4317C32.3903 21.4317 31.5098 20.5837 31.488 19.2792C31.4663 17.8986 32.4392 16.9964 33.9774 16.9801ZM18.8936 25.8481C19.406 25.9433 19.9237 26.0395 19.6932 26.8562C18.617 26.6605 17.7473 26.0898 16.9864 25.3669C16.1548 24.5733 15.2742 23.8776 14.1111 23.6765C13.7197 23.6113 13.6816 23.4428 13.7958 23.1166C13.9565 22.6534 14.1141 22.1891 14.2718 21.7247C14.4768 21.1211 14.6818 20.5173 14.8938 19.9152C14.9019 19.8917 14.9092 19.865 14.9169 19.8371C14.9556 19.6969 15.0023 19.5274 15.1927 19.5999C15.2757 19.6309 15.3692 19.6491 15.4636 19.6674C15.734 19.7201 16.0114 19.774 16.0678 20.1326C16.1144 20.4259 16.1938 20.7109 16.2734 20.9967C16.4446 21.6111 16.6167 22.2286 16.4646 22.9373C16.1874 24.2255 17.3342 25.5354 18.7638 25.8235C18.8067 25.832 18.8501 25.84 18.8936 25.8481ZM24.1511 42.5014C24.1377 42.5101 24.1247 42.5185 24.1122 42.5265C23.9285 42.5578 23.8408 42.4451 23.7548 42.3345C23.7365 42.311 23.7182 42.2875 23.6991 42.2656C22.5468 41.0154 22.5685 40.6078 23.748 39.3631C24.1611 38.9282 24.4111 38.8358 24.8731 39.3522C26.3353 40.9828 26.2863 41.3959 24.3187 42.4014C24.2585 42.4315 24.2018 42.4684 24.1511 42.5014ZM32.5948 42.9126C32.4473 43.0939 32.294 43.2822 32.1348 43.4831C32.0876 43.4153 32.0481 43.3552 32.0125 43.3011C31.9541 43.2123 31.9063 43.1396 31.8522 43.0754C30.5477 41.5753 30.5694 41.0589 31.9337 39.5859C32.1294 39.3685 32.2816 39.3522 32.5044 39.4663C32.5385 39.4841 32.5731 39.5015 32.6076 39.5189C32.6998 39.5654 32.7925 39.6121 32.8795 39.6674C34.1459 40.4501 34.2166 40.7491 33.3632 41.934C33.126 42.2597 32.8704 42.5739 32.5948 42.9126Z" fill="#101223"/>
</svg>
