<svg width="320" height="267" viewBox="0 0 320 267" fill="none" xmlns="http://www.w3.org/2000/svg">
<g clip-path="url(#clip0_85_7465)">
<rect width="319" height="267" transform="translate(0.5)" fill="white"/>
<g clip-path="url(#clip1_85_7465)">
<path d="M270.426 114.283C269.708 113.44 269.724 113.003 270.286 112.082C272.831 107.975 273.331 103.634 271.113 99.2313C268.475 93.985 261.261 92.0801 257.076 96.3896C256.608 96.8736 256.374 96.6862 256.046 96.2959C254.984 94.9999 253.875 93.7508 252.564 92.7359C251.69 92.0489 251.877 91.6117 252.58 90.9403C256.608 87.1617 257.123 80.8692 253.501 76.7159C251.971 74.9671 252.205 71.6569 254.016 69.9394C257.076 67.0352 264.837 66.598 267.647 71.3603C269.599 74.6548 270.817 78.0119 269.162 81.7905C268.881 82.4306 268.443 82.9927 268.084 83.5861C267.975 83.7734 267.881 83.992 268.115 84.1638C268.318 84.3199 268.568 84.2887 268.709 84.1169C268.974 83.8203 269.193 83.508 269.411 83.1645C272.659 78.0275 270.13 71.5164 266.429 68.6278C263.306 66.192 259.637 66.3638 256.046 67.7378C253.001 68.9089 251.611 71.2666 251.643 74.6861C249.394 73.2652 247.161 72.6094 244.663 73.0622C242.056 73.5306 240.307 75.0764 239.027 77.481C238.621 76.6534 238.34 75.982 237.996 75.3419C234.998 69.752 227.941 68.5185 223.522 72.8436C222.866 73.4838 222.679 73.2027 222.273 72.6719C219.041 68.3468 213.31 67.5192 209.001 70.7357C208.751 70.9231 208.564 71.3447 208.064 71.1261C208.017 69.9706 207.845 68.7996 207.471 67.6754C205.909 63.0224 201.928 60.3992 197.415 61.1175C195.011 61.4922 192.965 62.6633 191.185 64.2871C190.795 64.6462 190.482 65.021 189.858 64.5526C187.141 62.5696 184.174 62.1636 181.052 63.444C181.052 63.444 179.865 63.8499 179.568 63.8968C179.272 63.9436 179.194 65.1771 179.568 65.224C179.943 65.2708 181.067 64.615 181.067 64.615C182.8 63.6938 184.612 63.4283 186.532 63.9436C191.56 65.2864 195.167 71.6413 193.621 76.3724C193.215 77.6059 192.653 78.2773 191.138 78.3085C187.719 78.3554 184.627 81.2908 184.44 84.3512C184.94 84.4917 185.002 84.0545 185.127 83.7734C187.734 77.8713 193.512 78.2617 197.431 81.8685C200.507 84.6947 201.022 88.2547 198.883 91.2682C198.602 91.6585 198.243 91.9864 197.93 92.3455C197.712 92.5954 197.54 92.8764 197.79 93.1575C198.102 93.5166 198.336 93.1575 198.539 92.9857C200.835 91.0652 201.444 88.5826 200.772 85.7564C199.96 82.3682 197.899 79.9948 194.589 78.8394C193.683 78.5271 193.621 78.2773 194.058 77.4029C195.604 74.3113 194.776 71.3603 193.277 68.5029C193.012 68.0033 192.668 67.5348 192.341 67.082C191.138 65.4582 191.138 65.4582 192.747 64.2559C196.322 61.5703 200.226 61.2268 203.348 63.4752C206.268 65.5675 207.299 68.581 207.236 72.0785C207.221 72.6875 206.846 73.1247 206.565 73.6243C204.473 77.2624 204.27 80.9941 206.003 84.8196C206.097 85.0382 206.175 85.3192 206.565 85.4441C206.908 84.7727 206.44 84.2106 206.284 83.6485C205.144 79.542 205.597 75.7166 208.626 72.5313C212.592 68.3468 218.994 69.0806 221.867 73.921C222.226 74.5143 222.257 74.9983 221.992 75.6229C221.086 77.7464 220.664 79.9792 220.867 82.2901C220.93 82.9771 220.571 83.3519 220.212 83.7734C218.697 85.5378 217.12 87.2398 215.684 89.051C213.669 91.6117 213.685 93.1106 215.559 95.8119C215.84 96.2178 215.949 96.5145 215.684 96.9829C215.434 97.4201 215.153 97.5606 214.637 97.5138C208.095 96.9361 201.6 97.6075 195.167 98.7317C193.449 99.0284 191.732 99.1064 190.014 99.3562C189.374 99.4499 188.999 99.2782 188.687 98.6224C187.188 95.4215 185.158 92.5798 182.566 90.1596C181.801 89.4413 182.16 89.0198 182.878 88.7231C183.394 88.5045 183.971 88.4108 184.518 88.2859C185.127 88.161 185.642 87.9112 185.642 87.2085C185.658 86.5683 185.283 86.1468 184.69 85.9282C184.065 85.694 183.394 85.5691 182.754 85.6784C181.895 85.8033 181.754 85.3817 181.801 84.7103C181.864 83.7266 182.27 82.8522 182.675 81.9778C183.472 80.3071 182.629 78.9175 180.802 78.4334C179.974 78.2148 179.256 78.0899 178.6 78.4491C178.553 78.4959 174.057 81.9934 175.165 88.2547C175.243 88.9573 175.134 87.9112 175.165 88.2547C175.868 95.2966 178.366 101.652 182.488 107.397C183.768 109.193 185.392 110.411 187.469 111.02C189.374 111.582 191.326 111.785 193.309 111.707C194.121 111.676 194.698 111.801 194.651 112.8C194.605 113.752 195.167 113.971 195.994 113.877C196.9 113.768 197.805 113.721 198.914 113.627C198.695 114.205 198.539 114.642 198.352 115.08C196.478 119.514 194.62 123.948 192.747 128.383C191.778 130.678 191.06 133.067 191.81 135.518C192.184 136.721 191.95 137.517 191.326 138.501C187.266 144.871 183.628 151.445 182.379 159.064C181.582 163.952 181.614 168.776 183.909 173.304C186.907 179.191 192.138 182.033 198.29 183.563C199.101 183.766 199.336 183.5 199.023 182.704C198.774 182.048 198.586 181.377 198.399 180.705C195.463 170.213 194.261 159.595 196.338 148.775C196.463 148.103 196.228 147.729 195.76 147.323C194.136 145.917 193.699 144.122 194.292 142.092C194.589 141.093 194.932 140.093 195.338 139.125C195.791 138.079 196.15 136.955 196.884 135.971C197.29 136.502 196.978 136.892 196.869 137.283C196.353 139.094 195.822 140.89 195.292 142.701C195.089 143.388 195.073 144.075 195.37 144.762C195.635 145.371 195.963 146.12 196.634 146.105C197.15 146.089 197.134 145.262 197.29 144.793C197.759 143.325 198.368 141.92 199.039 140.546C199.18 140.265 199.367 139.953 199.726 140.14C199.976 140.265 199.945 140.593 199.882 140.858C199.82 141.061 199.726 141.264 199.632 141.467C197.696 145.949 196.9 150.695 196.744 155.536C196.463 163.733 197.696 171.759 199.71 179.706C201.444 186.529 204.379 192.884 207.283 199.255C207.845 200.504 208.423 201.753 209.079 203.19C207.299 202.752 205.753 202.284 204.176 202.019C198.321 201.004 192.481 201.472 186.641 202.221C182.488 202.752 178.616 204.048 175.306 206.687C174.431 207.374 174.01 207.327 173.354 206.453C171.293 203.705 168.514 202.44 165.078 202.409C161.175 202.378 157.303 202.69 153.415 202.971C152.478 203.033 151.65 203.127 150.87 202.409C150.386 201.956 149.667 202.003 148.98 202.065C145.483 202.346 142.001 202.612 138.503 202.893C138.113 202.924 137.442 202.768 137.504 203.377C137.551 203.892 138.16 203.627 138.503 203.611C141.564 203.424 144.624 203.299 147.669 202.987C149.589 202.784 150.901 203.299 151.978 204.954C153.774 207.718 155.429 210.528 156.709 213.573C159.692 220.662 161.097 228.11 161.862 235.729C162.736 244.629 162.174 253.389 159.817 262.023C159.504 263.163 158.958 263.678 157.787 263.835C152.244 264.615 146.701 265.458 141.158 266.302C140.814 266.348 140.33 266.255 140.283 266.942C141.064 267.113 141.845 267.02 142.594 266.91C147.45 266.255 152.306 265.552 157.147 264.803C159.254 264.475 160.566 263.678 160.863 261.524C160.972 260.759 161.425 260.587 162.143 260.587C164.938 260.587 167.748 260.524 170.543 260.477C173.354 260.446 176.149 260.493 178.944 260.368C181.785 260.243 183.128 259.057 183.815 256.277C184.096 255.137 184.346 253.982 184.534 252.811C184.705 251.78 184.908 251.531 185.83 252.343C189.92 255.949 194.667 258.089 200.163 258.494C204.66 258.838 209.094 258.307 213.498 257.62C220.649 256.496 227.706 256.605 234.717 258.51C237.247 259.197 239.807 259.837 242.446 259.9C246.552 260.009 249.41 256.558 248.629 252.514C247.958 249.048 245.6 246.909 242.743 245.16C242.368 244.926 241.837 244.879 241.587 244.286C244.226 243.583 246.802 243.146 249.394 242.802C253.563 242.256 257.795 242.459 261.979 242.147C264.805 241.944 267.678 241.897 270.333 240.694C271.769 240.039 272.425 238.899 272.472 237.369C272.55 234.308 270.785 232.403 268.318 231.045C267.585 230.639 267.319 230.264 267.491 229.437C268.022 226.923 267.101 224.877 265.196 223.254C263.197 221.552 260.761 220.818 258.279 220.271C257.482 220.1 257.123 219.787 256.873 218.991C256.061 216.477 254.703 214.307 252.455 212.808C249.863 211.075 246.865 210.622 243.867 210.216C243.32 210.138 242.883 210.075 242.618 209.482C241.587 207.187 239.776 205.625 237.637 204.423C232.594 201.581 227.082 200.52 221.367 200.426C220.415 200.41 220.009 200.16 219.79 199.192C218.291 192.525 217.058 185.811 216.027 179.066C215.73 177.099 215.137 175.116 215.527 173.086C217.042 165.123 218.135 157.113 218.744 149.024C218.838 147.775 218.838 146.636 220.024 145.808C220.649 145.371 220.93 144.528 221.07 143.731C221.289 142.482 221.211 141.202 221.273 139.937C221.305 139.172 220.696 137.923 222.382 138.063C222.522 138.079 222.679 137.782 222.835 137.611C223.85 136.424 224.396 135.003 224.193 133.489C223.943 131.74 224.365 130.194 225.021 128.648C225.614 127.243 226.254 125.853 226.894 124.448C227.019 124.183 226.988 123.761 227.378 123.761C227.722 123.761 227.784 124.167 227.956 124.417C228.128 124.667 228.3 124.932 228.425 125.197C228.815 126.009 229.377 126.306 230.22 125.853C230.923 125.463 231.282 125.713 231.625 126.415C233.78 130.74 236.357 134.8 239.245 138.657C241.275 141.374 243.117 144.2 243.149 147.791C243.149 148.384 243.695 149.134 244.21 148.837C245.663 147.978 245.725 149.243 246.209 149.93C246.599 150.461 246.958 151.007 247.38 151.507C247.661 151.835 248.083 152.241 248.504 151.96C249.113 151.538 249.831 151.57 250.456 151.242C252.08 150.399 252.298 149.961 251.611 148.228C251.487 147.9 251.315 147.588 251.159 147.276C249.457 143.872 247.333 140.702 245.928 137.142C244.741 134.129 243.555 131.1 242.727 127.977C241.9 124.885 239.995 122.028 240.604 118.624C238.73 111.535 235.342 105.555 228.362 102.307C227.644 101.964 227.503 101.652 227.831 100.918C228.471 99.528 229.018 98.0915 229.596 96.6706C229.752 96.2959 229.877 95.7962 230.251 95.7338C232.594 95.4215 233.624 92.9545 235.919 92.408C237.45 92.0333 237.887 90.2689 238.308 88.848C239.183 85.9282 239.526 82.9459 239.354 79.9012C239.261 78.3866 239.823 77.075 240.853 75.9664C243.289 73.3901 247.208 73.0154 250.487 75.0764C256.155 78.6364 256.67 86.5215 251.533 90.9247C250.347 91.9396 250.347 91.9396 251.565 92.9701C253.345 94.469 255.031 96.0617 256.342 97.9978C258.903 101.745 258.607 105.867 257.935 110.021C257.826 110.723 257.279 110.708 256.733 110.739C251.846 111.067 248.348 114.549 248.051 119.42C247.958 121.107 248.208 122.746 249.129 124.339C249.675 123.714 249.269 123.293 249.144 122.871C248.52 120.779 248.535 118.733 249.425 116.719C252.002 110.942 259.091 109.849 263.213 114.642C265.711 117.531 266.101 121.029 265.727 124.651C265.539 126.415 264.993 128.102 263.665 129.366C263.01 129.991 263.088 130.366 263.79 130.865C266.367 132.677 267.897 135.237 268.771 138.22C269.849 141.873 269.802 145.574 269.162 149.274C268.069 155.629 266.039 161.734 264.15 167.886C262.978 171.696 261.807 175.49 260.636 179.3C260.543 179.612 260.277 180.081 260.683 180.237C261.245 180.44 261.152 179.769 261.355 179.487C261.433 179.394 261.417 179.238 261.448 179.113C262.885 174.616 264.352 170.119 265.727 165.607C267.491 159.829 269.521 154.13 270.161 148.072C270.864 141.436 270.317 135.159 264.68 130.475C264.306 130.163 264.384 129.944 264.618 129.616C267.069 126.369 267.085 122.668 266.32 118.952C265.633 115.642 263.9 112.972 260.746 111.41C260.059 111.067 258.95 111.254 258.7 110.489C258.482 109.818 258.856 108.959 258.966 108.178C259.044 107.616 259.137 107.054 259.169 106.476C259.356 103.728 259.106 101.027 257.685 98.6068C257.154 97.7168 257.311 97.2327 258.029 96.6238C261.198 93.8757 266.632 94.5783 269.365 98.1852C272.331 102.12 272.363 106.429 270.098 110.536C268.912 112.706 268.787 113.877 270.473 115.892C273.455 119.452 273.955 123.808 272.659 128.305C272.565 128.617 272.269 129.054 272.675 129.226C273.143 129.413 273.19 128.867 273.284 128.57C274.876 123.261 274.018 118.468 270.426 114.283ZM193.434 110.864C190.967 110.864 188.546 110.598 186.235 109.662C184.924 109.131 184.018 108.147 183.191 107.038C178.678 101.027 176.274 94.2348 175.727 86.7713C175.509 83.8515 176.773 81.4313 178.866 79.4327C179.069 79.2454 179.272 78.8394 179.6 79.1048C179.896 79.3391 179.678 79.6982 179.553 79.948C178.944 81.1971 178.007 82.2901 177.866 83.7578C177.851 83.9608 177.835 84.1638 177.82 84.3824C177.944 84.4292 178.069 84.4761 178.21 84.5229C178.6 82.6492 179.849 81.2752 180.895 79.4171C180.692 80.7131 179.959 81.4157 179.631 82.2901C179.443 82.7741 179.303 83.2894 179.209 83.8047C179.147 84.1482 178.85 84.6947 179.428 84.7884C179.912 84.8664 179.771 84.3043 179.849 83.992C180.224 82.5868 181.036 81.4469 181.942 80.2447C182.441 80.9629 182.02 81.3845 181.832 81.8373C181.551 82.5243 181.177 83.1645 181.036 83.914C180.661 85.8813 180.942 86.2561 182.925 86.4122C183.05 86.4278 183.191 86.4278 183.316 86.4591C183.753 86.584 184.487 86.5059 184.518 87.0368C184.549 87.6613 183.784 87.5052 183.378 87.552C182.488 87.6769 181.864 88.161 181.255 88.7699C180.895 89.1291 180.568 89.5819 179.959 89.5506C179.662 89.535 179.272 89.5038 179.35 89.9878C179.412 90.3469 179.818 90.5343 180.052 90.425C181.504 89.7848 182.098 90.9403 182.816 91.7366C185.033 94.1255 186.907 96.7487 188.234 99.7466C188.515 100.371 188.609 100.918 189.655 100.356C190.732 99.7622 192.138 100.012 193.402 100.074C193.949 100.106 193.964 100.527 193.98 100.933C194.105 103.947 194.23 106.96 194.37 109.974C194.417 110.661 194.074 110.864 193.434 110.864ZM233.327 124.401C235.123 123.417 236.887 122.34 238.589 121.2C239.37 120.685 239.573 120.919 239.823 121.669C241.291 126.025 242.743 130.366 244.273 134.691C245.631 138.532 247.364 142.201 249.613 145.621C250.347 146.729 251.034 147.885 251.065 149.306C249.956 147.963 249.347 146.261 247.708 144.902C247.973 146.292 248.817 146.995 249.238 147.9C249.488 148.462 249.8 148.993 250.05 149.54C250.222 149.899 250.394 150.32 249.894 150.555C249.425 150.773 249.144 150.445 248.957 150.086C248.301 148.853 247.677 147.619 246.912 146.433C246.693 148.103 247.833 149.384 248.176 150.914C247.13 150.117 246.677 148.931 246.068 147.869C245.819 147.447 245.881 146.682 245.225 146.682C244.694 146.682 244.897 147.432 244.585 147.713C244.523 147.76 244.429 147.775 244.351 147.807C244.054 147.666 244.054 147.401 244.054 147.135C244.085 144.606 243.008 142.467 241.665 140.452C238.574 135.846 235.248 131.381 232.718 126.415C232.156 125.338 232.359 124.916 233.327 124.401ZM238.527 81.1503C235.951 80.0261 232.906 75.2326 232.718 72.0317C235.935 72.6094 239.167 77.684 238.527 81.1503ZM227.628 71.1261C227.831 71.0948 228.097 71.0012 228.175 71.2822C228.222 71.4696 228.19 71.7662 228.065 71.8912C227.831 72.141 227.535 72.3283 227.222 72.4845C225.677 73.2808 224.334 74.3426 222.85 75.5136C223.428 73.5306 225.879 71.3447 227.628 71.1261ZM227.831 73.2496C227.738 74.6861 227.816 75.982 226.02 76.7003C224.178 77.4341 222.897 79.0424 221.757 80.9941C221.336 77.7464 223.99 74.4675 227.831 73.2496ZM227.144 78.6052C225.755 78.9643 224.49 79.5733 223.288 80.4008C224.084 78.7769 225.411 77.7464 226.972 76.9657C227.363 76.7627 227.55 77.075 227.566 77.4185C227.613 77.8557 227.816 78.4334 227.144 78.6052ZM219.4 85.9126C220.54 84.3668 221.898 82.9771 223.319 81.6812C224.084 80.9941 225.068 81.1034 225.911 81.5094C228.643 82.8366 230.22 85.1162 231.032 87.9892C231.173 88.5045 230.923 88.8168 230.532 89.0822C229.096 90.0659 227.644 91.0496 226.223 92.0645C225.583 92.5173 225.146 92.4548 224.771 91.7366C224.193 90.628 223.038 90.0815 222.21 89.2071C221.664 89.0978 221.117 88.9885 220.571 88.8636C218.962 88.5201 218.416 87.2398 219.4 85.9126ZM223.475 93.0482C223.022 93.4073 222.522 93.6571 221.804 93.6727C220.852 93.5947 220.009 93.1419 219.587 92.0957C219.462 91.7991 219.415 91.4868 219.728 91.2682C220.071 91.0183 220.305 91.2526 220.461 91.5336C221.07 92.6734 221.898 92.9857 223.038 92.2987C223.288 92.1426 223.537 92.0645 223.694 92.3768C223.834 92.6422 223.694 92.8608 223.475 93.0482ZM193.668 134.863C193.465 135.175 193.34 135.69 192.903 135.674C192.465 135.659 192.512 135.159 192.465 134.831C192.403 134.379 192.138 133.816 192.747 133.551C193.355 133.301 193.98 132.895 194.745 133.192C194.558 133.879 194.011 134.316 193.668 134.863ZM183.441 254.716C183.269 255.622 183.003 256.496 182.613 257.339C181.988 258.697 180.895 259.478 179.443 259.556C173.713 259.915 167.967 259.728 162.237 259.775C161.472 259.775 161.394 259.463 161.55 258.791C162.658 253.81 163.189 248.751 163.142 243.677C163.033 231.654 161.175 219.959 155.57 209.139C154.648 207.374 153.555 205.703 152.447 203.845C157.287 203.455 161.971 202.815 166.687 203.408C168.717 203.658 170.403 204.548 171.808 206.078C175.774 210.419 178.366 215.572 180.552 220.927C185.018 231.873 185.611 243.193 183.441 254.716ZM246.521 211.387C250.831 212.246 254.344 214.151 255.983 218.554C256.483 219.881 256.436 219.943 255.031 219.787C244.46 218.632 233.968 219.069 223.584 221.442C223.412 221.474 223.225 221.489 223.194 221.848C223.491 222.161 223.912 221.958 224.302 221.88C234.389 219.959 244.554 219.506 254.765 220.49C257.81 220.787 260.839 221.38 263.556 222.957C266.101 224.425 267.35 226.829 266.851 229.265C266.71 229.952 266.476 230.186 265.695 230.046C258.763 228.812 251.768 228.687 244.757 228.734C237.262 228.781 229.814 229.468 222.429 230.795C221.57 230.951 221.242 230.53 220.867 229.968C218.088 225.846 214.903 222.083 211.327 218.647C209.625 217.008 207.72 215.587 205.925 214.057C205.659 213.838 205.331 213.307 204.972 213.76C204.644 214.166 205.144 214.463 205.441 214.682C208.001 216.68 210.39 218.85 212.67 221.177C217.026 225.611 220.68 230.545 223.709 235.963C224.1 236.666 224.396 237.431 225.005 237.993C225.505 237.556 225.146 237.259 225.005 236.994C224.162 235.417 223.303 233.84 222.413 232.279C222.054 231.654 221.804 231.295 222.882 231.139C231.438 229.921 240.026 229.249 248.66 229.406C254.297 229.499 259.981 229.374 265.477 230.92C268.1 231.654 270.551 232.7 271.535 235.604C272.3 237.884 271.223 239.898 268.881 240.398C264.274 241.381 259.59 241.569 254.906 241.647C250.425 241.725 245.99 242.256 241.681 243.505C239.885 244.02 238.324 243.38 236.669 243.099C232.172 242.334 227.706 242.662 223.21 243.208C223.319 243.849 223.662 243.614 223.943 243.599C228.534 243.318 233.124 242.99 237.653 244.13C240.807 244.91 243.789 246.066 245.928 248.626C247.583 250.609 248.598 252.889 247.645 255.543C246.631 258.401 244.195 259.572 240.697 258.885C237.215 258.198 233.765 257.448 230.298 256.683C225.13 255.559 219.946 255.809 214.762 256.574C210.125 257.261 205.488 258.057 200.788 257.714C194.948 257.292 189.905 254.95 185.533 251.093C184.924 250.563 185.064 249.907 185.127 249.267C185.424 245.769 185.564 242.287 185.361 238.774C184.861 230.436 182.707 222.567 178.897 215.15C177.851 213.12 176.773 211.121 175.399 209.295C174.665 208.327 174.962 207.827 175.821 207.202C179.194 204.72 183.035 203.439 187.11 202.893C191.279 202.331 195.479 202.065 199.695 202.284C202.677 202.44 205.597 202.94 208.423 204.001C209.36 204.361 209.906 204.923 210.359 205.781C210.937 206.859 211.187 208.03 212.483 208.857C213.576 209.56 214.419 211.075 214.372 212.714C214.31 214.822 214.45 216.914 214.981 218.975C215.278 220.1 215.73 221.193 217.151 221.286C218.463 221.364 219.212 220.537 219.79 219.459C221.086 217.024 222.163 214.494 223.163 211.918C223.366 211.387 223.6 211.075 224.24 210.981C231.657 209.966 239.105 209.919 246.521 211.387ZM215.324 212.339C216.48 212.574 217.385 212.308 218.166 211.59C218.322 211.449 218.541 211.324 218.619 211.684C218.962 213.151 219.806 212.277 220.664 212.043C219.931 214.51 219.306 216.914 217.604 218.819C216.823 219.709 216.136 219.662 215.715 218.85C215.496 218.413 215.371 218.023 216.105 217.96C216.73 217.898 217.292 217.664 217.51 216.68C216.995 216.93 216.683 217.164 216.339 217.242C215.715 217.398 215.356 217.133 215.293 216.446C215.231 215.79 215.465 215.603 216.105 215.712C216.62 215.79 217.104 215.65 217.432 214.947C216.73 215.009 216.121 215.322 215.621 214.806C215.356 214.541 215.2 214.244 215.293 213.87C215.402 213.386 215.762 213.651 216.027 213.667C216.683 213.667 217.323 213.651 217.791 212.886C216.948 212.667 215.996 213.573 215.324 212.339ZM221.867 211.278C222.101 210.669 222.085 209.42 222.663 209.638C223.444 209.919 222.772 210.919 222.554 211.574C221.757 213.979 220.68 216.259 219.587 218.538C219.181 219.381 218.728 220.256 217.292 220.615C220.196 217.898 220.633 214.4 221.867 211.278ZM220.867 204.267C221.32 203.486 220.696 202.752 220.602 202.003C220.524 201.331 220.493 200.801 221.492 201.066C226.863 201.191 232.078 202.284 236.95 204.798C238.761 205.735 240.307 206.999 241.431 208.733C241.603 209.014 241.978 209.279 241.743 209.654C241.556 209.966 241.181 209.826 240.9 209.794C235.607 209.217 230.345 209.498 225.083 210.138C224.427 210.216 223.912 210.341 223.709 209.341C223.506 208.358 222.398 208.014 221.617 207.483C219.743 206.203 219.743 206.219 220.867 204.267ZM220.383 207.718C220.977 207.936 221.898 208.217 221.539 209.279C221.336 209.888 221.133 210.513 220.821 211.496C220.586 210.247 219.977 210.075 219.041 210.481C219.322 209.716 219.493 209.185 219.712 208.67C219.884 208.295 219.743 207.483 220.383 207.718ZM220.602 139.609C220.508 140.296 220.477 141.014 220.524 141.702C220.742 145.371 218.619 146.479 215.184 146.526C213.622 146.542 212.139 146.167 211.077 144.824C209.282 147.775 208.876 150.961 208.47 154.13C207.127 164.623 208.314 174.913 210.984 185.077C212.764 191.823 215.137 198.349 217.885 204.735C218.088 205.204 218.01 206.219 219.134 205.75C219.415 205.625 219.447 206.078 219.415 206.328C219.228 208.061 218.713 209.685 217.464 210.95C216.558 211.871 215.371 211.684 214.715 210.591C214.575 210.372 214.466 210.122 214.356 209.888C213.56 208.358 213.529 208.295 215.106 207.686C216.199 207.28 215.793 206.718 215.481 206.078C212.28 199.489 209.625 192.697 207.627 185.655C204.988 176.396 203.708 166.996 204.317 157.362C204.629 152.538 205.441 147.791 207.096 143.247C207.642 141.748 207.549 140.687 206.424 139.547C205.175 138.266 204.145 136.767 202.927 135.472C200.257 132.614 197.15 131.084 193.168 132.552C192.606 132.755 192.419 132.552 192.528 132.021C192.684 131.287 192.778 130.537 193.059 129.866C195.713 123.339 198.336 116.813 201.459 110.489C202.88 107.616 204.879 105.243 207.346 102.901C207.455 104.837 207.627 106.57 207.658 108.303C207.689 111.114 208.158 113.877 208.407 116.672C208.454 117.094 208.642 117.562 208.345 117.953C207.033 119.654 207.392 121.513 207.798 123.355C208.267 125.494 208.876 127.602 209.672 129.632C210.359 131.396 211.437 132.864 213.341 133.489C213.747 133.629 214.278 133.832 214.606 133.692C216.292 132.989 217.136 134.004 217.963 135.175C218.213 135.518 218.557 135.877 218.931 136.049C220.446 136.799 220.805 138.032 220.602 139.609ZM223.491 134.129C223.506 135.034 223.131 135.831 222.647 136.564C222.335 137.049 221.992 137.142 221.445 136.861C219.837 136.065 218.572 134.894 217.495 133.473C217.042 132.88 217.401 132.52 217.635 132.068C217.745 131.849 217.948 131.552 217.682 131.349C217.385 131.115 217.261 131.459 217.073 131.615C214.997 133.52 212.045 132.848 210.89 130.163C209.75 127.508 208.923 124.729 208.361 121.887C207.955 119.857 208.439 118.156 210.578 117.016C209.048 117.328 209.297 116.329 209.204 115.61C208.564 110.614 208.204 105.586 208.22 100.559C208.22 99.8403 207.861 98.8098 209.126 98.5599C211.155 98.1696 211.468 98.7941 211.39 100.402C210.828 111.707 213.701 122.153 219.728 131.724C220.508 132.958 221.336 134.082 223.085 133.551C223.662 133.41 223.491 133.879 223.491 134.129ZM226.317 123.808C225.63 125.276 224.927 126.728 224.256 128.211C223.725 129.366 223.459 130.616 223.241 131.865C223.053 132.942 222.32 133.192 221.461 132.489C220.945 132.068 220.586 131.521 220.243 130.959C214.794 121.794 212.045 111.879 212.092 101.214C212.108 99.325 212.67 98.7317 214.575 98.4662C215.278 98.3726 215.106 98.7941 215.137 99.1689C215.278 100.824 215.262 102.495 215.543 104.134C215.855 105.93 216.714 106.757 218.619 106.882C220.914 107.023 223.022 106.336 225.099 105.461C225.489 105.305 225.817 104.962 226.41 105.087C226.145 106.539 225.536 107.897 225.302 109.349C224.662 113.237 224.927 117.031 226.41 120.685C226.848 121.794 226.785 122.777 226.317 123.808ZM232.656 93.6415C232.063 94.0943 231.407 94.4847 230.673 94.6408C229.658 94.8594 229.127 95.484 228.831 96.452C228.471 97.5762 228.003 98.6692 227.55 99.7466C227.207 100.59 227.144 101.823 225.505 101.121C225.848 101.917 226.426 102.089 226.879 102.37C227.519 102.791 227.691 103.182 226.957 103.619C224.349 105.149 221.617 106.258 218.51 106.008C217.385 105.914 216.667 105.399 216.464 104.181C216.152 102.229 215.933 100.277 216.011 98.3101C216.058 96.9985 216.371 96.9361 217.479 97.6855C219.634 99.1533 222.601 99.8247 225.286 97.7636C227.269 96.2334 229.283 94.7657 230.954 92.892C231.157 92.6578 231.36 92.4236 231.61 92.2519C232.11 91.924 232.625 91.9552 233.015 92.4392C233.452 92.9701 233.046 93.3448 232.656 93.6415ZM237.465 89.2696C236.653 91.6898 235.17 92.3768 232.797 91.4087C232.25 91.1901 232.203 90.8154 232.203 90.3782C232.11 87.6926 231.266 85.2568 229.892 82.9459C228.175 80.0417 228.222 76.8564 228.612 73.6399C228.643 73.4369 228.659 73.2027 229.049 73.0622C229.299 74.124 229.518 75.1701 229.799 76.2006C230.751 79.7294 231.969 83.1176 234.42 85.9594C235.123 86.7713 235.919 87.4427 236.903 87.8487C237.652 88.1766 237.699 88.5669 237.465 89.2696ZM237.98 86.8338C237.871 87.5676 237.481 87.3959 237.059 87.1461C236.2 86.6152 235.451 85.9438 234.826 85.1475C231.875 81.3376 230.532 76.8876 229.83 72.2034C229.767 71.8287 229.424 71.1105 230.22 71.0792C230.767 71.0636 231.469 71.0792 231.688 71.8755C231.985 72.9217 232.297 73.9834 232.672 74.9984C233.749 77.8401 235.295 80.3383 237.996 81.931C238.402 82.1652 238.745 82.3994 238.636 82.9459C238.418 84.2575 238.183 85.5378 237.98 86.8338Z" fill="#101223"/>
<path d="M222.163 89.1759C222.179 89.1915 222.179 89.1915 222.194 89.2071L222.163 89.1759Z" fill="#101223"/>
<path d="M217.198 174.741C218.962 175.381 220.336 176.224 221.788 176.942C221.991 177.052 222.179 177.161 222.225 177.395C222.46 178.472 223.193 178.254 223.834 177.926C225.598 177.02 227.534 176.895 229.423 176.63C230.501 176.474 231.36 177.005 231.422 178.207C231.625 181.658 231.547 185.108 231.11 188.544C231.016 189.231 230.735 189.84 229.986 189.996C229.174 190.167 228.549 189.808 228.096 189.121C227.191 187.778 226.191 186.498 225.348 185.124C224.661 184.015 223.802 184.734 223.006 184.734C222.272 184.734 222.225 185.296 222.272 185.858C222.335 186.545 221.976 186.732 221.335 186.779C219.04 186.967 219.009 186.998 218.619 184.734C218.103 181.72 217.666 178.675 217.213 175.662C217.166 175.397 217.198 175.131 217.198 174.741ZM228.424 184.952C228.487 185.686 228.206 186.311 227.878 186.92C227.565 187.497 227.971 187.825 228.268 188.184C228.362 188.309 228.596 188.45 228.69 188.403C229.096 188.2 229.142 187.763 229.158 187.388C229.189 185.03 229.439 182.641 229.064 180.299C228.533 176.958 228.58 177.629 225.895 178.129C225.676 178.176 225.473 178.223 225.255 178.269C224.568 178.394 224.411 178.691 224.802 179.347C225.426 180.424 225.739 181.611 225.536 182.876C225.458 183.422 225.098 184.156 225.785 184.39C226.472 184.64 226.348 183.672 226.738 183.391C226.785 183.36 226.878 183.407 227.035 183.438C227.019 183.969 226.863 184.437 226.644 184.921C226.394 185.499 226.691 186.092 227.113 186.279C227.69 186.545 227.69 185.811 227.893 185.483C228.034 185.28 228.034 184.984 228.424 184.952ZM222.194 181.595C222.194 181.986 222.132 182.392 222.21 182.766C222.303 183.219 221.804 184.094 222.788 184.015C223.553 183.969 224.536 184.047 224.708 182.891C224.895 181.673 224.614 180.565 223.974 179.519C223.631 178.972 223.131 178.941 222.6 179.05C222.069 179.175 222.21 179.644 222.194 180.018C222.194 180.549 222.194 181.064 222.194 181.595ZM230.704 183.797C230.704 181.58 230.735 180.065 230.688 178.535C230.673 177.988 230.36 177.395 229.736 177.536C228.955 177.707 229.486 178.348 229.564 178.722C230.204 181.892 229.814 185.062 229.72 188.231C229.705 188.575 229.221 189.121 229.736 189.231C230.392 189.371 230.376 188.668 230.407 188.216C230.501 186.498 230.751 184.812 230.704 183.797Z" fill="#101223"/>
<path d="M186.5 224.175C191.262 221.146 205.705 226.751 207.844 232.481C205.065 229.608 201.911 227.329 198.195 225.845C194.432 224.331 190.513 224.065 186.5 224.175Z" fill="#101223"/>
<path d="M205.097 164.279C205.097 156.301 205.987 149.774 208.017 143.435C208.142 143.044 208.033 142.373 208.72 142.388C209.188 142.404 210.141 143.903 209.984 144.293C205.925 154.24 206.627 164.529 207.955 174.819C209.282 185.187 212.623 194.977 216.667 204.564C216.933 205.188 217.776 206.172 217.089 206.484C216.355 206.812 216.214 205.516 215.933 204.923C211.468 195.57 208.017 185.858 206.253 175.615C205.519 171.446 205.066 167.215 205.097 164.279Z" fill="#101223"/>
<path d="M213.279 130.647C213.341 130.35 213.388 130.1 213.138 129.804C210.749 127.181 210.047 123.855 209.313 120.545C209.157 119.873 209.172 119.046 210.14 118.905C211.077 118.765 211.468 119.452 211.671 120.217C212.186 122.153 212.67 124.105 213.482 125.963C213.576 126.166 213.591 126.478 213.732 126.556C215.418 127.493 215.184 129.226 215.543 130.725C215.621 131.037 215.746 131.381 215.48 131.584C214.95 131.974 214.294 131.849 213.716 131.724C213.123 131.599 213.17 131.1 213.279 130.647Z" fill="#101223"/>
<path d="M222.21 89.2073C221.32 88.4734 221.335 87.7864 222.257 87.0838C223.037 86.4904 223.802 85.8659 224.864 85.0383C224.599 86.2562 223.771 86.5217 223.271 87.0369C222.772 87.5522 221.804 87.8332 222.647 88.8638C222.865 89.1292 222.444 89.2229 222.163 89.1604C222.163 89.176 222.21 89.2073 222.21 89.2073Z" fill="#101223"/>
<path d="M228.659 87.8018C228.284 87.146 228.159 86.3497 227.41 86.0218C227.253 85.9593 227.175 85.7408 227.3 85.569C227.441 85.3816 227.659 85.366 227.894 85.4285C228.752 85.6315 229.127 86.7088 228.659 87.8018Z" fill="#101223"/>
<path d="M222.538 83.2267C222.725 82.7583 223.053 82.649 223.397 82.6334C223.865 82.6022 224.365 82.4616 224.708 82.93C224.771 83.0081 224.771 83.1955 224.724 83.2892C224.412 83.8669 223.959 83.4297 223.569 83.3985C223.256 83.3672 222.897 83.5546 222.538 83.2267Z" fill="#101223"/>
<path d="M226.613 181.252C226.582 180.456 226.832 179.987 227.44 179.956C228.159 179.925 228.409 180.518 228.409 181.096C228.424 181.689 228.159 182.267 227.456 182.267C226.707 182.267 226.66 181.642 226.613 181.252Z" fill="#101223"/>
<path d="M223.287 84.7416C223.35 84.5074 223.459 84.3669 223.256 84.2576C223.115 84.1795 223.022 84.2576 222.928 84.3825C222.678 84.726 222.413 85.0539 222.147 85.3974C222.022 85.5692 221.991 85.7565 222.179 85.8814C222.35 86.0064 222.507 85.9127 222.616 85.7721C222.866 85.413 223.1 85.0383 223.287 84.7416Z" fill="#101223"/>
<path d="M227.066 86.9433C227.128 86.7872 227.19 86.631 227.019 86.5373C226.847 86.4437 226.738 86.5686 226.644 86.6779C226.394 87.0058 226.144 87.318 225.91 87.6459C225.785 87.8177 225.754 87.9894 225.941 88.13C226.113 88.2705 226.269 88.1768 226.379 88.0363C226.644 87.7084 226.878 87.3336 227.066 86.9433Z" fill="#101223"/>
</g>
<g clip-path="url(#clip2_85_7465)">
<path d="M187.371 23.8389C184.389 15.3448 179.143 8.86502 170.883 5.03958C164.372 2.01046 157.423 1.2766 150.35 1.65134C138.718 2.2759 128.366 6.47607 119.138 13.4555C106.928 22.6834 98.902 34.8936 94.3271 49.3834C92.2816 55.8789 91.5946 62.5929 92.8125 69.3694C94.7642 80.1743 100.042 89.168 107.864 96.7564C108.598 97.4747 108.676 97.9899 108.239 98.8799C105.975 103.47 103.758 108.092 101.572 112.714C101.182 113.542 100.76 113.62 99.9481 113.401C97.2937 112.652 94.5613 112.495 91.9225 113.339C84.2872 115.774 76.855 118.741 69.7037 122.348C65.8939 124.268 63.2707 127.376 61.8499 131.466C60.7569 134.605 59.6951 137.759 58.7271 140.929C58.2899 142.381 58.4304 144.301 57.3062 145.176C56.1507 146.066 54.3395 146.081 52.8249 146.472C49.9364 147.205 47.0478 147.908 44.1748 148.642C43.9093 148.72 43.4565 148.72 43.5034 149.11C43.5814 149.641 44.0499 149.329 44.3465 149.329C44.5651 149.329 44.7837 149.251 44.9867 149.204C48.7028 148.33 52.4034 147.471 56.1039 146.55C57.6965 146.144 59.133 146.144 60.5539 147.19C70.3283 154.497 77.8542 163.506 81.6641 175.279C83.8344 181.978 84.3809 188.801 83.1318 195.765C82.8664 197.28 82.195 198.263 80.7116 198.872C76.4802 200.637 72.28 202.51 68.0955 204.4C67.1118 204.837 66.7214 204.806 66.3779 203.666C63.0834 192.736 58.6021 182.306 52.9186 172.391C50.4672 168.128 47.8128 164.022 44.9867 160.009C44.7993 159.743 44.6276 159.197 44.2528 159.447C43.7532 159.775 44.3309 160.103 44.4558 160.43C44.5027 160.555 44.5964 160.649 44.6744 160.758C48.8746 166.926 52.6688 173.312 55.9946 179.995C60.4602 188.957 63.9421 198.279 66.7058 207.882C67.2367 209.724 67.1899 209.849 65.5348 210.801C64.0827 211.629 62.6306 212.425 61.1941 213.268C60.8974 213.44 60.3978 213.503 60.6007 214.252C62.1778 213.425 63.7235 212.644 65.2537 211.832C68.236 210.255 68.2985 210.239 67.346 206.992C67.0493 205.961 67.3304 205.664 68.236 205.321C72.7641 203.572 77.1672 201.527 81.586 199.512C82.9288 198.903 83.7564 197.951 83.8969 196.436C84.0374 195 84.3028 193.579 84.4434 192.143C84.5214 191.409 84.7557 191.112 85.5364 191.362C87.6755 192.064 89.8614 192.424 92.0943 192.595C100.791 193.282 108.739 191.362 115.515 185.71C119.653 182.259 122.557 178.027 122.604 172.36C122.604 171.704 122.916 171.204 123.26 170.689C125.337 167.582 126.648 164.193 127.07 160.462C127.257 158.885 127.382 157.339 128.147 155.809C129.99 152.171 130.661 148.33 128.897 144.426C128.475 143.489 128.506 142.974 129.287 142.209C133.378 138.29 133.877 134.121 130.77 129.359C127.616 124.503 123.119 121.239 117.873 118.96C116.936 118.554 116.827 118.241 117.311 117.367C119.622 113.245 121.917 109.123 124.119 104.938C124.712 103.814 125.446 103.408 126.664 103.33C131.676 103.018 136.563 102.018 141.278 100.348C157.611 94.5548 170.321 84.2808 179.33 69.4475C180.969 66.7619 182.375 63.9513 183.874 61.1564C188.417 52.8654 189.323 36.7673 189.323 36.7673C189.354 32.3485 188.839 28.0234 187.371 23.8389ZM117.186 119.366C122.807 121.926 127.616 125.439 130.677 130.967C132.613 134.464 132.16 137.946 129.318 140.819C124.353 145.847 118.56 149.61 112.002 152.217C111.565 152.389 110.581 152.358 110.847 153.092C111.003 153.529 111.752 152.998 112.221 152.826C117.389 150.875 122.073 148.111 126.367 144.645C127.647 143.614 127.788 143.645 128.288 145.254C129.927 150.516 128.319 154.997 124.837 158.947C122.37 161.758 119.2 163.631 115.952 165.38C114.625 166.098 113.314 166.817 111.83 167.629C113.891 168.113 119.778 164.443 126.039 158.978C126.601 161.586 124.306 167.769 121.714 171.267C118.997 174.92 115.39 177.325 111.362 179.277C115.437 178.355 118.607 175.998 121.417 173C121.886 173.468 121.62 173.937 121.527 174.374C120.246 180.526 116.421 184.757 111.143 187.724C103.008 192.299 94.3895 192.892 85.4739 190.487C84.8806 190.331 84.5371 190.175 84.5371 189.363C84.6932 180.26 82.1013 171.922 77.4014 164.209C72.7016 156.511 66.5965 150.141 58.93 145.316C58.4148 144.988 58.4304 144.723 58.5709 144.27C59.9762 139.476 61.3971 134.699 63.302 130.077C64.5199 127.11 66.8307 125.049 69.5476 123.378C73.2325 121.114 77.339 119.803 81.2737 118.148C84.4121 116.836 87.5193 115.384 90.8139 114.463C93.6244 113.682 96.4662 113.323 99.386 113.947C100.432 114.166 100.76 114.494 100.198 115.587C98.3867 119.131 96.4662 122.629 95.0921 126.376C93.8274 129.843 94.7018 131.982 98.0276 133.559C99.9325 134.464 101.869 135.229 104.055 135.183C105.741 135.151 106.959 134.558 107.896 133.137C110.737 128.859 113.251 124.409 115.781 119.959C116.124 119.366 116.405 119.022 117.186 119.366ZM123.557 104.017C120.59 109.779 117.483 115.446 114.329 121.099C113.876 121.911 113.485 122.02 112.736 121.458C109.551 119.084 105.96 117.679 102.009 117.226C100.994 117.102 100.932 116.774 101.338 115.899C103.945 110.309 106.506 104.704 109.035 99.0829C109.41 98.2554 109.957 97.9587 110.8 97.7713C115.437 96.772 120.715 98.7706 123.447 102.612C123.619 102.862 123.869 103.08 123.822 103.486C123.76 103.642 123.666 103.83 123.557 104.017ZM182.859 41.3891C181.563 49.3522 179.08 56.925 175.301 64.0606C171.913 70.4468 167.104 75.5994 161.499 80.065C154.191 85.8891 146.103 90.2141 137.047 92.6343C133.05 93.6961 129.006 94.3206 125.415 94.2738C115.703 94.305 107.677 91.4789 101.525 84.4994C94.9828 77.0984 92.2192 68.3545 93.4683 58.502C95.4669 42.7163 103.102 29.8191 114.251 18.8268C121.011 12.1596 128.975 7.45976 138.093 4.74292C146.821 2.13537 155.643 1.63572 164.528 3.79046C174.536 6.21063 180.579 12.5812 182.812 22.5898C184.217 28.851 183.889 35.1278 182.859 41.3891Z" fill="#101223"/>
<path d="M159.719 10.2391C153.661 8.27172 147.446 8.14681 141.294 9.38032C134.768 10.6919 128.819 13.5024 123.635 17.7026C111.721 27.3833 104.258 39.7184 102.291 55.0358C101.291 62.8115 102.556 70.2282 107.506 76.6768C111.737 82.1886 117.124 85.7173 124.135 86.3419C129.475 86.8103 134.58 85.608 139.468 83.4845C148.368 79.6279 155.41 73.4447 161.28 65.8407C168.525 56.4722 172.476 45.9328 172.538 34.0193C172.585 30.5842 172.257 27.1803 171.476 23.8545C169.931 17.2966 166.402 12.4094 159.719 10.2391ZM157.892 68.5575C152.131 75.1154 145.479 80.5335 137.141 83.5314C132.504 85.2021 127.757 85.9359 122.807 85.2021C115.125 84.0779 110.332 79.5186 107.631 72.4922C104.945 65.5128 105.117 58.3928 107.225 51.3508C110.582 40.14 116.406 30.3812 125.071 22.4337C130.708 17.2498 136.954 13.0496 144.448 10.9886C149.101 9.70821 153.801 9.8019 158.47 11.0198C165.715 12.8935 169.4 17.9837 170.899 24.9787C171.523 27.9454 171.617 30.9745 171.695 33.1761C171.711 47.3537 166.558 58.6894 157.892 68.5575Z" fill="#101223"/>
<path d="M141.31 17.4371C140.092 17.3591 138.952 17.6869 137.891 18.2022C125.868 23.9326 117.514 32.9419 113.439 45.7298C112.533 48.5559 111.737 51.4289 111.55 54.1769C111.581 55.9101 111.831 57.331 112.596 58.5957C114.173 61.2345 117.28 61.4999 119.326 59.2047C120.262 58.1585 120.778 56.925 121.043 55.5822C121.793 51.7099 122.823 47.9157 124.478 44.3245C127.757 37.2357 132.691 31.5678 138.952 26.9617C140.889 25.5408 142.793 24.0419 143.871 21.7778C144.87 19.6699 143.621 17.5776 141.31 17.4371ZM143.59 20.9034C143.293 21.8403 142.684 22.5898 141.997 23.2768C139.671 25.6033 136.845 27.3364 134.378 29.5224C127.133 35.9241 122.636 43.8717 120.715 53.3338C120.481 54.4892 120.122 55.6134 119.794 56.7533C119.575 57.4715 119.169 58.1117 118.654 58.6582C116.874 60.5631 114.329 60.1883 113.127 57.8775C112.612 56.8938 112.455 55.9413 112.487 53.4275C112.815 48.9775 114.454 44.1371 116.702 39.5154C121.231 30.1782 128.522 23.5891 137.688 18.9361C138.828 18.3583 140.061 18.0148 141.341 17.9524C143.075 17.8587 144.121 19.2484 143.59 20.9034Z" fill="#101223"/>
<path d="M120.871 68.5887C118.763 68.6199 116.874 70.478 116.89 72.5078C116.905 74.3971 118.467 75.818 120.543 75.8024C122.698 75.7868 124.494 73.9599 124.431 71.8676C124.369 69.9783 122.807 68.5419 120.871 68.5887ZM120.247 74.9436C118.763 74.928 117.624 73.835 117.639 72.3985C117.655 70.884 119.357 69.4162 121.074 69.4475C122.573 69.4787 123.619 70.5092 123.573 71.8989C123.51 73.5696 121.996 74.9592 120.247 74.9436Z" fill="#101223"/>
</g>
</g>
<defs>
<clipPath id="clip0_85_7465">
<rect width="319" height="267" fill="white" transform="translate(0.5)"/>
</clipPath>
<clipPath id="clip1_85_7465">
<rect width="136.55" height="206.036" fill="white" transform="translate(137.5 61)"/>
</clipPath>
<clipPath id="clip2_85_7465">
<rect width="145.824" height="212.691" fill="white" transform="translate(43.5 1.5614)"/>
</clipPath>
</defs>
</svg>
