<svg width="56" height="56" viewBox="0 0 56 56" fill="none" xmlns="http://www.w3.org/2000/svg">
<path d="M0 28C0 12.536 12.536 0 28 0C43.464 0 56 12.536 56 28C56 43.464 43.464 56 28 56C12.536 56 0 43.464 0 28Z" fill="#DBDEE9"/>
<path d="M27.9415 11.8294C29.4582 14.0756 30.3258 16.3078 30.5917 18.6255C31.3567 25.2255 27.0066 31.7318 20.0165 34.4599C18.3779 35.1013 16.66 35.5777 14.8207 35.9096C14.3765 35.9897 14.2398 36.5683 14.615 36.8193C18.219 39.2306 21.8018 40.7806 25.5268 41.5514L25.6737 41.5804C28.8521 42.2076 31.6143 41.8501 34.133 40.4765C37.7248 38.5167 40.314 35.7311 41.8349 32.1723C44.2995 26.4321 42.5547 19.665 37.4109 14.935C35.2869 12.9723 32.8778 11.7513 30.0733 11.1979C29.8344 11.1471 29.0987 11.0785 28.3965 11.0216C27.9699 10.987 27.702 11.4747 27.9415 11.8294Z" fill="#101223"/>
<path d="M23.5171 17.8931C23.5148 18.644 22.9686 19.0166 22.4357 19.3875C21.1596 20.2802 21.1828 20.2496 22.0227 21.509C22.4327 22.1121 23.2818 22.7866 22.6616 23.5435C22.1356 24.1916 21.2537 23.6879 20.6734 23.3419C19.4134 22.6065 18.4627 22.7505 17.4934 23.842C16.9972 24.4031 16.2331 25.3027 15.5068 24.7522C14.8982 24.2845 15.6308 23.3471 15.769 22.6074C15.8183 22.3512 15.9488 22.099 16.0811 21.8604C16.4017 21.293 16.1513 21.1152 15.6161 21.0277C14.9451 20.9291 14.269 20.7894 13.6045 20.6344C13.2035 20.5444 12.7312 20.4215 12.6808 19.8995C12.6354 19.4186 13.0028 19.1235 13.367 18.9122C13.9811 18.5452 14.5868 18.1097 15.254 17.8474C15.8965 17.6021 16.1278 17.1846 16.1153 16.5329C16.0962 15.8263 16.1715 15.1222 16.4274 14.4654C16.7774 13.5886 17.3653 13.4473 18.0007 14.134C18.3872 14.5454 18.7457 15.0575 18.9319 15.5907C19.2861 16.6176 19.9409 16.9128 20.9315 16.875C21.5609 16.8537 22.2006 17.0256 22.8352 17.1565C23.1816 17.2392 23.4502 17.4565 23.5171 17.8931ZM17.2411 14.7412C17.1669 15.0143 17.076 15.1506 17.0927 15.2875C17.2827 17.3908 16.3102 18.5661 14.3976 19.0919C14.0333 19.1921 13.4388 19.3898 13.5074 19.8401C13.5859 20.3726 14.2468 20.2779 14.6495 20.3815C16.7474 20.9311 16.7457 20.9173 16.1223 22.9673C16.0266 23.2848 15.7273 23.6966 16.0391 23.9365C16.394 24.1989 16.6617 23.7492 16.8486 23.5178C18.0608 21.9936 19.4567 21.5309 21.1893 22.6117C21.2921 22.6825 21.4627 22.6477 21.6946 22.6749C21.3836 21.7817 20.7799 21.244 20.2755 20.6385C19.8026 20.0709 19.8552 19.7309 20.5273 19.3985C21.1746 19.0831 21.9281 18.8658 22.3675 17.9503C21.5109 17.8744 20.7703 17.7565 20.0298 17.7498C19.2496 17.7479 18.787 17.4848 18.5259 16.6689C18.2964 16.002 18.0071 15.2868 17.2411 14.7412Z" fill="#101223"/>
<path d="M47.7393 41.3503C47.5382 41.8242 47.0815 41.9127 46.634 42.0036C45.5612 42.2242 45.5845 42.211 45.7996 43.2332C45.9076 43.7248 46.2842 44.3798 45.6769 44.6912C45.1603 44.9592 44.7167 44.4033 44.4288 44.0283C43.7994 43.2242 43.1386 43.0592 42.2138 43.488C41.7397 43.709 41.0003 44.0718 40.6711 43.5282C40.3969 43.0687 41.1258 42.6735 41.413 42.2433C41.5134 42.0946 41.6659 41.9703 41.8159 41.8552C42.1767 41.5829 42.06 41.4031 41.7329 41.2037C41.3197 40.9606 40.9142 40.6902 40.5204 40.4133C40.2817 40.2484 40.0052 40.0436 40.111 39.7001C40.2091 39.3839 40.5281 39.2963 40.8227 39.2608C41.3224 39.1942 41.8347 39.0821 42.3414 39.0961C42.8272 39.114 43.0897 38.9125 43.2548 38.4972C43.4301 38.0455 43.6666 37.6207 44.0087 37.2745C44.471 36.8146 44.8935 36.8836 45.1269 37.4888C45.2706 37.8529 45.3692 38.2731 45.3494 38.6602C45.3083 39.4047 45.6585 39.7676 46.3171 40.0105C46.7349 40.1665 47.108 40.4475 47.4888 40.7011C47.6935 40.8467 47.8116 41.0564 47.7393 41.3503ZM44.4682 37.6679C44.347 37.8206 44.2513 37.8822 44.2258 37.9733C43.791 39.3538 42.8418 39.8347 41.4497 39.652C41.1846 39.6172 40.7428 39.5821 40.6679 39.8851C40.5778 40.2428 41.0357 40.3609 41.2718 40.5349C42.4993 41.4472 42.5018 41.4381 41.5486 42.5659C41.4016 42.7408 41.0961 42.9205 41.2365 43.156C41.3991 43.4174 41.6939 43.2053 41.8778 43.1094C43.0767 42.4725 44.1137 42.556 44.9607 43.7057C45.0092 43.7781 45.1301 43.8021 45.2748 43.8818C45.3086 43.2335 45.0563 42.731 44.887 42.2125C44.7283 41.7264 44.8531 41.5257 45.3816 41.4966C45.8893 41.4715 46.4403 41.5372 46.9714 41.0769C46.4308 40.7982 45.9772 40.5242 45.4942 40.3206C44.9838 40.1092 44.7509 39.8184 44.7969 39.2324C44.8239 38.749 44.8247 38.2191 44.4682 37.6679Z" fill="#101223"/>
<path d="M6.45722 37.9482C6.11343 37.8683 6.04069 37.6923 6.21346 37.4569C6.42455 37.1667 6.64915 36.8806 6.91777 36.6442C7.28402 36.3266 7.37118 36.1319 6.84804 35.8885C6.51079 35.7369 6.19085 35.5023 5.94024 35.2074C5.68964 34.9125 5.75379 34.6963 6.11319 34.5751C6.53191 34.4274 6.96985 34.3883 7.41402 34.4025C7.81365 34.4182 8.0827 34.329 8.23329 33.8959C8.34104 33.5824 8.54537 33.2902 8.76195 33.0311C9.08544 32.6346 9.42649 32.6991 9.61821 33.1676C9.76168 33.5263 9.78102 33.9069 9.75582 34.289C9.73188 34.6421 9.83788 34.8794 10.1994 35.0234C10.5677 35.1695 10.9139 35.3899 11.2379 35.611C11.6464 35.8939 11.6029 36.2633 11.1486 36.4813C10.8393 36.632 10.4999 36.6857 10.1591 36.6948C9.89184 36.7036 9.80371 36.8024 9.90369 37.06C10.0404 37.4166 10.1373 37.7835 10.1479 38.1689C10.1546 38.3693 10.1417 38.586 9.94497 38.7041C9.73947 38.8268 9.52856 38.7202 9.41403 38.5612C8.70781 37.5724 7.83307 37.3496 6.75477 37.9116C6.66316 37.9726 6.5308 37.948 6.45722 37.9482ZM9.15896 33.3033C8.83124 33.6397 8.61012 33.9637 8.46882 34.3407C8.35231 34.659 8.16031 34.7858 7.78971 34.7713C7.26047 34.7466 6.7157 34.7245 6.16209 34.9057C6.43962 35.4071 6.90271 35.6548 7.33951 35.9167C7.65122 36.1048 7.62188 36.2284 7.41533 36.4538C7.11389 36.7759 6.75767 37.0598 6.58154 37.5294C7.22816 37.5302 7.73109 37.0988 8.30013 37.1133C8.91371 37.1263 9.09953 37.8872 9.68674 38.1129C9.66844 37.6297 9.54377 37.2325 9.3928 36.8495C9.22008 36.4161 9.38906 36.2677 9.81223 36.2537C10.1908 36.2411 10.5857 36.248 10.982 36.0275C10.6238 35.6492 10.2122 35.4756 9.82091 35.308C9.48165 35.1632 9.31233 34.9659 9.34629 34.5791C9.35999 34.1862 9.31563 33.7908 9.15896 33.3033Z" fill="#101223"/>
</svg>
