<svg width="272" height="160" viewBox="0 0 272 160" fill="none" xmlns="http://www.w3.org/2000/svg">
<g clip-path="url(#clip0_226_4601)">
<rect width="271" height="160" transform="translate(0.5)" fill="white"/>
<path d="M200.06 61.9932C200.027 63.4815 199.753 64.8959 199.091 66.2526C195.943 72.7076 192.82 79.1707 189.673 85.6256C189.366 86.2506 189.391 86.4562 190.161 86.5795C194.311 87.2455 198.345 88.4132 202.354 89.6631C206.612 90.9869 210.952 91.5625 215.4 91.5625C216.593 91.5625 216.734 91.7517 216.212 92.7713C210.447 103.856 206.148 115.557 201.733 127.209C198.933 134.593 196.332 142.043 193.226 149.312C191.851 152.527 190.277 155.627 188.165 158.431C187.121 159.82 185.987 160.264 184.305 159.853C176.187 157.863 168.351 155.059 160.648 151.852C152.183 148.325 143.866 144.427 135.26 141.22C132.377 140.143 129.478 139.099 126.529 138.219C126.074 138.087 125.668 138.071 125.204 138.178C115.173 140.357 105.134 142.511 95.0942 144.699C87.8381 146.277 80.5902 147.914 73.334 149.509C72.5389 149.682 71.7354 149.813 70.9153 149.805C66.4424 149.788 61.9611 149.805 57.4882 149.788C57.1568 149.788 56.6764 149.994 56.5273 149.542C56.3782 149.081 56.8752 148.966 57.1651 148.802C60.9837 146.606 64.8188 144.444 68.6374 142.24C70.3604 141.245 72.2986 141.056 74.1789 140.636C81.6919 138.959 89.2214 137.331 96.7426 135.686C104.943 133.894 113.143 132.093 121.344 130.3C121.99 130.161 122.454 129.897 122.843 129.305C128.41 120.852 133.297 112.029 137.753 102.951C138.101 102.236 137.886 102.063 137.273 101.816C128.078 98.0586 118.9 94.2843 109.714 90.51C96.4775 85.0747 83.2408 79.6476 70.0042 74.2206C69.3332 73.941 68.7783 73.5792 68.4386 72.9296C67.2127 70.5778 66.6826 68.0945 66.9973 65.4468C67.0802 64.7396 67.3701 64.1229 67.7263 63.5226C75.7445 50.029 83.7627 36.5435 91.7892 23.058C92.8329 21.2984 94.1499 20.8379 96.0716 21.5039C118.122 29.1347 140.172 36.7655 162.222 44.3963C173.603 48.3351 184.984 52.2738 196.365 56.2125C199.041 57.117 200.068 58.7369 200.06 61.9932ZM127.937 137.553C127.937 137.635 127.946 137.717 127.946 137.8C128.202 137.89 128.451 137.98 128.708 138.063C131.822 139.041 134.87 140.176 137.91 141.368C144.711 144.041 151.371 147.042 158.088 149.904C166.703 153.571 175.417 156.959 184.578 159.072C185.721 159.335 186.624 159.097 187.328 158.225C187.908 157.502 188.422 156.712 188.902 155.923C191.586 151.507 193.533 146.754 195.355 141.952C198.445 133.82 201.41 125.63 204.524 117.506C207.68 109.258 211.085 101.117 215.086 93.2318C215.4 92.6151 215.508 92.3108 214.58 92.3108C210.969 92.3108 207.399 91.875 203.912 90.9458C199.165 89.6713 194.493 88.1007 189.623 87.262C189.084 87.1715 188.894 87.262 188.679 87.7142C186.276 92.6973 183.858 97.6639 181.456 102.639C179.608 106.454 177.786 110.269 175.922 114.077C174.895 116.173 173.537 116.642 171.4 115.754C169.453 114.94 167.482 114.175 165.543 113.337C164.906 113.057 164.624 113.189 164.268 113.772C159.621 121.568 154.941 129.355 150.253 137.134C150.021 137.52 149.896 138.383 149.292 138.054C148.646 137.701 149.35 137.166 149.582 136.788C154.228 128.993 158.9 121.198 163.572 113.419C163.878 112.909 163.862 112.679 163.266 112.44C160.491 111.33 157.724 110.195 154.974 109.028C154.419 108.789 154.146 108.847 153.847 109.406C151.106 114.521 148.231 119.561 145.158 124.487C144.835 125.013 144.802 125.227 145.498 125.408C147.652 125.983 148.985 128.154 148.612 130.341C148.215 132.677 146.558 133.581 144.471 134.034C140.453 134.889 136.436 135.752 132.419 136.607C130.919 136.912 129.428 137.232 127.937 137.553ZM67.8671 65.751C67.9251 66.3431 68.2233 67.0749 69.0267 67.4943C69.59 67.7821 70.1698 68.037 70.758 68.2754C82.8101 73.2338 94.8706 78.184 106.931 83.1506C121.244 89.0463 135.55 94.9586 149.863 100.863C156.921 103.773 163.978 106.684 171.044 109.587C172.8 110.311 173.893 109.834 174.713 108.148C177.388 102.606 180.064 97.0554 182.781 91.5296C187.801 81.3086 192.853 71.1123 197.881 60.8996C198.842 58.9507 198.304 57.6844 196.25 56.9773C193.11 55.8918 189.971 54.8064 186.831 53.721C168.973 47.5457 151.122 41.3703 133.264 35.195C120.822 30.8944 108.389 26.5856 95.9474 22.2933C94.183 21.6848 93.3547 21.9808 92.3856 23.5761C90.7703 26.2567 89.1717 28.9374 87.5813 31.6262C81.1617 42.4722 74.7339 53.3016 68.3061 64.1394C68.0576 64.5587 67.8671 64.9945 67.8671 65.751ZM123.514 129.7C124.011 129.626 124.243 129.61 124.475 129.552C130.58 128.204 136.676 126.839 142.781 125.523C143.435 125.383 143.841 125.128 144.181 124.561C147.229 119.52 150.244 114.463 153.027 109.275C153.384 108.608 153.342 108.345 152.613 108.049C148.331 106.323 144.057 104.571 139.799 102.787C139.062 102.482 138.73 102.565 138.366 103.313C134.597 111.108 130.489 118.714 125.825 126.024C125.104 127.184 124.376 128.352 123.514 129.7ZM58.6395 148.818C58.9129 148.925 58.9957 148.983 59.0785 148.983C63.1291 148.966 67.1713 148.942 71.2218 148.917C71.5117 148.917 71.7437 148.818 71.9176 148.571C72.5389 147.634 72.9033 146.639 72.514 145.513C72.0667 144.222 71.1224 143.276 69.9628 142.709C69.209 142.339 68.6292 143.325 67.9085 143.572C67.8837 143.58 67.8588 143.597 67.8257 143.613C64.8023 145.323 61.7955 147.034 58.6395 148.818Z" fill="#101223"/>
<path d="M131.285 6.00081C136.215 5.96506 141.153 7.10921 145.693 9.78367C152.639 13.874 157.481 19.6377 160.285 27.0247C160.351 27.1963 160.41 27.3679 160.469 27.5467C160.528 27.7111 160.513 27.8613 160.344 27.9471C160.145 28.0472 159.954 28.0043 159.851 27.8256C159.733 27.6253 159.659 27.3965 159.578 27.1748C157.106 20.6317 152.985 15.2899 147.047 11.3855C140.13 6.83747 132.58 5.55745 124.457 7.63123C123.36 7.91012 122.323 8.33203 121.263 8.69673C120.998 8.78969 120.652 9.00422 120.52 8.58946C120.409 8.25337 120.785 8.19616 121.02 8.08889C123.728 6.88753 127.084 6.18674 131.285 6.00081Z" fill="#101223"/>
<path d="M102.537 116C92.2857 115.627 84.083 111.549 78.2062 103.322C77.1927 101.906 76.3979 100.356 75.6907 98.7717C75.5813 98.5322 75.3188 98.2223 75.698 98.0462C76.0698 97.8702 76.1938 98.2364 76.3104 98.4829C77.3239 100.673 78.5416 102.737 80.0582 104.646C82.0487 107.139 84.4257 109.196 87.1526 110.901C92.5044 114.225 98.3739 115.634 104.688 115.239C108.057 115.028 111.294 114.218 114.371 112.852C114.466 112.809 114.561 112.753 114.663 112.725C114.94 112.633 115.29 112.337 115.465 112.774C115.625 113.169 115.202 113.288 114.925 113.401C112.125 114.556 109.245 115.408 106.212 115.789C105.002 115.944 103.784 115.93 102.537 116Z" fill="#101223"/>
<path d="M105.264 103.997C97.2473 103.758 91.0021 100.159 86.7176 92.8609C86.5724 92.606 86.3182 92.2971 86.7031 92.0654C87.1025 91.8337 87.1969 92.274 87.3276 92.5056C89.252 95.9191 91.83 98.6221 95.1196 100.507C99.4622 102.993 104.073 103.851 108.946 102.847C109.258 102.785 109.571 102.738 109.883 102.661C110.144 102.592 110.399 102.599 110.478 102.893C110.587 103.287 110.261 103.341 110.006 103.41C108.452 103.796 106.884 104.028 105.264 103.997Z" fill="#101223"/>
<path d="M132.768 17.0002C139.435 17.5486 144.67 21.022 148.254 27.1206C148.407 27.3839 148.698 27.7422 148.298 27.9469C147.891 28.159 147.782 27.6837 147.636 27.4351C145.251 23.3181 141.907 20.342 137.428 18.7113C134.193 17.534 130.906 17.3951 127.584 18.3384C127.249 18.4334 126.675 18.9087 126.515 18.2652C126.391 17.768 127.06 17.8192 127.409 17.7168C129.016 17.2049 130.667 16.9929 132.768 17.0002Z" fill="#101223"/>
<path d="M190.717 99.645C190.551 100.007 190.336 100.541 190.062 101.035C186.269 108.065 182.21 114.956 178.25 121.904C175.003 127.594 171.765 133.293 168.517 138.983C168.36 139.263 168.277 139.797 167.789 139.542C167.3 139.287 167.681 138.901 167.838 138.621C170.754 133.474 173.695 128.326 176.619 123.179C181.042 115.392 185.664 107.712 189.797 99.7684C189.897 99.5792 189.996 99.3983 190.12 99.2257C190.211 99.0941 190.369 99.0612 190.526 99.1188C190.692 99.1763 190.758 99.2997 190.717 99.645Z" fill="#101223"/>
<path d="M184.222 130.44C183.825 130.308 183.783 130.07 183.924 129.733C184.314 128.787 184.67 127.833 185.067 126.896C187.105 122.118 189.391 117.464 191.752 112.843C191.901 112.547 192.009 112.029 192.481 112.276C192.92 112.506 192.597 112.909 192.448 113.213C189.689 118.607 187.064 124.067 184.786 129.683C184.661 129.971 184.579 130.317 184.222 130.44Z" fill="#101223"/>
<path d="M169.851 104.563C169.147 104.571 168.733 104.357 168.319 104.193C154.925 98.7655 141.531 93.3302 128.128 87.9031C116.689 83.2737 105.242 78.6524 93.7942 74.0394C87.325 71.4328 80.8475 68.8508 74.3865 66.2442C72.6802 65.5534 72.2163 63.802 73.2434 62.2561C76.4905 57.3306 79.4393 52.2324 82.4213 47.1507C86.3145 40.5149 90.1827 33.8626 94.0593 27.2103C95.0202 25.5575 96.1136 25.1464 97.9359 25.7713C114.088 31.33 130.241 36.8968 146.393 42.4555C158.379 46.5833 170.365 50.703 182.351 54.8226C185.034 55.7436 187.718 56.6645 190.402 57.5937C192.821 58.4325 193.401 59.7728 192.274 62.0341C187.114 72.4853 181.928 82.9201 176.759 93.3713C175.202 96.5207 173.67 99.6865 172.129 102.844C171.624 103.897 170.887 104.612 169.851 104.563ZM96.6685 26.2483C95.6414 26.2236 95.1527 26.8979 94.7137 27.6544C87.9463 39.2979 81.0132 50.8428 73.9807 62.3301C73.0115 63.9089 73.3925 65.0436 75.1403 65.7508C78.6938 67.1898 82.2556 68.6041 85.8092 70.0431C97.3892 74.7219 108.969 79.4089 120.549 84.096C130.704 88.2074 140.86 92.3106 151.015 96.4138C156.747 98.7326 162.487 101.06 168.228 103.362C170.183 104.151 170.796 103.88 171.69 101.94C171.963 101.339 172.237 100.739 172.527 100.147C176.378 92.401 180.238 84.6551 184.074 76.9092C186.65 71.7123 189.209 66.5155 191.736 61.3022C192.39 59.9619 191.918 58.9423 190.518 58.4571C178.25 54.2388 165.975 50.0287 153.699 45.8104C144.049 42.4966 134.407 39.1746 124.757 35.8608C115.679 32.7443 106.608 29.6196 97.53 26.5032C97.2401 26.4045 96.9502 26.3305 96.6685 26.2483Z" fill="#101223"/>
<path d="M134.97 65.3972C134.92 65.3889 134.787 65.4136 134.68 65.3643C133.487 64.7722 133.031 65.4876 132.534 66.4168C131.648 68.0531 130.638 69.6237 129.668 71.2107C129.354 71.7288 128.997 72.2139 128.426 72.4853C127.68 72.8306 127.009 72.4359 126.96 71.6301C126.951 71.5396 126.96 71.4492 126.968 71.3587C127.026 69.6648 127.009 69.6895 125.427 68.9165C121.998 67.2473 118.66 65.4136 115.984 62.6343C111.95 58.4406 113.607 52.1584 119.19 50.3247C121.012 49.7244 122.876 49.6915 124.748 49.8807C128.335 50.2342 131.855 50.9661 135.301 52.0022C135.897 52.1831 136.411 52.1913 136.883 51.7226C137.19 51.4266 137.579 51.2457 138.001 51.147C138.763 50.9743 139.393 51.4019 139.492 52.1748C139.567 52.7587 139.434 53.3014 139.169 53.8276C138.507 55.1433 137.885 56.4754 137.198 57.7746C136.908 58.3337 136.883 58.6544 137.446 59.1149C138.739 60.151 139.062 61.6804 138.465 63.177C137.91 64.5749 136.651 65.3889 134.97 65.3972Z" fill="#101223"/>
<path d="M177.861 65.3151C181.058 65.3151 182.939 68.2917 181.621 70.8573C178.623 76.7119 175.608 82.5501 172.576 88.3884C171.549 90.3701 169.42 90.9457 167.209 89.8931C165.279 88.9722 164.483 86.7191 165.511 84.6716C166.886 81.9334 168.368 79.2528 169.818 76.5557C171.433 73.5379 173.073 70.5283 174.68 67.5106C175.434 66.1045 176.544 65.3397 177.861 65.3151ZM181.274 69.1551C181.224 68.8591 181.216 68.5549 181.116 68.2753C180.719 67.1652 180.015 66.3429 178.772 66.162C177.207 65.9318 176.097 66.5814 175.359 67.9546C172.344 73.5955 169.313 79.2199 166.297 84.8608C165.95 85.5104 165.792 86.2093 165.9 86.9411C166.115 88.339 167.2 89.3422 168.724 89.5971C170.025 89.8109 171.284 89.1366 171.971 87.8128C174.97 82.0321 177.96 76.2432 180.959 70.4626C181.174 70.0432 181.265 69.6156 181.274 69.1551Z" fill="#101223"/>
<path d="M109.366 55.7108C108.057 55.6861 107.047 55.2174 106.26 54.3129C105.15 53.0301 105.49 51.3033 106.947 50.6208C108.554 49.8643 110.807 50.5386 111.71 52.0598C112.166 52.8246 112.323 53.6386 111.818 54.4362C111.23 55.349 110.335 55.7108 109.366 55.7108Z" fill="#101223"/>
<path d="M156.962 71.0465C156.896 71.5892 156.54 71.4494 156.233 71.3261C155.065 70.8491 153.898 70.3558 152.73 69.8706C150.543 68.9497 148.348 68.0205 146.161 67.0995C145.863 66.9762 145.457 66.8775 145.639 66.4253C145.805 66.0306 146.128 66.2115 146.409 66.3266C149.681 67.6998 152.962 69.0648 156.233 70.438C156.532 70.5613 156.888 70.6354 156.962 71.0465Z" fill="#101223"/>
<path d="M143.328 80.4695C143.344 80.6669 143.286 80.8313 143.088 80.9053C142.889 80.9793 142.74 80.8724 142.632 80.7162C142.582 80.6422 142.533 80.56 142.5 80.4777C141.489 78.1342 140.478 75.7907 139.484 73.439C139.377 73.1841 139.203 72.8387 139.609 72.666C139.907 72.5427 140.039 72.7894 140.139 73.0196C141.174 75.4207 142.21 77.8135 143.237 80.2146C143.278 80.2886 143.295 80.3791 143.328 80.4695Z" fill="#101223"/>
<path d="M147.304 57.9555C147.063 57.9884 146.873 57.9062 146.848 57.643C146.815 57.347 147.039 57.2319 147.279 57.1497C148.331 56.7878 149.383 56.426 150.426 56.056C151.528 55.6613 152.621 55.242 153.723 54.8473C153.938 54.7732 154.204 54.6335 154.344 54.9542C154.485 55.2748 154.295 55.4722 154.013 55.5709C151.835 56.352 149.656 57.125 147.478 57.9062C147.42 57.9308 147.362 57.939 147.304 57.9555Z" fill="#101223"/>
</g>
<defs>
<clipPath id="clip0_226_4601">
<rect width="271" height="160" fill="white" transform="translate(0.5)"/>
</clipPath>
</defs>
</svg>
