<svg width="326" height="267" viewBox="0 0 326 267" fill="none" xmlns="http://www.w3.org/2000/svg">
<rect width="326" height="267" fill="white"/>
<path d="M165.511 106.292C159.948 106.277 154.676 105.021 149.74 102.509C148.777 102.015 148.181 102.12 147.356 102.733C141.182 107.339 131.753 103.87 130.194 96.4525C129.43 92.7888 131.478 88.5269 135.222 86.4183C136.322 85.8052 136.505 85.2519 136.261 84.1004C132.119 65.3181 145.522 47.7171 164.013 44.9207C179.907 42.5131 196.198 51.2164 199.438 69.7744C200.782 77.4309 199.988 84.7734 195.846 91.5775C193.753 95.002 191.002 97.8433 187.472 99.8172C179.647 104.154 173.381 106.262 165.511 106.292ZM169.454 45.8927C167.88 45.7881 166.077 46.0423 164.273 46.3114C157.488 47.3433 151.451 49.9902 146.531 54.7157C138.064 62.8656 135.497 72.855 137.239 84.1304C137.407 85.1771 137.728 85.2818 138.691 85.0575C143.566 83.936 148.701 86.3884 150.917 90.7251C151.314 91.4878 151.146 92.8037 152.047 92.9383C152.796 93.043 153.652 92.2355 154.508 91.9364C156.296 91.3233 157.411 90.2017 158.023 88.4072C158.466 87.1062 159.016 85.6706 159.964 84.7584C161.14 83.6369 160.881 82.7247 160.269 81.6928C159.551 80.4816 158.94 79.2553 158.787 77.8347C158.726 77.2066 158.466 76.8477 157.763 76.5785C155.303 75.6813 153.698 71.5241 155.41 69.9389C156.831 68.623 156.54 67.4266 156.357 65.9761C156.158 64.4059 156.067 62.8208 155.975 61.2356C155.822 58.4243 157.029 56.2858 159.337 54.6409C164.594 50.8874 171.731 51.1566 176.591 55.3886C177.997 56.6148 178.837 58.1252 178.99 60.0393C179.143 62.0282 179.204 63.9872 178.959 65.9611C178.868 66.6789 178.852 67.2621 179.785 67.5762C180.732 67.8902 181.084 68.7127 181.145 69.6997C181.267 71.6885 180.411 73.184 178.7 74.141C177.874 74.6046 177.584 75.1429 177.569 76.0103C177.538 78.0291 176.988 79.8983 175.979 81.6779C175.169 83.1135 175.567 84.5341 176.835 85.5959C177.492 86.1492 178.165 86.6726 178.761 87.2707C179.433 87.9436 180.182 88.1979 181.175 88.2128C184.996 88.2726 188.755 88.7512 192.148 90.6653C194.288 91.8616 194.303 91.8915 195.48 89.6783C198.872 83.263 199.59 76.5038 198.185 69.4753C195.327 55.1344 184.171 45.8927 169.454 45.8927ZM160.33 71.6736C160.162 71.6885 159.979 71.7185 159.811 71.7334C159.306 71.1502 159.016 70.3875 158.344 69.9389C157.641 69.4604 157.029 69.5202 156.449 70.0735C155.639 70.8362 155.73 71.8381 156.036 72.7204C156.418 73.827 156.907 74.9485 158.038 75.5766C158.145 75.6364 158.344 75.6065 158.481 75.5467C159.582 75.0233 159.612 75.6962 159.658 76.4888C159.902 80.975 163.066 84.25 167.299 84.4294C172.556 84.6537 175.704 82.1265 176.407 77.1169C176.484 76.5337 176.591 75.9355 176.56 75.3373C176.53 74.4551 176.774 73.9018 177.722 73.5429C179.265 72.9596 180.06 71.6885 180.167 70.0735C180.213 69.3856 179.907 68.8024 179.25 68.4734C178.547 68.1295 178.027 68.5033 177.492 68.952C176.866 69.4903 176.606 70.3726 175.689 70.8212C175.383 68.3837 175.062 66.0808 174.833 63.7778C174.711 62.6563 174.405 62.4619 173.351 63.0451C169.698 65.0639 165.832 65.2882 161.935 63.9274C160.667 63.4788 160.269 63.5087 160.33 64.9293C160.392 67.1874 160.33 69.4305 160.33 71.6736ZM141.136 85.8202C135.772 85.7753 131.279 89.783 131.233 94.6879C131.187 99.3686 135.695 103.645 140.739 103.69C146.118 103.75 150.641 99.5032 150.748 94.3141C150.825 89.9774 146.179 85.865 141.136 85.8202ZM168.69 93.4617C167.926 95.0468 167.238 96.5123 166.504 97.9629C165.878 99.2041 165.098 99.4434 164.12 98.5611C161.889 96.5871 159.902 94.4337 158.726 91.6523C158.573 91.2934 158.756 90.4111 157.962 90.6952C157.488 90.8597 157.167 91.5326 157.457 92.1009C158.848 94.987 159.459 98.2769 162.103 100.505C163.142 101.387 164.075 102.449 164.243 103.84C164.365 104.887 164.9 104.961 165.756 104.961C170.631 104.946 175.292 103.974 179.769 102.09C180.579 101.746 180.763 101.298 180.686 100.49C180.411 97.1255 180.213 93.7757 180.747 90.4111C180.809 90.0223 181.099 89.3942 180.472 89.2746C179.937 89.1699 179.815 89.783 179.617 90.1718C178.776 91.8616 177.936 93.5514 177.11 95.2562C176.713 96.0936 176.285 96.1834 175.689 95.4656C174.94 94.5534 174.176 93.6561 173.32 92.6243C172.877 93.9552 172.847 95.1964 172.678 96.3927C172.571 97.1105 172.877 98.262 172.174 98.4265C171.303 98.6358 171.165 97.3946 170.692 96.8114C169.912 95.8544 169.683 94.5534 168.69 93.4617ZM171.288 96.1385C172.067 95.3459 171.975 94.9272 171.991 94.5534C172.098 91.9364 172.709 89.5886 175.124 88.0035C176.193 87.3006 176.82 86.4183 175.368 85.3865C175.139 85.222 175.001 84.7734 175.001 84.4444C174.986 83.3677 174.619 83.5172 173.84 83.9509C170.356 85.8949 166.779 86.2389 163.142 84.3098C162.76 84.1154 162.409 83.5471 161.981 83.8163C161.522 84.1154 161.828 84.7285 161.767 85.2071C161.706 85.7155 162.027 86.0295 162.348 86.3585C163.142 87.1212 163.891 87.9586 164.747 88.6315C167.391 90.6653 170.738 92.0411 171.288 96.1385ZM160.621 85.9248C159.322 87.4053 158.909 88.7512 159.337 90.3363C160.132 93.357 162.225 95.4805 164.609 97.3946C165.19 97.8582 165.435 97.4395 165.649 97.0507C166.474 95.5852 167.269 94.0898 168.109 92.6243C168.384 92.1607 168.277 91.8766 167.819 91.6971C164.778 90.5307 162.607 88.3175 160.621 85.9248ZM177.416 87.4651C177.324 87.495 177.202 87.495 177.141 87.5399C175.979 88.5717 174.482 89.4391 173.794 90.7102C173.336 91.5625 174.65 92.6691 175.353 93.5514C175.445 93.6711 175.551 93.7757 175.643 93.8954C176.086 94.5384 176.438 94.344 176.728 93.7757C177.446 92.3551 178.18 90.9494 178.837 89.4989C179.173 88.811 178.211 87.51 177.416 87.4651Z" fill="#101223"/>
<path d="M167.223 134.705C155.226 134.989 143.23 135.273 131.218 135.557C129.995 135.587 128.803 135.482 127.596 135.213C125.135 134.675 123.103 133.673 122.385 131.056C121.575 128.065 122.216 125.448 124.555 123.325C126.878 121.216 129.781 120.633 132.838 120.543C137.392 120.424 141.946 120.319 146.5 120.14C165.282 119.437 184.048 118.704 202.83 118.031C205.963 117.926 209.111 117.702 212.229 118.24C215.637 118.839 217.654 120.738 218.219 123.729C218.8 126.869 217.425 130.069 214.689 131.684C212.748 132.836 210.655 133.449 208.362 133.509C194.639 133.852 180.931 134.226 167.207 134.585C167.223 134.63 167.223 134.675 167.223 134.705ZM131.034 134.241C132.089 134.196 132.945 134.137 133.8 134.107C145.644 133.808 157.503 133.538 169.362 133.239C182.123 132.925 194.884 132.596 207.644 132.267C210.273 132.207 212.825 131.893 214.857 130.054C216.814 128.29 217.761 126.136 217.043 123.504C216.37 121.037 214.552 119.855 212.122 119.482C210.426 119.227 208.699 119.168 206.972 119.227C201.852 119.407 196.748 119.601 191.628 119.736C174.161 120.169 156.693 120.977 139.226 121.635C136.444 121.74 133.663 121.874 130.881 122.099C128.818 122.278 126.923 122.996 125.41 124.431C123.729 126.031 123.103 128.02 123.577 130.278C124.035 132.387 125.517 133.359 127.596 133.793C128.818 134.062 130.026 134.047 131.034 134.241Z" fill="#101223"/>
<path d="M167.07 158.318C155.073 158.377 143.062 158.422 131.065 158.482C129.842 158.482 128.65 158.362 127.458 158.078C125.013 157.495 122.996 156.448 122.339 153.816C121.59 150.811 122.293 148.209 124.662 146.13C127.03 144.066 129.934 143.543 132.991 143.513C137.545 143.483 142.114 143.453 146.668 143.378C165.45 143.049 184.232 142.661 203.029 142.361C206.162 142.317 209.325 142.152 212.428 142.75C215.82 143.408 217.807 145.352 218.311 148.358C218.831 151.498 217.394 154.684 214.628 156.239C212.672 157.345 210.563 157.929 208.271 157.929C194.547 158.003 180.824 158.108 167.101 158.213C167.07 158.243 167.07 158.273 167.07 158.318ZM130.882 157.151C131.936 157.121 132.792 157.076 133.648 157.076C145.507 157.017 157.35 156.957 169.209 156.897C181.97 156.822 194.746 156.747 207.507 156.673C210.135 156.658 212.703 156.403 214.766 154.609C216.753 152.874 217.746 150.751 217.073 148.104C216.447 145.621 214.659 144.41 212.244 143.991C210.548 143.692 208.821 143.618 207.094 143.648C201.975 143.722 196.87 143.827 191.751 143.857C174.268 143.947 156.8 144.425 139.333 144.754C136.551 144.799 133.77 144.874 130.989 145.068C128.925 145.203 127.015 145.876 125.472 147.296C123.76 148.867 123.088 150.84 123.531 153.099C123.943 155.222 125.411 156.209 127.489 156.688C128.681 156.927 129.888 156.927 130.882 157.151Z" fill="#101223"/>
<path d="M76.782 38.7746C75.5595 38.7596 74.3216 37.5184 74.3674 36.352C74.4133 35.1258 75.4831 34.1089 76.7362 34.1089C78.0505 34.1089 79.1508 35.1856 79.1202 36.4716C79.1049 37.6231 77.9129 38.7895 76.782 38.7746Z" fill="#101223"/>
<path d="M84.7906 32.6582C86.0743 32.6732 87.1899 33.8246 87.1441 35.0808C87.0982 36.2472 85.9521 37.3239 84.7601 37.3389C83.5833 37.3538 82.4524 36.2472 82.4372 35.0509C82.4066 33.7499 83.4916 32.6433 84.7906 32.6582Z" fill="#101223"/>
<path d="M69.1721 39.8961C67.9189 39.911 66.7269 38.7446 66.7728 37.5333C66.8033 36.3221 67.8578 35.2902 69.0957 35.2753C70.3947 35.2454 71.495 36.3221 71.495 37.6081C71.495 38.7745 70.3488 39.8811 69.1721 39.8961Z" fill="#101223"/>
<path d="M164.151 149.18C164.258 149.165 164.41 149.165 164.533 149.121C164.93 148.986 165.343 148.328 165.694 148.777C166.122 149.315 165.373 149.614 165.037 149.868C164.288 150.452 164.395 150.87 165.175 151.274C165.389 151.394 165.587 151.558 165.771 151.723C166.092 152.007 166.642 152.261 166.26 152.784C165.893 153.293 165.434 152.979 165.068 152.725C164.441 152.291 163.906 151.962 163.845 153.143C163.83 153.547 163.539 153.831 163.142 153.741C162.149 153.532 162.989 152.725 162.699 152.276C162.424 152.141 162.21 152.261 161.981 152.366C161.568 152.56 161.125 152.859 160.819 152.276C160.575 151.812 160.987 151.543 161.308 151.319C162.042 150.81 162.5 150.317 161.385 149.734C161.14 149.599 161.003 149.345 161.155 149.106C161.323 148.851 161.614 148.926 161.828 149.076C162.775 149.719 163.157 149.42 163.203 148.358C163.218 147.969 163.05 147.251 163.662 147.296C164.258 147.341 163.921 148.014 163.967 148.418C163.983 148.702 163.891 148.956 164.151 149.18Z" fill="#101223"/>
<path d="M190.375 147.132C190.833 147.326 190.741 147.64 190.696 147.924C190.573 148.881 190.68 149.494 191.826 148.702C192.025 148.567 192.285 148.403 192.499 148.657C192.774 148.986 192.484 149.24 192.254 149.39C190.955 150.212 191.185 150.885 192.392 151.573C192.789 151.797 193.401 152.126 193.034 152.725C192.636 153.353 192.163 152.829 191.735 152.62C191.429 152.47 191.139 152.276 190.864 152.126C190.237 152.545 191.032 153.667 190.054 153.682C188.969 153.712 189.748 152.62 189.259 152.126C189.076 152.186 188.831 152.231 188.632 152.351C188.25 152.56 187.884 152.725 187.593 152.261C187.349 151.872 187.654 151.588 187.929 151.394C188.724 150.825 189.29 150.287 188.036 149.599C187.914 149.539 187.823 149.21 187.884 149.091C188.036 148.836 188.312 148.881 188.541 149.031C189.824 149.913 189.947 149.106 189.947 148.119C189.947 147.7 189.993 147.326 190.375 147.132Z" fill="#101223"/>
<path d="M183.743 149.33C183.682 149.435 183.666 149.554 183.59 149.599C181.878 150.646 182.566 151.424 183.85 152.186C184.186 152.381 184.537 152.74 184.155 153.158C183.804 153.562 183.407 153.323 183.07 153.098C182.367 152.605 181.725 152.186 181.71 153.592C181.71 153.921 181.389 154.085 181.053 154.026C180.763 153.981 180.579 153.771 180.625 153.502C180.747 152.575 180.503 152.246 179.601 152.814C179.311 152.994 179.005 152.979 178.791 152.68C178.547 152.336 178.654 152.007 178.975 151.767C179.785 151.184 180.472 150.616 179.143 149.838C178.99 149.749 178.929 149.45 179.173 149.345C179.326 149.27 179.586 149.285 179.723 149.375C180.87 150.138 181.099 149.524 181.129 148.522C181.145 148.208 180.992 147.7 181.466 147.67C182.016 147.625 181.863 148.134 181.832 148.448C181.741 149.614 182.199 149.599 183.024 149.031C183.315 148.837 183.712 148.747 183.743 149.33Z" fill="#101223"/>
<path d="M170.371 149.106C171.181 148.687 171.563 149.495 172.19 149.435C172.51 148.971 172.465 148.403 172.587 147.88C172.648 147.596 172.648 147.207 173.045 147.237C173.443 147.267 173.427 147.655 173.382 147.94C173.183 149.001 173.382 149.45 174.467 148.687C174.665 148.553 174.956 148.403 175.154 148.642C175.414 148.971 175.108 149.226 174.894 149.375C173.351 150.332 174.008 150.99 175.154 151.648C175.552 151.872 175.949 152.231 175.643 152.74C175.277 153.323 174.833 152.889 174.482 152.68C173.855 152.291 173.305 151.932 173.229 153.099C173.198 153.487 172.954 153.742 172.526 153.697C172.037 153.652 172.021 153.293 172.037 152.934C172.037 152.695 172.037 152.456 172.037 152.231C171.563 152.067 171.303 152.381 170.998 152.471C170.692 152.56 170.386 152.605 170.218 152.246C170.096 152.007 170.126 151.693 170.356 151.573C171.777 150.811 171.364 149.958 170.371 149.106Z" fill="#101223"/>
<path d="M146.347 152.097C145.858 152.59 146.515 153.667 145.537 153.667C144.422 153.667 145.262 152.605 144.834 152.141C144.498 152.052 144.238 152.351 143.932 152.47C143.627 152.59 143.336 152.605 143.123 152.321C142.893 152.007 143.046 151.708 143.291 151.543C144.544 150.736 144.559 149.943 143.138 149.255C143.336 149.121 145.934 147.356 146.103 147.237C145.812 149.166 146.775 149.255 148.273 148.418C147.493 149.853 147.57 150.885 148.395 151.947C148.594 152.216 148.701 152.485 148.517 152.755C148.257 153.143 147.921 153.009 147.585 152.829C147.172 152.59 146.76 152.336 146.347 152.097Z" fill="#101223"/>
<path d="M155.501 152.127C155.073 152.71 155.669 153.652 154.736 153.697C153.606 153.742 154.461 152.62 153.926 152.171C153.743 152.246 153.514 152.306 153.3 152.411C152.948 152.575 152.597 152.62 152.368 152.261C152.123 151.872 152.383 151.558 152.673 151.379C153.636 150.796 153.835 150.242 152.719 149.599C152.536 149.495 152.49 149.225 152.643 149.091C152.765 148.986 153.071 148.956 153.178 149.031C154.4 149.928 154.568 149.166 154.66 148.179C154.691 147.805 154.629 147.222 155.149 147.251C155.745 147.296 155.439 147.85 155.409 148.209C155.332 149.061 155.577 149.36 156.402 148.807C156.677 148.627 157.075 148.313 157.304 148.762C157.487 149.121 157.075 149.405 156.784 149.569C155.562 150.302 155.913 150.885 156.922 151.454C157.136 151.573 157.334 151.738 157.518 151.917C157.823 152.186 157.9 152.515 157.64 152.844C157.396 153.158 157.09 152.994 156.83 152.859C156.402 152.65 155.99 152.396 155.501 152.127Z" fill="#101223"/>
<path d="M164.548 81.6178C161.446 80.3616 160.224 76.1595 162.699 74.694C164.365 73.7071 165.129 72.3762 166.077 71.0153C166.245 70.7761 166.367 70.477 166.764 70.5667C167.085 71.0452 166.657 71.4041 166.52 71.7929C166.321 72.3762 165.863 72.9444 166.596 73.5276C167.223 74.0211 167.727 73.9015 168.384 73.5725C169.928 72.8098 171.456 73.0192 172.77 74.0959C174.085 75.1576 174.497 76.6082 174.161 78.2382C174.1 78.5672 173.962 78.8961 173.809 79.2102C173.565 79.7037 173.244 80.3916 172.694 80.2869C171.96 80.1523 172.48 79.3747 172.358 78.8961C172.281 78.612 172.312 78.298 172.327 78.0138C172.403 76.8773 172.235 76.025 170.722 76.5035C170.585 76.5484 170.401 76.5484 170.279 76.4885C168.155 75.3969 166.443 77.0119 164.533 77.326C163.922 77.4306 163.968 77.9839 164.029 78.4027C164.197 79.4644 164.38 80.5261 164.548 81.6178Z" fill="#101223"/>
<path d="M165.74 77.7748C167.437 78.7468 168.797 79.4197 170.187 78.1187C170.325 77.9991 170.585 78.044 170.722 78.2234C170.951 78.5374 170.753 78.7767 170.554 79.016C169.423 80.5263 167.07 80.1076 165.74 77.7748Z" fill="#101223"/>
<path d="M164.38 70.0286C164.258 70.4772 164.64 71.1801 163.83 71.195C163.203 71.21 163.203 70.6268 163.28 70.2081C163.402 69.6248 163.096 68.593 163.769 68.5481C164.67 68.4883 164.166 69.5202 164.38 70.0286Z" fill="#101223"/>
<path d="M170.202 69.3706C170.401 68.9369 170.11 68.0397 170.844 68.1593C171.501 68.264 171.211 69.1612 171.272 69.7145C171.318 70.1333 171.348 70.7613 170.676 70.6417C170.019 70.5071 170.263 69.8491 170.202 69.3706Z" fill="#101223"/>
<path d="M173.244 67.6807C172.526 67.2919 172.144 66.5442 171.273 66.4395C171.089 66.4246 170.952 66.2002 171.013 65.9909C171.089 65.6918 171.349 65.632 171.609 65.6918C172.679 65.9161 173.29 66.5442 173.244 67.6807Z" fill="#101223"/>
<path d="M162.042 68.5779C161.736 67.8153 162.195 67.3667 162.516 66.9031C162.76 66.5442 163.158 66.4545 163.586 66.5143C163.815 66.5442 163.968 66.6937 163.968 66.9031C163.952 67.3368 163.555 67.4414 163.234 67.5461C162.699 67.6957 162.669 68.3387 162.042 68.5779Z" fill="#101223"/>
<path d="M141.564 87.3902C142.144 87.5397 142.297 88.0631 142.404 88.5118C142.649 89.5137 142.893 90.5455 142.786 91.5923C142.679 92.7288 143.031 93.3419 144.314 93.4017C145.491 93.4616 146.561 93.97 147.6 94.4784C147.906 94.628 148.288 94.7775 148.288 95.1962C148.288 95.6748 147.89 95.8991 147.493 95.9739C146.301 96.1982 145.109 96.4972 143.917 96.4823C142.786 96.4673 142.435 96.886 142.328 97.888C142.205 98.9647 141.9 100.026 141.396 101.013C141.197 101.402 141.029 101.911 140.479 101.851C139.959 101.791 139.76 101.298 139.638 100.894C139.287 99.7572 139.088 98.5759 139.164 97.3795C139.225 96.6019 138.935 96.243 138.11 96.1084C136.918 95.914 135.711 95.7346 134.595 95.2112C134.152 95.0018 133.571 94.8373 133.647 94.2093C133.724 93.6261 134.274 93.5064 134.763 93.3569C135.925 92.998 137.147 92.9083 138.354 92.8484C139.103 92.8185 139.439 92.5494 139.516 91.8166C139.669 90.5306 140.097 89.3043 140.677 88.1529C140.861 87.794 141.075 87.4351 141.564 87.3902Z" fill="#101223"/>
<path d="M172.847 99.8171C173.718 99.9368 174.085 100.445 174.039 101.148C174.008 101.836 173.672 102.389 172.847 102.389C171.96 102.374 171.639 101.821 171.67 101.028C171.716 100.251 172.22 99.9218 172.847 99.8171Z" fill="#101223"/>
<path d="M149.938 127.108C151.451 127.108 152.979 127.093 154.492 127.123C154.844 127.123 155.455 126.959 155.455 127.512C155.455 128.05 154.844 127.916 154.477 127.946C152.765 128.08 151.054 128.185 149.327 128.26C143.978 128.529 138.614 128.783 133.265 129.037C132.914 129.052 132.562 129.037 132.195 129.037C131.828 129.037 131.401 129.007 131.355 128.589C131.309 128.065 131.767 127.961 132.18 127.946C134.304 127.841 136.428 127.677 138.537 127.647C142.327 127.602 146.117 127.632 149.907 127.632C149.938 127.452 149.938 127.288 149.938 127.108Z" fill="#101223"/>
<path d="M191.246 126.45C191.002 126.989 190.558 126.884 190.161 126.914C184.965 127.183 179.769 127.452 174.573 127.707C174.42 127.722 174.268 127.722 174.115 127.707C173.61 127.632 172.785 127.916 172.785 127.153C172.785 126.376 173.61 126.615 174.115 126.6C179.265 126.435 184.415 126.286 189.565 126.151C190.13 126.136 190.772 125.942 191.246 126.45Z" fill="#101223"/>
<path d="M204.466 126.764C203.06 127.108 201.623 126.869 200.202 126.914C198.995 126.959 197.772 126.929 196.565 126.914C196.167 126.914 195.694 126.974 195.739 126.346C195.77 125.867 196.167 125.837 196.519 125.852C197.879 125.912 199.239 125.972 200.614 126.062C201.913 126.151 203.197 126.271 204.496 126.376C204.481 126.495 204.481 126.63 204.466 126.764Z" fill="#101223"/>
<path d="M167.635 127.213C165.878 127.662 164.044 127.706 162.225 127.841C161.935 127.856 161.645 127.632 161.629 127.288C161.614 126.869 161.935 126.645 162.317 126.645C164.059 126.615 165.801 126.63 167.544 126.63C167.574 126.809 167.605 127.019 167.635 127.213Z" fill="#101223"/>
<path d="M242.977 162.071C242.962 147.984 242.977 133.912 242.962 119.826C242.931 94.6879 242.901 69.55 242.855 44.4122C242.855 40.7485 242.855 37.0698 242.839 33.406C242.839 31.7012 242.549 30.0413 241.922 28.4562C240.73 25.5102 238.194 24.4335 235.244 24.0298C232.035 23.6111 228.871 24.1195 225.723 24.598C215.912 26.0635 206.116 27.544 196.305 29.0245C186.341 30.5199 176.392 32.0153 166.428 33.5256C154.875 35.2753 143.321 37.0398 131.768 38.7895C124.769 39.8512 117.754 40.8681 110.755 41.9298C110.159 42.0196 109.563 42.1541 108.967 42.2887C103.985 43.4402 101.479 46.3413 101.142 51.3808C100.776 56.8839 101.219 62.3721 101.295 67.8602C101.372 73.9466 101.677 80.0478 101.861 86.1341C102.075 93.2672 102.258 100.4 102.503 107.533C102.503 107.533 103.756 174.782 103.893 183.111C104.031 191.441 110.801 190.349 110.801 190.349L139.134 191.232C152.43 191.725 165.725 192.278 179.021 192.802C182.964 192.951 186.906 193.116 190.849 193.265L238.346 194.671C238.346 194.671 243.023 195.269 243.023 190.977L242.977 162.071ZM237.643 193.639C232.83 193.549 188.496 191.994 188.496 191.994C177.11 191.59 165.741 191.202 154.355 190.798L110.816 189.138C110.816 189.138 106.231 190.02 105.956 183.111C105.681 176.203 103.374 107.264 103.374 107.264C103.083 95.9739 102.762 84.6836 102.579 73.3783C102.472 66.3947 102.243 59.4112 102.319 52.4276C102.335 51.0219 102.655 49.6611 103.099 48.3601C104 45.7431 105.911 44.1281 108.677 43.6645C116.119 42.4383 123.562 41.2719 131.004 40.1204C143.199 38.2362 155.41 36.3819 167.605 34.5425C179.907 32.6882 192.225 30.8788 204.527 29.0394C212.825 27.7982 221.123 26.5122 229.437 25.3009C231.851 24.942 234.297 24.9121 236.681 25.5252C239.37 26.2131 241.051 28.0674 241.296 30.789C241.495 33.1069 241.571 35.4398 241.586 37.7576C241.632 53.5791 241.632 69.4005 241.647 85.207C241.663 93.9402 241.632 102.658 241.724 111.392C241.922 128.544 241.922 145.696 241.968 162.849L242.06 190.753C242.091 190.738 242.457 193.729 237.643 193.639Z" fill="#101223"/>
<path d="M255.875 205.109L89.3901 197.826C88.0299 197.677 86.6545 197.707 85.2944 197.707C84.408 197.707 84.0718 197.422 84.0718 196.495C84.1177 189.407 84.1024 182.319 84.1177 175.216C84.1177 174.528 84.1482 173.825 84.1482 173.137C84.1482 142.496 84.1482 111.84 84.1482 81.1992C84.1482 68.3536 84.133 55.5081 84.0718 42.6775C84.0718 41.4662 84.3163 41.0176 85.6612 40.8232C96.2823 39.2829 106.873 37.608 117.479 35.993C128.085 34.3779 138.691 32.7928 149.296 31.1778C161.507 29.3235 173.702 27.4542 185.913 25.5999C198.062 23.7605 210.227 21.9361 222.376 20.0968C233.624 18.392 244.887 16.6573 256.135 14.9376C257.434 14.7432 258.748 14.6086 260.032 14.3544C260.842 14.1899 261.193 14.3993 261.117 15.2217C261.101 15.461 261.117 15.7152 261.117 15.9694C261.101 41.4064 261.086 66.8433 261.071 92.2802C261.071 99.4731 261.04 106.666 260.994 113.844C260.903 129.606 260.842 145.367 260.689 161.144C260.566 174.528 260.322 187.912 260.139 201.281C260.062 205.647 255.875 205.109 255.875 205.109ZM253.353 206.769C266.221 207.935 265.518 201.176 265.518 201.176L265.457 199.157C265.457 134.795 265.426 70.4323 265.518 6.06984C265.518 2.12196 262.813 -0.56978 258.457 0.103154C250.557 1.32939 242.671 2.61544 234.785 3.88654C223.4 5.71094 212.015 7.56525 200.629 9.38965C186.845 11.6029 173.045 13.7862 159.26 15.9994C147.722 17.8537 136.184 19.708 124.646 21.5473C106.414 24.4484 88.1675 27.3346 69.9358 30.2207C66.4361 30.774 63.5325 32.09 62.3711 35.7238C61.7598 37.6379 61.5458 39.5969 61.5305 41.5858C61.4847 47.8516 61.4847 54.0874 61.4236 60.3382C61.3166 72.8249 61.1638 85.3116 61.0568 97.7983C60.9345 112.513 60.8275 127.243 60.7053 141.958C60.6594 148.253 60.5983 154.549 60.5066 160.845C60.3691 170.056 60.1704 179.283 60.3996 188.495C60.5372 194.103 63.2574 196.884 68.9271 197.736C69.7218 197.856 70.5318 197.946 71.3417 198.021C77.3476 198.499 83.3688 198.634 89.4053 198.708C89.4053 198.708 236.1 205.199 253.353 206.769ZM78.0659 80.0926C78.0353 90.71 78.0506 101.312 78.0506 111.93C78.0506 114.502 78.0506 117.089 78.0506 119.661C78.0201 119.661 77.9895 119.661 77.9589 119.661C77.9589 145.143 77.9589 170.625 77.9742 196.106C77.9742 197.078 77.7755 197.393 76.7058 197.318C73.8786 197.123 71.0514 197.034 68.2394 196.57C64.6023 195.972 62.4475 193.953 61.7598 190.424C61.5764 189.497 61.4236 188.555 61.4236 187.628C61.4847 178.506 61.5917 169.383 61.6986 160.276C61.7598 155.028 61.8362 149.764 61.882 144.515C62.0043 130.787 62.0501 117.059 62.2488 103.331C62.4627 89.0052 62.5239 74.6792 62.585 60.3682C62.6003 55.4184 62.7378 50.4685 62.8142 45.5038C62.8295 44.8608 62.7378 44.2776 63.7159 44.1131C68.163 43.3953 72.5949 42.6176 77.0267 41.7952C78.0201 41.6157 78.2646 41.8251 78.2646 42.7672C78.1882 55.209 78.0965 67.6508 78.0659 80.0926ZM81.8865 197.542C79.1662 197.467 79.1357 197.527 79.1357 195.942C79.1815 170.281 79.2426 144.605 79.2732 118.943C79.2732 117.852 79.6553 117.612 80.6639 117.657C83.4147 117.747 82.9257 117.373 82.9409 119.826C82.9562 132.462 82.9562 145.098 82.9562 157.734C82.9562 170.475 82.9562 183.201 82.9409 195.942C82.9409 196.63 83.323 197.572 81.8865 197.542ZM83.2466 42.2737C83.1855 52.5173 83.1091 62.7608 83.0326 73.0044C83.0174 75.7709 82.9562 78.5523 83.0479 81.3188C83.0785 82.56 82.834 83.0834 81.4127 83.0087C78.8912 82.8741 79.2579 83.1732 79.2579 80.8104C79.2426 74.6194 79.2579 68.4284 79.2579 62.2374C79.2274 62.2374 79.1815 62.2374 79.1509 62.2374C79.1509 55.9567 79.1357 49.661 79.1662 43.3803C79.1662 42.7821 78.8147 41.8699 79.5636 41.6456C80.6486 41.3316 81.8406 41.1372 83.0021 41.3316C83.3536 41.4064 83.2466 41.9447 83.2466 42.2737ZM258.442 13.6815C245.437 15.6405 232.432 17.5695 219.427 19.5285C207.98 21.2482 196.534 23.0278 185.072 24.7475C168.858 27.185 152.643 29.5926 136.444 32.0301C121.085 34.348 105.742 36.7108 90.3834 39.0436C81.7795 40.3596 73.1756 41.6606 64.5717 42.9616C62.7378 43.2308 62.6767 43.1859 62.7225 41.3615C62.7378 40.4194 62.7837 39.4773 62.8906 38.5501C63.3644 34.5275 65.5039 32.2096 69.569 31.5367C82.8493 29.3683 96.1448 27.2747 109.425 25.1363C119.511 23.5063 129.598 21.8614 139.684 20.2463C150.427 18.5266 161.171 16.8368 171.899 15.1171C183.483 13.2777 195.082 11.4085 206.666 9.5691C218.25 7.72974 229.849 5.87544 241.433 4.05104C245.575 3.39306 249.731 2.73507 253.873 2.12196C255.63 1.86774 257.403 1.80792 259.145 2.24159C260.383 2.54067 261.071 3.19865 261.101 4.51461C261.147 6.44369 261.285 8.37277 261.346 9.4046C261.346 13.2029 261.361 13.2328 258.442 13.6815Z" fill="#101223"/>
<path d="M149.419 180.061C149.419 180.061 149.48 181.511 152.139 181.556C158.527 181.646 164.9 181.496 171.288 181.466C171.7 181.466 172.098 181.466 172.51 181.466C172.51 181.466 176.209 181.586 179.601 181.586C182.994 181.586 182.811 179.477 182.811 179.477L182.75 173.017C182.856 171.941 182.826 170.834 182.75 169.742C182.612 167.783 181.267 166.542 179.265 166.527C170.188 166.512 161.125 166.527 152.047 166.527C152.047 166.527 149.281 166.602 149.434 169.443C149.556 172.299 149.419 180.061 149.419 180.061ZM171.12 171.103C169.301 172.299 167.972 173.885 166.948 175.739C166.657 176.262 166.489 176.831 166.214 177.369C165.725 178.326 165.037 178.476 164.35 177.608C163.188 176.173 162.088 174.692 160.988 173.197C160.667 172.763 160.254 172.165 160.758 171.716C161.37 171.163 161.736 171.926 162.088 172.255C163.035 173.212 163.937 174.229 164.976 175.365C166.138 173.765 167.116 172.12 168.766 171.058C169.316 170.699 169.851 170.311 170.447 170.056C170.982 169.832 171.67 168.995 172.159 169.742C172.633 170.535 171.609 170.789 171.12 171.103Z" fill="#101223"/>
<path d="M222.53 223.742H223.767L232.234 209.222C232.234 209.222 238.622 202.836 243.588 201.086C248.555 199.337 257.022 203.195 257.022 203.195L259.467 201.595L258.672 199.681C258.626 196.675 255.6 194.985 247.669 194.402C239.722 193.834 233.472 201.371 233.472 201.371L237.873 189.467C244.093 175.575 244.093 159.35 244.093 159.35C231.424 163.133 224.532 188.929 224.532 188.929L202.326 188.525C202.326 188.525 195.786 180.824 191.858 182.857C191.858 182.857 189.963 183.65 191.614 186.985C193.264 190.32 197.665 198.44 197.833 200.623C198.002 202.806 200.737 209.207 201.669 209.521C202.602 209.835 211.053 213.753 211.511 215.442C211.97 217.132 212.734 218.239 212.734 218.239C212.734 218.239 204.909 210.866 199.239 216.504C193.57 222.142 192.194 228.587 192.194 228.587C192.194 228.587 190.681 238.098 191.965 241.119C193.249 244.139 195.434 248.835 197.436 244.094C199.453 239.354 199.102 238.337 199.102 238.337C199.102 238.337 204.588 229.484 206.285 227.959C207.996 226.434 210.426 220.931 210.426 220.931L213.742 218.269L219.779 227.241L221.445 233.238L205.505 233.821L205.001 238.337L207.859 238.92L210.991 255.026C210.991 255.026 214.201 262.787 222.224 262.249C230.232 261.71 232.784 255.31 233.166 254.831C233.548 254.353 235.412 238.696 235.412 238.696L239.095 238.128L238.775 233.746L222.148 233.642L221.383 231.757C221.383 231.757 221.169 228.737 224.012 227.899C226.854 227.062 231.363 226.748 241.174 231.518C241.174 231.518 245.56 234.404 246.966 236.214C248.372 238.023 250.695 238.217 251.505 237.664C252.315 237.111 252.788 235.855 250.45 231.967C248.112 228.094 245.04 222.037 239.355 220.377C233.655 218.717 229.086 218.239 225.219 222.426C221.322 226.628 222.53 223.742 222.53 223.742Z" fill="white"/>
<path d="M202.8 173.9C202.8 173.9 194.96 168.95 187.854 170.057C180.748 171.163 178.302 172.674 178.302 172.674C178.302 172.674 170.34 181.243 174.956 183.8C179.556 186.357 186.952 181.96 186.952 181.96L196.443 178.73L212.749 178.67L212.519 177.519L202.8 173.9Z" fill="white"/>
<path d="M150.504 165.765L154.936 163.701L155.532 164.24L154.065 166.558L155.028 167.903L158.787 168.696V170.087L157.427 170.775L158.634 171.163C158.634 171.163 160.101 172.734 157.671 172.375C155.226 172.016 155.807 172.135 155.807 172.135L156.449 172.569C156.449 172.569 156.907 173.646 155.501 173.541C154.08 173.422 150.947 172.554 150.947 172.554L137.682 165.466L136.674 165.331L126.725 160.038L123.775 175.59L133.097 197.767L137.866 212.751C143.413 228.139 139.501 243.855 139.501 243.855L121.819 237.724C118.916 217.282 113.842 215.697 113.842 215.697C113.918 226.524 109.211 244.977 109.211 244.977L94.7391 238.023C97.4593 222.426 93.9138 206.59 93.9138 206.59C89.6654 196.541 91.5298 182.544 91.5298 182.544V178.371L90.9338 164.658C82.4216 159.679 86.8534 149.181 86.8534 149.181L100.348 134.152L101.922 131.176L102.671 130.623L98.957 120.544L103.267 108.296L111.534 107.938L117.128 116.102L118.106 117.194C118.106 117.194 117.54 118.002 117.357 122.009C117.189 126.017 112.879 128.858 112.879 128.858L114.148 131.191L131.432 151.215L150.504 165.765Z" fill="white"/>
<path d="M111.228 112.977C111.549 112.693 111.687 112.259 111.213 111.975C110.785 111.721 110.418 111.975 110.174 112.319C109.501 113.276 109.532 114.293 110.052 115.34C110.495 114.532 110.51 113.62 111.228 112.977Z" fill="#101223"/>
<path d="M113.291 116.402C113.566 116.447 113.765 116.028 113.612 115.714C113.276 115.071 113.001 114.368 112.313 114.009C111.931 114.099 111.87 114.383 111.992 114.592C112.329 115.25 112.313 116.222 113.291 116.402Z" fill="#101223"/>
<path d="M259.619 198.141C255.05 193.011 249.304 192.937 243.221 194.537C240.195 195.329 237.582 196.929 235.259 199.008C234.801 198.544 235.198 198.2 235.32 197.901C236.023 195.987 236.803 194.103 237.506 192.204C237.674 191.74 237.842 191.307 238.056 190.903C238.377 190.11 238.713 189.213 239.049 188.241C239.034 188.241 239.034 188.256 239.019 188.256C239.783 185.893 240.516 183.665 241.342 181.138C241.342 181.168 241.357 181.183 241.357 181.213C242.335 178.057 243.053 175.545 243.053 175.545V175.53C243.466 172.704 244.23 169.922 244.566 167.081C244.872 164.464 245.04 161.847 245.116 159.23C245.147 158.378 244.811 157.899 243.97 158.408L240.47 160.77C233.303 166.318 229.009 173.736 226.197 182.08C225.586 183.859 224.974 185.654 224.638 187.508C224.562 187.912 224.455 188.405 223.996 188.405C222.636 188.405 221.276 188.331 219.916 188.196C219.503 188.151 219.564 187.658 219.503 187.329C219.198 185.818 218.617 184.383 218.006 182.977C216.477 179.448 213.895 177.055 210.196 175.754C206.101 174.319 202.081 172.749 198.093 171.014C193.768 169.13 188.939 169.01 184.201 169.713C176.102 171.014 173.504 178.416 173.504 178.416C171.899 182.663 174.146 185.774 178.791 185.699C181.298 185.654 183.529 184.712 185.638 183.501C188.801 181.706 192.041 180.136 195.694 179.478C199.178 178.85 202.295 179.254 204.985 181.721C206.055 182.693 206.941 183.71 207.063 185.205C207.155 186.297 207.95 187.03 208.897 188.002C206.62 188.002 204.71 187.987 202.8 188.002C202.081 188.017 201.715 187.538 201.317 187.104C200.11 185.833 198.918 184.562 197.42 183.59C195.846 182.573 194.135 182.08 192.255 182.17C190.666 182.244 190.177 182.798 190.299 184.323C190.314 184.517 190.345 184.712 190.375 184.906C190.436 185.265 190.498 185.549 190.528 185.803C190.528 185.803 190.528 185.803 190.528 185.818C190.681 186.79 192.805 191.232 194.501 194.686C195.067 195.808 195.617 196.929 196.167 198.051C196.305 198.32 196.412 198.544 196.488 198.694C196.672 199.068 196.809 199.352 196.87 199.576C197.497 201.131 197.94 202.821 197.94 202.821V202.836C198.062 203.225 198.169 203.704 198.307 204.317C199.086 207.891 200.767 210.567 204.542 211.629C205.062 211.779 205.566 212.078 206.04 212.332C208.317 213.573 210.41 215.009 211.939 217.147C211.22 216.788 210.624 216.265 209.952 215.846C207.43 214.276 204.527 213.02 201.806 214.381C198.842 215.861 196.106 218.059 194.532 221.14C191.965 226.135 190.589 231.428 191.017 237.066C191.216 239.698 191.827 242.255 192.958 244.663C194.028 246.921 195.816 247.1 197.405 245.171C198.123 244.304 198.658 243.332 198.781 242.24C199.239 238.173 201.394 234.898 203.793 231.742C206.33 228.423 209.279 225.387 210.792 221.394C211.067 220.661 211.725 220.123 212.458 219.704C213.345 219.211 213.956 219.241 214.598 220.198C216.982 223.787 218.907 227.6 220.435 231.593C220.924 232.864 220.481 233.163 219.243 233.148C215.652 233.133 212.046 233.178 208.454 233.253C204.466 233.343 204.527 233.387 204.542 237.29C204.542 238.726 205 239.489 206.529 239.369C207.614 239.294 207.828 239.833 207.95 240.775C208.439 244.663 208.882 248.551 209.753 252.379C210.487 255.624 211.526 258.705 214.72 260.544C223.049 265.299 231.485 261.965 233.96 252.917C234.021 252.678 234.067 252.439 234.128 252.2C235.106 248.282 235.473 244.289 235.932 240.296C236.008 239.638 235.993 239.055 236.956 238.965C239.752 238.711 239.752 238.666 239.645 235.84C239.63 235.391 239.584 234.943 239.615 234.509C239.661 233.567 239.278 233.193 238.285 233.208C236.161 233.238 234.037 233.148 231.897 233.133C229.009 233.118 226.12 233.133 223.232 233.118C222.758 233.118 222.208 233.253 222.025 232.535C221.658 231.084 222.376 229.395 223.752 228.647C226.732 227.032 229.742 227.51 232.707 228.602C235.076 229.469 237.353 230.576 239.722 231.413C241.785 232.146 243.512 233.238 244.918 234.883C245.926 236.064 246.92 237.231 248.31 238.053C249.732 238.891 251.153 238.95 252.1 238.098C253.094 237.201 253.201 235.915 252.391 234.419C251.061 231.967 249.456 229.664 247.974 227.301C245.116 222.725 240.868 220.093 235.733 218.628C234.724 218.344 233.746 218.344 232.738 218.478C230.216 218.837 227.954 219.869 225.708 221.035C227.037 218.702 228.978 217.058 231.316 215.831C232.707 215.114 234.128 214.47 235.519 213.753C237.567 212.676 238.713 210.956 239.248 208.758C239.508 207.711 239.981 206.709 240.257 205.648C241.265 202.537 241.678 203.255 241.678 203.255C243.603 200.04 249.839 200.593 255.325 203.509C262.523 205.438 259.619 198.141 259.619 198.141ZM219.977 189.856C220.115 189.407 220.512 189.527 220.863 189.512C224.012 189.392 224.027 189.378 223.522 192.443C223.416 193.116 223.263 193.789 223.079 194.791C222.392 193.041 221.673 191.755 220.359 190.888C219.992 190.649 219.855 190.275 219.977 189.856ZM201.822 177.968C195.999 177.863 190.605 179.059 185.607 182.08C183.407 183.396 181.053 184.488 178.348 184.428C174.864 184.338 173.091 181.826 174.604 178.73C176.881 174.109 180.534 171.148 185.989 170.775C189.749 170.52 193.478 170.595 197.084 171.866C197.65 172.061 198.185 172.315 198.719 172.554C193.187 173.152 187.777 173.825 183.315 177.474C192.912 173.078 202.433 172.838 211.877 177.848C208.531 177.758 205.169 178.027 201.822 177.968ZM209.707 189.258C210.212 189.288 210.257 189.901 210.441 190.305C210.93 191.351 211.281 192.428 211.434 193.565C209.325 193.654 205.245 191.396 203.365 188.944C205.627 189.049 207.675 189.108 209.707 189.258ZM208.745 223.249C208.042 225.013 206.972 226.568 205.627 227.959C203.075 230.606 201.149 233.701 199.331 236.842C198.49 238.292 198.353 239.952 198.001 241.537C197.757 242.614 197.451 243.661 196.733 244.528C195.663 245.814 194.715 245.74 193.967 244.244C193.019 242.36 192.576 240.296 192.24 238.262C191.216 232.027 192.943 226.254 195.923 220.856C197.268 218.403 199.728 216.669 202.173 215.353C204.083 214.321 206.361 215.143 208.271 216.1C209.646 216.788 210.854 217.79 212.259 218.747C210.395 219.854 209.463 221.454 208.745 223.249ZM215.744 259.692C213.788 258.869 212.733 257.344 211.939 255.579C210.273 251.901 209.967 247.923 209.463 243.99C209.142 241.493 209.172 241.552 211.725 241.478C212.993 241.433 213.421 241.687 213.467 243.063C213.65 248.506 214.078 253.949 215.79 259.198C215.82 259.318 215.759 259.482 215.744 259.692ZM220.099 261.097C218.372 260.873 217.165 260.215 216.538 258.436C215.622 255.819 215.346 253.127 214.995 250.435C214.705 248.222 214.552 245.994 214.338 243.781C214.246 241.507 214.246 241.507 216.538 241.507C219.427 241.507 219.442 241.508 219.656 244.274C220.069 249.598 220.252 254.951 221.001 260.245C221.108 260.993 220.863 261.202 220.099 261.097ZM223.003 261.292C221.704 261.112 221.872 260.006 221.796 259.213C221.475 255.908 221.245 252.603 221.001 249.299C221.016 249.299 221.016 249.299 221.031 249.299C220.879 247.085 220.756 244.857 220.542 242.644C220.466 241.807 220.665 241.478 221.566 241.493C223.645 241.537 225.708 241.522 227.786 241.493C228.413 241.493 228.718 241.657 228.688 242.33C228.52 248.222 228.367 254.114 226.273 259.737C225.784 261.052 224.714 261.531 223.003 261.292ZM234.281 245.291C233.792 248.715 233.349 252.155 231.958 255.385C231.057 257.464 229.849 259.303 227.236 260.439C228.566 256.282 229.146 252.379 229.376 248.431C229.483 246.607 229.528 244.768 229.498 242.943C229.467 241.896 229.681 241.463 230.889 241.478C234.831 241.493 234.831 241.448 234.281 245.291ZM236.864 234.18C237.429 234.18 238.27 233.866 238.469 234.584C238.759 235.616 238.912 236.737 238.53 237.784C238.362 238.247 237.735 238.098 237.292 238.098C231.423 238.098 225.555 238.098 219.687 238.098C219.687 238.173 219.687 238.247 219.687 238.322C215.484 238.322 211.281 238.292 207.094 238.337C205.978 238.352 205.444 238.143 205.505 236.887C205.627 233.821 205.184 234.315 208.179 234.285C217.746 234.24 227.297 234.195 236.864 234.18ZM220.772 229.454C220.344 227.974 219.916 226.494 219.503 224.998C218.082 219.824 216.569 214.695 213.772 210.044C210.93 205.304 207.063 201.505 202.632 198.215C202.464 198.096 202.295 197.991 201.806 198.35C209.692 204.511 214.949 212.272 217.165 221.933C216.615 221.14 216.08 220.347 215.53 219.57C212.718 215.502 209.172 212.227 204.466 210.403C201.745 209.341 200.248 207.532 199.697 204.765C198.811 200.294 196.824 196.226 194.654 192.249C193.401 189.931 192.24 187.568 191.72 184.951C191.43 183.471 191.659 183.187 193.203 183.291C194.822 183.411 196.213 184.039 197.497 184.996C199.086 186.162 200.4 187.598 201.715 189.049C203.625 191.142 205.765 192.922 208.485 193.953C212.412 195.449 214.903 198.021 216.156 202.103C218.449 209.61 220.283 217.207 221.979 224.834C222.33 226.449 221.154 227.854 220.772 229.454ZM228.596 220.871C234.006 218.149 238.774 219.884 243.084 223.204C247.072 226.284 249.304 230.711 251.596 235.032C251.993 235.78 252.161 236.692 251.229 237.29C250.373 237.859 249.502 237.754 248.692 237.156C247.286 236.154 246.201 234.838 245.07 233.567C244.23 232.625 243.298 231.757 242.106 231.309C238.53 229.948 234.938 228.572 231.316 227.361C228.443 226.404 225.555 226.284 222.544 228.124C223.202 224.325 225.616 222.366 228.596 220.871ZM223.309 222.187C223.247 222.321 223.156 222.426 222.85 222.89C222.346 219.495 222.147 216.4 222.208 213.289C222.407 201.565 224.042 190.08 228.382 179.089C231.332 171.642 235.809 165.257 242.61 160.621C242.992 160.367 243.374 159.739 243.878 160.082C244.276 160.337 243.955 160.92 243.94 161.354C243.42 170.281 241.112 178.835 238.132 187.239C233.884 199.143 228.321 210.553 223.309 222.187ZM258.03 202.133C257.357 202.836 256.639 202.567 255.936 202.298C252.971 201.116 250.007 200.07 246.736 200.085C243.726 200.085 240.776 200.384 238.01 201.64C236.68 202.253 235.305 202.672 233.456 202.537C237.796 197.228 243.145 194.881 249.701 195.06C252.116 195.12 254.408 195.613 256.471 196.944C257.525 197.617 258.274 198.529 258.672 199.696C258.993 200.623 258.717 201.416 258.03 202.133Z" fill="#101223"/>
<path d="M158.13 170.76C159.689 170.565 159.077 169.159 158.787 168.726C158.497 168.292 155.562 167.739 155.012 167.544C154.462 167.35 154.462 166.976 155.333 165.885C156.204 164.793 156.021 163.746 155.501 163.432C154.982 163.118 153.606 163.746 152.017 164.778C150.412 165.81 150.03 164.927 150.03 164.927L136.062 154.131C136.032 154.101 136.017 154.041 135.986 153.921L132.104 144.007L129.323 138.818C126.801 133.03 121.85 130.952 115.875 130.473C115.477 130.443 115.003 130.458 114.698 130.249C114.025 129.8 113.338 129.322 114.346 128.425C116.379 126.6 117.678 124.462 117.831 121.591C117.892 120.364 117.907 118.988 118.427 117.747C118.686 117.149 118.549 116.446 117.938 116.177C116.394 115.504 115.844 114.099 115.049 112.857C114.239 111.601 113.521 110.285 112.681 109.044C112.207 108.356 112.253 107.908 112.742 107.22C113.995 105.44 113.445 103.885 111.382 103.092C109.089 102.21 106.904 102.733 104.749 103.616C103.526 104.064 100.776 105.679 100.776 105.679C93.9751 109.837 93.1957 118.66 99.1557 124.656C100.669 126.181 101.219 127.991 102.029 129.77C102.09 129.905 102.151 130.174 102.136 130.189C100.394 130.937 101.173 133.27 99.4614 134.137C93.3026 137.188 88.7027 141.793 85.5087 147.775C85.1419 148.463 84.7904 149.091 85.5851 149.749C86.1811 150.243 86.0741 150.811 85.8296 151.499C84.1486 156.359 85.4781 160.935 89.5432 164.165C90.2462 164.718 90.3837 165.256 90.2156 166.079C89.5279 169.384 88.9625 172.704 88.2137 175.994C87.908 177.309 88.1984 178.252 89.3904 178.79C91.3465 179.657 91.3771 181.003 90.888 182.798C90.1698 185.504 90.0475 188.271 90.292 191.052L90.9339 195.509C91.2854 198.26 91.6827 201.027 92.508 203.674C95.5644 213.633 95.7172 223.787 94.6322 234.015C94.1737 238.457 93.7458 242.898 93.3026 247.325C93.1193 249.179 93.8222 250.495 95.6103 251.228C96.0076 251.392 96.5578 251.527 96.6342 252.035C96.8634 253.695 97.5969 255.295 97.1996 257.015C96.8634 258.45 97.2455 259.751 97.8262 261.052C98.2541 262.009 98.9265 262.324 100.012 262.144C104.107 261.426 108.096 260.35 112.13 259.363C112.574 259.258 113.047 259.153 113.108 258.585C113.17 257.987 112.925 257.538 112.405 257.209C111.916 256.91 111.366 256.82 110.816 256.746C109.41 256.551 108.019 256.357 106.675 255.848C106.063 255.624 105.742 255.25 105.834 254.622C105.926 254.039 105.437 253.097 106.277 252.932C108.386 252.514 108.692 250.854 109.12 249.298C111.229 241.582 112.543 233.716 113.414 225.776C113.72 222.994 113.949 220.198 114.239 217.132C116.287 219.121 117.464 221.289 118.045 223.697C119.13 228.168 120.169 232.67 121.009 237.201C122.033 242.659 122.369 248.222 122.889 253.74C122.981 254.682 122.95 255.818 123.959 256.207C125.151 256.656 125.288 257.538 125.487 258.495C125.777 259.856 125.961 261.217 125.854 262.623C125.762 263.729 126.052 264.776 126.465 265.808C126.832 266.72 127.306 267.139 128.391 266.959C132.532 266.286 136.597 265.225 140.662 264.178C141.075 264.073 141.64 263.998 141.656 263.415C141.686 262.832 141.411 262.338 140.907 262.039C140.341 261.695 139.684 261.606 139.027 261.516C138.034 261.381 137.04 261.187 136.047 260.963C135.252 260.783 134.381 260.574 134.519 259.482C134.687 258.196 134.045 256.566 135.726 255.833C137.239 255.175 137.942 254.039 138.278 252.558C138.813 250.091 139.363 247.624 139.913 245.156C141.992 235.84 142.42 226.523 140.127 217.177C138.599 210.956 136.536 204.9 134.122 198.948C133.892 198.38 133.816 197.991 133.999 197.782C133.862 197.333 133.724 196.899 133.587 196.466C133.205 196.286 132.929 195.987 132.731 195.464C131.524 192.443 130.24 189.437 129.048 186.581C129.109 186.581 129.185 186.581 129.246 186.581C128.803 185.759 128.437 185.101 128.192 184.667C128.039 184.487 127.917 184.293 127.81 184.024C127.52 183.231 127.153 182.454 126.725 181.736C125.915 180.375 125.273 179.104 127.046 177.952C127.596 177.594 127.413 176.98 127.397 176.442C127.306 171.941 127.183 167.425 127.138 162.924C127.122 161.039 127.214 160.995 128.926 161.922C134.488 164.972 140.296 167.544 146.088 170.146C146.47 170.311 146.806 170.505 147.111 170.7C147.111 170.7 149.877 172.39 150.917 172.913C151.956 173.436 153.27 173.421 154.844 173.75C156.403 174.079 156.388 173.571 156.632 173.257C156.877 172.943 156.693 172.509 156.693 172.509C158.053 172.554 159.001 173.018 159.184 172.016C159.322 170.924 158.13 170.76 158.13 170.76ZM119.451 158.587C120.016 159.664 120.52 159.753 121.514 159.185C122.415 158.647 123.424 158.273 124.371 157.824C124.753 157.645 125.074 157.69 125.273 158.064C125.456 158.393 125.243 158.662 124.983 158.811C123.546 159.723 122.125 160.695 120.536 161.338C119.512 161.757 119.069 161.009 118.656 160.307C116.532 156.538 114.652 152.65 112.91 148.702C112.146 146.983 111.473 145.218 110.786 143.468C110.617 143.065 110.465 142.601 111.045 142.362C111.504 142.481 111.534 142.87 111.672 143.169C114.071 148.388 116.791 153.473 119.451 158.587ZM106.186 132.058C105.742 132.223 105.192 132.642 104.795 132.238C104.382 131.834 104.825 131.296 105.055 130.892C105.956 129.262 110.77 128.215 112.283 129.277C112.436 129.382 112.528 129.546 112.864 129.935C110.174 129.92 108.295 131.296 106.186 132.058ZM102.793 125.568C104.138 124.701 104.902 123.355 105.36 121.65C104.046 122.009 102.869 122.084 101.952 121.037C101.387 120.379 101.112 119.676 101.509 118.854C101.876 118.061 102.594 117.852 103.404 117.882C104.566 117.927 105.59 118.345 106.354 119.213C106.934 119.886 107.485 120.155 108.264 119.497C109.104 118.779 108.508 118.345 108.035 117.792C105.452 114.846 106.476 110.285 110.006 108.805C110.938 108.416 111.58 108.491 112.13 109.448C113.139 111.227 114.239 112.947 115.294 114.682C115.737 115.4 116.104 116.192 116.944 116.566C117.601 116.865 117.815 117.254 117.54 117.987C117.28 118.689 116.944 118.988 116.134 119.018C114.927 119.063 113.72 119.243 112.528 119.437C111.122 119.661 110.709 120.589 110.984 121.845C111.29 123.25 112.1 124.342 113.368 125.314C113.72 124.462 113.46 123.729 113.338 123.056C113.124 121.86 113.613 121.381 114.744 121.411C115.447 121.426 116.241 120.738 116.807 121.576C117.021 121.905 117.036 122.473 116.654 122.817C116.043 123.385 115.584 122.518 115.003 122.592C114.728 123.25 115.049 123.774 115.569 123.923C116.776 124.297 116.287 124.836 115.859 125.434C115.156 126.421 114.209 127.168 113.307 127.976C113.017 128.23 112.726 128.425 112.36 128.23C110.786 127.423 109.318 127.931 107.836 128.499C106.751 128.903 105.62 129.232 104.596 129.77C103.435 130.384 102.946 130.04 102.686 128.903C102.594 128.469 102.396 128.051 102.212 127.662C101.754 126.795 101.861 126.181 102.793 125.568ZM103.664 131.176C103.771 132.268 103.404 132.881 102.319 132.926C101.922 132.941 101.524 132.821 101.631 132.387C101.891 131.4 102.823 131.4 103.664 131.176ZM91.1173 162.056C90.8575 163.178 90.4296 163.163 89.6349 162.475C87.5871 160.71 86.1353 157.66 86.1506 154.863C86.3492 153.951 86.3187 152.904 86.6701 151.902C86.9147 151.23 87.205 151.185 87.7858 151.514C88.8249 152.097 89.9405 153.293 90.9797 152.83C91.8967 152.426 91.7744 150.811 92.187 149.749C93.3179 146.878 94.4488 144.007 96.2215 141.45C96.68 140.807 97.276 140.253 97.8415 139.685C98.0554 139.476 98.3916 139.326 98.6667 139.55C98.9418 139.76 98.8501 140.089 98.7431 140.373C98.682 140.507 98.6056 140.642 98.4986 140.747C94.892 144.545 94.189 149.48 93.0123 154.235C92.3551 156.852 91.7133 159.439 91.1173 162.056ZM103.954 255.534C103.16 255.669 102.365 255.744 101.784 255.818C101.005 255.759 100.455 255.744 99.9046 255.654C98.575 255.46 97.5511 253.919 97.872 252.633C98.0249 252.005 98.4833 252.2 98.8195 252.319C100.424 252.858 102.075 252.873 103.725 252.932C104.229 252.947 104.978 252.753 104.902 253.635C104.825 254.368 105.131 255.355 103.954 255.534ZM129.43 260.589C127.092 260.529 126.74 260.155 126.48 258.017C126.358 257.03 126.679 256.79 127.611 256.895C128.161 256.97 128.712 256.91 129.353 256.91C130.423 256.776 131.585 256.835 132.716 256.521C133.342 256.342 133.709 256.432 133.617 257.314C133.266 260.679 133.281 260.693 129.43 260.589ZM137.85 212.751C140.922 222.695 141.151 232.744 139.134 242.883C138.508 246.038 137.759 249.179 137.117 252.334C136.842 253.695 136.154 254.473 134.763 254.876C131.844 255.744 128.941 256.043 125.915 255.534C124.662 255.325 124.203 254.772 124.127 253.59C123.837 248.536 123.409 243.511 122.522 238.517C121.56 233.103 120.306 227.75 118.9 222.426C117.983 218.957 115.523 216.385 113.215 213.738C108.921 208.803 105.391 203.404 102.64 197.498C102.441 197.079 102.365 196.525 101.463 196.226C102.304 198.963 103.526 201.281 104.764 203.569C106.873 207.472 109.364 211.151 112.268 214.545C112.925 215.308 113.2 216.056 113.139 217.102C112.482 228.109 110.938 238.98 107.989 249.642C107.561 251.183 106.72 251.751 105.238 251.856C102.35 252.08 99.5836 251.706 96.9245 250.599C94.6322 249.642 94.2501 249.089 94.5099 246.622C94.999 241.941 95.4269 237.245 96.0687 232.595C97.3983 222.815 96.2827 213.244 93.8834 203.733C92.4468 198.066 91.2243 192.323 91.5757 186.417C91.6674 184.936 91.9884 183.471 92.1412 182.005C92.2634 180.824 92.7983 180.824 93.7458 181.287C98.9876 183.904 104.535 185.235 110.434 185.011C115.141 184.831 119.527 183.605 123.409 180.943C124.402 180.255 124.723 180.405 125.227 181.437C130.072 191.621 134.504 201.969 137.85 212.751ZM158.099 172.24C156.571 172.165 155.119 171.732 153.652 171.358C153.102 171.208 152.552 170.954 151.727 171.178C152.98 172.105 154.37 172.016 155.547 172.464C155.868 172.584 156.403 172.539 156.357 172.958C156.311 173.481 155.746 173.406 155.364 173.362C153.53 173.122 151.727 172.554 150.29 171.522C146.729 168.98 142.634 167.515 138.752 165.645C135.222 163.94 131.737 162.131 128.207 160.411C127.428 160.023 127.076 159.559 127.153 158.677C127.229 157.854 127.306 157.181 128.223 156.763C129.781 156.045 131.294 155.237 132.746 154.355C133.648 153.817 134.228 153.966 135.008 154.579C139.776 158.258 144.605 161.862 149.373 165.526C150.214 166.169 150.901 166.273 151.803 165.675C152.674 165.092 153.652 164.673 154.6 164.18C154.829 164.06 155.119 163.985 155.242 164.284C155.303 164.419 155.196 164.643 155.135 164.823C155.104 164.913 154.997 164.972 154.936 165.047C153.331 167.215 153.576 167.799 156.281 168.651C157.106 168.905 158.665 169.07 158.42 169.817C158.115 170.76 156.785 169.982 155.883 169.922C154.554 169.832 153.392 168.935 151.711 169.04C152.995 170.176 154.416 170.386 155.731 170.76C156.556 170.999 157.412 171.104 158.252 171.298C158.543 171.358 158.909 171.477 158.894 171.836C158.894 172.315 158.42 172.255 158.099 172.24Z" fill="#101223"/>
</svg>
