<svg width="196" height="293" viewBox="0 0 196 293" fill="none" xmlns="http://www.w3.org/2000/svg">
<rect x="17.1326" y="73.9021" width="161.715" height="219.098" rx="20" fill="#E5E5EA"/>
<rect x="10.177" y="39.9941" width="175.626" height="239.095" rx="20" fill="#D1D1D6"/>
<rect x="0.257324" width="195.334" height="265.532" rx="20" fill="#F2F2F7"/>
<path fill-rule="evenodd" clip-rule="evenodd" d="M136.795 126.305C137.282 126.305 137.557 125.747 137.262 125.36L109.814 89.457C109.578 89.1493 109.115 89.1493 108.88 89.457L91.0187 112.82C90.787 113.123 90.3327 113.129 90.0938 112.831L79.483 99.6316C79.2478 99.3389 78.8022 99.3389 78.5669 99.6316L57.8944 125.348C57.5853 125.733 57.859 126.304 58.3524 126.304H80.7098C80.7099 126.304 80.71 126.304 80.7099 126.304V126.304C80.7099 126.304 80.7099 126.305 80.71 126.305H136.795Z" fill="#D1D1D6"/>
<ellipse cx="82.3941" cy="75.2421" rx="8.42266" ry="8.51323" fill="#D1D1D6"/>
<rect x="41.4768" y="224.315" width="112.157" height="12.1721" rx="6.08605" fill="#D1D1D6"/>
<rect x="60.6042" y="201.709" width="73.9021" height="12.1721" rx="6.08605" fill="#D1D1D6"/>
</svg>
