<svg width="20" height="20" viewBox="0 0 20 20" fill="none" xmlns="http://www.w3.org/2000/svg">
<path fill-rule="evenodd" clip-rule="evenodd" d="M10 17.5V17.5C5.8575 17.5 2.5 14.1425 2.5 10V10C2.5 5.8575 5.8575 2.5 10 2.5V2.5C14.1425 2.5 17.5 5.8575 17.5 10V10C17.5 14.1425 14.1425 17.5 10 17.5Z" stroke="#9496A1" stroke-width="1.8" stroke-linecap="round" stroke-linejoin="round"/>
<path d="M10.0007 11.0417V10.8334C10.0007 10.1525 10.4215 9.78336 10.8432 9.50003C11.2548 9.22253 11.6673 8.86086 11.6673 8.19419C11.6673 7.27336 10.9215 6.52753 10.0007 6.52753C9.07982 6.52753 8.33398 7.27336 8.33398 8.19419" stroke="#9496A1" stroke-width="1.8" stroke-linecap="round" stroke-linejoin="round"/>
<path d="M9.99982 13.3333C9.88482 13.3333 9.79149 13.4267 9.79232 13.5417C9.79232 13.6567 9.88565 13.75 10.0007 13.75C10.1157 13.75 10.209 13.6567 10.209 13.5417C10.209 13.4267 10.1157 13.3333 9.99982 13.3333" stroke="#9496A1" stroke-width="1.8" stroke-linecap="round" stroke-linejoin="round"/>
</svg>
