<svg width="326" height="267" viewBox="0 0 326 267" fill="none" xmlns="http://www.w3.org/2000/svg">
<rect width="326" height="267" fill="white"/>
<path d="M153.796 0.219879C153.295 0.331146 152.226 0.509216 151.407 0.620514C149.292 0.887604 146.767 1.26599 144.925 1.6221C142.445 2.11179 140.717 2.40112 139.238 2.60144C138.488 2.71274 137.419 2.91306 136.85 3.0466C135.531 3.33594 133.461 3.71432 131.732 3.93689C130.981 4.04819 130.072 4.2485 129.73 4.38205C129.367 4.51559 128.821 4.62689 128.479 4.62689C128.138 4.62689 127.206 4.76044 126.387 4.93848C125.568 5.11655 124.112 5.42816 123.134 5.60623C116.674 6.87491 114.513 7.29779 113.422 7.56488C112.853 7.69843 111.829 7.8765 111.124 7.96555C110.442 8.05457 109.646 8.23264 109.373 8.38843C109.123 8.52197 108.622 8.63327 108.304 8.63327C107.735 8.63327 106.802 8.83359 103.368 9.6571C102.64 9.83517 101.867 9.96872 101.616 9.96872C101.389 9.96872 100.684 10.1023 100.092 10.2803C99.4782 10.4584 98.1589 10.77 97.1581 10.9703C95.3157 11.3487 93.6552 11.7271 91.8128 12.1945C91.2441 12.328 90.3798 12.5284 89.8794 12.6174C89.3789 12.7064 88.5146 12.9067 87.9459 13.0625C87.3773 13.2183 86.331 13.4854 85.6258 13.6635C84.898 13.8416 83.6697 14.1309 82.8963 14.3312C82.1002 14.5093 80.8492 14.8209 80.0985 14.9989C78.5291 15.3773 77.1643 15.7557 72.7061 17.0021C72.0237 17.2025 71.1139 17.4918 70.7044 17.6699C70.295 17.8479 69.7946 17.9815 69.5671 17.9815C69.3624 17.9815 68.8847 18.1373 68.5208 18.3153C68.1796 18.4934 67.7474 18.6492 67.5655 18.6492C67.1106 18.6492 63.2437 20.363 61.9017 21.1643C60.1275 22.2327 57.2843 24.7033 56.6929 25.7271C55.6238 27.5968 54.8959 29.3774 54.4637 31.2248C54.0771 32.9386 54.0543 42.2646 54.441 44.9132C55.0097 48.9641 55.2826 50.8783 55.4418 52.3695C55.5328 53.2153 55.7148 54.6176 55.874 55.4856C56.0105 56.3314 56.2834 58.0452 56.4654 59.2694C56.6474 60.4936 56.8976 62.0516 57.034 62.7193C57.1705 63.3871 57.3525 64.6335 57.4662 65.5015C57.58 66.3473 57.7847 67.4157 57.9211 67.8386C58.0349 68.2615 58.1486 68.9515 58.1486 69.3521C58.1486 69.7527 58.2851 70.6431 58.4671 71.3553C58.7855 72.6017 59.1267 74.3378 59.4906 76.7417C59.6044 77.4094 59.8091 78.5668 59.9455 79.3013C60.1048 80.0358 60.355 81.3267 60.5369 82.1948C60.6962 83.0406 60.9691 84.3092 61.1056 84.977C61.2421 85.6447 61.4468 86.8244 61.5605 87.5811C61.6742 88.3601 61.879 89.1837 62.0154 89.4062C62.1292 89.6511 62.2429 90.2298 62.2429 90.6972C62.2656 91.1646 62.4021 91.9436 62.5841 92.4333C62.7661 92.923 62.9253 93.6352 62.9253 94.0136C62.9253 94.4142 63.0618 95.2155 63.2437 95.7942C63.5622 96.9071 63.9716 98.7767 64.29 100.557C64.381 101.114 64.563 102.026 64.7222 102.605C64.8587 103.206 65.0862 104.141 65.2226 104.719C65.3819 105.32 65.5638 106.233 65.6548 106.789C65.7458 107.346 65.9278 108.192 66.0415 108.681C66.178 109.171 66.4737 110.373 66.6784 111.352C66.8831 112.332 67.156 113.534 67.2925 114.023C67.4063 114.513 67.5882 115.314 67.6792 115.804C67.7702 116.293 67.9749 117.095 68.1114 117.584C68.2251 118.074 68.5208 119.276 68.7255 120.255C68.953 121.235 69.2487 122.526 69.4079 123.149C69.8856 124.952 70.2495 126.443 70.4315 127.266C70.5225 127.689 70.7272 128.535 70.8864 129.158C71.0229 129.759 71.2958 130.85 71.4778 131.54C71.6598 132.252 71.9555 133.432 72.1374 134.166C72.3194 134.901 72.6378 136.103 72.8198 136.837C73.0018 137.572 73.3202 138.774 73.5022 139.508C73.6842 140.243 74.0026 141.467 74.2073 142.224C74.412 143.003 74.7305 144.182 74.9124 144.85C75.0944 145.518 75.3901 146.542 75.5721 147.098C75.7541 147.677 75.8905 148.322 75.8905 148.545C75.8905 148.767 76.027 149.346 76.209 149.858C76.3909 150.348 76.7094 151.394 76.9141 152.195C77.1416 152.996 77.46 154.198 77.642 154.866C77.9832 156.068 78.3926 157.559 78.984 159.54C79.1432 160.097 79.4389 161.143 79.6664 161.877C79.8711 162.612 80.1668 163.613 80.326 164.103C80.4625 164.593 80.7809 165.594 81.0084 166.329C81.5315 168.109 82.032 169.69 82.3732 170.78C82.5324 171.27 82.8281 172.271 83.0555 173.006C83.283 173.74 83.6014 174.675 83.7607 175.076C83.9426 175.477 84.0791 175.988 84.0791 176.233C84.0791 176.478 84.2156 176.99 84.3976 177.391C84.7842 178.326 85.1937 179.483 85.4439 180.351C85.5576 180.707 85.7623 181.375 85.9215 181.798C86.058 182.221 86.3082 182.933 86.4674 183.356C86.6267 183.779 86.8769 184.491 87.0133 184.914C87.1726 185.337 87.3773 185.982 87.491 186.361C87.7867 187.429 88.1961 188.542 88.5373 189.21C88.7193 189.566 88.8558 189.989 88.8558 190.144C88.8558 190.322 88.9923 190.79 89.1742 191.19C89.4699 191.88 89.6746 192.37 90.5617 194.707C90.7437 195.197 91.0621 195.998 91.2441 196.488C91.4261 196.977 91.7445 197.801 91.9492 198.313C92.3132 199.27 92.6316 200.049 93.2685 201.451C93.4277 201.83 93.9054 202.965 94.3148 203.944C95.0427 205.702 95.2702 206.17 96.4757 208.841C97.4538 211 97.795 211.645 98.8186 213.359C99.3417 214.272 99.7739 215.051 99.7739 215.117C99.7739 215.251 100.502 216.119 102.139 217.966C103.095 219.057 105.005 220.415 106.598 221.127C108.213 221.839 109.714 222.24 112.443 222.663C114.695 223.019 115.287 223.041 117.561 222.774C118.972 222.618 121.428 222.418 123.02 222.307C124.613 222.218 126 222.062 126.137 221.995C126.273 221.906 127.456 221.75 128.798 221.639C130.117 221.528 131.55 221.305 131.96 221.171C132.46 220.993 132.892 220.971 133.188 221.105C133.597 221.283 133.438 221.528 131.368 223.642C130.117 224.933 128.616 226.58 128.047 227.315C127.479 228.049 126.887 228.739 126.751 228.873C126.296 229.251 125.022 230.943 125.022 231.121C124.999 231.232 124.704 231.677 124.34 232.1C123.953 232.523 123.657 232.946 123.657 233.057C123.657 233.146 123.407 233.569 123.111 233.947C121.496 236.106 119.79 240.803 119.79 243.095C119.79 244.698 120.859 246.901 122.179 247.992C123.816 249.372 124.089 249.483 127.388 250.129C129.685 250.574 134.757 249.572 139.807 247.68C140.489 247.413 141.331 247.124 141.649 247.013C141.968 246.924 142.423 246.746 142.673 246.612C142.9 246.478 144.493 245.699 146.176 244.876C147.859 244.052 149.565 243.251 149.929 243.051C150.316 242.873 150.93 242.494 151.339 242.205C151.726 241.916 152.158 241.671 152.295 241.671C152.408 241.671 153.159 241.248 153.955 240.736C155.57 239.668 156.139 239.311 156.639 239.089C156.821 239 157.344 238.666 157.776 238.354C158.823 237.598 159.528 237.219 159.892 237.219C160.051 237.219 160.961 238.243 161.916 239.49C162.871 240.758 164.009 242.183 164.418 242.65C166.761 245.366 168.421 247.146 170.469 249.149C172.516 251.153 173.38 251.932 176.178 254.269C177.247 255.159 181.614 258.364 181.751 258.364C181.819 258.364 182.501 258.787 183.297 259.299C188.597 262.771 196.331 265.798 201.335 266.377C202.086 266.466 203.792 266.666 205.111 266.822C207.749 267.134 208.273 267.067 208.273 266.377C208.273 266.132 208.25 265.932 208.227 265.909C208.182 265.887 206.84 265.798 205.202 265.709C203.587 265.598 201.471 265.375 200.539 265.175C198.105 264.707 197.104 264.418 193.488 263.149C192.419 262.771 187.437 260.367 186.391 259.744C186.05 259.544 185.094 258.943 184.23 258.409C177.201 254.113 169.354 247.057 163.235 239.556C159.96 235.528 160.256 235.795 159.482 236.129C159.118 236.307 157.685 237.175 156.321 238.043C154.979 238.933 153.75 239.668 153.614 239.668C153.477 239.668 153.204 239.801 153.022 239.979C152.386 240.513 144.948 244.342 144.538 244.342C144.424 244.342 143.719 244.631 142.946 244.987C141.331 245.722 138.67 246.746 137.646 247.057C133.461 248.281 132.665 248.415 129.116 248.415C125.727 248.437 125.545 248.415 124.408 247.836C123.771 247.502 122.861 246.79 122.361 246.211L121.496 245.165V242.806C121.496 240.447 121.656 239.757 122.656 237.82C122.838 237.464 122.975 237.063 122.975 236.885C122.975 236.73 123.134 236.485 123.316 236.329C123.498 236.173 123.657 235.928 123.657 235.772C123.657 235.461 126.5 231.232 127.865 229.518C131.527 224.933 135.189 221.082 136.327 220.615C136.736 220.437 137.464 220.303 137.942 220.303C138.442 220.303 139.284 220.148 139.807 219.97C140.33 219.792 141.081 219.636 141.467 219.636C141.854 219.636 142.673 219.502 143.31 219.324C144.47 219.012 146.062 218.656 147.996 218.323C148.564 218.211 149.542 218.011 150.156 217.855C150.793 217.722 151.885 217.454 152.613 217.276C154.592 216.809 156.616 216.297 157.958 215.941C160.711 215.206 161.825 214.917 163.008 214.583C165.101 214.005 166.488 213.604 167.216 213.359C167.603 213.248 168.262 213.047 168.694 212.958C169.127 212.869 169.809 212.669 170.173 212.536C170.56 212.402 171.788 212.024 172.902 211.667C177.11 210.332 177.952 210.065 180.181 209.286C181.432 208.841 182.797 208.396 183.229 208.284C183.639 208.173 184.094 207.995 184.23 207.861C184.366 207.728 184.662 207.617 184.89 207.617C185.094 207.617 185.617 207.483 186.027 207.305C186.436 207.127 187.232 206.815 187.801 206.615C188.37 206.415 189.143 206.103 189.507 205.947C189.894 205.791 190.644 205.502 191.213 205.28C192.51 204.79 193.647 204.322 194.466 203.922C194.83 203.744 195.216 203.61 195.33 203.61C195.444 203.61 196.217 203.299 197.059 202.92C197.923 202.542 198.969 202.074 199.402 201.896C199.834 201.696 200.357 201.451 200.539 201.34C200.721 201.251 201.039 201.095 201.221 201.028C201.403 200.962 201.722 200.806 201.904 200.694C202.086 200.583 202.404 200.427 202.586 200.361C202.768 200.294 203.086 200.138 203.268 200.027C203.45 199.915 203.746 199.782 203.905 199.715C204.474 199.493 204.77 199.359 205.293 199.047C205.611 198.892 205.952 198.78 206.043 198.847C206.134 198.914 206.225 202.586 206.248 207.016C206.248 211.445 206.362 215.674 206.476 216.408C206.612 217.143 206.794 218.59 206.885 219.636C207.317 224.065 208.682 229.518 210.866 235.327C211.321 236.552 213.254 240.291 213.527 240.447C213.641 240.536 213.732 240.714 213.732 240.892C213.732 242.027 220.146 249.55 222.307 250.952C222.785 251.264 223.285 251.197 223.285 250.819C223.285 250.73 222.489 249.839 221.511 248.86C220.51 247.881 219.304 246.545 218.804 245.877C218.304 245.21 217.735 244.542 217.53 244.364C217.303 244.208 217.144 243.963 217.144 243.852C217.144 243.741 216.893 243.318 216.575 242.917C215.938 242.094 215.21 240.825 213.914 238.221C212.276 234.993 211.775 233.725 210.661 229.986C210.433 229.251 210.115 228.205 209.956 227.671C209.774 227.114 209.637 226.424 209.637 226.135C209.637 225.823 209.501 225.067 209.319 224.443C208.909 223.063 208.386 219.257 208 215.184C207.636 211.222 207.499 202.853 207.795 202.319C207.909 202.097 208.091 200.116 208.182 197.912C208.273 195.731 208.432 193.75 208.546 193.55C208.637 193.327 208.841 192.125 208.955 190.879C209.228 187.963 209.592 185.403 210.001 183.645C210.183 182.888 210.32 181.931 210.32 181.531C210.32 181.13 210.479 180.395 210.661 179.906C210.843 179.416 210.979 178.659 211.002 178.214C211.002 177.769 211.161 177.035 211.343 176.612C211.821 175.477 211.798 173.273 211.298 172.872C210.979 172.605 202.632 161.766 202.017 160.809C201.904 160.631 201.221 159.674 200.539 158.717C197.9 155 193.556 148.523 193.192 147.744C193.101 147.565 192.851 147.143 192.623 146.831C192.419 146.497 191.873 145.651 191.44 144.939C191.008 144.205 190.531 143.426 190.371 143.181C190.098 142.758 190.007 142.535 189.735 141.89C189.666 141.756 189.416 141.311 189.189 140.955C188.938 140.577 187.915 138.64 186.891 136.615C185.14 133.143 184.821 132.519 184.071 130.761C183.912 130.383 183.639 129.737 183.457 129.381C182.729 127.734 181.91 125.397 181.364 123.371C181.182 122.637 180.818 121.39 180.591 120.589C180.295 119.499 180.181 118.341 180.181 115.804C180.181 112.042 180.409 111.308 181.978 109.95C183.115 108.971 184.162 108.726 186.687 108.859C189.462 108.993 190.963 109.394 194.102 110.818C194.898 111.174 195.58 111.464 195.671 111.464C195.739 111.464 196.263 111.753 196.831 112.131C197.377 112.487 197.923 112.799 198.014 112.799C198.287 112.799 203.132 116.004 204.701 117.228C205.429 117.785 206.612 118.697 207.34 119.254C208.045 119.81 209.046 120.611 209.524 121.057C210.024 121.502 211.503 122.793 212.822 123.95C215.802 126.577 220.169 130.85 223.262 134.166C224.559 135.569 226.128 137.238 226.697 137.839C227.288 138.462 229.131 140.51 230.768 142.402C235.704 148.077 235.841 148.211 236.114 148.122C236.569 147.966 236.227 147.254 234.817 145.473C231.928 141.845 231.337 141.133 231.019 140.799C230.837 140.621 230.268 139.998 229.768 139.397C227.857 137.149 227.038 136.236 225.469 134.5C222.967 131.763 217.735 126.332 216.893 125.597C216.461 125.241 215.551 124.44 214.846 123.817C210.433 119.899 209.91 119.476 205.611 116.249C203.905 114.958 201.039 113.044 200.311 112.71C198.856 112.042 198.719 111.842 198.06 108.904C197.946 108.414 197.741 107.502 197.582 106.901C197.445 106.278 197.173 105.231 197.013 104.564C196.831 103.896 196.581 102.894 196.422 102.338C196.081 101.025 195.558 98.888 195.33 97.7751C195.239 97.2854 195.012 96.5064 194.852 96.0613C194.375 94.7703 194.761 94.5923 196.194 95.4158C196.854 95.7942 197.468 96.1058 197.559 96.1058C197.673 96.1058 197.878 96.2616 198.037 96.4397C198.196 96.6177 198.446 96.7735 198.628 96.7735C198.787 96.7735 199.561 97.1964 200.357 97.7083C201.153 98.2425 202.154 98.8657 202.586 99.0883C203.018 99.3332 203.928 99.8673 204.588 100.312C205.27 100.758 205.975 101.203 206.18 101.336C206.385 101.448 207.135 101.982 207.863 102.494C208.568 103.028 209.228 103.451 209.319 103.451C209.41 103.451 209.592 103.584 209.728 103.762C209.865 103.918 211.048 104.831 212.367 105.788C213.686 106.745 214.869 107.635 214.983 107.769C215.119 107.902 216.325 108.971 217.712 110.128C220.897 112.844 225.969 117.807 228.744 120.923C229.927 122.281 231.019 123.46 231.155 123.594C231.292 123.705 231.906 124.462 232.52 125.263C233.111 126.065 233.725 126.799 233.885 126.933C234.249 127.244 236.068 129.67 236.637 130.605C236.91 131.05 237.388 131.629 237.706 131.918C238.024 132.23 238.297 132.564 238.297 132.675C238.297 132.786 238.57 133.254 238.934 133.699C239.275 134.144 239.662 134.678 239.776 134.879C239.912 135.079 240.504 135.969 241.141 136.882C242.323 138.573 242.665 139.108 243.074 139.842C243.392 140.399 243.711 140.91 244.507 142.135C244.848 142.647 245.349 143.448 245.599 143.915C245.849 144.36 246.281 145.139 246.577 145.629C248.146 148.367 249.011 150.014 250.739 153.419C252.65 157.203 253.787 159.496 254.311 160.764C254.675 161.632 255.198 162.812 255.63 163.769C255.835 164.192 256.153 164.993 256.38 165.55C256.585 166.106 256.881 166.796 257.017 167.108C257.359 167.864 257.836 169.111 258.086 169.779C258.2 170.09 258.496 170.891 258.769 171.559C259.042 172.227 259.36 173.073 259.451 173.451C259.565 173.807 260.02 175.12 260.475 176.345C260.93 177.569 261.385 178.86 261.498 179.238C261.612 179.594 261.862 180.395 262.044 181.019C262.226 181.62 262.476 182.421 262.59 182.799C262.704 183.155 263 184.068 263.204 184.802C263.432 185.537 263.75 186.539 263.909 187.028C264.228 188.074 265.16 191.547 265.934 194.707C266.093 195.375 266.366 196.421 266.502 197.044C266.662 197.645 266.844 198.446 266.889 198.825C266.98 199.537 267.503 201.941 267.913 203.61C268.049 204.167 268.231 205.101 268.322 205.725C268.459 206.749 268.641 207.75 269.255 210.955C269.391 211.623 269.596 213.159 269.71 214.361C269.823 215.563 270.005 216.742 270.142 216.965C270.256 217.187 270.369 217.877 270.369 218.478C270.369 219.102 270.529 220.392 270.71 221.35C270.892 222.307 271.052 223.976 271.074 225.089C271.097 227.76 271.666 231.41 272.075 231.499C272.416 231.566 272.485 229.162 272.189 227.114C272.052 226.113 271.848 223.998 271.734 222.373C271.643 220.771 271.438 219.257 271.302 219.012C271.165 218.745 271.052 218.078 271.052 217.499C271.052 216.52 270.847 215.006 270.142 210.955C270.005 210.154 269.801 208.796 269.687 207.928C269.573 207.038 269.368 206.059 269.232 205.725C269.118 205.413 269.005 204.768 269.005 204.3C269.005 203.833 268.845 203.009 268.663 202.497C268.481 201.985 268.322 201.295 268.322 200.984C268.322 200.672 268.186 199.915 268.004 199.292C267.503 197.512 267.139 195.998 267.026 195.264C266.98 194.885 266.798 194.084 266.616 193.483C266.434 192.86 266.139 191.725 265.911 190.923C264.774 186.65 264.364 185.114 263.887 183.69C263.727 183.2 263.432 182.198 263.204 181.464C262.977 180.729 262.704 179.861 262.59 179.527C262.476 179.216 262.294 178.615 262.181 178.192C262.067 177.791 261.771 176.901 261.498 176.233C261.225 175.566 260.907 174.698 260.816 174.341C260.702 173.963 260.247 172.672 259.792 171.448C259.337 170.224 258.883 168.955 258.792 168.643C258.678 168.332 258.496 167.887 258.359 167.642C258.246 167.419 257.95 166.774 257.745 166.217C257.541 165.661 257.222 164.926 257.04 164.593C256.858 164.236 256.722 163.791 256.722 163.569C256.722 163.368 256.631 163.101 256.517 162.968C256.403 162.856 256.085 162.211 255.812 161.543C255.175 159.985 254.652 158.85 254.402 158.427C254.311 158.249 254.151 157.938 254.083 157.759C253.651 156.58 249.147 147.677 248.533 146.742C248.283 146.364 248.033 145.918 247.942 145.74C247.873 145.562 247.737 145.251 247.623 145.073C247.51 144.895 247.146 144.227 246.804 143.626C246.486 143.003 245.963 142.201 245.667 141.801C245.371 141.422 245.121 140.999 245.121 140.866C245.121 140.732 244.348 139.53 243.415 138.15C242.483 136.793 241.709 135.635 241.709 135.591C241.709 135.524 240.913 134.433 239.958 133.165C237.956 130.538 237.137 129.425 236.136 128.068C235.454 127.155 234.658 126.198 233.953 125.508C233.771 125.308 233.134 124.551 232.565 123.817C229.722 120.144 222.83 113.266 217.553 108.793C213.231 105.142 205.611 99.578 203.723 98.6877C203.223 98.4651 202.654 98.109 201.039 97.0406C200.243 96.5287 199.447 96.1058 199.288 96.1058C199.106 96.1058 198.901 96.0168 198.833 95.8832C198.765 95.7719 198.219 95.4381 197.627 95.171C195.194 94.0136 193.943 93.19 193.943 92.7226C193.943 92.4778 193.783 91.8101 193.601 91.2314C193.419 90.6749 193.124 89.562 192.919 88.7608C192.714 87.9595 192.419 86.8021 192.237 86.2011C191.895 84.9325 191.327 82.7957 190.849 80.8593C190.667 80.1248 190.371 79.0564 190.189 78.5C190.007 77.9213 189.848 77.2313 189.848 76.942C189.826 76.6526 189.689 76.1629 189.507 75.8513C189.325 75.5397 189.189 75.0501 189.166 74.7385C189.166 74.4268 189.029 73.7369 188.847 73.1804C188.665 72.624 188.37 71.6669 188.165 71.0437C187.96 70.3982 187.801 69.7082 187.801 69.4857C187.801 69.2408 187.665 68.6176 187.483 68.0612C187.301 67.5047 186.982 66.4141 186.778 65.6128C186.414 64.2106 186.118 63.0532 185.436 60.6494C185.254 60.0262 184.935 58.8465 184.73 58.0452C184.526 57.244 184.207 56.042 184.003 55.3743C183.57 53.8163 183.161 52.325 182.683 50.4776C182.456 49.6764 182.137 48.519 181.978 47.918C181.796 47.2948 181.5 46.2487 181.296 45.5809C181.114 44.9132 180.818 43.8448 180.636 43.2439C180.272 41.9307 179.681 39.8607 179.271 38.4585C179.112 37.9021 178.816 36.8114 178.589 36.0102C178.384 35.2089 178.066 34.1628 177.907 33.6731C177.747 33.1834 177.452 32.1373 177.224 31.3361C177.019 30.5348 176.701 29.4887 176.565 28.999C176.405 28.5093 176.11 27.53 175.905 26.8177C175.677 26.1278 175.359 24.9704 175.132 24.2581C174.927 23.5681 174.631 22.5888 174.495 22.0991C174.335 21.6095 174.04 20.6079 173.812 19.8734C173.608 19.1389 173.289 18.1373 173.13 17.6476C172.971 17.1579 172.675 16.1118 172.448 15.3105C172.243 14.5093 171.924 13.5299 171.742 13.1293C171.56 12.7287 171.424 12.2613 171.424 12.0832C171.424 11.7716 170.969 10.6142 170.378 9.45679C170.196 9.10068 170.059 8.70004 170.059 8.52197C170.059 8.36618 169.9 8.12134 169.718 7.96555C169.536 7.80972 169.377 7.54263 169.377 7.36456C169.377 7.0307 167.625 4.67139 166.784 3.84787C166.056 3.13562 164.441 1.95596 164.213 1.95596C164.1 1.95596 163.895 1.84467 163.736 1.68887C163.417 1.37726 162.053 0.865356 160.847 0.620514C160.347 0.509216 159.482 0.331146 158.914 0.197601C157.663 -0.0694885 155.024 -0.0694885 153.796 0.219879ZM161.188 1.66663C164.691 2.82401 166.966 4.80493 168.694 8.18811C169.832 10.4584 169.991 10.8368 170.719 13.0848C171.378 15.0657 171.697 16.0896 172.493 18.7605C172.675 19.3615 172.925 20.1627 173.062 20.5411C173.175 20.8972 173.38 21.565 173.471 21.9878C173.562 22.4107 173.767 23.0562 173.881 23.4346C174.017 23.7907 174.29 24.7033 174.517 25.4378C174.722 26.1723 175.018 27.1739 175.177 27.6635C175.336 28.1532 175.632 29.1993 175.859 30.0006C176.087 30.8019 176.383 31.848 176.542 32.3376C176.701 32.8273 176.997 33.8289 177.201 34.5634C177.429 35.2979 177.725 36.344 177.884 36.9005C178.043 37.4569 178.362 38.503 178.566 39.2375C178.794 39.972 179.089 41.0181 179.271 41.5746C179.431 42.131 179.726 43.2216 179.954 44.0229C180.181 44.8242 180.477 45.9148 180.636 46.4713C181.091 47.9403 181.66 49.988 182.001 51.2567C182.16 51.8576 182.479 52.9705 182.683 53.705C183.457 56.4427 183.775 57.511 184.071 58.6462C185.14 62.6303 185.731 64.678 186.118 65.8577C186.277 66.4364 186.436 67.0596 186.436 67.2822C186.436 67.5047 186.573 68.1279 186.755 68.7066C187.346 70.5985 188.211 73.8482 188.461 75.0723C188.552 75.562 188.756 76.1852 188.893 76.4523C189.052 76.7194 189.166 77.1645 189.166 77.4539C189.166 77.7432 189.302 78.411 189.484 78.9674C189.894 80.2584 190.28 81.7274 190.508 82.8625C190.599 83.3522 190.781 84.1089 190.94 84.5318C191.077 84.9547 191.35 85.9563 191.554 86.7576C191.759 87.5589 192.077 88.7163 192.259 89.3395C192.441 89.9627 192.578 90.6527 192.578 90.8752C192.578 91.0978 192.714 91.7878 192.896 92.411C193.078 93.0342 193.397 94.1916 193.601 94.9929C193.806 95.7942 194.125 96.9516 194.306 97.5748C194.488 98.198 194.625 98.888 194.625 99.1328C194.625 99.3554 194.761 100.001 194.943 100.557C195.33 101.781 195.739 103.273 195.967 104.452C196.217 105.588 196.627 107.257 197.036 108.704C197.423 110.106 197.445 110.796 197.082 110.796C196.922 110.796 196.172 110.506 195.421 110.173C193.192 109.127 192.35 108.793 192.032 108.793C191.577 108.793 189.53 107.88 189.348 107.591C189.257 107.457 189.166 107.034 189.166 106.678C189.166 106.3 189.007 105.721 188.825 105.365C188.643 105.031 188.484 104.43 188.484 104.074C188.484 103.696 188.347 103.095 188.165 102.716C187.983 102.316 187.801 101.514 187.733 100.913C187.665 100.312 187.528 99.7783 187.392 99.6893C187.278 99.6225 187.119 98.9993 187.073 98.3316C187.005 97.6638 186.823 97.0851 186.687 97.0406C186.55 96.9961 186.436 96.5732 186.436 96.0835C186.436 95.5939 186.277 94.8371 186.095 94.392C185.913 93.9691 185.754 93.3904 185.754 93.1233C185.754 92.8784 185.617 92.2107 185.436 91.6543C185.026 90.3633 184.639 88.8943 184.412 87.7592C184.321 87.2695 184.139 86.5128 184.003 86.0899C183.639 84.9992 183.252 83.4635 183.047 82.4173C182.956 81.9277 182.774 81.1709 182.638 80.748C182.251 79.5684 181.887 78.0994 181.66 76.8752C181.546 76.2742 181.341 75.6733 181.205 75.5397C181.091 75.4285 180.977 74.9833 180.977 74.5827C180.977 74.1598 180.818 73.4698 180.636 73.0246C180.454 72.6017 180.295 72.023 180.295 71.7559C180.295 71.5111 180.136 70.9992 179.954 70.6431C179.772 70.3092 179.613 69.7082 179.613 69.3076C179.59 68.9292 179.453 68.3728 179.271 68.0612C179.089 67.7496 178.953 67.2599 178.93 66.9483C178.93 66.6367 178.794 65.9467 178.612 65.3902C178.43 64.8338 178.134 63.8767 177.929 63.2535C177.725 62.608 177.565 61.8735 177.565 61.5842C177.565 61.2948 177.406 60.7607 177.224 60.4045C177.042 60.0707 176.883 59.5142 176.883 59.1804C176.883 58.8688 176.724 58.3123 176.542 57.9562C176.36 57.6223 176.201 56.9991 176.201 56.6207C176.201 56.2201 176.041 55.7082 175.859 55.4633C175.677 55.2408 175.518 54.6843 175.518 54.2614C175.518 53.8385 175.359 53.1931 175.177 52.8369C174.995 52.5031 174.836 51.9466 174.836 51.6128C174.836 51.3012 174.677 50.7447 174.495 50.3886C174.313 50.0547 174.153 49.5206 174.153 49.2089C174.153 48.8973 174.017 48.3409 173.835 47.9625C173.653 47.5619 173.448 46.8496 173.38 46.3822C173.312 45.8925 173.175 45.4474 173.062 45.3806C172.948 45.3139 172.789 44.7574 172.72 44.1342C172.652 43.5332 172.493 42.9991 172.357 42.9545C172.22 42.91 172.106 42.5094 172.106 42.0642C172.106 41.5968 171.947 40.9514 171.765 40.5952C171.583 40.2614 171.424 39.7049 171.424 39.3711C171.424 39.0372 171.265 38.5698 171.083 38.325C170.901 38.1024 170.742 37.5237 170.742 37.0785C170.742 36.6334 170.582 36.1214 170.4 35.9211C170.218 35.7431 170.059 35.2757 170.059 34.8973C170.059 34.4966 169.923 33.8734 169.741 33.495C169.559 33.0944 169.354 32.3822 169.286 31.8925C169.218 31.4028 169.058 30.9799 168.922 30.9354C168.808 30.8909 168.694 30.557 168.694 30.1787C168.694 29.8225 168.558 29.1993 168.376 28.8209C168.194 28.4203 167.989 27.7081 167.921 27.2184C167.853 26.7287 167.694 26.3058 167.557 26.2613C167.443 26.2168 167.33 25.8829 167.33 25.5268C167.33 25.1707 167.17 24.503 166.988 24.0578C166.807 23.6349 166.647 23.0562 166.647 22.7891C166.647 22.522 166.488 22.0991 166.306 21.8543C166.124 21.6317 165.965 21.2088 165.965 20.9195C165.965 20.6301 165.669 19.4727 165.283 18.3598C164.919 17.2247 164.441 15.7557 164.213 15.088C163.577 13.018 162.394 10.7923 161.598 10.08C160.301 8.92261 158.914 8.58875 155.82 8.70004C153.273 8.76682 151.089 9.05615 149.019 9.54584C148.519 9.6571 147.359 9.85742 146.449 9.96872C145.539 10.08 144.447 10.2803 144.06 10.3916C143.651 10.5029 142.559 10.7255 141.627 10.859C140.694 10.9926 139.261 11.1929 138.442 11.3042C137.623 11.4155 136.6 11.6158 136.168 11.7493C135.735 11.8606 135.03 11.9719 134.621 11.9719C134.189 11.9719 133.233 12.1055 132.46 12.2835C131.687 12.4616 130.231 12.7732 129.23 12.9735C128.229 13.1738 126.955 13.4409 126.387 13.5745C125.818 13.708 124.795 13.8861 124.112 13.9751C123.43 14.0641 122.565 14.2645 122.224 14.398C121.86 14.5315 121.246 14.6428 120.837 14.6428C120.405 14.6428 119.631 14.7986 119.108 14.9767C118.585 15.1548 117.812 15.3105 117.402 15.3105C116.993 15.3105 116.219 15.4664 115.696 15.6444C115.173 15.8225 114.445 15.9783 114.104 15.9783C113.763 15.9783 112.967 16.1118 112.375 16.2899C110.851 16.7128 109.168 17.1134 108.076 17.3137C107.576 17.4028 106.666 17.6031 106.029 17.7589C105.415 17.8924 104.323 18.1595 103.641 18.3153C102.958 18.4711 101.889 18.7382 101.252 18.8718C100.638 19.0276 99.7056 19.2279 99.2052 19.3169C98.7048 19.406 97.795 19.6063 97.1581 19.7621C96.5439 19.8956 95.4294 20.1627 94.7243 20.3408C92.7908 20.8082 90.721 21.3201 89.4244 21.654C88.2416 21.9656 86.8541 22.3217 84.3066 22.9672C83.4877 23.1898 82.3277 23.4791 81.6908 23.6572C81.0766 23.813 79.8938 24.1246 79.075 24.3249C78.2561 24.5252 77.1416 24.8368 76.5729 25.0149C76.0043 25.1929 75.3901 25.3265 75.1854 25.3265C74.685 25.3265 70.6817 26.6174 69.9311 26.9958C69.6126 27.1739 69.2259 27.3297 69.1122 27.3297C68.7483 27.3297 66.2917 28.999 65.6321 29.7112C64.9497 30.4458 64.6767 30.8909 64.1536 32.2486C63.6759 33.5173 63.4712 39.4156 63.8351 41.7971C63.9716 42.7097 64.1763 44.4681 64.29 45.6922C64.381 46.9164 64.5857 48.3632 64.7222 48.9196C64.8587 49.476 64.9724 50.3663 64.9724 50.9228C64.9724 51.4792 65.1089 52.7702 65.2909 53.8163C65.7458 56.4427 66.1325 59.0246 66.3372 60.6049C66.4964 61.8958 66.7694 63.4093 67.2925 66.1693C67.429 66.9038 67.6337 68.0612 67.7247 68.7289C67.8839 70.0644 68.2479 72.023 68.7255 74.4046C69.3624 77.6542 69.5671 78.6781 69.7491 80.1471C69.8628 80.9706 70.0675 81.8387 70.204 82.0835C70.3177 82.3061 70.4315 82.8848 70.4315 83.3744C70.4315 83.8641 70.5907 84.6876 70.7727 85.1996C70.9546 85.7115 71.1139 86.4682 71.1139 86.8689C71.1139 87.2695 71.2731 88.0263 71.455 88.5382C71.637 89.0501 71.7962 89.8069 71.7962 90.2075C71.7962 90.6082 71.9555 91.3649 72.1374 91.8768C72.3194 92.3888 72.4786 93.1233 72.4786 93.5016C72.4786 93.88 72.6151 94.6813 72.7971 95.3045C73.1155 96.4174 73.5249 98.2203 73.7524 99.5557C73.9116 100.491 74.5258 103.161 74.8215 104.23C74.9352 104.719 75.1172 105.565 75.2081 106.122C75.2991 106.678 75.5038 107.613 75.6631 108.236C76.2317 110.506 76.5502 111.842 76.9141 113.578C77.1188 114.557 77.4145 115.826 77.5965 116.383C77.7785 116.961 77.9377 117.607 77.9377 117.807C77.9377 118.03 78.0741 118.72 78.2561 119.343C78.4381 119.966 78.7565 121.168 78.9612 122.036C79.166 122.882 79.4844 124.195 79.6664 124.929C79.8711 125.664 80.1668 126.844 80.3488 127.534C80.9174 129.826 81.3723 131.584 81.668 132.72C81.85 133.321 82.1457 134.478 82.3504 135.279C82.5779 136.081 82.8736 137.216 83.0555 137.839C83.2148 138.44 83.5332 139.597 83.7379 140.399C84.1019 141.756 84.3066 142.468 85.1027 145.228C85.967 148.189 86.1945 149.034 86.4674 149.858C86.6267 150.348 86.9224 151.394 87.1498 152.195C87.3545 152.996 87.673 154.042 87.8095 154.532C87.9687 155.022 88.2871 156.023 88.5146 156.758C88.7421 157.492 89.0377 158.494 89.197 158.984C89.3562 159.473 89.6519 160.43 89.8566 161.098C90.0386 161.766 90.5162 163.279 90.9029 164.437C91.2896 165.594 91.7673 167.108 91.9492 167.775C92.154 168.443 92.4724 169.333 92.6316 169.734C92.8136 170.135 92.9501 170.602 92.9501 170.78C92.9501 170.958 93.0865 171.426 93.2685 171.826C93.4505 172.227 93.7689 173.162 93.9736 173.896C94.2011 174.631 94.5195 175.61 94.6788 176.055C95.8388 179.171 96.1345 179.995 96.362 180.796C96.5667 181.442 97.7495 184.713 98.5001 186.694C98.7276 187.251 98.9778 188.03 99.0915 188.453C99.2052 188.853 99.3872 189.299 99.5237 189.432C99.6602 189.566 99.7739 189.855 99.7739 190.055C99.7739 190.256 100.092 191.168 100.479 192.058C100.866 192.971 101.321 194.062 101.48 194.485C101.867 195.508 103.14 198.647 103.527 199.493C103.686 199.849 104.05 200.717 104.323 201.384C105.233 203.566 106.347 205.947 107.212 207.461C107.712 208.351 109.623 210.287 110.01 210.287C110.214 210.287 110.487 210.399 110.601 210.51C110.737 210.644 111.556 210.933 112.421 211.178C114.4 211.734 119.313 211.801 121.997 211.289C122.975 211.111 124.18 210.955 124.681 210.955C125.181 210.955 126.25 210.822 127.069 210.644C127.888 210.466 129.367 210.154 130.367 209.954C131.368 209.753 132.642 209.486 133.211 209.353C133.779 209.219 134.644 209.041 135.144 208.952C135.644 208.863 136.577 208.663 137.191 208.507C137.828 208.373 138.897 208.106 139.579 207.95C141.49 207.483 143.446 207.016 144.584 206.726C145.152 206.593 146.017 206.392 146.517 206.303C147.017 206.214 147.791 206.036 148.223 205.88C148.655 205.747 149.679 205.48 150.498 205.257C151.316 205.057 152.431 204.768 153 204.612C153.568 204.456 154.683 204.167 155.502 203.966C156.321 203.744 157.435 203.454 158.004 203.276C158.572 203.121 159.687 202.831 160.506 202.609C161.325 202.408 162.235 202.119 162.553 202.008C162.871 201.874 163.486 201.696 163.918 201.607C164.35 201.496 165.032 201.318 165.396 201.206C165.783 201.073 166.602 200.828 167.216 200.65C167.853 200.472 168.967 200.16 169.718 199.938C170.469 199.715 171.447 199.426 171.879 199.27C172.311 199.114 174.677 198.357 177.11 197.601C179.544 196.844 182.274 195.976 183.138 195.664C184.025 195.375 185.913 194.752 187.346 194.262C188.779 193.795 190.531 193.194 191.213 192.927C191.895 192.659 192.669 192.392 192.919 192.326C193.67 192.148 195.853 191.302 196.103 191.101C196.217 191.012 196.445 190.923 196.627 190.923C197.15 190.923 201.29 188.876 202.336 188.097C203.587 187.184 204.474 186.027 205.065 184.513C205.475 183.534 205.543 182.866 205.543 180.395C205.52 178.771 205.407 177.012 205.293 176.456C205.156 175.899 205.02 175.098 204.952 174.675C204.861 173.941 204.519 172.093 203.951 169.333C203.814 168.666 203.61 167.553 203.496 166.885C203.405 166.217 203.268 165.416 203.223 165.104C203.155 164.793 203.155 164.659 203.2 164.815C203.246 164.949 203.428 165.104 203.61 165.149C204.156 165.26 210.775 173.763 210.775 174.341C210.775 174.564 210.684 175.098 210.57 175.543C210.456 175.988 210.183 177.146 209.979 178.125C209.774 179.105 209.455 180.418 209.273 181.041C209.091 181.664 208.955 182.354 208.955 182.577C208.955 182.799 208.818 183.489 208.637 184.113C208.318 185.203 207.704 189.054 207.499 191.146C207.454 191.702 207.294 192.593 207.158 193.149C207.044 193.706 206.931 194.729 206.908 195.442C206.908 196.621 206.84 196.822 206.203 197.4C205.839 197.734 204.974 198.291 204.292 198.602C203.61 198.914 202.995 199.27 202.927 199.381C202.859 199.515 202.609 199.604 202.381 199.604C202.154 199.604 201.835 199.76 201.676 199.938C201.517 200.116 201.153 200.272 200.88 200.272C200.607 200.272 200.243 200.427 200.084 200.605C199.925 200.783 199.652 200.939 199.47 200.939C199.288 200.939 198.856 201.073 198.537 201.229C197.764 201.607 196.445 202.186 193.783 203.299C193.306 203.499 192.623 203.788 192.282 203.966C191.918 204.144 191.486 204.278 191.281 204.278C191.099 204.278 190.667 204.411 190.349 204.59C190.007 204.768 189.325 205.057 188.825 205.235C186.937 205.925 185.845 206.326 185.117 206.637C184.708 206.815 184.275 206.949 184.139 206.949C184.003 206.949 183.57 207.082 183.184 207.238C182.206 207.639 181.023 208.062 180.181 208.284C179.817 208.396 179.135 208.596 178.703 208.752C178.271 208.885 177.543 209.13 177.11 209.286C176.678 209.442 175.95 209.687 175.518 209.82C175.086 209.976 174.426 210.176 174.04 210.287C173.676 210.377 173.107 210.555 172.789 210.666C172.47 210.799 171.606 211.067 170.855 211.289C170.105 211.512 169.081 211.801 168.581 211.957C167.125 212.402 163.986 213.292 161.598 213.938C158.686 214.739 157.822 214.962 156.48 215.273C152.909 216.141 152.135 216.342 151.043 216.653C150.407 216.831 149.679 216.965 149.429 216.965C149.178 216.965 148.45 217.098 147.859 217.276C146.813 217.566 145.584 217.833 141.558 218.612C140.671 218.79 139.147 219.102 138.215 219.28C137.282 219.48 136.213 219.636 135.826 219.636C135.462 219.636 134.575 219.792 133.893 219.97C133.211 220.148 132.187 220.303 131.641 220.303C131.072 220.303 129.685 220.459 128.57 220.637C123.657 221.416 116.265 221.928 112.853 221.728C108.531 221.483 104.892 219.702 102.094 216.52C101.298 215.607 100.547 214.65 100.434 214.405C100.32 214.16 99.8649 213.359 99.4327 212.625C99.0005 211.89 98.5456 211.067 98.4091 210.777C98.2954 210.488 97.9087 209.687 97.5903 208.997C95.2929 204.033 94.9972 203.388 94.9972 203.187C94.9972 203.076 94.8607 202.698 94.6788 202.342C94.3603 201.741 93.2003 198.958 92.6089 197.378C92.1312 196.065 91.3351 193.995 90.5845 192.081C90.4025 191.636 89.9476 190.411 89.5837 189.365C89.197 188.319 88.6283 186.717 88.2871 185.804C87.9687 184.892 87.6047 183.823 87.491 183.467C87.4 183.089 87.1953 182.488 87.0588 182.132C86.4902 180.551 84.4203 174.208 83.7379 171.893C83.5105 171.159 83.192 170.224 83.0328 169.823C82.8508 169.422 82.7143 168.933 82.7143 168.71C82.7143 168.51 82.5779 167.953 82.3959 167.442C82.2367 166.952 81.9182 165.95 81.6908 165.216C80.8947 162.567 80.6672 161.744 80.3488 160.72C79.6891 158.383 79.2569 156.936 78.9385 155.801C78.7565 155.178 78.4836 154.109 78.3016 153.464C78.1196 152.841 77.8012 151.705 77.5965 150.971C77.3918 150.236 77.0733 149.168 76.8914 148.612C76.7094 148.033 76.5729 147.41 76.5729 147.187C76.5729 146.965 76.4364 146.341 76.2545 145.763C76.0725 145.206 75.7768 144.182 75.5948 143.515C75.4129 142.847 75.0944 141.667 74.8897 140.888C74.685 140.131 74.3665 138.885 74.1618 138.106C73.9799 137.349 73.6614 136.214 73.4794 135.591C73.2975 134.968 73.161 134.278 73.161 134.055C73.161 133.833 73.0245 133.143 72.8426 132.519C72.6606 131.896 72.3649 130.783 72.1829 130.049C72.001 129.314 71.728 128.268 71.5688 127.712C71.4323 127.155 71.2276 126.309 71.1366 125.82C71.0456 125.33 70.8409 124.529 70.7272 124.039C70.2723 122.414 69.9083 120.923 69.7491 120.033C69.6581 119.543 69.4534 118.631 69.2942 118.03C68.7028 115.693 68.4071 114.402 68.0431 112.688C67.8384 111.708 67.52 110.395 67.338 109.772C67.156 109.149 67.0196 108.414 67.0196 108.125C67.0196 107.836 66.8831 107.101 66.7011 106.478C66.5192 105.855 66.2007 104.541 65.996 103.562C65.7913 102.583 65.5183 101.336 65.3819 100.78C65.2454 100.223 65.0634 99.2219 64.9724 98.5319C64.8814 97.8642 64.6995 97.0851 64.5402 96.818C64.4038 96.5732 64.29 95.9722 64.29 95.5048C64.2673 95.0374 64.1308 94.2584 63.9488 93.7687C63.7669 93.2791 63.6077 92.5223 63.6077 92.0994C63.5849 91.6765 63.4484 90.9198 63.2665 90.4301C63.0845 89.9404 62.9253 89.1837 62.9253 88.7608C62.9025 88.3379 62.7661 87.5811 62.5841 87.0914C62.4021 86.6018 62.2429 85.845 62.2429 85.3999C62.2429 84.9547 62.0837 84.1534 61.9017 83.6415C61.7197 83.1296 61.5605 82.3951 61.5605 82.0167C61.5605 81.6383 61.424 80.7703 61.2421 80.1026C60.9236 78.8561 60.5597 77.0087 60.2185 74.7385C60.1048 74.0707 59.9001 72.9133 59.7636 72.1788C59.3541 70.1089 58.8765 67.3712 58.7173 66.2805C58.649 65.7241 58.4898 64.9674 58.3761 64.6112C58.1941 63.9658 57.8302 61.6955 57.4662 58.8242C57.3752 58.0897 57.1933 56.9323 57.0568 56.2646C56.9203 55.5969 56.6701 53.883 56.4654 52.4808C56.2834 51.0786 56.0105 49.0754 55.8513 48.0293C55.3736 44.5571 55.0324 37.1453 55.2144 34.2296C55.5101 30.0229 56.5109 27.3074 58.7173 24.9259C59.9455 23.6127 63.1072 21.3201 63.6986 21.3201C63.8579 21.3201 64.1308 21.1866 64.2673 21.0085C64.4038 20.8304 64.7677 20.6524 65.0407 20.5856C65.3136 20.5188 66.1097 20.2518 66.7921 20.0069C68.9985 19.1611 72.3194 18.1373 76.6866 16.9799C79.4844 16.2231 80.3942 16.0005 81.8045 15.6444C82.6234 15.4441 83.7607 15.1548 84.3293 14.9767C84.9207 14.7986 85.5803 14.6428 85.7851 14.6428C86.0125 14.6428 86.7177 14.5093 87.3545 14.3312C87.9914 14.1532 89.1287 13.8638 89.8794 13.6857C90.63 13.5077 91.7673 13.2183 92.3814 13.0848C93.0183 12.929 93.9282 12.7287 94.4286 12.6396C94.929 12.5506 95.8616 12.3503 96.4757 12.1945C98.8413 11.638 100.183 11.3264 101.935 10.9703C102.936 10.77 104.323 10.4584 105.005 10.3026C106.393 9.96872 108.235 9.59033 109.782 9.32324C110.737 9.14517 111.215 9.05615 114.058 8.38843C114.65 8.23264 115.651 8.05457 116.265 7.96555C116.902 7.8765 117.857 7.69843 118.426 7.56488C120.45 7.07523 121.747 6.83038 123.134 6.63007C123.93 6.5188 124.772 6.31845 124.999 6.18491C125.249 6.07364 125.795 5.96234 126.228 5.96234C126.637 5.96234 127.501 5.80655 128.115 5.62848C128.73 5.45041 129.48 5.29462 129.799 5.29462C130.117 5.29462 131.027 5.16107 131.846 4.96075C132.665 4.78268 134.143 4.49335 135.144 4.31528C136.145 4.11496 137.532 3.87012 138.215 3.73657C138.897 3.60303 140.125 3.40271 140.944 3.29141C141.763 3.18015 142.787 2.97983 143.219 2.84628C143.651 2.73499 144.311 2.62369 144.697 2.62369C145.061 2.62369 146.039 2.49014 146.858 2.3121C152.249 1.15469 158.754 0.843079 161.188 1.66663ZM159.209 9.70163C159.801 9.92419 160.642 10.4139 161.052 10.7923C161.78 11.4822 163.235 14.1086 163.235 14.7096C163.235 14.8654 163.395 15.1993 163.577 15.4441C163.759 15.6667 163.918 16.1341 163.918 16.4457C163.918 16.7573 164.077 17.2025 164.259 17.4473C164.441 17.6699 164.6 18.1595 164.6 18.4934C164.6 18.8495 164.737 19.406 164.919 19.7176C165.214 20.3185 165.578 21.5204 165.942 23.1675C166.056 23.6349 166.261 24.1468 166.397 24.2804C166.534 24.4139 166.647 24.8368 166.647 25.1929C166.67 25.5713 166.807 26.1278 166.988 26.4394C167.17 26.751 167.307 27.2406 167.33 27.5523C167.33 27.8639 167.489 28.398 167.671 28.7542C167.853 29.088 168.012 29.6445 168.012 29.9783C168.035 30.2899 168.171 30.8019 168.353 31.1135C168.535 31.4251 168.672 31.9147 168.694 32.2264C168.694 32.538 168.854 33.0722 169.036 33.4283C169.218 33.7621 169.377 34.3186 169.377 34.6525C169.377 34.9863 169.513 35.4315 169.695 35.6763C169.854 35.9211 170.059 36.6111 170.127 37.2343C170.196 37.8353 170.355 38.3695 170.491 38.414C170.628 38.4585 170.742 38.8146 170.742 39.193C170.742 39.5936 170.901 40.1946 171.083 40.5507C171.265 40.8846 171.424 41.4188 171.424 41.7081C171.424 42.0197 171.583 42.6207 171.765 43.0658C171.947 43.4887 172.106 44.1342 172.106 44.4458C172.106 44.7797 172.266 45.2471 172.448 45.4919C172.63 45.7145 172.789 46.2709 172.789 46.7161C172.789 47.139 172.948 47.6954 173.13 47.9403C173.312 48.1628 173.471 48.7193 173.471 49.1422C173.471 49.5651 173.63 50.166 173.812 50.4776C173.994 50.7892 174.131 51.3234 174.153 51.7018C174.153 52.0579 174.313 52.6589 174.495 53.015C174.677 53.3489 174.836 53.9053 174.836 54.2392C174.836 54.5508 174.995 55.1072 175.177 55.4633C175.359 55.7972 175.518 56.4204 175.518 56.7988C175.518 57.1994 175.677 57.7114 175.859 57.9562C176.041 58.1788 176.178 58.6684 176.201 59.0468C176.201 59.4029 176.337 60.1597 176.519 60.7161C176.701 61.2726 176.997 62.2297 177.201 62.8529C177.406 63.4984 177.565 64.2328 177.565 64.5222C177.565 64.8116 177.725 65.3457 177.907 65.7019C178.089 66.0357 178.248 66.6367 178.248 67.0373C178.248 67.4157 178.407 68.0166 178.589 68.3728C178.771 68.7066 178.93 69.2408 178.93 69.5524C178.93 69.864 179.067 70.4205 179.249 70.7989C179.431 71.1995 179.613 71.8672 179.681 72.2901C179.726 72.713 179.885 73.3585 180.022 73.7369C180.318 74.5827 180.727 76.1407 180.955 77.2981C181.046 77.7878 181.228 78.5445 181.364 78.9674C181.91 80.6812 182.774 83.8864 183.002 85.0883C183.093 85.5779 183.275 86.3347 183.411 86.7576C183.775 87.8482 184.162 89.384 184.366 90.4301C184.457 90.9198 184.639 91.6765 184.776 92.0994C185.163 93.2791 185.527 94.7481 185.754 95.9722C185.868 96.5732 186.072 97.1742 186.209 97.3077C186.323 97.419 186.436 97.8864 186.436 98.3316C186.436 98.7545 186.596 99.3999 186.778 99.7561C186.96 100.09 187.119 100.758 187.119 101.203C187.119 101.648 187.278 102.293 187.46 102.65C187.642 102.983 187.801 103.584 187.801 103.94C187.801 104.319 187.96 104.942 188.165 105.343C188.347 105.743 188.484 106.411 188.438 106.812L188.37 107.568L186.664 107.502C185.527 107.457 184.639 107.546 184.048 107.747C183.548 107.947 182.888 108.147 182.57 108.214C181.569 108.437 180.363 109.638 179.635 111.13C178.953 112.554 178.93 112.665 178.93 115.871C178.93 117.673 179.044 119.543 179.18 120.033C179.317 120.522 179.499 121.324 179.59 121.813C179.681 122.303 179.885 123.06 180.022 123.483C180.181 123.906 180.5 124.907 180.727 125.708C180.977 126.51 181.387 127.712 181.66 128.379C181.933 129.047 182.228 129.871 182.342 130.182C182.433 130.494 182.615 130.939 182.729 131.184C182.865 131.406 183.115 131.963 183.297 132.386C183.502 132.809 183.957 133.81 184.344 134.612C184.708 135.413 185.094 136.214 185.163 136.392C185.231 136.57 185.39 136.882 185.504 137.06C185.617 137.238 185.777 137.55 185.845 137.728C185.913 137.906 186.072 138.217 186.186 138.395C186.3 138.573 186.459 138.885 186.527 139.063C186.618 139.241 186.846 139.686 187.073 140.065C187.301 140.421 187.892 141.422 188.347 142.29C188.825 143.136 189.348 144.004 189.507 144.182C189.644 144.36 189.848 144.694 189.917 144.895C190.007 145.117 190.44 145.874 190.917 146.564C191.372 147.276 191.964 148.211 192.191 148.634C192.896 149.903 197.332 156.402 198.765 158.271C199.493 159.228 200.084 160.052 200.084 160.119C200.084 160.208 200.38 160.631 200.721 161.076C201.471 161.988 202.131 163.747 202.131 164.748C202.131 165.127 202.245 165.794 202.381 166.217C202.518 166.64 202.723 167.553 202.814 168.221C202.882 168.888 203.086 170.09 203.246 170.891C204.36 176.634 204.679 178.704 204.701 180.574C204.724 183.267 203.837 185.492 202.108 187.051C201.062 187.963 199.697 188.92 199.424 188.92C199.311 188.92 198.924 189.054 198.56 189.232C197.423 189.766 196.354 190.211 195.876 190.322C195.626 190.389 194.852 190.656 194.17 190.923C193.488 191.168 191.691 191.791 190.189 192.281C188.688 192.748 187.255 193.238 187.005 193.349C186.3 193.639 185.026 194.062 184.275 194.262C183.639 194.44 183.184 194.574 181.205 195.264C180.431 195.531 174.722 197.311 172.448 197.979C171.833 198.179 170.969 198.469 170.56 198.624C170.15 198.803 169.627 198.936 169.377 198.936C169.127 198.936 168.603 199.07 168.194 199.248C167.785 199.426 166.784 199.737 165.965 199.938C165.146 200.16 164.077 200.45 163.577 200.605C162.417 200.962 159.71 201.718 156.412 202.631C153.796 203.343 148.928 204.612 146.176 205.28C145.425 205.458 144.197 205.769 143.446 205.947C142.696 206.125 141.49 206.415 140.785 206.593C140.057 206.771 138.965 207.038 138.328 207.171C137.714 207.327 136.713 207.528 136.122 207.639C135.531 207.728 134.848 207.906 134.598 208.039C134.348 208.173 133.87 208.284 133.552 208.284C133.211 208.284 132.323 208.44 131.55 208.618C128.297 209.375 127.046 209.62 126.41 209.62C126.046 209.62 125.09 209.776 124.294 209.976C123.202 210.265 121.656 210.354 117.857 210.377C112.284 210.399 111.807 210.31 109.873 208.818C109.123 208.24 107.28 205.702 107.28 205.257C107.28 205.213 106.984 204.545 106.62 203.788C106.279 203.009 105.642 201.585 105.233 200.605C104.824 199.626 104.346 198.491 104.187 198.09C103.413 196.332 103.231 195.887 102.89 195.041C102.708 194.551 102.39 193.75 102.208 193.26C102.026 192.771 101.616 191.769 101.343 191.035C101.048 190.3 100.729 189.61 100.638 189.499C100.547 189.365 100.456 189.076 100.456 188.809C100.456 188.564 100.32 188.163 100.138 187.919C99.9786 187.674 99.7739 187.229 99.7056 186.917C99.6374 186.605 99.4099 185.915 99.1825 185.359C98.4774 183.512 97.2491 180.128 97.0444 179.461C96.9534 179.082 96.7259 178.437 96.5667 178.014C96.4302 177.591 96.18 176.879 96.0208 176.456C95.8616 176.033 95.6114 175.321 95.4749 174.898C95.3157 174.475 95.1109 173.807 94.9972 173.451C94.8835 173.073 94.6788 172.427 94.5195 172.004C94.3831 171.581 94.1329 170.869 93.9736 170.446C93.8144 170.023 93.5187 169.111 93.314 168.443C93.132 167.775 92.6544 166.262 92.2677 165.104C91.9038 163.947 91.4261 162.434 91.2214 161.766C91.0167 161.098 90.721 160.141 90.5617 159.651C90.4025 159.162 90.0841 158.16 89.8794 157.426C89.6519 156.691 89.3562 155.69 89.197 155.2C88.9013 154.198 88.4691 152.796 87.1726 148.3C86.9451 147.565 86.6494 146.519 86.4674 145.963C86.3082 145.406 86.0125 144.316 85.7851 143.515C85.5803 142.713 85.2619 141.667 85.0799 141.178C84.898 140.666 84.7615 140.087 84.7615 139.864C84.7615 139.642 84.625 138.996 84.443 138.418C84.2611 137.861 83.9654 136.837 83.7834 136.17C83.5787 135.502 83.3057 134.5 83.1465 133.944C83.01 133.387 82.8053 132.586 82.7143 132.163C82.5551 131.473 82.0547 129.47 81.0084 125.419C80.8264 124.729 80.5307 123.572 80.3488 122.859C80.1668 122.169 79.8938 121.079 79.7574 120.478C79.5981 119.855 79.3934 118.898 79.2797 118.319C79.1887 117.74 79.0067 117.072 78.8703 116.828C78.7338 116.583 78.6201 116.16 78.6201 115.893C78.6201 115.626 78.4836 114.891 78.3016 114.268C78.1196 113.645 77.8012 112.332 77.5965 111.352C77.3918 110.373 77.0961 109.104 76.9141 108.548C76.7321 107.969 76.5729 107.279 76.5729 107.012C76.5729 106.745 76.4137 105.855 76.209 105.053C76.0043 104.23 75.7086 103.006 75.5493 102.338C75.2081 100.958 74.7987 98.977 74.6168 97.9977C74.5485 97.6193 74.3665 96.6845 74.1846 95.8832C73.7069 93.6797 73.2065 91.2981 72.8198 89.3172C72.4559 87.5811 72.0692 85.667 71.5688 83.1964C71.4323 82.5286 71.2276 81.4158 71.1139 80.748C70.9319 79.4793 70.6362 77.9436 70.0675 75.4062C69.8856 74.6049 69.7491 73.7146 69.7491 73.403C69.7491 73.0914 69.6126 72.2011 69.4306 71.3998C69.0895 69.8418 68.4526 66.2138 68.2933 64.9451C68.2024 64.1438 67.8612 62.2297 67.429 59.9371C67.2925 59.2026 67.0878 57.8894 66.9968 57.0436C66.9058 56.1756 66.7239 54.8401 66.6101 54.0388C66.2235 51.7463 65.8823 49.2312 65.6548 46.5825C65.5411 45.2248 65.3136 43.7781 65.1771 43.3552C65.0407 42.8655 64.9724 40.7733 65.0179 37.7908L65.0862 33.0054L65.7685 31.6922C66.1325 30.9799 66.8149 30.0896 67.2698 29.689C68.1796 28.9322 71.3186 27.3297 71.8872 27.3297C72.0919 27.3297 72.5696 27.1961 72.979 27.0181C73.8206 26.6842 75.2991 26.2391 77.4828 25.6604C78.3016 25.4378 79.4162 25.1484 79.9848 24.9926C80.5535 24.8368 81.668 24.5475 82.4869 24.3472C83.3057 24.1246 84.4885 23.8352 85.1027 23.6572C86.1945 23.3678 87.4683 23.0562 90.5162 22.2995C91.2896 22.1214 92.4497 21.8098 93.0865 21.6317C93.7234 21.4537 94.4286 21.3201 94.6788 21.3201C94.9062 21.3201 95.5659 21.1866 96.1345 21.0085C96.7032 20.8304 97.6812 20.5634 98.2954 20.4298C100.57 19.8956 102.412 19.495 103.3 19.3169C103.8 19.2279 104.733 19.0276 105.347 18.8718C107.712 18.3153 109.054 18.0037 110.806 17.6476C111.807 17.4473 113.194 17.1357 113.876 16.9799C115.264 16.646 117.106 16.2676 118.653 16.0005C119.222 15.8893 120.132 15.7112 120.7 15.5777C121.269 15.4441 122.543 15.177 123.544 14.9767C124.544 14.7764 125.818 14.5093 126.387 14.3757C126.955 14.2422 127.934 14.0641 128.548 13.9751C129.185 13.8861 130.254 13.6857 130.936 13.5522C131.618 13.3964 132.915 13.1516 133.779 12.9735C134.666 12.8177 135.986 12.5506 136.736 12.4171C137.487 12.2613 138.738 12.0609 139.511 11.9719C140.307 11.8829 141.058 11.7048 141.217 11.5935C141.376 11.46 142.309 11.3042 143.31 11.2374C144.288 11.1706 145.198 11.0148 145.334 10.8813C145.471 10.7477 146.017 10.6364 146.54 10.6364C147.063 10.6364 148.291 10.5029 149.269 10.3248C150.27 10.1468 151.885 9.92419 152.886 9.83517C153.887 9.7684 154.865 9.61261 155.047 9.50131C155.615 9.1897 158.049 9.30099 159.209 9.70163Z" fill="#101223"/>
<path d="M120.815 22.2549C113.764 22.8781 114.082 22.8336 108.532 24.3249C103.619 25.6381 96.5675 29.3328 92.1321 32.9386C88.8111 35.6317 86.3546 38.1691 83.4431 41.9307C82.6924 42.9323 81.8281 44.1342 81.5779 44.6016C81.3049 45.0912 80.8955 45.759 80.668 46.1373C80.4406 46.4935 79.8719 47.5618 79.3943 48.4744C78.9393 49.387 78.4844 50.2995 78.3707 50.4776C78.257 50.6556 78.0977 50.9673 78.0295 51.1453C77.9613 51.3234 77.7565 51.7685 77.5973 52.1469C76.7102 54.1501 76.5738 54.5285 76.5738 54.8178C76.5738 54.9959 76.4373 55.4633 76.2553 55.8639C76.0733 56.2646 75.7776 57.1994 75.5957 57.9339C75.391 58.6684 75.118 59.7145 74.9588 60.271C74.7996 60.8274 74.5948 61.8735 74.5039 62.608C74.4129 63.3425 74.2309 64.3886 74.0944 64.9451C73.7305 66.5476 73.776 75.7178 74.1854 77.7877C74.3674 78.7448 74.5266 79.8132 74.5266 80.1915C74.5266 80.5477 74.6631 81.3044 74.8451 81.8609C75.027 82.4173 75.2772 83.3076 75.4364 83.8641C75.8914 85.6669 76.0961 86.3124 76.9604 88.6494C77.2561 89.4507 77.8703 90.7862 79.0303 93.2123C79.235 93.6352 79.6672 94.3919 79.9629 94.8816C80.2814 95.3713 80.7818 96.217 81.0775 96.7735C82.3967 99.1996 86.5138 104.119 89.3343 106.678C92.1321 109.193 95.9761 112.131 96.4993 112.131C96.5675 112.131 96.9542 112.376 97.3409 112.665C97.7503 112.955 98.8876 113.623 99.8885 114.134C100.889 114.624 101.867 115.136 102.049 115.247C102.413 115.448 105.461 116.65 106.826 117.139C110.079 118.274 114.127 119.187 117.403 119.499C122.635 119.988 123.795 120.033 125.773 119.877C126.911 119.766 128.321 119.654 128.89 119.632L129.913 119.588L129.822 120.367C129.8 120.789 129.663 121.324 129.549 121.524C129.436 121.747 129.117 123.149 128.844 124.64C128.389 127.333 128.367 127.422 128.753 129.937C128.981 131.34 129.299 132.898 129.481 133.387C129.663 133.899 129.8 134.433 129.8 134.589C129.8 134.745 130.277 135.836 130.846 137.015C132.097 139.575 134.053 142.135 135.986 143.826C138.034 145.562 139.239 146.341 142.128 147.766C142.628 148.011 144.903 148.701 146.791 149.168C148.679 149.635 153.251 149.635 155.252 149.19C156.936 148.79 159.392 148.055 160.006 147.788C160.211 147.677 160.802 147.387 161.303 147.165C164.01 145.918 167.785 142.669 169.56 140.087C170.765 138.306 172.107 135.791 172.107 135.279C172.107 135.079 172.198 134.834 172.312 134.723C172.426 134.589 172.721 133.654 172.994 132.631C173.608 130.204 173.677 124.885 173.108 123.015C172.221 120.01 171.971 119.298 171.493 118.475C171.22 117.985 170.765 117.139 170.492 116.583C169.901 115.448 168.536 113.667 166.944 111.975C165.875 110.84 162.031 108.125 161.485 108.125C161.348 108.125 160.939 107.991 160.575 107.813C160.234 107.635 159.438 107.279 158.823 107.012L157.732 106.522L159.324 104.92C161.803 102.471 164.942 98.3983 166.421 95.7496C166.694 95.2822 166.989 94.7035 167.126 94.4809C167.24 94.2806 167.444 93.9245 167.558 93.7019C167.694 93.5016 167.854 93.1677 167.922 92.9897C167.99 92.8116 168.149 92.5 168.263 92.322C168.377 92.1439 168.536 91.8323 168.604 91.6542C168.673 91.4762 168.877 91.0088 169.036 90.6526C169.196 90.2743 169.514 89.5398 169.719 88.9833C169.946 88.4269 170.197 87.7814 170.31 87.5366C170.538 87.0246 171.197 84.8656 171.721 82.8625C172.312 80.5922 172.608 78.9451 172.812 76.519C172.949 75.2281 173.108 73.6255 173.199 72.9578C173.404 71.333 172.903 65.1454 172.335 62.3632C171.789 59.6255 170.492 55.2852 169.673 53.3711C168.695 51.1008 167.217 48.096 166.648 47.2502C166.398 46.8718 166.102 46.3822 165.966 46.1373C165.534 45.2916 163.054 41.8416 161.94 40.4839C160.052 38.2581 154.092 32.6715 153.569 32.6715C153.433 32.6715 153.114 32.4489 152.864 32.2041C152.455 31.7589 149.225 29.5999 148.451 29.2661C148.269 29.177 147.814 28.9099 147.428 28.6874C146.222 27.9083 145.039 27.3296 144.721 27.3296C144.562 27.3296 144.289 27.1738 144.13 26.9958C143.97 26.8177 143.675 26.6619 143.447 26.6619C143.22 26.6619 142.924 26.5284 142.788 26.3503C142.651 26.1722 142.242 25.9942 141.9 25.9274C141.559 25.8606 140.718 25.5935 140.035 25.3487C136.714 24.0578 132.188 23.0117 128.321 22.6555C127.07 22.522 125.273 22.3662 124.34 22.2772C123.408 22.1659 121.816 22.1659 120.815 22.2549ZM129.117 24.3471C130.436 24.5252 131.96 24.7923 132.529 24.9258C133.098 25.0594 133.962 25.2374 134.462 25.3265C136.077 25.6158 140.126 26.8845 142.082 27.7303C142.401 27.8638 142.81 28.0196 142.992 28.0864C143.174 28.1532 143.493 28.309 143.675 28.4203C143.857 28.5316 144.471 28.8432 145.039 29.1103C145.608 29.3551 146.222 29.6667 146.404 29.778C146.586 29.8893 147.564 30.468 148.565 31.0467C151.477 32.716 154.547 35.0976 157.572 38.0578C161.803 42.1755 163.577 44.5348 166.739 50.3663C167.217 51.2121 168.422 53.972 169.036 55.5968C169.628 57.0881 170.56 60.4045 170.947 62.2741C171.311 63.9435 171.948 69.9085 171.948 71.3998C171.948 73.2917 171.266 79.9022 170.993 80.5922C170.856 80.9483 170.742 81.5047 170.742 81.8386C170.742 82.1725 170.583 82.9515 170.401 83.5524C170.197 84.1534 169.878 85.1327 169.696 85.756C169.059 87.7369 168.172 89.9849 167.149 92.0549C166.716 92.9452 166.216 93.7464 166.034 93.8577C165.829 93.9468 165.238 93.9468 164.669 93.8355C164.123 93.7019 162.759 93.6797 161.689 93.7242C160.598 93.791 158.164 93.9468 156.276 94.0581C154.388 94.1693 152.637 94.3919 152.364 94.5255C152.113 94.659 151.522 94.7703 151.044 94.7703C150.248 94.7703 149.247 94.9929 146.495 95.8164C144.903 96.2838 144.289 96.1503 144.107 95.3267C143.834 94.2806 143.311 92.9897 143.038 92.7226C142.879 92.5668 142.765 92.2774 142.765 92.0771C142.765 91.8768 142.606 91.5875 142.424 91.4317C142.037 91.12 141.969 89.9627 142.333 89.7623C142.446 89.6733 142.674 89.3839 142.788 89.1391C142.901 88.872 143.197 88.3378 143.447 87.9817C143.697 87.6033 143.948 87.1582 144.039 86.9801C145.858 82.4841 146.177 80.837 146.177 75.8513C146.177 71.6669 146.177 71.6001 146.7 71.422C147.405 71.1549 148.542 69.9085 149.111 68.7956C149.498 68.0166 149.589 67.4602 149.589 65.546C149.589 62.9196 149.202 61.74 148.042 60.6271C147.428 60.0706 147.246 60.0039 146.131 60.1152C145.472 60.1597 144.698 60.2932 144.425 60.3822C143.857 60.5603 143.811 60.4713 143.038 58.0229C142.765 57.2217 142.31 55.9752 141.991 55.263C141.355 53.8607 141.241 52.3027 141.65 50.8115C142.082 49.2979 141.355 45.848 140.172 43.8226C139.694 43.0213 137.488 40.8845 136.919 40.662C136.646 40.5729 136.055 39.9052 135.577 39.193C134.735 37.9243 132.233 35.3424 131.801 35.3424C131.687 35.3424 131.255 35.0976 130.869 34.8082C130.004 34.185 126.752 32.6715 126.251 32.6715C126.069 32.6715 125.682 32.5602 125.41 32.4044C125.137 32.2708 124.5 32.0705 123.999 31.9815C123.499 31.8925 122.68 31.7144 122.18 31.5808C121.679 31.4473 119.336 31.336 116.971 31.336C112.626 31.336 112.24 31.3805 109.078 32.3599C108.486 32.5379 107.895 32.6715 107.759 32.6715C107.508 32.6715 104.711 33.8734 104.096 34.2518C103.915 34.3631 103.505 34.5634 103.209 34.6747C101.026 35.5872 97.4774 38.5252 95.7259 40.8623C94.1337 42.9545 93.929 43.4442 92.7007 47.3615C92.1321 49.1644 92.5187 54.1056 93.3376 55.7081C94.3384 57.6445 94.4067 57.9339 94.4522 59.9148C94.4522 61.05 94.6341 62.4522 94.8388 63.1199C95.2255 64.3441 96.3173 66.0357 97.2727 66.8592C97.7731 67.3044 97.8186 67.4824 97.8413 69.6414C97.8641 71.6891 97.9323 72.112 98.5009 73.2249C98.8421 73.9371 99.0696 74.6049 99.0014 74.7162C98.9104 74.8275 98.4782 75.05 98.0005 75.2058C96.9087 75.5397 96.6585 75.7623 96.1126 76.7639C95.4075 78.1438 95.5895 79.6351 96.7495 81.7496C97.1589 82.5063 98.8421 84.0866 99.2288 84.0866C99.3653 84.0866 99.6383 84.2424 99.7975 84.4428C100.048 84.7544 100.434 84.7989 102.095 84.7098L104.096 84.5763L105.552 86.7353C107.167 89.1614 110.556 92.6336 112.513 93.8577C114.037 94.8371 116.607 96.1058 117.039 96.1058C117.198 96.1058 117.699 96.3061 118.108 96.5732C118.79 96.9738 118.881 97.1519 118.881 97.9977C118.881 98.5318 118.972 99.2218 119.109 99.5334C119.223 99.8673 119.427 100.691 119.564 101.403C119.678 102.093 119.837 102.917 119.928 103.228C120.041 103.718 119.928 103.829 118.836 104.297C116.766 105.165 116.288 105.365 115.242 105.877C114.287 106.322 113.809 106.589 111.603 107.791C110.306 108.526 105.643 112.02 104.551 113.111C103.983 113.667 103.369 114.112 103.164 114.134C102.845 114.134 101.913 113.689 99.4335 112.376C99.0696 112.176 98.0005 111.508 97.0907 110.907C96.1581 110.284 95.18 109.638 94.8843 109.46C93.7925 108.77 90.79 106.166 88.9476 104.319C86.3546 101.737 83.2611 97.6861 81.6234 94.7703C80.0539 92.0104 77.9385 87.4475 77.9385 86.8688C77.9385 86.6908 77.802 86.2234 77.6201 85.8227C77.3016 85.1327 77.0059 84.1757 76.3463 81.527C75.3227 77.5874 74.9815 68.306 75.7094 64.166C76.2098 61.3171 76.5738 59.6032 76.8467 58.8242C76.9604 58.4458 77.1424 57.8449 77.2561 57.4887C77.5518 56.4649 78.4162 54.0611 78.9621 52.8146C79.7127 51.1231 81.5324 47.6064 82.101 46.7828C82.4422 46.2709 82.7152 45.7812 82.7152 45.6922C82.7152 45.6254 83.1474 44.9799 83.6933 44.29C84.2164 43.6 84.8533 42.7097 85.1035 42.3535C86.5593 40.061 94.3839 32.8273 96.3628 31.937C96.5448 31.8479 97.0225 31.5808 97.3864 31.336C97.7731 31.0912 98.2735 30.8018 98.5237 30.6683C98.7739 30.5347 99.2971 30.2454 99.661 30.0228C100.821 29.2883 105.075 27.3296 105.484 27.3296C105.62 27.3296 106.007 27.1961 106.326 27.018C107.099 26.6397 108.282 26.239 109.328 25.9942C110.693 25.6603 112.126 25.3042 113.331 24.9703C113.968 24.7923 114.878 24.6587 115.379 24.6587C115.856 24.6365 116.925 24.5029 117.744 24.3471C119.882 23.902 126.206 23.902 129.117 24.3471ZM123.135 32.9163C123.476 33.0499 124.181 33.2279 124.682 33.3392C127.684 33.9624 131.21 35.8098 133.507 37.9911C134.531 38.9704 134.622 39.1262 134.258 39.2597C134.008 39.3488 133.416 39.282 132.893 39.1262C131.392 38.6588 124.045 38.5697 122.339 38.9926C121.588 39.193 120.678 39.3488 120.314 39.3488C119.95 39.3488 119.2 39.4823 118.631 39.6604C118.085 39.8162 117.016 40.1278 116.266 40.3504C114.901 40.7287 114.173 40.9736 112.285 41.6858C111.011 42.1532 106.962 44.1119 106.03 44.6906C105.666 44.9354 105.188 45.2025 105.006 45.2916C104.347 45.5809 101.913 47.4728 100.389 48.8973C98.4782 50.6779 96.8632 52.7924 95.9534 54.7288C95.1573 56.4204 94.6114 56.7988 94.4067 55.8639C94.3384 55.5301 94.1337 54.9291 93.9517 54.5285C93.7243 54.0166 93.6333 52.9259 93.6333 50.8337C93.6333 48.1851 93.7015 47.7176 94.2247 46.3377C94.5431 45.4919 94.8843 44.5571 94.9753 44.2454C95.4075 42.5761 99.0469 38.6588 101.663 37.034C105.416 34.6969 109.76 33.0499 113.195 32.6492C115.197 32.4266 122.339 32.6047 123.135 32.9163ZM132.984 40.4394C135.19 41.0404 136.783 41.8639 138.056 43.0881C140.058 44.9799 140.718 46.627 140.718 49.7431C140.718 50.9895 140.627 52.0579 140.513 52.1247C140.399 52.1914 140.081 52.0801 139.785 51.8576C138.42 50.856 136.032 50.3663 132.87 50.4108C130.368 50.4553 126.228 50.8782 125.728 51.1231C125.478 51.2566 124.886 51.3679 124.409 51.3679C123.931 51.3902 123.135 51.5237 122.635 51.7018C122.134 51.8798 121.497 52.0356 121.224 52.0356C120.929 52.0356 120.314 52.1692 119.859 52.3472C119.382 52.503 118.381 52.8146 117.63 53.015C116.88 53.2153 115.879 53.5491 115.424 53.7049C114.946 53.883 114.127 54.1946 113.604 54.3949C111.239 55.263 107.144 57.1771 105.734 58.0897C105.188 58.4236 104.711 58.7129 104.642 58.7129C104.574 58.7129 103.937 59.1581 103.209 59.6923C100.639 61.6287 98.41 64.4109 98.41 65.7018C98.41 66.9482 97.5229 66.4363 96.4538 64.5889C95.7032 63.2535 95.6804 63.1645 95.6804 60.6716C95.6804 57.7781 95.9989 56.7097 97.7276 53.8162C99.2516 51.2789 103.505 47.3838 106.257 46.0261C106.508 45.8925 107.031 45.6032 107.395 45.3583C108.032 44.9354 108.191 44.8687 108.941 44.5793C109.078 44.5125 109.374 44.379 109.556 44.2677C109.738 44.1564 110.056 44.0006 110.238 43.9338C110.42 43.8671 110.738 43.7113 110.92 43.6C111.102 43.4887 111.716 43.2216 112.285 43.0213C112.854 42.821 113.627 42.5094 113.991 42.3758C115.128 41.8861 118.426 40.9958 121.156 40.3949C122.134 40.1723 124.09 40.061 127.025 40.0388C130.687 40.0165 131.642 40.0833 132.984 40.4394ZM136.1 51.8576C136.487 52.2137 136.623 52.5698 136.623 53.3043C136.623 53.8162 136.76 54.6398 136.942 55.0849C137.124 55.5523 137.328 56.2201 137.419 56.5984C137.647 57.6445 138.67 59.6255 139.558 60.7384C140.513 61.9403 141.446 62.5635 142.515 62.7193C143.288 62.8306 143.311 62.8751 143.697 64.4999C144.584 68.1947 144.789 69.6637 144.926 73.4252C145.108 77.8322 145.017 78.0993 143.834 77.031C142.06 75.4284 139.876 74.7384 136.532 74.7384C134.258 74.7384 132.575 75.0278 129.208 75.9848C128.207 76.2742 127.32 76.519 127.229 76.519C127.025 76.519 127.047 75.4284 127.275 74.8942C127.525 74.2488 126.979 71.6446 126.297 70.2201C125.137 67.8386 121.747 63.8099 121.179 64.1438C121.02 64.2551 121.429 64.9451 122.248 66.0134C124.545 68.9959 125.478 70.732 126.024 73.0914C126.388 74.6494 126.092 75.8736 125.25 76.5635C124.682 77.0087 123.385 77.4093 122.475 77.4093C122.134 77.4093 121.77 77.5429 121.679 77.7209C121.452 78.0771 120.178 78.7448 119.678 78.7448C119.45 78.7448 119.018 78.8783 118.699 79.0564C118.358 79.2122 117.38 79.6796 116.493 80.1025C113.058 81.7273 110.329 85.2885 110.056 88.4936C110.01 89.2504 109.874 89.9404 109.783 89.9849C109.601 90.0962 107.599 87.9149 106.94 86.8688C106.69 86.4905 106.235 85.845 105.893 85.4221C105.552 84.9992 105.075 84.2424 104.802 83.7528C104.529 83.2631 104.21 82.7067 104.096 82.5286C103.983 82.3505 103.846 82.0389 103.778 81.8609C103.71 81.6828 103.551 81.3712 103.46 81.1931C103.346 81.0151 103.096 80.5032 102.914 80.0803C102.732 79.6574 102.391 78.9229 102.186 78.4554C101.776 77.5429 101.708 76.7416 102.027 76.7416C102.322 76.7416 103.71 74.5604 104.074 73.5143C104.483 72.3569 105.006 69.5301 105.006 68.4173C105.006 67.3934 104.62 65.1231 104.278 64.166C104.142 63.7877 103.983 63.2312 103.937 62.8974C103.869 62.5635 103.687 62.1629 103.505 62.0293C102.845 61.4951 103.187 60.9832 104.87 59.8703C106.962 58.4903 108.964 57.3775 109.396 57.3775C109.578 57.3775 109.851 57.2217 110.01 57.0436C110.556 56.3981 111.352 56.6652 112.581 57.8894C113.946 59.2471 115.379 60.0484 116.448 60.0484C116.857 60.0484 117.312 60.1374 117.471 60.2487C117.744 60.4045 120.383 60.0261 120.565 59.8035C120.587 59.759 120.838 59.4252 121.111 59.069C121.452 58.6461 121.611 58.112 121.611 57.511C121.611 56.4649 121.907 56.042 122.635 56.042C122.907 56.042 123.544 55.6859 124.045 55.263C124.818 54.6398 124.977 54.3282 125.068 53.4824C125.137 52.9259 125.25 52.414 125.319 52.3472C125.387 52.2805 126.592 52.0801 128.025 51.8798C129.436 51.7018 130.641 51.5237 130.687 51.4569C130.732 51.4124 131.869 51.3679 133.189 51.3679C135.327 51.3679 135.623 51.4124 136.1 51.8576ZM146.996 61.3393C148.11 62.2519 148.338 62.9196 148.338 65.3902C148.338 67.8386 147.974 68.9514 146.927 69.8863C146.177 70.554 145.858 69.9975 145.517 67.2821C145.426 66.5476 145.221 65.4347 145.062 64.8338C144.903 64.2106 144.698 63.4093 144.607 63.0532C144.38 62.1629 144.584 61.6509 145.267 61.2726C146.04 60.8719 146.427 60.8719 146.996 61.3393ZM100.73 77.298C100.98 77.899 101.344 78.8116 101.526 79.3012C101.708 79.7909 101.958 80.3474 102.072 80.5254C102.186 80.7035 102.345 81.0151 102.413 81.1931C102.482 81.3712 102.686 81.8386 102.891 82.2393C103.596 83.6415 102.754 84.2424 100.935 83.6637C98.7284 82.907 97.0452 80.7257 97.0452 78.589C97.0452 77.5429 97.1362 77.2758 97.7276 76.7194C98.2962 76.1629 98.5464 76.0516 99.3426 76.1184C100.207 76.1852 100.298 76.2519 100.73 77.298ZM130.8 80.2806C131.028 80.6144 129.481 82.0167 128.185 82.7067C127.388 83.1073 126.069 83.5079 124.704 83.7528C123.499 83.9531 122.475 84.2202 122.407 84.3092C122.339 84.3982 122.816 84.9547 123.431 85.4889C125.114 86.9579 127.707 87.6256 129.686 87.1137C130.891 86.7798 131.255 86.9134 131.119 87.5588C131.028 88.093 129.094 88.7162 127.502 88.7385C125.478 88.7607 123.021 87.7591 121.679 86.3347C120.792 85.3998 119.541 83.1741 119.609 82.6621C119.678 82.217 119.837 82.1947 122.862 82.0834C125.842 81.9499 126.137 81.9054 127.57 81.2377C128.412 80.8593 129.14 80.4364 129.231 80.3028C129.413 80.0357 130.641 80.0135 130.8 80.2806ZM141.605 92.322C141.832 92.7449 142.196 93.4794 142.401 93.9245C142.606 94.3919 142.947 95.1487 143.174 95.5938C143.697 96.6845 143.606 98.7099 142.992 99.8896C142.082 101.648 140.217 103.228 137.533 104.586C136.965 104.853 136.464 105.12 136.419 105.142C136.373 105.187 136.259 106.033 136.146 107.034C136.055 108.036 135.873 108.948 135.759 109.06C135.418 109.394 134.03 108.637 133.052 107.568C132.552 107.012 131.938 106.545 131.71 106.545C131.46 106.545 130.323 106.611 129.163 106.7C127.502 106.812 126.729 106.767 125.523 106.456C124.682 106.233 123.84 105.921 123.635 105.766C123.453 105.588 123.203 105.454 123.089 105.454C122.998 105.454 122.453 105.098 121.929 104.653C121.088 103.985 120.929 103.74 120.929 103.072C120.929 102.65 120.792 101.715 120.61 101.025C120.428 100.335 120.246 99.2218 120.201 98.5541L120.132 97.3522L124.227 97.3299C128.253 97.3299 128.73 97.2632 131.847 96.3951C134.781 95.5493 137.01 94.4142 139.421 92.5445C140.194 91.9436 140.922 91.4762 141.013 91.4984C141.127 91.5207 141.377 91.8991 141.605 92.322ZM165.238 95.2822C165.283 95.4825 165.01 96.0612 164.624 96.5287C164.237 96.9961 163.919 97.4635 163.919 97.5525C163.919 97.6415 163.623 98.0867 163.236 98.5541C162.872 99.0215 162.554 99.4889 162.554 99.6002C162.554 99.8005 160.711 101.87 158.05 104.653L156.594 106.188L155.298 106.055C154.593 105.966 153.342 105.81 152.5 105.699C151.567 105.588 150.43 105.588 149.543 105.699C148.747 105.832 147.496 106.01 146.745 106.122C145.995 106.211 144.812 106.522 144.13 106.789C143.447 107.057 142.628 107.346 142.31 107.457C141.15 107.836 138.511 109.371 137.169 110.462C134.622 112.51 132.711 114.713 131.528 116.939L130.914 118.096L128.912 118.452C126.228 118.92 119.95 118.942 118.131 118.475C117.403 118.297 116.448 118.141 115.993 118.141C115.538 118.141 114.537 117.985 113.786 117.785C113.013 117.607 111.785 117.295 111.034 117.095C110.283 116.917 109.328 116.627 108.919 116.449C108.509 116.271 108.009 116.138 107.781 116.138C107.577 116.138 107.19 115.982 106.962 115.804C106.712 115.626 106.303 115.47 106.03 115.47C105.757 115.47 105.325 115.27 105.029 115.002L104.529 114.535L105.052 114.045C105.825 113.311 108.987 111.018 110.92 109.794C111.853 109.216 113.058 108.436 113.604 108.103C114.127 107.747 114.719 107.457 114.901 107.457C115.06 107.457 115.265 107.368 115.356 107.235C115.515 106.99 118.677 105.454 119.041 105.454C119.177 105.454 119.405 105.298 119.564 105.12C119.996 104.608 120.542 104.719 121.315 105.454C122.157 106.255 123.681 107.079 125.432 107.68C126.865 108.192 129.163 108.236 130.573 107.836L131.46 107.568L132.757 108.815C133.78 109.794 134.28 110.084 135.008 110.217C135.532 110.284 136.055 110.306 136.168 110.239C136.646 109.95 137.306 108.258 137.306 107.324C137.306 106.188 137.624 105.454 138.102 105.454C139.057 105.454 142.014 103.362 143.083 101.915C143.515 101.336 144.107 100.179 144.357 99.3109C145.039 97.1964 145.085 97.1296 146.086 96.9293C146.563 96.818 147.564 96.5954 148.269 96.4174C148.997 96.2393 149.884 96.1058 150.248 96.1058C150.612 96.1058 151.522 95.9722 152.25 95.7942C152.978 95.6161 155.025 95.3935 156.799 95.3267C158.551 95.2377 160.347 95.0819 160.78 94.9929C161.189 94.8816 162.349 94.8148 163.35 94.8371C164.874 94.8816 165.17 94.9484 165.238 95.2822ZM151.226 114.513C151.431 114.735 151.795 115.514 152.045 116.249C152.318 116.983 152.75 118.141 153.001 118.809C153.273 119.476 153.569 120.367 153.683 120.767C153.774 121.168 154.001 121.635 154.138 121.813C154.479 122.214 155.343 122.236 155.98 121.902C156.23 121.769 156.981 121.524 157.618 121.346C158.278 121.168 159.324 120.879 159.938 120.678C161.735 120.144 162.986 119.921 163.35 120.077C164.01 120.322 165.283 123.906 165.283 125.508C165.283 126.376 165.192 126.621 164.737 126.91C164.169 127.266 162.872 127.778 161.417 128.201C160.984 128.313 160.529 128.513 160.393 128.602C160.279 128.691 159.915 128.824 159.597 128.891C159.278 128.958 158.619 129.158 158.118 129.336C156.799 129.826 156.799 130.249 158.118 133.944C158.869 136.08 159.142 137.082 159.142 137.794C159.142 138.507 159.051 138.64 158.187 139.018C156.367 139.842 154.32 140.465 152.546 140.777C151.499 140.955 151.067 140.287 149.793 136.548C149.134 134.589 148.474 132.964 148.315 132.898C148.156 132.853 146.495 133.298 144.584 133.921C142.697 134.545 140.809 135.057 140.376 135.057C139.33 135.057 139.194 134.834 137.579 129.96L137.192 128.78L137.943 128.157C138.375 127.823 138.989 127.489 139.307 127.422C139.649 127.355 140.331 127.155 140.831 126.955C141.332 126.777 142.31 126.398 142.992 126.154C143.675 125.886 144.584 125.575 144.994 125.464C145.699 125.241 145.745 125.174 145.608 124.529C145.449 123.817 144.334 120.3 143.766 118.742C143.584 118.297 143.447 117.562 143.447 117.139C143.447 116.471 143.538 116.338 144.539 115.915C148.497 114.134 150.498 113.712 151.226 114.513Z" fill="#101223"/>
<path d="M128.934 60.6271C128.525 60.9165 128.434 61.1836 128.434 62.2519C128.434 63.3426 128.547 63.6987 129.116 64.4554C129.616 65.1232 129.958 65.3903 130.39 65.3903C131.868 65.3903 131.914 62.0516 130.458 60.8274C129.639 60.182 129.594 60.1597 128.934 60.6271Z" fill="#101223"/>
<path d="M112.535 65.1008C112.057 65.4124 112.012 65.5905 112.103 66.8147C112.285 69.7527 114.855 71.1994 115.332 68.6398C115.56 67.4601 114.514 65.546 113.285 64.8783C113.149 64.8115 112.808 64.9005 112.535 65.1008Z" fill="#101223"/>
<path d="M104.55 129.937C104.368 130.049 103.982 130.16 103.709 130.16C102.935 130.16 101.616 131.429 101.002 132.742C100.206 134.456 100.251 136.058 101.161 137.883C101.98 139.53 103.14 140.576 104.755 141.155C105.847 141.534 105.983 141.534 107.098 141.177C108.508 140.755 109.008 140.398 109.964 139.085C110.646 138.15 110.692 137.995 110.692 136.058C110.692 134.611 110.601 133.899 110.351 133.588C110.169 133.365 110.009 133.009 110.009 132.786C110.009 132.141 107.826 130.427 106.506 130.071C105.073 129.648 105.005 129.648 104.55 129.937Z" fill="#101223"/>
<path d="M109.555 142.78C107.895 143.07 106.485 143.537 106.098 143.915C105.939 144.071 105.711 144.182 105.575 144.182C105.12 144.182 103.209 146.297 102.572 147.521C101.981 148.656 101.935 148.968 101.867 151.817C101.776 155.022 101.913 155.801 102.982 158.138C103.505 159.295 104.415 159.629 105.779 159.162C106.257 159.006 106.985 158.872 107.417 158.872C107.827 158.872 108.441 158.761 108.805 158.628C109.146 158.494 109.805 158.294 110.238 158.205C111.625 157.915 113.49 157.359 114.787 156.869C115.469 156.602 116.288 156.313 116.607 156.224C117.312 156.023 119.382 155.133 120.587 154.51C122.02 153.798 121.975 153.13 120.314 149.524C119.063 146.831 116.675 144.16 114.81 143.359C113.308 142.736 111.193 142.491 109.555 142.78Z" fill="#101223"/>
<path d="M184.048 150.771C183.798 150.837 183.048 151.015 182.411 151.193C180.864 151.616 179.181 152.061 177.338 152.529C176.519 152.751 175.405 153.041 174.836 153.197C174.268 153.352 173.153 153.642 172.334 153.842C170.81 154.243 169.559 154.577 167.284 155.178C166.557 155.378 165.419 155.667 164.782 155.845C164.123 156.023 162.963 156.313 162.212 156.535C160.483 157.003 158.664 157.492 157.208 157.871C156.594 158.027 155.502 158.316 154.82 158.494C154.137 158.672 153 158.984 152.318 159.162C151.635 159.34 150.498 159.651 149.816 159.829C149.133 160.007 147.95 160.319 147.2 160.542C145.471 161.009 143.651 161.499 142.196 161.877C141.581 162.033 140.467 162.322 139.762 162.523C139.034 162.723 137.851 163.034 137.146 163.235C136.418 163.435 135.258 163.747 134.576 163.925C133.893 164.103 132.87 164.392 132.301 164.548C131.732 164.704 130.618 164.993 129.799 165.216C128.98 165.438 127.866 165.728 127.297 165.883C126.251 166.195 124.59 166.64 122.407 167.219C121.724 167.419 120.564 167.731 119.859 167.931C119.131 168.131 118.085 168.421 117.516 168.554C116.947 168.71 115.924 169 115.242 169.2C114.559 169.378 113.376 169.712 112.626 169.912C111.875 170.112 110.852 170.424 110.351 170.58C109.828 170.758 109.259 170.891 109.055 170.891C108.873 170.891 108.213 171.092 107.622 171.359C106.553 171.826 106.553 171.826 106.666 172.739C106.871 174.453 107.44 176.189 108.418 178.014C108.895 178.949 109.555 179.082 111.102 178.615C111.693 178.437 112.762 178.125 113.49 177.925C114.195 177.725 115.355 177.435 116.038 177.235C116.72 177.057 117.857 176.767 118.54 176.567C119.222 176.389 120.359 176.1 121.042 175.899C121.724 175.721 122.861 175.432 123.544 175.232C124.226 175.054 125.364 174.764 126.046 174.564C126.728 174.386 127.843 174.097 128.502 173.918C130.868 173.273 132.438 172.85 133.438 172.561C134.007 172.405 135.122 172.116 135.94 171.893C136.759 171.67 137.874 171.381 138.442 171.225C139.625 170.891 141.672 170.335 143.401 169.89C145.198 169.4 147.086 168.888 148.223 168.554C148.792 168.399 149.907 168.087 150.725 167.887C151.544 167.664 152.727 167.352 153.341 167.197C154.478 166.885 155.684 166.551 158.186 165.861C158.891 165.683 159.938 165.394 160.506 165.216C161.075 165.06 162.189 164.748 163.008 164.548C163.827 164.325 165.01 164.014 165.624 163.858C166.261 163.68 167.284 163.391 167.899 163.235C168.536 163.057 169.605 162.767 170.287 162.589C170.969 162.389 172.107 162.077 172.789 161.877C174.677 161.365 176.406 160.875 177.793 160.519C181.251 159.585 183.684 158.917 185.049 158.516C185.618 158.338 186.232 158.205 186.437 158.205C186.641 158.205 187.051 157.96 187.347 157.648L187.892 157.069L187.506 155.467C186.892 152.974 186.368 151.46 186.004 151.015C185.709 150.659 185.072 150.57 184.048 150.771Z" fill="#101223"/>
<path d="M178.931 165.995C178.385 166.173 177.407 166.44 174.381 167.197C173.563 167.419 172.334 167.731 171.652 167.909C167.99 168.911 166.966 169.178 164.191 169.912C162.917 170.246 161.302 170.669 159.187 171.225C158.482 171.426 157.39 171.715 156.753 171.893C156.139 172.049 155.002 172.338 154.251 172.561C153.5 172.761 152.34 173.073 151.704 173.251C150.225 173.629 148.474 174.119 146.972 174.519C146.358 174.698 145.175 175.009 144.357 175.232C143.538 175.454 142.378 175.766 141.741 175.922C141.127 176.1 140.103 176.389 139.466 176.545C138.852 176.723 137.76 177.012 137.078 177.19C136.395 177.391 135.258 177.702 134.576 177.903C132.802 178.392 131.005 178.882 129.64 179.26C127.138 179.928 124.977 180.507 122.407 181.219C121.656 181.442 120.541 181.753 119.905 181.909C118.767 182.221 117.289 182.643 115.128 183.244C114.514 183.422 113.74 183.601 113.422 183.667C113.103 183.734 112.512 184.001 112.08 184.246C111.261 184.758 111.284 184.647 111.83 186.806C112.398 189.054 113.331 191.079 113.945 191.458C114.173 191.613 114.764 191.547 115.742 191.279C118.312 190.545 119.199 190.322 120.701 189.944C121.52 189.721 122.634 189.432 123.203 189.254C123.771 189.098 124.886 188.809 125.705 188.586C126.524 188.364 127.638 188.074 128.207 187.919C128.776 187.74 129.89 187.451 130.709 187.251C131.528 187.028 132.642 186.739 133.211 186.583C133.78 186.427 134.826 186.138 135.554 185.938C138.374 185.181 139.398 184.892 140.649 184.558C141.377 184.357 142.423 184.068 142.992 183.912C143.56 183.756 144.675 183.467 145.494 183.244C146.313 183.022 147.427 182.733 147.996 182.577C149.042 182.265 150.612 181.842 152.932 181.219C153.66 181.019 154.706 180.729 155.275 180.574C155.843 180.418 156.958 180.128 157.777 179.906C158.596 179.683 159.71 179.394 160.279 179.238C162.189 178.682 164.874 177.947 167.398 177.257C168.103 177.057 169.286 176.745 170.014 176.545C170.719 176.345 171.766 176.055 172.334 175.899C172.903 175.744 174.017 175.454 174.836 175.232C175.655 175.009 176.838 174.698 177.452 174.519C178.089 174.341 179.044 174.052 179.613 173.896C180.182 173.74 180.932 173.54 181.296 173.451C182.979 173.095 183.343 172.36 182.684 170.446C182.502 169.89 182.138 168.799 181.865 167.998C181.16 165.839 180.614 165.461 178.931 165.995Z" fill="#101223"/>
<path d="M236.362 44.2019C236.146 44.426 235.172 45.0903 234.184 45.7288C233.184 46.3415 231.49 47.396 230.437 48.0329C226.783 50.3265 219.48 54.5954 218.497 55.0428C217.46 55.5145 216.677 55.2406 217.034 54.5103C217.157 54.2967 217.972 53.705 218.891 53.1922C219.823 52.7052 221.956 51.4194 223.676 50.3528C229.623 46.7007 230.823 45.9655 233.591 44.5167C235.987 43.2372 236.372 43.0937 236.536 43.4289C236.649 43.661 236.563 44.0157 236.362 44.2019Z" fill="#101223"/>
<path d="M217.007 12.9989C214.951 16.8986 212.91 20.0342 209.336 24.7506C206.899 28.004 203.248 31.9668 202.923 31.7678C202.768 31.6493 202.666 31.5067 202.667 31.443C202.777 31.2036 208.891 22.7776 208.971 22.7413C209.051 22.7051 209.443 22.1795 209.839 21.5266C210.247 20.8994 210.884 20.0103 211.21 19.5468C211.562 19.0712 212.961 17.0157 214.36 14.9602C215.772 12.9305 217.059 11.1781 217.272 11.0814C217.936 10.779 217.844 11.3884 217.007 12.9989Z" fill="#101223"/>
<path d="M246.03 81.8498C245.791 81.9586 243.507 81.6736 240.924 81.2412C234.079 80.0679 229.133 79.3231 223.449 78.5985C220.667 78.225 218.267 77.8352 218.085 77.7289C217.123 77.1575 218.392 76.8954 221.681 76.9755C225.153 77.0983 226.677 77.2246 231.191 77.8188C235.64 78.4113 244.951 80.6385 246.001 81.3903C246.286 81.5757 246.323 81.7167 246.03 81.8498Z" fill="#101223"/>
</svg>
