<svg width="257" height="97" viewBox="0 0 257 97" fill="none" xmlns="http://www.w3.org/2000/svg">
<g clip-path="url(#clip0_662_3635)">
<g clip-path="url(#clip1_662_3635)">
<path d="M53.7738 44.9776L38.9668 23.9566C38.9668 23.9566 34.6935 16.9994 25.1942 16.9994C25.1942 16.9994 10.3873 17.3119 8.72696 32.5715C8.72696 32.5715 7.54295 47.4234 23.2073 50.3585C23.2073 50.3585 28.5149 51.4591 33.3326 48.6192L39.8242 44.1894L34.9929 37.2323L29.3995 41.268C29.3995 41.268 26.2285 43.2383 23.044 42.0833C21.3972 41.4854 19.7097 40.7924 18.2399 38.1834C18.2399 38.1834 16.1032 34.8679 18.0221 30.0169C18.6345 28.4543 20.2949 26.5655 22.3499 26.022C22.3499 26.022 28.8415 23.5761 33.5095 30.6827L41.8248 42.5317L41.9065 42.6404C44.5331 46.5538 49.8407 47.6001 53.7738 44.9776Z" fill="#007AFF"/>
<path d="M40.8042 22.5843L55.6111 43.6053C55.6111 43.6053 59.8844 50.5625 69.3837 50.5625C69.3837 50.5625 84.1907 50.25 85.851 34.9904C85.851 34.9904 87.035 20.1384 71.3707 17.2034C71.3707 17.2034 66.0631 16.1027 61.2454 18.9427L54.7537 23.3724L59.585 30.3296L65.2057 26.2939C65.2057 26.2939 68.3767 24.3236 71.5612 25.4786C73.208 26.0765 74.8955 26.7695 76.3653 29.3784C76.3653 29.3784 78.502 32.694 76.5831 37.545C75.9707 39.1076 74.3103 40.9964 72.2553 41.5399C72.2553 41.5399 65.7637 43.9858 61.0957 36.8791L52.7804 25.0302L52.6987 24.9215C50.0585 21.0081 44.7373 19.9618 40.8042 22.5843Z" fill="#007AFF"/>
</g>
<path d="M109.833 47.4854C107.163 47.4854 104.788 47.052 102.708 46.1852C100.639 45.3068 99.0153 44.1106 97.8365 42.5966C96.6576 41.0826 96.0682 39.3663 96.0682 37.4477C96.0682 35.9684 96.4033 34.6104 97.0737 33.3737C97.7556 32.1255 98.6802 31.0911 99.8475 30.2705C101.015 29.4384 102.321 28.9068 103.765 28.6756V28.4329C101.87 28.0515 100.333 27.1327 99.154 25.6764C97.9752 24.2086 97.3857 22.5039 97.3857 20.5623C97.3857 18.7246 97.9232 17.0892 98.998 15.6561C100.073 14.2114 101.546 13.0788 103.419 12.2582C105.303 11.4261 107.441 11.01 109.833 11.01C112.226 11.01 114.358 11.4261 116.23 12.2582C118.114 13.0903 119.593 14.2287 120.668 15.6734C121.743 17.1066 122.286 18.7362 122.298 20.5623C122.286 22.5155 121.685 24.2202 120.495 25.6764C119.305 27.1327 117.779 28.0515 115.918 28.4329V28.6756C117.34 28.9068 118.628 29.4384 119.784 30.2705C120.951 31.0911 121.876 32.1255 122.558 33.3737C123.251 34.6104 123.604 35.9684 123.615 37.4477C123.604 39.3663 123.009 41.0826 121.83 42.5966C120.651 44.1106 119.021 45.3068 116.941 46.1852C114.872 47.052 112.503 47.4854 109.833 47.4854ZM109.833 41.9725C111.024 41.9725 112.064 41.7587 112.954 41.3311C113.844 40.8919 114.537 40.2909 115.034 39.5281C115.543 38.7537 115.797 37.8638 115.797 36.8583C115.797 35.8297 115.537 34.9224 115.017 34.1365C114.497 33.3391 113.792 32.7149 112.902 32.2642C112.012 31.8019 110.989 31.5708 109.833 31.5708C108.689 31.5708 107.666 31.8019 106.765 32.2642C105.863 32.7149 105.152 33.3391 104.632 34.1365C104.124 34.9224 103.869 35.8297 103.869 36.8583C103.869 37.8638 104.118 38.7537 104.615 39.5281C105.112 40.2909 105.811 40.8919 106.713 41.3311C107.614 41.7587 108.654 41.9725 109.833 41.9725ZM109.833 26.1098C110.827 26.1098 111.711 25.9076 112.486 25.5031C113.26 25.0986 113.867 24.538 114.306 23.8215C114.745 23.1049 114.965 22.2785 114.965 21.3424C114.965 20.4178 114.745 19.6088 114.306 18.9153C113.867 18.2103 113.266 17.6613 112.503 17.2684C111.74 16.8639 110.85 16.6616 109.833 16.6616C108.828 16.6616 107.938 16.8639 107.163 17.2684C106.389 17.6613 105.782 18.2103 105.343 18.9153C104.915 19.6088 104.702 20.4178 104.702 21.3424C104.702 22.2785 104.921 23.1049 105.36 23.8215C105.8 24.538 106.406 25.0986 107.181 25.5031C107.955 25.9076 108.839 26.1098 109.833 26.1098ZM134.186 47L126.94 20.3716H134.412L138.538 38.2625H138.78L143.08 20.3716H150.413L154.782 38.1585H155.007L159.064 20.3716H166.518L159.289 47H151.47L146.894 30.2532H146.564L141.988 47H134.186ZM183.633 47.4854C180.964 47.4854 178.589 47.052 176.508 46.1852C174.439 45.3068 172.816 44.1106 171.637 42.5966C170.458 41.0826 169.868 39.3663 169.868 37.4477C169.868 35.9684 170.204 34.6104 170.874 33.3737C171.556 32.1255 172.48 31.0911 173.648 30.2705C174.815 29.4384 176.121 28.9068 177.566 28.6756V28.4329C175.67 28.0515 174.133 27.1327 172.954 25.6764C171.775 24.2086 171.186 22.5039 171.186 20.5623C171.186 18.7246 171.723 17.0892 172.798 15.6561C173.873 14.2114 175.347 13.0788 177.219 12.2582C179.103 11.4261 181.241 11.01 183.633 11.01C186.026 11.01 188.158 11.4261 190.031 12.2582C191.914 13.0903 193.394 14.2287 194.469 15.6734C195.543 17.1066 196.087 18.7362 196.098 20.5623C196.087 22.5155 195.486 24.2202 194.295 25.6764C193.105 27.1327 191.579 28.0515 189.718 28.4329V28.6756C191.14 28.9068 192.429 29.4384 193.584 30.2705C194.752 31.0911 195.676 32.1255 196.358 33.3737C197.052 34.6104 197.404 35.9684 197.416 37.4477C197.404 39.3663 196.809 41.0826 195.63 42.5966C194.451 44.1106 192.822 45.3068 190.741 46.1852C188.673 47.052 186.303 47.4854 183.633 47.4854ZM183.633 41.9725C184.824 41.9725 185.864 41.7587 186.754 41.3311C187.644 40.8919 188.337 40.2909 188.834 39.5281C189.343 38.7537 189.597 37.8638 189.597 36.8583C189.597 35.8297 189.337 34.9224 188.817 34.1365C188.297 33.3391 187.592 32.7149 186.702 32.2642C185.812 31.8019 184.789 31.5708 183.633 31.5708C182.489 31.5708 181.466 31.8019 180.565 32.2642C179.663 32.7149 178.953 33.3391 178.433 34.1365C177.924 34.9224 177.67 35.8297 177.67 36.8583C177.67 37.8638 177.918 38.7537 178.415 39.5281C178.912 40.2909 179.611 40.8919 180.513 41.3311C181.414 41.7587 182.455 41.9725 183.633 41.9725ZM183.633 26.1098C184.627 26.1098 185.512 25.9076 186.286 25.5031C187.06 25.0986 187.667 24.538 188.106 23.8215C188.545 23.1049 188.765 22.2785 188.765 21.3424C188.765 20.4178 188.545 19.6088 188.106 18.9153C187.667 18.2103 187.066 17.6613 186.303 17.2684C185.54 16.8639 184.651 16.6616 183.633 16.6616C182.628 16.6616 181.738 16.8639 180.964 17.2684C180.189 17.6613 179.583 18.2103 179.143 18.9153C178.716 19.6088 178.502 20.4178 178.502 21.3424C178.502 22.2785 178.722 23.1049 179.161 23.8215C179.6 24.538 180.207 25.0986 180.981 25.5031C181.755 25.9076 182.64 26.1098 183.633 26.1098ZM202.734 47V20.3716H209.894V25.0177H210.171C210.656 23.3649 211.471 22.1167 212.615 21.273C213.759 20.4178 215.077 19.9902 216.568 19.9902C216.938 19.9902 217.337 20.0133 217.764 20.0595C218.192 20.1057 218.567 20.1693 218.891 20.2502V26.8033C218.544 26.6993 218.065 26.6068 217.452 26.5259C216.84 26.445 216.279 26.4046 215.771 26.4046C214.684 26.4046 213.713 26.6415 212.858 27.1153C212.014 27.5776 211.344 28.2249 210.847 29.057C210.362 29.8891 210.119 30.8484 210.119 31.9348V47H202.734ZM233.605 47.5201C230.866 47.5201 228.508 46.9653 226.532 45.8558C224.567 44.7347 223.053 43.1514 221.99 41.1057C220.927 39.0484 220.395 36.6156 220.395 33.8071C220.395 31.068 220.927 28.664 221.99 26.5953C223.053 24.5265 224.55 22.9142 226.48 21.7585C228.422 20.6027 230.698 20.0248 233.31 20.0248C235.067 20.0248 236.703 20.308 238.217 20.8743C239.742 21.4291 241.071 22.267 242.204 23.3881C243.348 24.5091 244.238 25.9191 244.874 27.6181C245.509 29.3055 245.827 31.2818 245.827 33.5471V35.5754H223.342V30.9987H238.875C238.875 29.9354 238.644 28.9934 238.182 28.1729C237.72 27.3523 237.078 26.7108 236.258 26.2485C235.449 25.7747 234.507 25.5377 233.432 25.5377C232.311 25.5377 231.317 25.7978 230.45 26.3179C229.595 26.8264 228.924 27.5141 228.439 28.3809C227.954 29.2361 227.705 30.1896 227.693 31.2414V35.5928C227.693 36.9103 227.936 38.0487 228.422 39.008C228.919 39.9673 229.618 40.7069 230.519 41.227C231.421 41.7471 232.49 42.0072 233.726 42.0072C234.547 42.0072 235.298 41.8916 235.98 41.6604C236.662 41.4293 237.246 41.0826 237.731 40.6203C238.217 40.158 238.586 39.5917 238.841 38.9213L245.671 39.3721C245.324 41.0132 244.614 42.4464 243.539 43.6714C242.476 44.885 241.1 45.8327 239.413 46.5146C237.737 47.1849 235.801 47.5201 233.605 47.5201Z" fill="#101223"/>
</g>
<path d="M4.16103 91.9199H1.41921L5.59694 79.8181H8.89421L13.066 91.9199H10.3242L7.29285 82.5836H7.1983L4.16103 91.9199ZM3.98966 87.1631H10.466V89.1604H3.98966V87.1631ZM19.0232 91.9199L15.5604 79.8181H18.3554L20.3586 88.2267H20.4591L22.6691 79.8181H25.0622L27.2663 88.2445H27.3727L29.3759 79.8181H32.1709L28.7082 91.9199H26.2145L23.91 84.0076H23.8154L21.5168 91.9199H19.0232ZM37.4027 91.9199H34.6609L38.8386 79.8181H42.1359L46.3077 91.9199H43.5659L40.5345 82.5836H40.4399L37.4027 91.9199ZM37.2313 87.1631H43.7077V89.1604H37.2313V87.1631ZM50.7595 91.9199V79.8181H55.534C56.448 79.8181 57.228 79.9816 57.874 80.3086C58.524 80.6316 59.0184 81.0905 59.3572 81.6854C59.6999 82.2763 59.8713 82.9716 59.8713 83.7713C59.8713 84.5749 59.698 85.2663 59.3513 85.8454C59.0046 86.4205 58.5023 86.8617 57.8445 87.169C57.1905 87.4763 56.3987 87.6299 55.469 87.6299H52.2722V85.5736H55.0554C55.5439 85.5736 55.9496 85.5066 56.2726 85.3726C56.5957 85.2387 56.836 85.0378 56.9936 84.7699C57.1551 84.502 57.2358 84.1692 57.2358 83.7713C57.2358 83.3695 57.1551 83.0307 56.9936 82.7549C56.836 82.4792 56.5937 82.2704 56.2667 82.1286C55.9437 81.9828 55.536 81.9099 55.0436 81.9099H53.3181V91.9199H50.7595ZM57.2949 86.4126L60.3026 91.9199H57.4781L54.5354 86.4126H57.2949ZM64.6747 91.9199V79.8181H72.8292V81.9276H67.2333V84.8113H72.4097V86.9208H67.2333V89.8104H72.8528V91.9199H64.6747ZM87.9809 79.8181V91.9199H85.7709L80.5059 84.3031H80.4172V91.9199H77.8586V79.8181H80.1041L85.3277 87.429H85.4341V79.8181H87.9809ZM93.0901 91.9199V79.8181H101.245V81.9276H95.6487V84.8113H100.825V86.9208H95.6487V89.8104H101.268V91.9199H93.0901ZM112.839 83.2986C112.792 82.8219 112.589 82.4516 112.23 82.1876C111.872 81.9237 111.385 81.7917 110.771 81.7917C110.353 81.7917 110.001 81.8508 109.713 81.969C109.426 82.0833 109.205 82.2428 109.051 82.4476C108.902 82.6525 108.827 82.8849 108.827 83.1449C108.819 83.3616 108.864 83.5507 108.963 83.7122C109.065 83.8737 109.205 84.0136 109.382 84.1317C109.559 84.246 109.764 84.3464 109.997 84.4331C110.229 84.5158 110.477 84.5867 110.741 84.6458L111.829 84.9058C112.356 85.024 112.841 85.1816 113.282 85.3786C113.723 85.5755 114.106 85.8178 114.429 86.1054C114.752 86.393 115.002 86.7317 115.179 87.1217C115.36 87.5117 115.453 87.9589 115.457 88.4631C115.453 89.2037 115.264 89.8458 114.889 90.3895C114.519 90.9292 113.983 91.3487 113.282 91.6481C112.585 91.9436 111.744 92.0913 110.759 92.0913C109.782 92.0913 108.931 91.9416 108.206 91.6422C107.485 91.3428 106.922 90.8996 106.516 90.3126C106.114 89.7217 105.904 88.991 105.884 88.1204H108.36C108.388 88.5261 108.504 88.8649 108.709 89.1367C108.917 89.4046 109.195 89.6075 109.542 89.7454C109.892 89.8793 110.288 89.9463 110.729 89.9463C111.163 89.9463 111.539 89.8833 111.858 89.7572C112.181 89.6311 112.431 89.4558 112.609 89.2313C112.786 89.0067 112.874 88.7487 112.874 88.4572C112.874 88.1854 112.794 87.9569 112.632 87.7717C112.475 87.5866 112.242 87.429 111.935 87.299C111.632 87.169 111.259 87.0508 110.818 86.9445L109.5 86.6136C108.48 86.3654 107.674 85.9773 107.084 85.4495C106.493 84.9216 106.199 84.2105 106.203 83.3163C106.199 82.5836 106.394 81.9434 106.788 81.3958C107.186 80.8483 107.732 80.4208 108.425 80.1136C109.118 79.8063 109.906 79.6526 110.789 79.6526C111.687 79.6526 112.471 79.8063 113.14 80.1136C113.814 80.4208 114.338 80.8483 114.712 81.3958C115.086 81.9434 115.279 82.5776 115.291 83.2986H112.839ZM126.738 83.2986C126.691 82.8219 126.488 82.4516 126.129 82.1876C125.771 81.9237 125.284 81.7917 124.67 81.7917C124.252 81.7917 123.9 81.8508 123.612 81.969C123.324 82.0833 123.104 82.2428 122.95 82.4476C122.801 82.6525 122.726 82.8849 122.726 83.1449C122.718 83.3616 122.763 83.5507 122.862 83.7122C122.964 83.8737 123.104 84.0136 123.281 84.1317C123.458 84.246 123.663 84.3464 123.896 84.4331C124.128 84.5158 124.376 84.5867 124.64 84.6458L125.728 84.9058C126.255 85.024 126.74 85.1816 127.181 85.3786C127.622 85.5755 128.004 85.8178 128.328 86.1054C128.651 86.393 128.901 86.7317 129.078 87.1217C129.259 87.5117 129.352 87.9589 129.356 88.4631C129.352 89.2037 129.163 89.8458 128.788 90.3895C128.418 90.9292 127.882 91.3487 127.181 91.6481C126.484 91.9436 125.643 92.0913 124.658 92.0913C123.681 92.0913 122.83 91.9416 122.105 91.6422C121.384 91.3428 120.821 90.8996 120.415 90.3126C120.013 89.7217 119.803 88.991 119.783 88.1204H122.259C122.286 88.5261 122.403 88.8649 122.608 89.1367C122.816 89.4046 123.094 89.6075 123.441 89.7454C123.791 89.8793 124.187 89.9463 124.628 89.9463C125.062 89.9463 125.438 89.8833 125.757 89.7572C126.08 89.6311 126.33 89.4558 126.508 89.2313C126.685 89.0067 126.773 88.7487 126.773 88.4572C126.773 88.1854 126.693 87.9569 126.531 87.7717C126.374 87.5866 126.141 87.429 125.834 87.299C125.531 87.169 125.158 87.0508 124.717 86.9445L123.399 86.6136C122.379 86.3654 121.573 85.9773 120.983 85.4495C120.392 84.9216 120.098 84.2105 120.102 83.3163C120.098 82.5836 120.293 81.9434 120.687 81.3958C121.085 80.8483 121.631 80.4208 122.324 80.1136C123.017 79.8063 123.805 79.6526 124.688 79.6526C125.586 79.6526 126.37 79.8063 127.039 80.1136C127.713 80.4208 128.237 80.8483 128.611 81.3958C128.985 81.9434 129.178 82.5776 129.19 83.2986H126.738ZM152.039 85.869C152.039 87.1887 151.789 88.3114 151.289 89.2372C150.792 90.163 150.115 90.8701 149.256 91.3586C148.401 91.8431 147.44 92.0854 146.372 92.0854C145.297 92.0854 144.332 91.8411 143.477 91.3526C142.622 90.8642 141.947 90.157 141.45 89.2313C140.954 88.3055 140.706 87.1848 140.706 85.869C140.706 84.5493 140.954 83.4266 141.45 82.5008C141.947 81.5751 142.622 80.8699 143.477 80.3854C144.332 79.8969 145.297 79.6526 146.372 79.6526C147.44 79.6526 148.401 79.8969 149.256 80.3854C150.115 80.8699 150.792 81.5751 151.289 82.5008C151.789 83.4266 152.039 84.5493 152.039 85.869ZM149.445 85.869C149.445 85.0142 149.317 84.2933 149.061 83.7063C148.809 83.1193 148.452 82.6742 147.992 82.3708C147.531 82.0675 146.991 81.9158 146.372 81.9158C145.754 81.9158 145.214 82.0675 144.753 82.3708C144.292 82.6742 143.934 83.1193 143.678 83.7063C143.426 84.2933 143.3 85.0142 143.3 85.869C143.3 86.7239 143.426 87.4448 143.678 88.0317C143.934 88.6187 144.292 89.0639 144.753 89.3672C145.214 89.6705 145.754 89.8222 146.372 89.8222C146.991 89.8222 147.531 89.6705 147.992 89.3672C148.452 89.0639 148.809 88.6187 149.061 88.0317C149.317 87.4448 149.445 86.7239 149.445 85.869ZM167.052 79.8181V91.9199H164.842L159.577 84.3031H159.488V91.9199H156.93V79.8181H159.175L164.399 87.429H164.505V79.8181H167.052ZM178.547 81.9276V79.8181H188.486V81.9276H184.781V91.9199H182.252V81.9276H178.547ZM193.118 91.9199V79.8181H195.677V84.8113H200.871V79.8181H203.423V91.9199H200.871V86.9208H195.677V91.9199H193.118ZM208.528 91.9199V79.8181H216.683V81.9276H211.087V84.8113H216.263V86.9208H211.087V89.8104H216.706V91.9199H208.528ZM236.583 83.7299C236.5 83.4423 236.384 83.1883 236.234 82.9676C236.085 82.7431 235.902 82.554 235.685 82.4004C235.472 82.2428 235.228 82.1226 234.952 82.0399C234.68 81.9572 234.379 81.9158 234.048 81.9158C233.43 81.9158 232.886 82.0695 232.417 82.3767C231.952 82.684 231.59 83.1311 231.33 83.7181C231.07 84.3011 230.94 85.0142 230.94 85.8572C230.94 86.7002 231.068 87.4172 231.324 88.0081C231.58 88.599 231.942 89.0501 232.411 89.3613C232.88 89.6686 233.434 89.8222 234.072 89.8222C234.651 89.8222 235.145 89.7198 235.555 89.5149C235.969 89.3061 236.284 89.0126 236.5 88.6345C236.721 88.2563 236.831 87.8092 236.831 87.2931L237.351 87.3699H234.231V85.4436H239.295V86.9681C239.295 88.0317 239.071 88.9457 238.622 89.7099C238.173 90.4702 237.554 91.0572 236.766 91.4708C235.978 91.8805 235.076 92.0854 234.06 92.0854C232.925 92.0854 231.929 91.8352 231.07 91.3349C230.211 90.8307 229.541 90.1157 229.061 89.1899C228.584 88.2602 228.346 87.1572 228.346 85.8808C228.346 84.8999 228.488 84.0254 228.771 83.2572C229.059 82.4851 229.461 81.8311 229.977 81.2954C230.493 80.7596 231.094 80.3519 231.779 80.0722C232.464 79.7925 233.207 79.6526 234.007 79.6526C234.692 79.6526 235.33 79.7531 235.921 79.954C236.512 80.151 237.036 80.4307 237.493 80.7931C237.954 81.1555 238.33 81.5869 238.622 82.0872C238.913 82.5836 239.1 83.1311 239.183 83.7299H236.583ZM255.333 85.869C255.333 87.1887 255.083 88.3114 254.583 89.2372C254.087 90.163 253.409 90.8701 252.55 91.3586C251.695 91.8431 250.734 92.0854 249.667 92.0854C248.591 92.0854 247.626 91.8411 246.771 91.3526C245.916 90.8642 245.241 90.157 244.744 89.2313C244.248 88.3055 244 87.1848 244 85.869C244 84.5493 244.248 83.4266 244.744 82.5008C245.241 81.5751 245.916 80.8699 246.771 80.3854C247.626 79.8969 248.591 79.6526 249.667 79.6526C250.734 79.6526 251.695 79.8969 252.55 80.3854C253.409 80.8699 254.087 81.5751 254.583 82.5008C255.083 83.4266 255.333 84.5493 255.333 85.869ZM252.739 85.869C252.739 85.0142 252.611 84.2933 252.355 83.7063C252.103 83.1193 251.747 82.6742 251.286 82.3708C250.825 82.0675 250.285 81.9158 249.667 81.9158C249.048 81.9158 248.508 82.0675 248.047 82.3708C247.587 82.6742 247.228 83.1193 246.972 83.7063C246.72 84.2933 246.594 85.0142 246.594 85.869C246.594 86.7239 246.72 87.4448 246.972 88.0317C247.228 88.6187 247.587 89.0639 248.047 89.3672C248.508 89.6705 249.048 89.8222 249.667 89.8222C250.285 89.8222 250.825 89.6705 251.286 89.3672C251.747 89.0639 252.103 88.6187 252.355 88.0317C252.611 87.4448 252.739 86.7239 252.739 85.869Z" fill="#007AFF"/>
<defs>
<clipPath id="clip0_662_3635">
<rect width="239.2" height="59.28" fill="white" transform="translate(9)"/>
</clipPath>
<clipPath id="clip1_662_3635">
<rect width="33.5629" height="77.1512" fill="white" transform="translate(8.71338 50.5625) rotate(-90)"/>
</clipPath>
</defs>
</svg>
