<svg width="56" height="56" viewBox="0 0 56 56" fill="none" xmlns="http://www.w3.org/2000/svg">
<g clip-path="url(#clip0_85_7541)">
<path d="M0 8C0 3.58172 3.58172 0 8 0H48C52.4183 0 56 3.58172 56 8V48C56 52.4183 52.4183 56 48 56H8C3.58172 56 0 52.4183 0 48V8Z" fill="white"/>
<path d="M41.3899 17.5018C41.216 16.355 41.053 15.2951 40.9008 14.2297C40.7921 13.496 41.0149 13.0883 41.8356 12.9415C42.9825 12.7296 44.1403 12.6535 45.2926 12.5285C45.8035 12.4741 46.1459 12.6752 46.2655 13.2351C46.5427 14.5124 46.7438 15.7951 46.7112 17.1105C46.6949 17.779 46.347 18.0889 45.7057 18.1106C45.1241 18.1323 44.6947 17.9312 44.6403 17.2844C44.5805 16.6376 44.7925 16.0941 45.4937 16.0506C46.1677 16.0071 46.1296 15.7082 46.0698 15.1918C45.8035 12.9905 45.6078 12.822 43.4445 13.1644C43.0804 13.2242 42.7216 13.3057 42.3629 13.3818C41.3247 13.5992 41.303 13.6427 41.4878 14.7244C41.7052 16.0071 42.0476 17.279 41.9335 18.5944C41.8683 19.3118 41.3791 19.6706 40.6344 19.6162C39.9822 19.5673 39.4386 19.0455 39.4658 18.4911C39.4984 17.8769 40.0746 17.3877 40.7649 17.404C40.9497 17.4149 41.1345 17.4638 41.3899 17.5018ZM41.4389 18.3117C41.515 17.8117 41.1617 17.6595 40.7703 17.6703C40.2703 17.6812 39.8843 17.9258 39.8898 18.4911C39.8952 19.0455 40.3029 19.2194 40.754 19.2031C41.2758 19.1814 41.4824 18.8281 41.4389 18.3117ZM46.1949 16.8224C46.1133 16.6539 46.4286 16.1919 45.8633 16.2245C45.3415 16.2571 44.923 16.4691 44.9121 17.067C44.9067 17.4475 45.1295 17.6975 45.5372 17.703C46.0916 17.7084 46.2709 17.3931 46.1949 16.8224Z" fill="#101223"/>
<path d="M14.6383 12.8958C14.7579 11.4337 14.4589 10.0042 14.3828 8.5638C14.3611 8.19419 14.3285 7.83545 14.4209 7.46585C14.4807 7.22669 14.5622 7.00927 14.8394 7.00384C16.0406 6.99296 17.2419 6.9984 18.4594 7.11254C17.6169 7.1832 16.7744 7.2593 15.9265 7.32452C14.7959 7.41693 14.8068 7.42236 14.9101 8.53118C15.046 9.99874 15.1547 11.4717 15.2688 12.9447C15.3069 13.4557 15.258 13.9666 15.1384 14.4666C14.9481 15.2656 14.2578 15.7548 13.5186 15.6135C12.725 15.4613 12.2304 14.8526 12.3065 14.1188C12.3989 13.2219 12.9425 12.7491 13.8447 12.7871C14.1002 12.8034 14.3448 12.8523 14.6383 12.8958ZM14.6763 13.7818C14.7742 13.347 14.4589 13.1567 13.9589 13.1132C13.2523 13.0534 12.8011 13.4176 12.774 14.1133C12.7468 14.6949 13.0566 15.0102 13.6273 15.0537C14.4589 15.1243 14.5839 14.5427 14.6763 13.7818Z" fill="#101223"/>
<path d="M30.8211 32.4803C29.7666 32.6705 28.6959 32.5564 27.6523 32.7738C27.3479 32.839 26.9783 32.8281 26.8913 33.1869C26.8098 33.5076 27.0326 33.7739 27.2555 34.0022C28.1849 34.9479 29.2665 35.1708 30.5113 34.6381C29.8807 35.2577 29.147 35.5404 28.3154 35.2632C27.4077 34.9642 26.5923 34.4751 26.3151 33.4749C26.1521 32.8825 26.4945 32.4531 27.0598 32.3389C28.3154 32.0943 29.5764 32.04 30.8211 32.4803Z" fill="#101223"/>
<path d="M26.6008 27.3605C25.992 28.3606 24.8723 28.4531 23.9863 27.5236C24.9321 27.7464 25.7474 27.5562 26.6008 27.3605Z" fill="#101223"/>
<path d="M34.2385 26.5728C33.4993 27.4642 33.0264 27.5403 32.1133 26.9532C32.8416 26.8228 33.445 26.7141 34.2385 26.5728Z" fill="#101223"/>
<path d="M32.5856 49.2546C32.4606 49.6949 32.341 50.1569 31.7758 50.2058C31.2377 50.2547 30.9713 49.8906 30.9659 49.4286C30.9605 48.9611 31.2648 48.6024 31.7432 48.5643C32.1834 48.5263 32.4661 48.8089 32.5856 49.2546Z" fill="#101223"/>
<path fill-rule="evenodd" clip-rule="evenodd" d="M3.30034 61.0001C3.5083 60.3778 3.72255 59.7578 3.94145 59.1413C4.10995 58.663 4.02844 58.3913 3.62622 58.0814C0.914862 55.9814 -1.63219 53.7183 -4 51.2828V50.4591C-1.62611 52.9428 0.933401 55.2662 3.66968 57.4346C4.34911 57.9727 4.44695 57.7662 4.66437 57.1031C4.71551 56.9517 4.76245 56.798 4.8096 56.6435C5.008 55.9936 5.21023 55.3311 5.74601 54.7822C5.87173 55.194 5.74505 55.5194 5.62518 55.8273C5.59476 55.9054 5.56477 55.9825 5.53946 56.0595C5.4406 56.3573 5.34171 56.6551 5.24282 56.9529C4.7949 58.3016 4.347 59.6504 3.90218 61.0001H3.30034ZM61.1972 44.3249C60.5988 45.2449 59.9784 46.152 59.3391 47.0476C59.1536 47.3059 58.9777 47.5691 58.7758 47.8713C58.6761 48.0207 58.57 48.1795 58.4531 48.3521C59.0198 48.305 59.5683 48.2585 60.105 48.2131C60.474 48.1818 60.8374 48.151 61.1972 48.1209V50.4949C58.8574 50.7305 56.5184 50.9758 54.1809 51.2274C51.0229 51.5644 47.8649 51.9123 44.745 52.5047C43.1525 52.8091 43.0492 52.9722 42.8155 54.5919C42.5052 56.718 42.398 58.8595 42.3458 61.0001H39.6716C39.6841 60.5708 39.6975 60.1414 39.7119 59.7121C39.7934 57.2444 39.9184 54.7822 40.4402 52.3525C40.5978 51.6188 40.9783 51.1187 41.7012 50.9013C41.8273 50.8643 41.953 50.8252 42.0785 50.7861C42.3588 50.6989 42.6389 50.6118 42.9242 50.548C47.0448 49.5997 51.2379 49.1459 55.4317 48.692C55.9733 48.6334 56.5148 48.5748 57.0562 48.5151L57.0814 48.5123C57.4501 48.4703 57.7466 48.4365 57.9911 48.0857C59.0903 46.5041 60.1713 44.912 61.1972 43.2871V44.3249ZM61.1972 18.298C59.6829 18.145 58.1596 18.3039 56.6486 18.5769C52.2647 19.3698 48.1279 20.953 43.9931 22.5355C43.7908 22.6129 43.5885 22.6903 43.3862 22.7676C42.9676 22.9253 42.56 22.9524 42.1143 22.9796C41.3099 23.034 40.5652 22.9579 39.7988 22.7676C39.3803 22.6644 39.0324 22.9144 38.7552 23.2188C38.4019 23.6047 37.9943 23.8493 37.4725 23.996C36.6789 24.2189 36.3854 24.7787 36.6789 25.4636C36.8365 25.8223 36.8691 26.0452 36.4289 26.1213C36.366 26.1318 36.3004 26.1503 36.2349 26.1689C35.9604 26.2467 35.685 26.3247 35.5973 25.8115C35.5823 25.7282 35.5525 25.6449 35.5228 25.5618C35.4555 25.3737 35.3884 25.1863 35.494 25.0016C36.1071 23.9042 35.8363 22.8215 35.5611 21.7211C35.5459 21.6605 35.5307 21.5999 35.5157 21.5392C35.5031 21.4886 35.4904 21.438 35.4777 21.3872C35.2484 20.4737 35.0148 19.5428 35.4886 18.6313C36.8528 15.9951 36.7985 13.2339 36.2332 10.4238C36.0864 9.70093 35.8636 9.14651 34.9559 9.42915C34.8431 9.46554 34.7376 9.41911 34.6329 9.37302C34.5812 9.35026 34.5297 9.32759 34.4776 9.31501C33.9777 9.19436 33.4656 9.19194 32.9529 9.18952C32.3337 9.1866 31.7136 9.18367 31.1131 8.97258C31.0043 8.93453 30.7761 9.07042 30.6728 9.19C30.1619 9.76071 29.6672 9.59765 29.0911 9.27696C28.2431 8.80952 27.5692 8.88018 27.0746 9.66831C26.1125 11.1957 24.6232 11.8044 23.0197 12.2447C21.9 12.5491 20.9162 13.0926 20.0357 13.821C18.7258 14.908 17.5354 16.093 17.6006 17.9899C17.6169 18.3704 17.3615 18.4465 17.0625 18.5117C15.7254 18.7944 15.0949 19.7673 14.7253 20.9631C14.459 21.8491 14.4535 22.7622 14.6275 23.6645C14.7997 24.5583 14.9873 25.4521 15.1765 26.3529C15.2381 26.6463 15.2998 26.9404 15.3612 27.2355L15.3487 27.2322C14.7357 27.0669 14.7042 27.0585 14.8014 26.5942C14.9427 25.9093 14.7144 25.4255 14.1165 25.0994C13.6111 24.8256 13.1383 24.5061 12.6652 24.1865C12.5278 24.0936 12.3904 24.0008 12.2522 23.9091C12.2186 23.8867 12.1842 23.8634 12.149 23.8396C11.7073 23.541 11.1555 23.1679 10.6922 23.4851C10.0855 23.896 9.60465 23.7189 9.09111 23.5298C9.02043 23.5037 8.94914 23.4775 8.87681 23.4525C4.67435 22.0089 0.430401 20.723 -4 20.3377V20.8766C0.298825 21.2442 4.40393 22.4623 8.47459 23.833C9.74104 24.2569 9.75734 24.2841 9.0453 25.3929C8.82092 25.7444 8.59124 26.0929 8.36166 26.4412C7.29545 28.0587 6.23123 29.6732 5.70796 31.5784C5.62099 31.8882 5.46883 31.9589 5.15901 31.9263C4.06106 31.8067 2.95766 31.6926 1.85427 31.6219C1.45154 31.5958 1.28033 31.3381 1.10332 31.0717C1.09638 31.0612 1.08943 31.0508 1.08246 31.0403C0.663931 30.4152 0.169306 29.8554 -0.586216 29.3064C-0.314445 30.1 0.0877686 30.6055 0.528036 31.0675C1.98991 32.6052 2.9556 34.4557 3.92473 36.3127L3.93604 36.3344C4.97416 38.3223 5.34051 39.1461 5.97187 39.6067C6.58345 40.0528 7.44369 40.158 9.40406 40.6501C10.5962 40.9499 11.7976 41.2005 12.9993 41.4511C13.6275 41.5822 14.2559 41.7132 14.8829 41.8513C15.0211 41.879 15.1526 41.9241 15.3069 41.9771C15.3954 42.0075 15.4914 42.0405 15.6004 42.0742C14.8557 42.5525 14.9916 43.145 15.2308 43.7646C16.2146 46.3084 17.3125 48.7923 18.7584 51.1133C18.9106 51.3579 19.0736 51.5916 19.253 51.809C19.8129 52.4775 20.177 52.4341 20.5466 51.6568C20.9108 50.8904 21.2858 50.1295 21.8131 49.3631C22.2533 49.9283 22.6664 50.4556 23.0904 50.9774C23.2729 51.201 23.2218 51.4208 23.1685 51.6496C23.1583 51.6933 23.148 51.7373 23.1393 51.7818C22.7963 53.6165 22.1577 55.3546 21.5199 57.0906C21.2885 57.7204 21.0572 58.35 20.8401 58.9837C20.6112 59.6506 20.4092 60.3232 20.2274 61.0001H20.5474C21.0307 59.2648 21.6268 57.5594 22.2642 55.8692C22.7371 54.6137 23.1013 53.3418 23.3676 52.0373C23.4709 51.5155 23.6666 51.0915 24.1829 50.8361C24.509 50.6784 24.8623 50.4719 25.0743 50.1892C25.9279 49.0499 27.0493 49.1092 28.1706 49.1685C28.6059 49.1915 29.0411 49.2145 29.4607 49.1674C29.602 49.1511 29.7053 49.2 29.7433 49.3902C29.9276 50.3494 30.5657 51.0547 31.1836 51.7377L31.1891 51.7438C32.2599 52.9287 32.7002 54.3691 33.0426 55.8747C33.1523 56.3513 32.9107 56.3473 32.6407 56.3427C32.6028 56.3421 32.5644 56.3414 32.5262 56.3421C32.3262 56.344 32.1262 56.3457 31.9262 56.3473C30.3924 56.3601 28.8591 56.3728 27.33 56.4834C26.656 56.5324 26.3244 56.7715 26.0907 57.3857C25.6418 58.5828 25.2216 59.7885 24.8215 61.0001H29.394C29.5473 60.724 29.7147 60.4547 29.8901 60.1904C30.2271 59.6903 30.5097 59.5816 30.8358 60.2176C30.9669 60.4767 31.0926 60.7372 31.211 61.0001H34.5163C34.0679 59.1442 33.6255 57.287 33.2655 55.4127C33.0698 54.4017 32.7219 53.4396 32.1893 52.5645C31.9555 52.1895 31.9392 51.934 32.2654 51.6133C32.7636 51.1238 33.1582 50.5479 33.5648 49.9545C33.6683 49.8034 33.7727 49.6512 33.8797 49.4989C34.2521 49.9468 34.4039 50.4343 34.5534 50.9145C34.5872 51.023 34.6209 51.1311 34.6569 51.2383C34.7548 51.5372 35.0048 52.021 35.3255 51.4503C36.6354 49.113 37.5105 46.6562 36.9996 43.9059C36.9873 43.8447 36.9659 43.7836 36.9445 43.7224C36.9374 43.702 36.9303 43.6817 36.9235 43.6613L36.9235 43.6613C36.5159 42.3949 36.5159 42.3949 37.8258 41.9057C38.5689 41.6292 39.3124 41.3518 40.0563 41.0743C41.886 40.3916 43.7178 39.7082 45.5495 39.0358C46.4626 38.7042 47.104 38.1335 47.6095 37.2693C47.8878 36.792 48.1651 36.3139 48.4425 35.8356C49.8015 33.493 51.1621 31.1475 52.6427 28.877C52.6593 28.8513 52.676 28.8255 52.6928 28.7996C52.9456 28.4103 53.211 28.0017 53.1753 27.4258C52.5505 27.8128 52.2657 28.3878 51.9881 28.9483C51.9421 29.0412 51.8962 29.1337 51.8491 29.2249C51.6752 29.5619 51.4795 29.7195 51.0936 29.7793C49.5227 30.013 47.9628 30.2848 46.3974 30.562C45.9843 30.6381 45.7941 30.5131 45.669 30.0946C45.1702 28.4756 44.4424 26.9517 43.7154 25.4293C43.5393 25.0606 43.3632 24.692 43.1905 24.3222C42.8916 23.6753 43.0274 23.4579 43.6308 23.2188C47.9845 21.5012 52.3655 19.8814 56.9964 19.0716C58.3846 18.8281 59.7974 18.6637 61.1972 18.8463V18.298ZM29.1172 31.456C29.1073 31.4779 29.0942 31.507 29.0748 31.5458C30.7054 31.6328 31.0533 31.2197 30.7271 29.6869C30.7071 29.5937 30.6786 29.5012 30.6497 29.4069C30.569 29.1441 30.4841 28.8678 30.5641 28.5237C31.0641 29.1597 31.5696 29.7195 32.3523 29.888C33.1187 30.0511 33.8634 29.9206 34.6732 29.5891C34.6377 29.9875 34.6082 30.3843 34.5789 30.7789C34.447 32.5539 34.3184 34.2849 33.6514 35.9213C32.7545 38.1226 30.9717 38.9923 28.6508 38.4923C27.3409 38.2096 26.1668 37.6335 25.058 36.8888C26.0201 38.4216 27.9659 39.2641 30.2162 39.0847C30.7597 39.0412 30.9391 39.1662 31.1076 39.6554C31.2186 39.9815 31.3403 40.3042 31.462 40.6268C31.8291 41.6002 32.196 42.5727 32.2654 43.6341C32.3034 44.1505 32.1893 44.4495 31.6185 44.6125C28.5965 45.4767 25.6233 45.2593 22.6773 44.2592C22.4979 44.1994 22.2914 44.0962 22.1827 43.9494C21.1608 42.5362 20.3183 41.0252 20.139 39.2586C19.9814 37.7367 19.8509 36.2039 19.8454 34.6766C19.8454 33.7254 19.378 33.4265 18.5899 33.3449C17.8017 33.2634 17.1767 32.9264 16.7853 32.2307C16.4429 31.6165 16.269 30.9751 16.6984 30.3065C17.0299 29.7793 17.4919 29.4858 18.1115 29.5565C18.7149 29.6271 19.2584 29.8282 19.5248 30.4696C19.5403 30.5072 19.5557 30.5451 19.5712 30.5831C19.8371 31.2358 20.1121 31.9107 21.0521 31.736C21.6609 31.6219 21.9218 30.8827 21.7804 29.7739C21.7261 29.35 21.65 28.9315 21.5739 28.5131L21.5739 28.5129C21.5673 28.4753 21.5575 28.4368 21.5478 28.3987C21.5012 28.2158 21.4566 28.0407 21.7804 28.0182C22.0577 27.9965 22.1772 28.0998 22.2044 28.3987C22.3675 30.3718 24.4492 31.5458 26.5854 30.7903C27.8138 30.3555 28.4117 29.4749 28.4551 28.2302C28.4769 27.7193 28.7324 27.6541 29.1128 27.5617C29.5871 27.4468 29.6533 27.7355 29.7241 28.0445C29.7304 28.0719 29.7367 28.0995 29.7433 28.1269C29.7797 28.2712 29.8145 28.416 29.8494 28.5609C29.9603 29.022 30.0712 29.4835 30.2325 29.9261C30.5478 30.7849 30.1456 31.1327 29.3846 31.2903C29.3178 31.3037 29.2545 31.339 29.195 31.3723C29.1819 31.3796 29.169 31.3868 29.1563 31.3936C29.1423 31.4006 29.1351 31.4166 29.1172 31.456ZM48.4236 30.5636C49.3674 30.4094 50.3311 30.2518 51.3382 30.0891C50.8297 30.9611 50.3283 31.8183 49.8322 32.6664C48.8223 34.3929 47.8345 36.0817 46.854 37.7802C46.6692 38.1009 46.3648 38.2477 46.0604 38.3835C44.085 39.2538 42.0614 40.0012 40.0382 40.7484C38.8772 41.1772 37.7163 41.606 36.5647 42.0579C36.3147 42.1557 36.1571 42.1503 35.9886 41.9274C34.9015 40.487 33.4177 39.6609 31.6947 39.2152C31.6496 39.2013 31.6112 39.1632 31.5682 39.1205C31.5437 39.0962 31.5177 39.0703 31.4881 39.0467C31.6552 38.8148 31.8949 38.6942 32.1323 38.5748C32.2733 38.5038 32.4135 38.4333 32.5371 38.3401C33.3579 37.7204 34.0101 36.9323 34.2275 35.9539C34.6142 34.2242 35.9103 33.4039 37.2201 32.5751C37.3097 32.5184 37.3994 32.4617 37.4888 32.4046C37.5435 32.3667 37.6046 32.3419 37.6648 32.3175C37.6824 32.3104 37.6998 32.3033 37.7171 32.2959C37.863 32.2355 38.0079 32.1617 38.1526 32.0879C38.4767 31.9228 38.7996 31.7582 39.1303 31.7469C39.5173 31.733 39.6001 32.0367 39.6858 32.3509C39.7337 32.5265 39.7825 32.7054 39.8858 32.834C40.6957 33.8341 41.2555 33.9374 42.1578 33.0677C42.5499 32.6899 42.9925 32.7581 43.4227 32.8244C43.4815 32.8335 43.54 32.8425 43.5982 32.8503C45.0168 33.0405 45.6745 32.6003 45.9354 31.1871C45.9799 30.9593 46.0832 30.9435 46.2245 30.922C46.2383 30.9199 46.2525 30.9177 46.267 30.9153C46.9812 30.7994 47.6965 30.6825 48.4236 30.5636ZM2.27973 32.6598C2.15602 32.4642 2.02677 32.2598 1.89233 32.0404C2.14324 32.0617 2.38728 32.0829 2.62601 32.1036C3.42675 32.1733 4.16786 32.2377 4.90897 32.2796C5.3438 32.3068 5.45796 32.459 5.46883 32.9047C5.50144 34.057 5.82213 34.3505 6.99618 34.3124C7.79518 34.2853 8.49634 34.4537 9.15946 34.9103C9.52363 35.1658 9.96931 35.3343 10.3987 35.4539C11.4206 35.7365 12.1707 35.3343 12.524 34.3179C12.7088 33.7852 12.8555 33.2308 12.9534 32.6764C13.024 32.2415 13.1382 32.1111 13.6111 32.2415C14.372 32.4535 15.0406 32.7633 15.6004 33.3232C16.5299 34.2581 17.5572 35.0571 18.8834 35.3506C19.253 35.4321 19.3128 35.6604 19.3291 35.9648C19.3443 36.2284 19.3586 36.4922 19.373 36.7562C19.4201 37.6247 19.4673 38.4949 19.5465 39.3619C19.5791 39.7315 19.4324 39.8783 19.1389 39.9979C18.1116 40.4218 17.1549 40.9654 16.2635 41.6339C16.0842 41.7698 15.8993 41.8622 15.6385 41.8024C14.8906 41.631 14.1416 41.4644 13.3925 41.2978C11.2672 40.8251 9.14155 40.3523 7.03964 39.7696C6.29499 39.563 5.80037 39.1228 5.45251 38.4705C5.09128 37.7976 4.73415 37.1227 4.37712 36.448C3.91219 35.5693 3.44743 34.6909 2.97397 33.8178C2.76864 33.4328 2.53612 33.0652 2.27973 32.6598ZM34.7552 24.5377C34.8323 24.6694 34.9229 24.8241 35.0374 25.0233C34.4173 24.6383 33.8893 24.5891 33.3771 24.5413C33.3325 24.5372 33.2881 24.5331 33.2437 24.5287C32.1566 24.4417 31.1294 25.1103 30.6674 26.1267C30.1836 27.1921 30.1836 27.1921 29.3737 26.2517C29.3614 26.3309 29.3594 26.4123 29.3575 26.4922C29.351 26.7634 29.3449 27.0169 28.9335 27.1051C28.5965 27.1757 28.5149 27.1323 28.3899 26.8388C27.8246 25.5016 27.0528 25.0342 25.5526 25.0777C23.8894 25.1266 22.8241 25.8115 22.3512 27.1323C22.333 27.1842 22.3232 27.2448 22.3133 27.3059C22.2819 27.5005 22.2497 27.6998 21.9435 27.6378C21.6392 27.5725 21.3565 27.4421 21.3347 27.0399C21.3228 26.8028 21.2992 26.5669 21.2756 26.331C21.2457 26.0314 21.2158 25.7321 21.2097 25.431C21.1989 24.8222 21.3185 24.3765 22.0468 24.0884C22.9382 23.7351 23.373 22.8111 23.7263 21.936C23.922 21.4523 24.2101 21.1261 24.7427 21.2783C26.2013 21.7002 27.6562 21.5736 29.1197 21.4463C29.4286 21.4194 29.7379 21.3925 30.0477 21.3707C32.5534 21.1968 33.0698 21.5664 34.521 24.1319C34.5917 24.2586 34.664 24.382 34.7552 24.5377ZM26.8789 30.1924C26.4114 30.4098 25.9059 30.4913 25.4602 30.4642C23.8296 30.4587 22.7588 29.4804 22.699 28.0019C22.6501 26.7844 23.7698 25.7136 25.2156 25.6321C25.6939 25.6049 26.1886 25.594 26.6506 25.6864C27.5583 25.8712 28.0964 26.5126 28.1725 27.3823C28.2975 28.7466 27.8409 29.7413 26.8789 30.1924ZM22.8893 45.0256C26.0092 45.83 28.9226 46.0094 31.9175 45.2919C31.483 45.6781 31.3781 46.1966 31.2735 46.7129C31.1662 47.2431 31.0593 47.771 30.5967 48.151C30.5683 48.1744 30.5407 48.1977 30.5135 48.2208C30.3316 48.3749 30.1649 48.5161 29.8955 48.5586C29.0079 48.6961 28.1172 48.6867 27.2257 48.6772C26.9543 48.6744 26.6829 48.6715 26.4114 48.6728C26.156 48.6728 26.0038 48.5369 25.8298 48.3793C25.2398 47.8356 24.7376 47.2182 24.2055 46.564C23.8012 46.0671 23.3797 45.5489 22.8893 45.0256ZM38.9074 31.4208C37.4398 31.8828 36.0593 32.5187 34.82 33.5787C34.8552 33.1718 34.8858 32.7641 34.9163 32.3562C34.9893 31.3799 35.0624 30.403 35.2005 29.4369C35.2519 29.0647 35.3827 28.7146 35.5149 28.3607C35.6763 27.929 35.8397 27.4917 35.8636 27.0018C35.8784 26.7172 36.2249 26.6613 36.5734 26.6051C36.7374 26.5787 36.9017 26.5522 37.0322 26.5018C37.3915 26.3677 37.5233 26.694 37.626 26.9481L37.6301 26.9583C37.8801 27.5888 38.1261 28.2221 38.372 28.8553C38.618 29.4885 38.8639 30.1217 39.114 30.7522C39.2335 31.0458 39.3042 31.2958 38.9074 31.4208ZM33.4774 24.9798C34.8091 24.969 35.5048 25.6756 35.5103 27.0507C35.5212 28.5074 34.6298 29.4314 33.222 29.4314C31.8903 29.4314 31.0098 28.5835 30.988 27.279C30.9663 25.8984 31.9392 24.9961 33.4774 24.9798ZM18.3936 33.8479C18.906 33.9431 19.4237 34.0393 19.1932 34.856C18.117 34.6603 17.2473 34.0896 16.4864 33.3667C15.6548 32.5731 14.7742 31.8774 13.6111 31.6763C13.2197 31.611 13.1816 31.4425 13.2958 31.1164C13.4565 30.6532 13.6141 30.1889 13.7718 29.7245C13.9768 29.1209 14.1818 28.517 14.3938 27.915C14.4019 27.8915 14.4092 27.8648 14.4169 27.8369C14.4556 27.6967 14.5023 27.5272 14.6927 27.5997C14.7757 27.6307 14.8692 27.6489 14.9636 27.6672C15.234 27.7198 15.5114 27.7738 15.5678 28.1324C15.6144 28.4257 15.6938 28.7107 15.7734 28.9964C15.9446 29.6109 16.1167 30.2284 15.9646 30.937C15.6874 32.2252 16.8342 33.5352 18.2638 33.8232C18.3067 33.8317 18.3501 33.8398 18.3936 33.8479ZM23.6511 50.5011C23.6377 50.5098 23.6247 50.5183 23.6122 50.5262C23.4285 50.5576 23.3408 50.4449 23.2548 50.3343C23.2365 50.3108 23.2182 50.2873 23.1991 50.2653C22.0468 49.0152 22.0685 48.6075 23.248 47.3628C23.6611 46.928 23.9111 46.8356 24.3731 47.352C25.8353 48.9826 25.7863 49.3957 23.8187 50.4012C23.7585 50.4313 23.7018 50.4682 23.6511 50.5011ZM32.0948 50.9124C31.9473 51.0937 31.794 51.282 31.6348 51.4829C31.5876 51.415 31.5481 51.355 31.5125 51.3009C31.4541 51.2121 31.4063 51.1394 31.3522 51.0752C30.0477 49.575 30.0694 49.0587 31.4337 47.5857C31.6294 47.3683 31.7816 47.352 32.0044 47.4661C32.0385 47.4839 32.0731 47.5013 32.1076 47.5187C32.1998 47.5652 32.2925 47.6119 32.3795 47.6672C33.6459 48.4499 33.7166 48.7489 32.8632 49.9338C32.626 50.2595 32.3704 50.5737 32.0948 50.9124Z" fill="#101223"/>
</g>
<defs>
<clipPath id="clip0_85_7541">
<path d="M0 8C0 3.58172 3.58172 0 8 0H48C52.4183 0 56 3.58172 56 8V48C56 52.4183 52.4183 56 48 56H8C3.58172 56 0 52.4183 0 48V8Z" fill="white"/>
</clipPath>
</defs>
</svg>
